<mxfile host="app.diagrams.net" modified="2021-12-12T13:01:03.081Z" agent="5.0 (Windows NT 10.0; Win64; x64) AppleWebKit/537.36 (KHTML, like Gecko) Chrome/96.0.4664.93 Safari/537.36" etag="35MkfiGqdvrQTdtUuOgT" version="15.9.4" type="github">
  <diagram id="i-3o6CZF8qMaGYNe9hnP" name="Page-1">
    <mxGraphModel dx="2272" dy="754" grid="1" gridSize="10" guides="1" tooltips="1" connect="1" arrows="1" fold="1" page="1" pageScale="1" pageWidth="850" pageHeight="1100" math="0" shadow="0">
      <root>
        <mxCell id="0" />
        <mxCell id="1" parent="0" />
        <mxCell id="IQfeueKZzxO45EZ7t45Q-2" value="" style="shape=image;verticalLabelPosition=bottom;labelBackgroundColor=#ffffff;verticalAlign=top;aspect=fixed;imageAspect=0;image=data:image/png,iVBORw0KGgoAAAANSUhEUgAABEYAAAKuCAYAAACsfxnAAAAgAElEQVR4nOzdeVxU1fvA8c8M+74J6OCKbOaCu5lkpbiQpS0aaYXtUea3yPaFirLlV4ZlJu1FZWGrmpGKmUqZlSkuBYq4j4Ky78vM/P4YtoEBhnVQn/frNS/xzrnnPHfokvfhnOcodDqdDiGEEEIIIYQ4By1dfYala86aOwwhxDlMae4AhBBCCCGEEEIIIcxFEiNCCCGEEEIIIYS4YFmaO4CuVlFZxZ49B0nZe5AT6izSDhwjP7+IgsJi8vOLyC8oYtgQP/bsS8fF2RFnZwdcnB1xcXEkKKAfvXp6MHSIH8OG+GFvb2vuy+lSR4+dZs++dFJTD5NxRE1+QTEFBUXkFxj/7FxcHHFxdsDFxRFnJwd8+/swaFB/hg3xo2+fnua+HCGEEEIIIYQQAsWFUGPkh7Vb+OPPfWzZtouMjBMMG+ZP8FB/Lhk3FDs7m9oHd/2DvD4ZUlBQTH5BUe2f+flFlJVVsP3Pfezdl86efen06unB6JEXccnFQ7nm6stwdnYw96V2qMQN2/nt9xT27Etnz950XF0dGTbEj9GjBuHl6Y6LswPOznXJj4afnT5ZUlybeMrMyuHvnf+xZ186+flFDBvqp/8+jB9G2NTx5r5cIYQQQghxDpIaI0KI9jpvEyOJ63/n29W/8v3qzcycMZFrZl5GoH9fggL7d9gYhzJOsv+/DDZt/osf1m5h1Iggrrn6snM6SfJjYjLfr9nCD2t+5baIqxnQX8WwIX4MG+qHi7Njh42TX1DEnr3ppOw9yJGjp/jksx+5ZublXHP1RK4KC+mwcYQQQgghxPlNEiNCiPY67xIjb7y5kp83/kGPHq5cP+tyrp11BUqlokvG3rxlJz+s3cIPa7cwfcolPLboZnwH+HTJ2O2xe88BPv1sHZ99mUjY1Eu4duZlXDPz8i773AA0Gi0/rPmVH9Zu5eeN27llXhi33nIVw4b4dVkMQgghhBDi3COJESFEe503iZFHrlLxxT/NNAiOJjkxEt9OiyCJKFUExKuJDYVvv1/CowuW4DH+Ab6OnU+/vt2vpkbagaO8+MrHnDiZxUP/m8uV0ydgYWH+erxVVRoS1//O60u/oF/fnjz9+O0E+Pc1d1hCCCGEEKIbksSIEKK9zvnEyB9/7uOOyMUMc9jCFvvHSV7/v05MfrSGPlGScfenHE38lOtmXUH0k3eYOygAjhxRs/i1T9i77xBPP35bt166svanZF585SOGDfXjqUdupX9/lblDEkIIIYQQ3YgkRoQQ7WX+6QHtsGzFKp5f/AEb173FHaMBpbW5Q2rEN2QKu3d8ztAhfgwdPY/DR9RmjefdD75n0ZPLmDb5Yl4cmcjdd9yASqVq/IpKqndWElEqFQaHusjVV4awY+tHTJt8MYuefIv3Pvyh64MQQgghhBBCCHHeOmcTI/PvfJ4zZ/JIXL0UVS9P00/MiCNMpSIqSf+wX5MICIvLqH2v5ljDREBSlGHywPD95pMH1868jMTVS7l+7uPEf/FTay+3Q8y/83kOH1Xz7cqXmX3dJP3B4GiS1WrUBq94whMiUIXFkWGWSBubfd0kvl35CocOn+DWu2LMHY4QQgghhBBCiPPEOZkYuT3yRWbNvIyY6Lvb3EdCxBICk/WJgOToYFJiQlCFpLFIXXcsISKKmjxHUpSKCOJrkwf698OIa0XmoLePF/9sj2fzln9Ys25bm2NvrWPHT+M/5Hquv3YSr7ywwIQzQomND4eU1WzoLpmRaq++eD/XzrqcwGFzOKk+Y+5whBBCCCGEEEKc4865xMhV1z3E3DnTuG7m5Y3fTIkhxNiykJoZIfUERy8nsroYie/UWQQDwdELCaX+sQTWJQEksS4hmOiFobXn699PIa0NiYOP33ua7Tv2sHTZV60/uZVOn87mjsjFbN/yETNnXGr6ib6Bja8vvfkZNSRFNfOZ18yoMZyp07CPjLiwZr9vALOumsi2Te9x610xZGXlmH5NQgghhBBCiHOKvasNXgNdUQ3ugc8QT1RDPFEN9qTXYE96XeRJz5rXIE+8B3niHeSJV5AnXoGeeAZ64hngSY8AT3r4618e/p54+Hni7ueJ2wAPnFSuWNl3v5IMomtZmjuA1nj0qbeZddVEpkweY7xBK3aeCfJr3MrYMb1QYtV1SRGSolBFJOjPMWEsY16OWcAd9y7mux82c901V7Sxl+ZlZuZw+fR7Sd29qvUnZ6SRQjCz6n0kCTGriU5Wk+irT2CERIQRmJyoTzBVfybh1bvy6BMhIajS4lHH1n12CRFLiE5WozbSR0ZcGCExEJ2s1veZEUdYSAhhJJMYafi98fJ0Y+O6ZQQOm8O2Te/h5enWlo9ICCGEEEII0Q159HPGZ0gPbJ1tqNkuRKdr+WVKO2NtygvKyMs4Q2l2kXkuWJjVOTNj5IsvE7GytOCu268xy/gGMxkiID45muB29vnhiqf48puN/LXz3w6JsaER429h1/bP2nBmElERCRC+iPr5iMazbGpmlGQQtySB4Ohk6nIg1ctxEpYYLDdquo8klsWkGLyPbySJ8eGkxCyjqbqv/2yPZ+T4iDZcoxBCCCGEEKK7UVoo8A/xwW+CT21SRKcDrbbu1VzSw5R2xtpYOdrSY2gfXP17gkJh7o9BdLFzIjGi0+lYuOgNFj9/r3kCyIhjQUwK4fE1xUljCW35LJO8tnghdy94uYN6q3Np6D1sWPsWdnY2zTc0uvwogtToZIOZHtBgRo2vX91smYwNrE4xMuPGyHKcJvtIWkcCwcyaaqyPmiVNjTk42JG4eikTQ+9p/jqFEEIIIYQQ3ZpCocD/0t649XFud/KjfrvW9OXQyw1X/17m/ihEFzsnltIsXfYVDy680XwBZKSRQjiLQhsea/tSmhr9+/Vi7OjBrPo2iRuu75h0y+JXP+G2m2cwZPDAlhu3YvlRq9VPfJgkhZgQFcb2nGmun6GDBzL/5hm89H+f8OSjt7ZqRCGEEEIIIUT30GuQOy69HNu0PKY9y2gavmw9XbDLK6Y0K988H4TocufEjJHYt78k6v655gug0ayF6qUmQGp6+7dteWzRLby6pC1LXhorL69g2YpV3H7rzA7pr10y0klt1QnB+vojjbYPVhPbQs7ojltn8tbyBMorKtsRsBBCCCGEEMIcLKyU9Brco0NmiLR2GY2xl0MfrxaX1FhZKrCxUqBs0EypABsrBZYWjc+3sdKf05kcbJQM629Lf6/OLSp7UV9bhvW37dQxukq3T4x8+fUG7o+cg5OTfcuNm9mVRqVq3da6BnwjWR4dTEJETV/6rX7jwyElZkHb+63pfoAPV4WFsHZdcvs6Al594zMee+iWdvfTKr5TmRVsJElUXcA10JTpKKEzCG/jLj81Ho66mddjP297B0IIIYQQQgizcO/jjEKp7JDkR1uX0dR/KawssXZxaDbmN+5QkRYXxP1X9TA4vuhaT9Ligvj+qf4Gx4f0syUtLoiNL5gws78dLupry5pnBhA917tTx0l4tB9rnhnQqWN0lW6/lGbP3nT69enZYrvQWDXqWFN6jCRRHWl4yLflY76RiTRsgsGYocSq1fUjavD35jk725Oy9yBXzwgx+ZyGNBotby1P4OyJDW3uo218iVwUTkxECFF+9XaliUiA8HgiTVqnE8rC6GDDnW6ApCgVEQnBRNc71pSHH7wJt16hPPXYbe27HCGEEEIIIUSXcvSyN2n5i6UCPJSVoNXpjynq3q/5s6RSQZ7GgiqFsl3Lciyd7KnIa3qXmq37i7l6rDPjAu1hbd3x0OFOAAzpa0tPN0tO51YB6NsByf/KzjfdTbdPjBzKOMmky0aZO4xOF+Dfj6+/bWrvFdMkfLORu++8toMiaqXQWNTxoIpQkVB9KDg6GbVpWRFAn3xKJowQgzoj4cS3otjt3Xdcw6rvkrjhuo4qjyuEEEIIIYTobNZ2Vi0mKzwtNfxfCHi5WJnU59EzlWw5WMEvJy05VGbT6iSJwqr5cZL36xMcIwfaYWmhoEqjo3cPKwJ99BtgKBQwaZgTK7fkAnBxdWJk677i2j5srRUEqGwor9Rx6FQFVVpd7Xs93SyxtVJyIrsSSwu4qI8tWflVnDhrWD5AoYB+nta4OlqQeqKsyXjtrJUE+NhQVqE1GMvSQkFvDyvKKrWczq2iv5c1RWVazhZUYalUENTHBnsbJRmnKzhbUGW0b2d7CwJU1hzOqiS7QRulAgb2ssHDyQJ1TiXHztTF7+Viib2NEnVOJVaWCvr0sCL1RDmgX6rkr7JBARxUl1NRpaOzdPvESMbhE/gO6G3uMDpdoH9f0g4ea1cfBw4ew9vT3eT2obFqTJvTYmz2i5FjobGom5y2Y1ofRmfmtEJPLw9S0462vQMhhBBCCCFE16u3jAaMJyou61GBl4udyV3287QiwtOKCGDj3hLi9lpxqsJ4AsbYmCibrzxxKreK9FPl+PWyIXiALTvTS5lSPVtkzY4CZo5zJnS4Iyu35KJUwNgAe6q0On77T58YuTfMgwdnedbWHMkp0vDcytOs2VEAwNuRvRntZ8eba85y35UeWFnq232clMPzX2YCoHK3Ytk9Pozy038uJeVaPv81t1GsN13uxpM3eOFgo7+mI1kVPPi+mt0ZpfTzsmLTiwNJOVxKQamWSy9y4PFPT/HvsTLeXdCbXu76BJFGCyu35BL9xenazwzggZk9eGCmJ0oFVGl0RH+RWZsMCh5gx9K7VAzwrqt38vM/hSxYcQKNFl6/XcXEIQ6sSMzmrmnuZJyuYOozGUwb6cRLt/TEw1mfsjiTX8Vjn5zilz2dM9um29cY6dWzBwN9fcwdRqcL8O+Ll6dbu/o4kH6cAL8+HRTRuSkgoC8HDrQvwSSEEEIIIYToWqbU/jhR0vbH1ylD7fnkWgtGOJWaXG8EEyYobN2vT3KMC9DPBpkc7AjAkh/OcLagigmDHLCzVhLUxxYXewtSMsooLNUyJ8SVx2Z7UaXVsXJLHmv/LMDF3oI376pLctS4c5o7n/6Sy5odBWi0cFuoe+2slNdv78UoPzsOqsuJXX2GzXuLuHuah8H5E4c4sPiWnuQVaXhr7VmWrztLT1crVtzng4Nt3WcaPMCOMX72/Lq3iKNZFbxwc096uVsR/0suT312msOZ5dxyhRtXj3U26H/uRDdW/HSWbfuLsbRQ8MyNXthZK7GyVPDh/3rj42FFXGI2j3x8igPqcqaPdGJSsJNBH/eGeZCurmDrvmICfWxYHumDQqHg/fU5vP79GSwtFCyL9KlN0nS0bj9jRH3qLBmHT+I74PxOjhxMP05mVk67+khPP47fhZ4Y8evLgXRJjAghhBBCCHGuaWkpzW85Nrz8azlD3LS1v+FvmLtQAPbWCnq7KvHvZbgri5OdkmXX2fHQ9yX8ntN0TZPaZIkJiZFt+4u5PdSdiwMdiN+cy8WB9hxQl3M0q4Jf9hRxQ4grIYMd6ONhVd1eP+Phnun6mf53LTvB79UzSHaml/LcPG/umubBzvQTtWO8+FUmX27NA8DZXsnlQx3x97GhokrHJYMcOFtQxbUvHaGoVAvA2Zs0zJ9U90v3u6oTJTcvOcbhzAr956RQcN+VHlwyyIGM0/qlKxotXP/yEfYf0y/H8Xa1okqj47PNuRxUl/P3wRImXORQWzOlxr3vnGBXRikKBSS/6oePhxV9elhRWKrh81/zSFeX8+NfBVgqFYRc5ECAygZfb8PvzarkPB79+BQAL8/vhaWFgv+9d5Lkf/WfTXZBFS/P70XYSCc+Smrfc7Mx3T4x4jvA54JIjKQdPEqgf7929eHt7Y7/wAs7MeLv1wdvL9OXEwkhhBBCCCHMr2a2BjSfqNiUZcOmLNMKqPawquLa/hXcNNaudhmKUgEvzbDlllUVHCmxbrHWSEv+SC2hskrHKH87Jg9zxNJCwabd+uRH0m59YiQ02BE3RwtAP8PEylLBAG8bSiu0tUkRgF/2FPLcPG/8e9kYjLHnSF3dkIzMCi4fCrZWCvxU+nY7DpTUJkUAft5ZYJAYGdRb327ds3U7yNRsJTywp3VtYuRwZnltUgRg9Y587pnuwcYXfMkuqOLPg6Vs21/M3wdLDOLbe7Ss9jM8klWBj4cVttYKDqir2LyniLkTXVl0rSd9eljVjttwldLaPwsaxfve/XUlNSyq90T27dk5WxB3+8TIQF8fDmWcJHSSuSPpXAcOHCMgoG+7+sjMzOHgoeMXdHKkI2beCCGEEEII0Vq21grKK3UmPUxbWSoY429PxunyRr99NxeFAmysFJRVdF6By+aYWvejNW2yyi2JS7Xkl+MVLAmzwNNZn5ywt1HyxAQt92xovj9TltKUVmj5O72U8UH2LLxav21vUkohAMn/FlNRpWNysCMWSgUFJRpSDuuX8lRpdFhZKLBUKgyKoAKUVWoNxqjSGA+kvLqdrZVhlsHexvDvVRqoqNKx7MezjfrYmV5a+3X95ArAy19n8ft/JVw62IGQixyYPtKJsFFO9HK3ZMn3Z1qMb2g/W755vB95xRq+2pbHvqNljA+y59bJjX+RXX/squov31+f0+izSKsuzNrRun2NkWFD/CgoKm65YWslRaFShRGXUfNXFSqV8VdU+zaLMUlBYTHBQ/za1YefXx/S0493UETnpgPpxwjwa1+CSQghhBBCXJg8nC2JmuXZ5GtQH1uj51kqFbx5lw8zG9ReaIqNlYJ7prtzkZH+wkY5ERnmgULR+Lybr3Aj/FLXVl2TqcYHORB3X+/aYpddrbm6H80ud2miHkn9V2qhNQvXaSitqHvIHu1ryyU9GtcbMejPxNhrlsf49bIhp1DDrkP6ZENJuX5GSA9nS9wcLfjtvxI0Wv3Ml/+Ol2FpoSB8Yt338+bL9bM8/j3W9M4y9R04WY5OByEXORBUPcvC2lLB7VMMEw//Hi/D2lLB9tQSVvyUzYqfsjl8ugIHGyV5xRqjfbs7WrDivt5cNcaJV7/NYvqzGdz2pv5Zc4SvaQVwJw5xxMpSwUcbc1jy/Rk27ipkcF/j95BBvNXXf+h0eW28uw6V4mCjpKDEeLzt1e1njMwLn4Z33+k8sOBGrK06OdzgaJITIzHYYDYjjrAQFarweNSxnbMFrPrUGb7+7heee/qudvXjP7A3Bw+dIKyD4joXHTx4HH//C3fGjBBCCCGEaDutVkd+9YOXvY2SMf52pJ4oJzNPP6ujsontQqu0OlbvKDBYhtBWOUUabpxoz/p/CmvrQYD+QXXKcEdWbctv9xjGHFSXs2ZHAflFnfPg2RJTlsaYOovEWLv0QmtWbC3hoVD72jGvHQRbM5vpR2skUCO27S/m0ev1X2/eW2RQmyQppYjLhzpWt6vbUeWVb7L48pF+LL6lJzdOdMXWSr81bWmFlrfWNp7ZYczp3Cq+257P9Ze48MNTA9hzpJQ+nlY421kYtHtzzVkuG+LIyof78ktKEc72FoQMdiArr4oVP2XT073xc3ZOkYYB3tYE9bYhwMeGfw6V1haY/SOtpFF7Y9Q5+m15b5/ijo+HFUP72xLo03JiJC4xm+snuPDGHSpmjHZGqdAnWSqrdLW1Vjpat58xAnD/fTfw9jurzDO4bySJ8eGQsKR2dklHe33pSh5+cF67+wnw68upU2dabtgqGcSFqVCpojA2cSYpSoUqLI5O+mha7aT6DEEB7avVIoQQQgghLky5RRo+2pjDRxtz+PZ3fQJiy77i2mPpp8oJ9LHB3kaJvY2SsQH2tTUPMk6XU1xW9yStUMAAb2suDrRnuK9do+UNTdmdUUp5pY6LA+0Njo+teSg9UPdQ6uViyfggewb3tcXasm6KibWlgqDeNigV4O5kwSWDHPBy0T/82tsoGeFrxyWDHPBX2WBRHVZFpY5/j5fpq5fWu4b+XtaMD7JnUB9blA1msdR8Fi72Fozys2O4rx221kamupjA1NkfprRpqt2qDDuD79GEAFusFdqm+zMx9n3Hyjh0qoKzBVX8vLPQ4L1Nuws5k1/F2YKq2h1sQJ9ciHjjGP8eK2NQHxv69LDmj7QSrl18hONn9QmF3CL9eZX1lqoUlWo5W1BFWaX+2DOfn+bzzblUaXSM9LNDnV3FA++d5GxBFfnVs0FSDpcyP/YYRzIrCBvtzCWD7Nmyt4jw/ztKcbkWjQbOFlSR2yApNj/2GD/9XcCgPrbcFuqOysOKd37K5p11+sTN2QJ9fPXlFWuqY4Y1O/L5OjkPNycL5oS4cuxMJS99ncnZgipKqr8Pde3rrlGdU8mNrx5lV0Ypk4MdmRTsxJ4jpcx97SgnsytN/K60jkKnM2UVnHnl5RcyYlwEh1O/77hOk6JQRaQSnZxIpK/+AT8i1ciMEUCfHAghJqjjZ43k5hUyanwEGf+1/9rKysoZMOg6Th1e1wGR1ai+9hTAyKyZ5j+3rufddzrHD/3Y+bOLhBBCCCFEt7B09RmWrjHtN+yt0cvdilfm9+Tdn3MMCmR+8L8+rNqWx7SRTvRwtmDNjgK+/T2fjx/ow5o/C/h+uz6h8sDMHgztb8eZ/Cq8XS0pKdPy/FeZnMmvwtFOyfJIHz7dlMsve4oajR0Z5kGgjw0Pfaiunf3w7FxvKjU6XlqVBcDlQx25dbIbJ7MrcXGwoLhMy2vf6beIrYl9xU/Z3DHFHWsrBW+tPUtBiZaHr/WkUqOjsFSLt6slP+8sZFVyHpde5MCd09yJel9NTpEGW2sFC2b0YFh/W/KLtTjbKzmZXcnr35+pfYD+4H99+P3fYkb721FeqcPVwYL8Eg3PfpFZO/PGVP0mDMDG2bb5mh9AgE05vey0tfkbg4fZ6r/kVyj4O9uaMq2yUX8vTSjlyuC6pSDXf1xOaoGN0XE1hUVUHe/8UgVWlgo0Gp1Ju+C01E9Ts5pqWFsq0Gh1aEycDQP6BJmdtZKS8lacVI9ldUatqg0XWFN3pak6Jh3lnHh6dHVxYsE9s/no0x+5ff5VZojAF78gIDWdDEI7NAEQu+xLXl28sEP6srW14dZbZhD3/ndE3nVdh/RZKziY4IQlxC0MJbI7ZECMWP7uN9x1+zWSFBFCCCGEEJ1q7kRXErblsWVfcZMPognb8nj352zKKnQ421uw5I5eTBzsUDsTpTnbU0sYH2SPfy8bDqjL8XKxxLenNZ9uygX0O3PcOtmNDzfmsG1/MXbWSp6/yZsbQlx456fs2n5uC3VnRWI2e4+WodNCxGQ3Siu0PPzhKaq0OuxtlI12B6kxY7QzF/Wx5bmVmRzOrMDTxZJnwr25+XI3gyKeYwLsef7L05zOrWKAtzXPzfMm5CIH1v1dYLzjJpiyPGagbTlhg21a7gxwOVzGj8caJ1oysg2/X552Gv7Lb35JTmdrKZnRkf1UtGEsnY42J0WgbQmR2nM7OSFS45xYSgPwcNRN/LD2V7b9ttss4/sGBkNKWocuGYl960ssLS2Yc13Hbbnz0P/m8cZbKzusv1pBi1geDTHLTKhEmxRlULw2rLPWIDWwdNmXPLhwbpeMJYQQQgghLlz/nSjn538KKa3QNvnQdzq3CguFgn5e1vTuYUVxmRZ3JwujbRvaf7SMwlIt46qX04wLtEejhT+rt0kd7WePVgdn8qsIUNnQp4cVx85UEuBjmDRISinin0OlVFbpqNLqOJZVgZujBRGT3OjpZklJubbRTiQ1RvnZs+dIaW2dkzP5VST/W8yIgXVb3wLsOlRau7PO4cwK8ou1eDibdp31mVJs1dXS9IfzHo5Ko/2VNliJYWepaHZccWE4p361vuab11H5zuDQ/u+wszMtU9hd/fjTb/y96z+++DimQ/v17OHK9Knj+WxlIrfM69gyrL6RiwhXRRA1Q02TK4qSolBFJBAeX9MmiShVCKq0ziteC/DZykTCpl1CDw+XThtDCCGEEEIIgGNnKpp9395GyT3TPRjSz5YT2ZUUlGhMrjEC+t+w/3WghLEB9nzxay7jAuzZc6SsNonh6mCBUgF3NNh9pLTBVrsN49y0pwiFQsGMMU5MHOLAzvRSPt6UYzQ50sPZQl9zpJ7cIg0WSnCyVZJTvZym4a4mlRodSmNb6rTAlCKqqcXWDC/W4OzQfOJFo9Hx21Gd0f56OBi2PVPc/LjiwnBOJUYA/v7tE8JveYo137zepeNmpKVA8KwOWUbz/epf+Wn97x2eFKnx1pJF9Ox/JTdcPxkbG+sO7DmUhdHBhCyJY2FoE7VYliQQHJ1cL3ESSmx8OAkRnbcMp6ysnEeferuDa6sIIYQQQghhnLaFiQtXjXHmor42PP3ZKU5Vz6Z4405Vq8bYnlrCpGBHxgc50MfTih//qluaUlSmRaOFJz493ewyhYZx6nSwcXchm/cUMX6QPTdd7kbEFW4Gy29qFJZqcW2QgHC2V6LRQkFJXcea9hbGqBdbS698rQXv7wUHqtBVV0etLZJa/adOByU6S8qqGtcN0elgbH/DR2B1iWWLu9s0Z+Y4Z5zsjCdqUg6Xsu+o8Z2KAlQ23HyFGymHS01aXtWRrhrrjIu9BTmFVSQ2KBYL0MvNkknBTgBsTy0m43TzicDzwTmXGFH18uTdtx+nZ/8r2bH1I/r17dkFo2aQngoE+bU7MbJ02Vds/W0X3331akcE1qTffnmfCZPu4u/fPu3Qfn0jlxO9OoQFcVNJbJjlyNjA6hQIWtTguG8gwSSQlgGdUaH1kivu4vfN73d8x0IIIYQQQrSBq4MFGi1kF+pnUwSobPAwcRlNjYOnyjlboGHWxc6UV+rYlVFa+17K4VKmjXRk6kgnEncWoNPpC2S6Olg02lmkPg9nS3IKq6jS6ti2v5iLA+3xcDL+SLgzvZQrhjrQ082S07lVONkpuWSQA/uPlbWrZkRTapbS1Hzd1Eujg1ydZYvtjM04CXSpYHDvul8cH8mq5ESRVW3RU2PntzT3ZdE1nvTzMv7L6CXfn2kyMdLH04qISW788IeyyxMjD83yxLenNVUaHWMfOlg7+5PLYlwAACAASURBVKdGxGR37g3zAODhj9SSGOmuevXswdG0Hxg38Xb+b/FCpoaO69wBk5YRkxJM9PL2LQWZf+fz+Pr6dHpSBGCgrw/RT97J/Duf59MPnu3Ann2JXBROTMQykiJjTTzFj6AOjKC+m297lheevYcB/VuXgRdCCCGEEKKz/HWwhAkX2bP4lp6cLdTgbKck9UR5q/rQ6WBHWgkzxjixPbWE8sq6ZMT+Y2X8vLOQ8EtduGyIA0WlWjxdLNl9uJSPNuY02Wd4iAv+KhvUOZW4OVqgcrfi/fXG23/9Wx59eljxws09UedU4eViSXGZli9+zW3VdZiqpaSGqcmPpl5K4LEQw4TOhn8r0OqsmuzL5P16gZVb8sgpNNy6tqYmTHdlaaHg6rHOfPpL3fdUoYBrLnY2Y1TmcU4mRgBsbKzZveNzwm95ip83/sGrLy7AqjN2I8mIIyxCvzykrctAVv+4lW+++4U5109m5oxLOza+ZsyccSklJWUsePD/WL700Y7rODSW+HAVS+IWssiU9hnppEKHJ0fu/d+rzLp6IjOmT+jgnoUQQgghxIUur0jDOz9lc+iU4W/L3/s5m9O5lY3ar0jMRp2jP74ro5TnVmYS4GNDTqGG/cfKcHWwwNZaP/+grELHOz9lcySz+d/Eb9xdyNEzFUbbfbk1j9/+KybQxxalErLyqmprgtTGftowGRO/OZeL+tji4WRBSbmOtJNltYVTU0+W885P2RSV6adtVFbpWPL9GYb2t6WnmyWZeVXsP1ZmkKB57+dsTuUYfhafbc4lv7h1W/VCxyQ/mmqHDh4ZU8I4P/va8UrKtXycYt1sXwpanjFS49NNOaSdbDr5NbSfLdNHOeFgq+Tvg6WUVhiuc7o40J6LgxzYvKcIT2cLLhnkwCvfZFFRpWPCIAcuG+qAi70FR7MqWJWcz9mCKmaMdsbfx4ZNuwvZWz0zxV9lw4wxzhzNqqjdOtpCCfdf1QONFpavq9tRSKeDa8e7GCRGLg60p5ebVe0spPrcHC2YPcGFAd42lFdq2ba/mF/2FGGpVHDXdHdsrJTsSCtme6o+IdS7hxWzJ7iCTscnm3Ib1aPpTs7ZxEiNhM8W83H8WnwGXkX0k3dwf+SctneWEkOIqnHdj7pCoq3z+x97iI55j94+Xrz0wr308fFue2xtdOOcKVRUVHLDzU+x6vPFHdZv6MJoloQsYElwvYO+U5kVHMPq9AwIrZdFykgjhWBmdeAymtlzH+e6a65gznWTO65TIYQQQgghqpVWaNmR1vg3/n8eMD4LoOHxw5kVtTu6gOF2p1UandG+G8ot0jTb7tiZSo6daZykaSr2olJtk/Gfya/iTL7hjIcqreESnoaM9bW7mfbNaW43mvYkSdysNTx1SQVXDrc3GG/Fr6Vkljo035e2Y7ZxnT3BhVdvVWFR3dmtk2k0g+jiIAcenNmDK4Y6EDzADtAvxXnyBi9unawvsqvVgVIBt1zhxvRnD+PiYMGDM3vQz9OKqA/UAMy7zJXbQt0pKNGw9s8CqjQ6RvvbEzXLk1/3FhnUTfk7vYQx/vYM8Lau/W/1uvH6zSz+Oqgv/lvDr5cNqx7vh7ujRW0ct4W6E/NVJh9tzKGkTMtj13uRX6KPLSuvkjfv8mGUnx3xv3TvpAicB4kRgNsirua2iKt55vl3GTp6Hi+/sICrwlqYRRAai1pd/69q1CauDGnJb9v3sPzdb8jPL+LVxfczakRnLSQxTcRNV9KrpweBw+awZUMcPXt6tL9T30gWhccQkQDUJkdqltmEEOVXb1eaiAQIj++QwqunT2czcco9rFj2OJMvH93+DoUQQgghhBDdQv3kCDQ9i6OHdRXUa9fwa3tLLSpHDZf21TFzhC0ONnYG42zeX0rcLvsWEy6KViyl+e7J/jQsvXLJIwdRKhQ8O7cnFkp4+essfvyrgKH9bHntduOlAIb2t+P99Tn8nV5CH08rbp3szr/HylgQd5KT2ZW8u6A3VwxzZGyAPYk7C4i5yZtJwY5YKhVUaXVMG6kvmupsb8H4IHu27S9m2gj9sTU7CgzG+u73fMb423PteBfe+OEMttYKwkY5cySrgp2HSg0SI4uu9cTd0YLoL06zKjmPof3s+Prxflw73oWPNubw6S+5jAu058rRzrx5l4rtqSWM8rNj/7EyXkzINP2DNJPzIjFS44Vn7+GeO6/l7Xe/4fZ7XmDeDVO56cbpjBl9UaePnZ5xgq9WbSThm43069uT/913A1NDL+70cU01ZfI4tm16j8umRvLqi/d3yJKe0Nh4whMiSDA8iDoeVBGq2uPB0cmoa7MiGcSFhRAT1Prte9es28ZjT7/Nb5s/wLOHa7vjF0IIIYQQQnQPpswQ8bLV8N5VOvp4tP0x9q/0MqLWW1OlU7Q4ZmtYWyqMliQZNsAWJzslyf8W8+7P+t1/TmZXMsD7LI/N9mrU/qe/Cli8Sp9IcLBVcvkThyir1KJyt2KUnx0BPjYAeDjrC+1u21/MFcMcGRdoT36JBpW7FYczKxjgbc30kU5s21/MlBFOlFXoWL/LcAean/4u5Nm5PbnmYn1iJHS4E452Sj7YkI+NteFcmRcTMnnlmyx0Oh2XBDkwOdgRAE/nuu/Fo5+cYnBfW8YG2DM2wJ7iMi0LVpykoqoNH2gXO68SIwC9fbx4JeY+Xnjmblau2sBTz8eRm1PAzXPDCPDvw6iRg/DydGv3OLl5hfyzO429+9JZl/gbeXmF3HjDFBJXL6W3T+P/wLsDL083/tuVwBNPv8PrsZ+z+Pl7uXTC8BbO8iUyUU2k0fdCiVWraTTRJjQWdZPTb5rrz7itybt4+rk4Jlw8jP92JbR8ghBCCCGEEOKcYsrSmJn9K+jjYddyZ0344vcSnt9mR4VGYdKSHGUL2zLXd1XMYaM1Rnp7WAGQfsrwvabqkew7VreLTWWVjgUzPLhqrDN21koKS7WUNahNsubPAq4Ypt+hqKBEv1zl+S8zefNuFVNHOPH5r/oiuj/9XUBxmeG5xWVaNuwqZOY4Z0b72dUuo/luez5zLzN8Zvb1tiZ6rjf+Kv02yEeyGte9KSrVsnhVFu/d3xuA1Tvyjbbrjs67xEgNKytL5t90JfNvupL0jBOs3/gHn335Mw8+Eou1tRWjRw7isktHYm9vg7ubM66uTri7OePm5oybqxO5eYXk5haQk1tAXl4huXmFlJaWsyV5F//sSiU/v4iRwwMZO/oiXn7hPkaPHGTuSzbZyy/ex979h3jq2RW8Hfc1i5+/Fz/f3uYOq5GD6cd56rk4yssrWP7mowwdPNDcIQkhhBBCCCE6gVara3EpzYmi1lf80Opg63+lvLFVwd7cxstnmq9d0v6ZDuocfd2Wgb1sDI4H+tgYa24wu2LuRFfmhLiyZkcBr32XxfGzlbx6ay/CL62bPb/hn0LKKnRMHe5IYZmWnEIN2/YXseGfQuaEuPL4bE+g8TKaGt9tz2fmOGfunObBxCEO/J1e2qhujUIBb97jg42VgluXHmdHWglujhb8/pqfQTtrSwUPzOxR+/cbLnXlu9/z+Tu9bXVnutJ5mxipz8+3N373zGbBPbMBOHEyi7//+Y9Dh0+yfcex2uRHTm4BubkFDL7Il/3/ZuDm5lybNHFzdSLAvy8zpl3CM4/fTv9+vcx8Ve0zdPBA1nzzOhuSdjD3lqcZP34YV04dz/Sp480dGonrf+fnjX+wfcdeFj8XyZTJnbwdsxBCCCGEEMKstJWaFhMW647Y4Li+jFEqHcr6O6boDHfWLSzTkVWo41COgl+OWZFTbtemwq1oTS8YOinYkYv62hocyy6sYs+RUorLtVx6kQP3TPdgzZ8FBPe35b4ZPZroqU5/b2sAMk6Xc/xsJcN97bhqrOFWusXlWjbtKWTGaGd6od82WKOFH//SJ0YuG+JIUamWzXuLjI6xbX8RZwuqmF5dm+S73/MbtXG2s8Dd0YK8Yg0700vQoTO6DCj6Rm8G97Xl7/RStu4r4qFrPFkW6cOVzx0mt+gCKr5aWVnFzl2p/LXzXzIzc0hNO6KfeZFXSG5uIUMG+7J33yFcXR1xdXHC1dURL093fHw8GTk8iJHDA/FReXZkSEb19vHqtstdutrU0HFMDR3H2nXb+PSLn4hc+Crhc0K5cc5URgQHdFkc/+xOI+GbjXz19UYmjA9mXvhU3nz9oS4bXwghhBBCCGE+lUXlWDo7tpiw+CLNls9TO2bnmpbaWFY0vf1uQ49d3/j5cndGKdcsPsKr32Tx/LyePDHHiyfm6Nv9nV7KaL/mlwVt3V/MbaHuPDjLk7umeWBjreC/4+UM7WeYgFmzo4AZo/UJk5/+1s8M+e3fYvKKNbg6WLB+V6HBNsv1abSw+o8C7pjqTkWVjh//ajyzJL9EQ8rhUoIH2PHPUv0zYv0lPwBXjXHm5ivcKCzV8sB7JzmVU8n4IAfGB9nzxh0qbn/reJtqt3SVdidGdu5KZeMvf/Lz+u38m3qYUSOCGDPqIsaPG8oVl4/GrXq2hZubE64uTuQXFJGXV0RefiF5eUUUFBZz6NAJvv42iSeeWU5FRSUjhgcSOmkss6+dhJurU0dcp2jB1TMu5eoZl5JfUETC10ksemwpnp5u+Ki8GDUikFEjgggK7N9h4/2XeoR/dqeyc1caJ9VZnD2bR/jsKez9ayXOzg4dNo4QQgghhBCi+yvPLcSmp0erZ3V0RJum2llWFDYOtIGvtuXh7mj8sfpktn5JSvwvuRw4Wc5VY5yxt1Xy27/F/HOolHmXubH3qH6Zyc70Et5fn8O+o3UJh817irjzreNcPc6FknItP/yRj7WlgomDHfnveLlBu/fWZ6PVwh+p+i2Uq7Q6Xvgqk6DetqzeYTgLZFVyHh5OlmirL/zzX3PR6uDomYraOiV/HijBUqngQHUtlNvePM6dUz3o72XF/mPlfLgxm0XXeFFQokGpgIG9rHl/fQ7b/i2qve6oD05yxxT9jqgDe9o0qrPSnSh0bVg4dep0Nglfb2TlqvU4Ozlw522zGBTUn+Ch/u0O6MzZPHbtTmPbb7v44qv1jBo5iBuun8zsayehUCha7kB0mAMHj/Hb9hR27kpj565Ujh47xagRQVxy8TC8vdxxddXP+nFzdcbVxbE2+ZWXr58hlJdfRG5eAXnVX586fYbtO/axc1caA/r3YuTwIEaNCGTC+GAC/Pua+3KFEEIIIcQ5aOnqMyxdc9bcYYgO4BTUDwsH+w5LbLQnSWJZVoBdwcmu/xCEWbQqMVJeXsFjT73Nzl1phE4ew7wbpuHv16cz4yPplz9Z9e0mTqizmDppHA8uvLFTxxNNKy0tZ+euVPbuSyc94wR5efpZP7l5BfokSPVyqX37M6qTJNVJk+qv/Xx7M2yoP6NGBGJra7zYkBBCCCGEEK0hiZHzh4WdDQ6B/UGhNMsMkdr3tBoccw+j1FYajVOcf0xOjLy5PIGXX/uUVxffz/ybruzsuIx6/qUP+OyLRF58LpIb50wxSwxCCCGEEEKI7uPDDTm8kJBp7jBEB7F0ccSuf290KMyyjAatFvv8Y1hWdf+dVETHaTExcvTYae6Peo1RI4J47um7uiquJmXn5PP0c3GUlZXzzpuPYWfXOTMPrr5+Ecm/p3RK391NyCXBrP12ibnDEEIIIYQQotXW/lnAwndlycP5RGlvh3XvXihtbLpkhkjNS1lZin3RKSw03bcWhugczSZGEtf/zhPR77Bx3dt49nBtqplZHDh4jMun3cv3Cf/HuDGDO7x/t16h5J5K6vB+u6ML6VqFEEIIIcT5o7S0nJWJabywzsrcoYiOplBg4eyE0tkZbO1QWFp2zgwRTRUWFSVYlRdgZUKxVXF+anJXmqVvf8Wff//L7h2fd2U8Jgvw74s6Yx3TZz7ALfPCuOnG6eYOSQghhBBCCNGJjG0OMHzkMJQuEWjNHZzoWDodmvwCNPn1to9tYjMORfULk6tn1g7SttjEecdoYmTtT8mkHTjKyk9iujqeVvt5zZvcencM3l7uhE4aa+5whBBCCCGEEB0ov6CIhK+T+OrrDXh6uuGj8mL8uCHcHzmboMD+ANy85BjJ/xabOVLR6UzfN0SIVmmUGPl+zRbWrtvKR+8+Y4542uST96IJv+UptFodU0PHmTscIYQQQgghRDutXbeNlas2sP2PvYTPCWXJqw8yIjjAaNtpI50kMSKEaDODGiNHjp7i2vBH2fXHZ+aMqc0GjQhnc+I79Ozp0e6+LqS6GxfStQohhBBCiO5tQ9IOnnp2BePHD+PKqeOZPnV8i+cUlmq59LF08oo1XRChEOJ8YzBj5NGn3mbz+hXmiqXdkpPe5f4HX+fLz140dyiiC5w+nU3awWOkHzrOCXUWRUWlFBWVUFhYQlGx/s/CIv2rqKiU4cP82b3nII6Odjg52utfTvY4OlT/6WiPi7MjvXp6EBjQjwD/vnh5upn7MoUQQgghLgh79x/iqWdXYGdnw5efvYifb2+Tz3WyU7Lwqh6yba8Qok1qEyOff/kz3l5uuLo4Vh/JIC4shJiUcOLVsYQ2ODEpSkVEajTJiZH4dl28zfLwcMXVzYmvvt7IjXOmmDsc0UGOHD1F2oGjpB08xoGDx0g7eJS0A0dxcLAj0L8vgwIH4O3ljk8vTxwbJDtqEiCOjnY4OtpTVJ0kqUmY1E+iFFUf+y/tCD+s3cKBg8eorKwiMKAfgf59CQzsV5sw6a3yMvfHIoQQQghx3nji6eX89sceFj9/L5dOGN6mPm6Z5Mbnv+ZyOLOig6MTQpzvahMjby1P4ItPjRVbTSAiagbq2Iapke7pgQXh3HbPi5IYOYfl5Bbwy+a/Sdr8F7/8+hdubs4M6K8i0L8v48cN4dabZxAY0A8nJ/tW9+3oqJ8Z0hPTllvl5hXWJmXS0o6StOkvSsvKOXX6LKGTxjJl0lhCJ41FqTReIVsIIYQQQjQt60wul02N5NUX7+flFxe0qy9rSwXv3d+baxYfobhM9qgRQpjOEiBxw++MHTMY/4F9GrcIDiY4YQlxC0OJ7C5TQ5oRFNif4cMC2JD0J1NDZZeac8Uff+5j0+a/2LT5L44eO82kK0YTesUYXnj2Hjx7uJotLjdXJy4eO4SLxw4xOH7k6CmSfvmTDz9dw9z5T3P5paMInTyGKZPHtWrapxBCCCHEhWrjph3cH/U6WzbEdUiNQAB/lQ3L7vHhjreOywYmQgiTKQG2Ju9myEVNZD2CFrE8GmKWtVycMylKhUpV94qqf0pGHGEqFVFJSUTVaxMWl1H7ntHzgIy4MIN+w+Iymo1jyGBftib/02K8wrxS9h7kkSeW4TPwKp5f/AE2NtYsefVBDv37He8vf5Lw2VPMmhRpTv9+vbjztlkkfLaY7JMbWXDvbI4fz2LuLU9z9fWLiH3rS8rKys0dphBCCCFEtxT/xU+8//Ea0vZ83WFJkRqThjnywcI+ONgoO7RfIcT5SwlwKOMkA319mmzkG7mI8ISIRgmL+pKiVEQQj1qtRq1WkxwdTEJEGA1zGAkRSwhMrmuTEhOCKiSNRQbnRVEzVEZcGCExEF19jjo5GmJCmk2O+Pn2Jj3jhMkfguha3/2wmWkzH+CBRW8wdsxFHNz7DYmrl/Lwgzc1uQVbdzfpstG8FHMvf/32Ce+8+SiFxSUMGHQdDz78BmkHjpo7PCGEEEKIbuOrrzey4699rPp8caeNMTnYke+f7k9/L+tOG0MIcf5QAmQcPoHvgOam/4eyMDqYhCVxGE9HJLEuIZjohXV1SHynziKYFNIanBAcvbx2SY6+DQRHL6wt7qo/lsC6JH2/y2JSDM7BN5LE+HBSYpbRVJ5m4MDeHDrUOYmRhrNiDF7NZY4ucHn5hfzfG5/hN/h61q3/nReeuZtfN6xgznWTsbe3NXd4HapPb2+in7iDU4fXMWJEEPPviuHa8EfZkLTD3KEJIYQQQpjVmnXbSFz/O8uXPtrpYwWobFgf48vT4d64Olh0+nhCiHOXEqBXzx7NzhgB8I1cTjQxLDA6UyOUWHViXfIiKQpVSAwpRloG+TVesmPsmL6fdSQQzKypDd73DayXPGnMz7d3h0/JMxAcTXL1DJe6VzzhCRGowppKHl24nlv8ASPGRaDRaNmx7SM+XPEUY8cMNndYXWL+TVfyx5YPeWDBjXz46Rquv/Fxft0qy7yEEEIIceE5lHGSmJc+4NMPnu2yMW2sFNw51Z2trwzkuXneTBjkgIWssBFCNGAJ+mrQBw4eI8C/bzNNfYlcFE5MxDKSImMbvatf8lKTCgknPjmaJSHGdrlprRRiQlQY6ymoiTPSDhzlzNm8Dhi7NUKJjQ8nIWI1GzIiz4lCtZ3t2+9/YcGDr/HmkkUcTv3e3OGY1eUTR3L5xJEcO36aBx5+g6+/28TypY+YOywhhBBCiC4zYdJdHE37wSxjO9tbcOtkd26d7E5esYb/jpeTlV9FZl4lBSUdv4NNVZWG5XHf8MD94R3etxCi41kCBPr3Ja3FxAgQGkt8uIolcQtZVP94RhwLYlIIj1dTu6tvRhxLOiTEYKKTE1uVaEg9cJSggH4dMnqrVM9kScsAquM1TBhBcHQyiXVTa4hSLSEwOoiYmAQgnHh1LKEZcYQ1mHFj8NmCflZOREIz/UZAfDxERJDQVB/1aLValMqOSZ+fPp3Nggdfw83dmaMH12BjbdUh/Z4P+vbpyfcJ/8fKhPV49pnGe8uf5NqZl5k7LNGEjrwvhDhfyH0hRGNyX7Tsf4uW8NpLC7GxMX/ND1cHC8YH2Xf6OD6VA/krOZ63lixqufF5SO4LcS5RAgwb6o9afcakE0IXRkPMApak1juYkUYK4cwIbXisnUJnEG6kTklLTqrPEDzMv72jt15GGikEE2iQFGmpcGwKMasDq5fm1CVFguLrLdOJDychot5uPdVJkfD4umU8QTEhjWqcNCx0a6wYrkajoU9vd44fP87x48cpKSlp10ew5M0vuCLsPhbcO5sP3nlSkiJNmBc+jVOHf2Ltuq3Mnf8MRSVl5g5J1KPRaMjMzOyw+0KI84HcF0I0JveFac6czePnDdu5ZV6YuUPpUrfMCyNx/e+czc43dyhdSu4LcS5SAtxw/WTeee9b087wjWRReAop9bMejWp+JBFVPZshNb09FTeqi742eKDXF0Bt/JBfY3ncN4TPbmJqRKepvubwRdWzW0wvHBs8ayq1E2KMJZlCY1Gra2Z7ZBC3JIHg6OR6sz/0y3hIWGLwmTQudNs4yZSXl4eFUknPnj1RKpUUFhai1bZtOmHEHc9TWlrBf7sSmHTZ6Db1cSGxtLTgo3efYf5NVzL/jufILygyd0iiWl5eHjqdrkPuCyHOF3JfCNGY3BemeeOtlTz0v3kttmt6k4Om/93fIZKiDMZobrOF1u618ODCuSxd9mXHx9yNyX0hzkVK0E/vv+TioXz19UaTTgqNjcdgtZxvJMujg0mIqPmhoZ+pEB8OKTEL2vWDzDcyEf1Ei7ofSBEJ4cSrjS+v+fzLn5l0+ShUvTzbPmhLUmIIafSDMoLU6GTUNdmKVhSONSg+GzqDcBKIUEUZ33UnYwOrU4wUrPUNbJT4MGjj62dQk0Wn0wFQVlZGfkEpRUVFWFhY4ObmRlZWlqmfRK3Lp97L/ffdwNOP39bqcy9006eO59svXyF4zM0X3G8Uupv694WDg0O77wshzgdyXwjRmNwXpisrK+eTz9YRedd1pp1gZJMD/bNAJydHTIhDnRxNakTrdqJccM9s3v/oByoqqzox2O5B7gtxLrOs+eKxRRHMnf80N86ZUn3El8hENZFGTwslVq2mfglW38hE1A0bx6pR1zaKJLFhA1/TjhntuwlvLv+K7xP+z7TGbRUcTXJiJC2XPWl94Vj9Z5tMYFgIEaq6GiLN1QcBGiU+WnL27Fmsra2xtrbGs4cTlZWVeHl5UVRUVPtDzVSjLpnPR+8+TfBQMyxfOo8cSfsB/yHXk7zpfby93c0dzgWp/n2Rl5eHlZVVm+8LIc4Xcl8I0ZjcF6b79vtfue3mK9vVh2/kIsJjIli9IYNIc+5w4BtJYnwaqoglxC0MNbkGYsRNM/h+9WbCZ09pufE5TO4LcS6rrYbTv18vbpl3JU89u8Kc8bTLI08u4547rqW3j5e5Q6kWXFdfpMGr2SRHdVKqpm18OEbrgxjISCe1mbdrKNCRnZ1NaWkpdnZ2uLm5odPq0Gg0ZGdnk5ubi5ubm8lXGDhsDl9/8ZIkRTrIwX3fctm0SLKycswdygVFp2t8XwBtvi+EOB/IfSFEY3JftN6B9KP07KCZ3HWzoZOIarSspcGxjDjC2rkMxqjQhUQHpxCzzPTOfFSepB442gGDd09yX4jzgUGZ4Pvuvp7S0nI+/uxHc8XTZsvf/QYbayvuvG2WuUPRa2PhWKNdxcbX9eU7lVnBRmq3NCj82iSthrKyMnQ6HVqtFktLSw4fPYO9vT0KhQIvLy9sbW1bjEmj0XLNnEfYtuk9fAf4tPnaRGOpu1cx77ZnpeZIF9JoGt8XKpWq1feFEOcTuS+EaEzui9Y7eOgE/gN7t6uPjLglJITHt/CLRYMTWt7MoM188QsCUtMx9Z/5/v59OHjweHsH7rbkvhDnA8uGB974vwe5P+p1ysrKufeu680RU6v93xufkZNbwCsvLDB3KPXoC8eGRIQRWG+74aQoFREJzWxBnBSFKiLV8P3qeiXRvgC+RC4KJyYihCi/mpknNYVf45uc0qfTgYWDA1qFAm9vbzIzM8nJycHb25sqjbbVWdx7Fr7C3PBpeHlK9rczvPLCfcye+wQb1y0zdyjnNZ1OR2lpKTY2No3ui5o1sUJcaOS+EKIxuS/aLj39OH5+fUw/ISWGEJWRhejB6WQQasJSdmo3M1jUaDOD2CZPaQ3fwGBISCMDTIonwK8vB9KPdcjY3YncF83LzMxh7750TmVmk5tXSF5+anRncgAAIABJREFUIXl5ReTlFZCXX0ReXqH+eF4RQwb7snffIVxdHXF1car708URV1cnXF2ccHFxwNPTnUD/vvi35p4SJmmUGAF4O/Zh5t/5PLm5hTz56K1dHVOrPPKk/sHxtZcWmjmSxnwjE0kmjBCDOiPhxKtjaTLhHRqLOj4KlcE5DRIpobGo40EVoaKmCklwdDLqJrIiWq2WzMwy7Hx80JWq0Wi8an94ZWZmYmnRuv3Ft/22m6ysHDPs/HPhGD1yEL4DfFj1bRI3XC+fc2fQ3xeZVFZW1v42o/59UfM/dSEuJHJfCNGY3Bft4+3tjv/AVjzEGavllxSFKiKGkCi/uo0OmhM6g3AiiFDR/L+7u4i/Xx+8vc6v+nFyXxgqLi5l565U/tmdxj+7Utm5Kw2NVsOsqyZSWlqOW3Vyo4+PF66uzrUJDzfXuiRIfkGRPnFSk0DJL6xNoOTlF3LsRCa2tieIeekD1KfOMnJ4ICOCAxgxPJCRwwPp26enuT+Gc5rRxAjApx88y2uxnzN73hN8s/LlrozJJCUlZVx5TRQ3z53epctnQmPVqFvRvvnCsfoitkYGaTmj3Wwbw37z8vJQKsfw3KZNnDhxgqysLIMfXjY2Tf5nYNQDD7/Bt1++0qpzROu9/vL/GDzqRkmMdBL9faHEx8fH6H1RUVGBnZ2ducMUokvJfSFEY3JftE9mZg4HDx1vXXKkodBY4sMTiEhYR1JsqAmJjjZuZmCijLQUCJ5l2uwV4GD6cTLPs/pxF/p9ceZsHhuS/uC37XvYuSuVk+ozjBoRxMjhgcy5PpRXXlzQ6l1SXZwdcXF2pB/NJzheev5eiotL+Wd3GrtSDrB67VaefeF9iotLa5MkV1w2kovHDm3PJV5wmn0ifiTqZjZt/osrpt/HnOsmc9/d5l9ao9PpiHnpQ/7ZncabSx6Sop8mKC8vx9HRkcLCQhwdHSkrK6v94eXj40NxSYXJfS19+ytmXTWRAf1VJrTOIC4shJigeKPZ/aQoFRGppu7wc+FxcrLnwQU38sIrH/HM47ebO5zzTkv3hRAXIrkvhGhM7ov28fPrQ3p6OxMjVC9fad0ZBjtsJkWpiGiwxL1tMkhPBYL8TP7364H0YwT49W3PoN3OhXhf6HQ6Vn2bxKpvNrF3fzq3z7+aSycM58H7byTAv2u/vw4Odlw6YTiXThheeyw7J59du9P4Z3cay975mrvue5nw2VMInx0qS29M0OIaislXjGHD2rc4eTKLQSPC+fb7X7oiLqPeeHMlHj5TcXFxZPXXr0lSpAVVVfr90p2dnbGxsaGoqAh3d3esra2xsrJCq9W2qr/C4lK2Ju/i2afu7IxwhREPPTCPvXvTyckpMHco542Ovi+EOB/IfSFEY3JfdAz/gb05eOhEu/vRz9IINEhGGGxG0MIOjQabGbRH0jJiUoKJXmj61JODB4/j739+PJheiPfFps1/cfeCl/HwmcrmLf+w4N7ZHNj7DY8/PJ+5N0zt8qRIUzzcXQidNJZHH7qFLz6JIXH1UuzsrLnptmiumHYfK97/luycfHOH2W2ZVFzi/9k77/imyu+Pv9O9Jx2kzDJaRAmIOLCoSKlURHBgcQVRkCqiVpyIUSNua1VE6xd/KnFAnV9ELF+okyoiIlRBqEAQgXRBN91tfn9kNE3SNm3TJm2f9+sVkt7xPOfey+c+uSfnOcfd3Y2nn7yD7zLfIHPrL0ydsYRnX1zLkX86Mqmkc/yYvZul973Eldfez+nqGoo1W7n3rnnd3m9vo6mpibIy3X90rVZLXl4eJ06coKCgAG9vb+rr69FqtZSXl1NTU0N4eHiHw9uyvvmVoEC/7jBf0AaBQX58+/1vjjajV9ITuhAIehtCFwKBJUIX3cfokUPIyyvqWiNZKcgzIGmZIco4mhgZ5GzYoq8MoyZ9iZIck+2l0kTSTZ0g+mIG7VZwbAt1OonyDGSK1R2KOjmhKSJ29NAudOwY+rMu1EdOsFzxJiPHXsObaz5n+rRzKdZsJX3VQ1x68TmONs8mBkWFs+yeG/l127ukvXgvx44Vct6UW7n2hkfYsPFHR5vndHQo62ZkZChvv7Gctf9ZgaurC9dc/zCXXXkPH3+Wxd59h+1i0MlTZXzz3U4eX7mGmHFzSX31I86bdCYff/CMmE7QBnV1dZSVlXHy5EkqKirQarUEBwdTX19PQUEBXl5eRq9uaGgoLi4dS7gKsO2n3VyeeGE3WK/Hhnrz6vTEFusTW454pEgTSU9P0a9PIctY01733lq7WSlt9Ku3y7yNxHS1hc0ds9c2ZiRcwE+/5LS/ocCCntCFQNDbELoQCCwRuug+rrlqKu998LXtO+QoiTP7Pqir2GiaHySa5EwVScZt48hdpiLJsDo+DY0qFmWceRsdmEZjzQ59CeDMDs7FUX24iatmT+3QPs5Af9TF6dPV3PfgK6Q89AqDB4ezY9s7fPrRs8y9epqjTesS48eN5hnlHRza9xl3LLqa33NyueCShXwjfnw1ItFqtdquNPDrzn1kfb+TzP9t5++/jzJhfAwTJ8Ry/rln4uXlQXBQAMHBAYSEBBAc5E9pWQUlJboMuyWl5ZSXV3FYfYw9OQfZ88ff1NTUIhs3mmlTJ3HNnKkOKwcbPDCekrwuFzrvUaqrqykqKkIikRASEoKvr6/xxuXq6kpERITVG5atx3rx9GRWpd3PuDNH2mhRB3KMmNSbN26alYJUnmFMlKVOTyROSfOgpt8HRbZ+gMoiRSono0U2c/0yk8o+5u1kpUiR02xja/3kWLSRg2mVId2yWLO/27LXNv7Ye4ilKS/xw9Z0m/cRNNNZXQgEfRmhC4HAEqGL7uMRxRsMHRxJ8qKrHW1Kj7P6rU/JyzvJyidarcbQo1RX17Jr9wH+3HuIQ+rjuoonpbrnstKySkpKKjhzbDR796kJDvYnMiKYwVEh+Pr54O7mybChUZw5NpqogUF4e3v1KV0895KK19M/4anHF7Pg5iscbU63cyD3H1Y8kU6TVsvKx5M5Y8xwR5vkUDpWjsQK504ay7mTxrL8gVuoq29g955cdu0+wM7f93Mg9yglpeWUlJRTXFzO2DOaRRYU6EdwUABhYcEMigonaW48zz51J4Oiwu1xXP0Sb29vwsLCKCoqorKyEl9fX9zd3YmIiKCwsJC6ujq8vLw63X5+YTGR3VVqrN1681msUuYgU2Q3e/qjk8lU5SKVryIrubkUm2x2gkUyLNOQx+iE2ciUSt0c0+gsNmXIUGQ3d9xyfVtt5IBiqbFfw36bstKIj7fd3vaIDA8hv49lMu9JulsXAkFvROhCILBE6KL7uO/uG7hw6sJ+6Rh5ZdU6tv/wjsP6//vgv/y0PYddu3XPaEf/zWPihFgmnz+OsWOiCdKXiw3Wl5DVPae1/DH75KliThWd5HRVLfmFZTyf+j5/7j3MOWePYPCgKGTjRnPhBTKnybXRUd5Zu5HHlG9x953XcfzQRkeb02PExgzj03XP8d0Pu1i05BlkZ41i5RPJhAQHONo0h9Blx4gpHu5unDdpLOdNGmvPZgXt0NTURGlpKQ0NDQQFBRkH9ZMnTzJgwADc3d2RSqVIJJIu9TN65GDCu8sx0l69ef28UEWCmcsjOgYZBmeEblHsSMtojBbLokcS29wxaRqT3vRRKoDJNja220l72yM8PITRIpN0h+kpXQgEvQmhC4HAEqGL7idsQBAzEi7g/Y8yufmGREeb02O8/1EmiZdNZkBoYI/2W1ZeScYnWaz/ZAthYcFEScO54LwzuSv5WmJjhtnURoC/L02N9fj6uDF2zDAaGxspKirCx8eHRx/SpTf4a/8Rdufksmt3Lpu3/sLJk6UkXTudeXOnExDg252HaBc2b/2FRx5bzaWXnMPBPz/Fx6d/Oj6nXjyRn75dw7qPtzDpwluYf/NMFI/c5mizehy7OkYEjqGwsBCJRIKHhwcSiQRXV1fjoH7q1ClCQ0NbHczr6uoICbbtxvX3oWMUFhZ3k3PElnrzOSjjpCit7G3uxOgIzdNiAJJQZStIjbPWS0exj72FhcX8feiYHezpX3RVF9XV1QQG9uwXGYGguxG6EAgsEbroGV5LXUbksMu57pppeHp6ONqcbqemppYHH32dvCObeqzPjZu28dHHW9j+y58kzY0n9fl7mSAb3am2bNHFGWOGc8aY4dw4bwYAv+/JJePTrUy8UM6UyeO4es40rkiMs+ch2o1HH38TrbaJLzJeYNjQgY42xym4/roErr8ugbTX1nFu3AJ+2JqOt7eno83qMfrGhLB+TE1NDXV1dYSFheHi4kJeXh55eXlotVrCwsLw8fFpc/+ysjJ8vG0bnDo+pSOake15AFrUgNfVm9dodC9VEmTITTOKy1BkN683fVlJYWIb6nSWKHNIUhnasn2KS/vYx95uncLUR7GHLurq6nrIWoGgZxC6EAgsEbroWX76dg0XXrrI0Wb0CJOnLuLn79b0SF9bsnYw6cJb2PrdTubfeDn/5P6X51fe1WmnSGd1cfb4GJ5feRc/f5vO7JlxZH3zK+dOWcDWb3Z05fDszowr7yEqKpxnlEuEU8QKKXdfz4drlYwYezU7du5ztDk9hnCM9FK0Wi1FRUU0NTWh1Wo5fvw4lZWVDBgwAB8fH2pqavD29m63ZJa7uzvu7q429Tnx7Fj+PvRvh+yMjpFBxiYsU7tmsSkDZG3UTGtRbz5+pn1qz5ujz20yM958WRexo72H1MeZMD6m6w31A+ypi/r6+h6yWiDoXoQuBAJLhC4cw4joKBTLFzJ/4ZOONqVbuWnB4zz1+GKGD5N2az9/7jvMldfez/+t/ZJ176/ktZfuY0bCBZ1uz566mHTOGF556T4+fFfJmne/ZPbcB/jTTlVMO8vefYcJHzKDJx+7nTtvv8ahtjg7o0YMRqPexONP/Yf//N9/HW1OjyCm0rRC3GQZwQPtFztgK24U0UBYm9u4uEgICfIlJMSPI0eLcHV1wcvTnZraejzc3YiMCOT4iWKqqq3/guHp6cbQQaE0abVotTBBNpri4mK9k0T3cnW1dJbETR7Ppsxsrp1zqc3HE528jCSlHHnKzBaVabJS5GSQhMqQmTQrxbKMmiFPRzRAPEsVMuLkicSYbJOVIkWeIetY+bUWBprn/MgiRZ9j5MAhNcR3tti9/ez935ZfmDa1d9RLdyRarZaysjJqamoIDg5m4MCB1NXV4eHhQX19PdXV1YSHt57cua6ujoKCAiQSCS4uLjQ0NNikC4HAmRG6EAgsEbpwLFfOnEJVVQ1L7n2B1a886Ghz7M4ddz/P7FkXMXPGhd3azyMrVvPTL3/w9JN3MOXC8V1ur7t0ERkRhOrtx9ixcx9L7nmBC8+X8ezKO7tsb0dZ++HXvP3uBk4c/gp3d/EIbCubv3yVh1a8zl0pL/F62v2ONqdbEf8rWmHjZ6kO6VcqlVKkaTteoaKiguLiYtzc3IzJwOrr68nLy8PFxYWQkJA2Qz/r6uqora2lsbGR2tpaampqqK6upqKiAjc3NyIjI63uFz/1HN7/KLODR9ScO0Rq6jSXKcjWJDdPo4lPQ6NKQdoiJ0dLB0J0cibZJBLXYpsk68labSU6mdWKDcTJpWQY+9SgWiVFrlxCekImnS2uZi97i0vKmXrRxE5a0X+orKykrKwMNzc3XF1dcXNzQyKRGHUxYMCAdqsJBAUFGXVh+BLQni4EAmdG6EIgsETowvHMmzudurp6rrvpUT7+4GlHm2M3rr3+Ya6eM5W5V0/rtj4Ki0q4OCGZ51fexbMrl3RwbzXpiXEoTR81ZAqyM5MJM+riDx4Ych6oNLxwsV4Xe95ileejvDik87qImzyeH7Pe4stN2xgzIYkft75F2ICgDh9/Z3gx7QNOnChkW9ZbPdJfX+P5lXfx4frNTIlf3KfPoUSr1WodbYSgGalUikajaXe7kpISysvLCQ4OJiBAV1KpqakJiUTSZoKw8vJyPD098ff3B6ChoYETJ04QGRmJp6cnWq22zazrz6eq0Grh4fvlnTg6QUdZ/dan5OWdZOUTnXXP9C8cpQuBwJkRuhAILBG6cA62frODu1Je4oct6URGhjranE6Tn3+Ki6Yv5s1VDzPtku6L8u3S+dJXXpQpssk0CVs2jWZOCramiyyWDZ4Pa09YzZHXGV301PkCUD77f9TXN/CUYnG39tMfyPr2V15dneGwAILuRuQY6SU0NTVRVFTEsWPHKCwsxN/fn4CAAEpKSqioqADAxcWlzcE8Pz8frVZLcXExpaWlALi5uRnXA+0O5g8tk/OuaiOFRSX2OjRBKzQ1aVEo3xJOkTZwFl0IBM6E0IVAYInQhXMyfdp5bPvmP0xNvJMvN21ztDmd4stN25iaeCc/ffd2tz7kqz78mjXvfknuH5903CmiTidRnkGSStPCKdLU1IRs+dcoEk7zzop0TlrVBdDK7+id1UVkZCh///kpb771KR9l/K9jx9IB3vjPZ9TW1AmniJ2Iv/RcFi6YzS2L7FG90/kQjpFewqlTp2hoaCAkJITa2lpKSkoIDg7G39+fkpISGhoaWmzf0NDQYllZWRl+fn6EhITg4uJCWVmZ8ebl4+PTbtZ1U1Kfv4dlD71qnwMTtMrDj63muac6GiLZv3AmXQgEzsCsa5YJXQgEVhC6cF7Cw4LZvzuD7dv/5KL4xWz7aY+jTbKJH7N3c1H8YrZv/4P9uzO6dVrI+k+2smPn3k5PO1Jv2UCOTMFSs4gPnS4iuHneclY8P5OgkhKCg3fxxpVX8vx3JTQcTCdRKicDyJBLGXpFOu8vG4o0RVdWwaCLss8WcNOanA7r4tN1z7Htpz188vk3nTqutvjm+9/49rudPP3kHXZvuz8z+4qLGDliMKmvfuhoU+yOcIw4IU1NTeTn51NdXQ3okiFVVVURFBRETU0N7u7uBAQEcOrUKUJCQhg4cKDRMwvQ2NhIQUEBBQUFxkG9qakJT09PTp48SXBwMN7e3pSVlVFeXs6AAQM6lCTsisQ4TldV890Pu+x74AIjR/7RkPXtryy6dY6jTXEanF0XAoEjMNVF8MB4vvz0JWZdkyJ0IejXiPGid/LsyjtZ/eqDvJj2AUk3P8oh9XFHm2SVg4eOcd1Nj5L66kesfvXBTuT56BhfbtpG5v9+7kKiWjVbNuTgEjsCn9Z0MWkS5xp1UUtdURHVXgNxG5VMpkZFEjBv7TF+fmsWl15yM+6fZ5KFQRcFZP1YyAVxl3ZKF2++9hAbNv7Ips0/dfL4LNHkFXH3fal8uu45i3VZKVKkUuuvFMsymvYhK8Wk7SxSuqOvnuhDz4qHF/Drb3+xJcu5yjB3BtPxQjhGnBAXFxfc3NwoKiqiuroaiUSCu7s7xcXF1NfXEx4eTk1NDY2NjYCuJJb5/k1NTTQ0NBgH9dDQUFxdXWloaMDPzw+tVktgYCC+vr6dCvt89z+P8fKqdXY5XoElq9/6lJdfuNfRZjgVvUEXAkFPY9DF1MtuR6PeiEQi4fP1L3BR/G1CF4J+ixgvei9njR3Bl5++xG3zr+T6m1dw9/0vs3nLdkebBUDm/37mnvtf5sYFChYtuJINn7zIWWNHdGufh9UnUD7zNmvffrwLrajJzYFxMSNs1IVu2kyTS0tdINHrYtwkbh70C5lb9bo4/gM/H40lenTndfHBu0/y2JNvceSf9vMs2sL5F9/GLz/8X+sbyBRkazRoTF/ZCg7IpcZoGPvRXPFSRzxpGo3VfC3O3UdLMt5/mnsfSCMv/2T3ddIDmI4XwjHipBjqhRtuXsHBwTQ2NiKRSCgrK6OsrIzAwECr+0okEvz9/Y0JxAoKCozLGxoayMvLo76+noCAgE7/whEY4Md7/3mMMROSOn2MAuvMk69g+qXncsmUsx1titPh7LoQCBzB6HHX89XnaS108dm650i44m6hC0G/RYwXvZuE+PPY+dN7TJ86ibUffs2wmDk8tOJ1duf83aN2/L4nl4dWvM7QmNm8v24z06edy6/b3mX6tPN6pP8LL13ET9+usUtbWmzVhUcr+xt0MYHzLm7ilx90lSqPfvc1/46ezCTvruni5+/WMHnqoq4cIgDzFynZ9PnL+Pt3cHpbdDKZqiTISCVd3WUz+gW//PB/3Lp4paPN6DIGXQjHiBNiCOGsqqrCxcWFoqIiAMLDw5FIJNTV1TFgwAA8PT2N+5gXFzJkkvb398fFxYWCggJcXV0JCwvDy8uLgQMH4uLStcsfGhLId5lvMPqsa7vUjqCZm299gpuun8Fl0893tClOR2/RhUDQkwyIms7+3R9Y1UXW169zccJioQtBv0OMF32HWTOnsG7tU+Ts/IARwwex7KFXSLr5Ue576FU+XL+ZA7n/2LW//Qf+4cP1m7nvoVdJuvlRHnjkNUYMH8SfOz/io/eUXJEYZ9f+2uLuZam8+MxSPD2tOypsJ5oYGfyZe9hGXTT/v25NF5dcNIWmb34hs6CAfw/mEHL+xUR3URdeXp688PRd3L2s8xVPPvviW9zd3TjrzJGdayB+KQpZDspVLaNG1OmJLabcJJp7TtTpJFqblqNumaNFmpiO2mKai+Fv3Xtr03rMpwAZ19vUh7GRNo7DNjtMCQjw5YLzzyLttd47i8B0vHBrf3NBT1NaWkp9fT1RUVG4uLhw8uRJioqKCAsLIzw83GJ7Q6inq6srAQEBOo+Xiwt+fn5UVlYSERFBfn4+BQUFRERE2DVBWGRkKD999zbDY6/iyIEv7NZuf2TB7U9xzVVTe3TQ7U30Jl0IBD1B8MB4Du3NoLq6ulVd/LHzY4IHxlOSp/tmI3Qh6A+I8aLvERjgx+23zeH22+bw98F/+Wl7Dtt37OX19E85+m8eEyfEMvn8cUSEhxAU5E9QkB/BQQEEBfoRHOxPUKA/pWUVlJRUUFpWSUlpOaX6z3n5RWzfsZddu3MZPmwgZ4+PZeKEGJIXXsXoUUMccrxFJ0vZvGU7r6Uus0Nr0STMlpH+3WH+rR/D2dZ08cezSPVVawzTL1y0DWg0Bbi61uDq50cjNOtCNoULjqdzIu93jv9yMQnJowgO7vpj5c03JKJ85m1OLl/IgFDrEV1t8eIrH7J2jaILFkQzMhY4cAg18USjc4rEKUGRrSFZt4DEuDgS0Zc9VqeTGKckVqUh0zB1JSsFqVwKKg2ZmpGkSOVgPLfWPQ0Z8lQU2Ro00fo+5YnEZGeSHK0vqYwKjUbXQcv1ybb1oS/XnGSyTYo0DmmuCo3JnJu27LBGyl3XM3biPFLuvr4T59vxmI4XwjHihNTX1+Pl5WUMQwsKCqKqqoqTJ08ilUotwtMaGhpobGykoaGBoqIiY1KxgIAATpw4QV1dHZGRkZw6dapb5sGGDQhi9w4VF8Uv5o1XH+TMbp5v2Re5fv4K5DdcTuJlkx1titPS23QhEHQnBmdHfn5+u7ooycsybi90IegPiPGibzN61BBGjxrCAvksAKqra9m1+wB/7j3Evv1qSksrKC3VOz/KKikpqeDMsdHs3afWO0n0ThP955HRg3jkgVuYOCEGLy/PdnrvGV5+7SPuu/sGu7UXnTCbse++y+c51zJpkLku9vLVy5+AWdUaSZNBF414DRyItlpDZaVBF+GMPjuXjY+nUzBkFuuj7aeLe5dezyur1rHyieQO7fdVZjajRgwmZvTQLvUfHSODjFzUQDRZrFLmIFNkNzsGopPJVOUila8iKzmNeHUuOSSxzDSfR3waGk1ah/qVKVYb+4hOmI1MqSRXDURnsSlDhiK7uYOW621pXU16agYyRbZJ3pF40lRJZMhTSV8ab+y7dTust+zv78O1V03jXdVGoyZ7E6bjhXCMOBH19fUAxozO1dXVeHt7c/r0aby8vAgODrY6Z8/Ly4uwsDCKiorw8vLC3d2dkpISJBIJrq6ulJWVERERQVhYWLfZHhToz5efpTLrmmXEXzqJx5cv7La++hLffLeTm297gqxNr3PGmOGONscpqa+vx83NrVfqQiDoDkKk0yn8NxOtVmuzLkydI0IXgr6KGC/6J97ensRNlhE3WeZoU+xCTU0t772/ibwjm+zSXn19PW7DF/PGE0e48rlrmH3sLTYkx+p1cYovFiXx1J6zUGQnt3j2bXQ16EJCY1UVh0+coqSkUa+LKM5NPBel8ntkilWMtGOunSWLryViyAwUjy7Ew932R9WX0j7k1dT77GYHAFmbyECGIsHMKxAdgwwlm7LSiI+fSRJydAEiaXQ232nsSJM+okcSa/wjnjSNSav6yA/AZJt2UG9hQw7ELrN2HBktHB+t29E6KUvnMfOq+3qVY8TaeCEmRzoBWq2WvLw8NBoNgwcPxs/PDy8vLwoLCzl27BhlZWX4+/vj4WF9jmFdXR2NjY2EhYVRU1NDU1MTUVFR+Pv7A7q5U+ZzBLuDoEA/tmW9RaC/H+Mm3chvu/Z3e5+9mXvuf5k313zO4X2fC6eIFUx1kZ+f32t1IRDYk9Co6ezbpeqULkrysogcNkPoQtDnEOOFoC/x2Rffs+Cmy7vcjoUuEp7hk08eZNz6ZKZMmcKcOXOYMmUeyvoHydZYTpVwaTLoYjoXXObD3+k3Mzl5E6V6XUROuhiZRMZsc6eBHZDfOJMvNnxn8/ZZ3/5KWFgwsrNGdblvdW4OyGJMnEQ5KOPMSvvGKckxro8nTZONQpaBvJtK/7bIcSIHVbYCu7gBbXR8tMfgQRFMmjiGzzd8b4fWupe2xgsRMeJgtFotFRUVaLVaQkJCcHNzo7Cw0Fgyq76+Hm9v7xYJwsypqqqisrKSqKgowsPDKSwsRCKREBISQkBAAFqttkdDP+9dOo9rrprKrckrmTghluee6t767r2NbT/tQX7bkzz52CJefcnOnu0+grkuysrKer0uBIKuEho1nSP7P6OysrLTujiwZz2XzljMjm0fCF0I+gRivBD0Nf4+dJTIgV2LTmpdFzN4eNMlLGtNnLvYAAAgAElEQVRTF7pSr6WlpZSW6nSRsOJ/jL+9ED8/P0ICA9EGBKCt1cK42XSDX4QoaRgH/j5q8/Zvvv05yx+4xQ49qzl0AIgdaeIYkaFoI8eGjmiSMzUYJv9kpUiRt5Obw3aT0lmizGmR/wV1Op1PUWva9iEO0IHIkzZYds+NPPDoKq6efYkdWuse2hsvRMSIgyksLKSsrIyAgAD8/f05fvw4jY2NFBYW4uXlRVBQUKuDueHXi4CAAJqamqisrMTLy4vw8HAqKyspLS1FIpE4JGv64EERbP1qFcOHSrni6mW8s3Zjj9vgbOw/8A+PPfEWL6Z9wO4dKuQ3dv3XgL6KuS4iIiL6hC4Egs4SPDCev37/wC66+PSjZxlxxhyhC0GfQIwXgr7GwcPHGTViUJfa6Ald/LN1A8xOsC3FRQcZNWowBw8es2lbTV4RBw4cZeIEOzzeZ61CmSNDYUi2Ej+TJHJ0U006QHyaqlP7WUWfw2RmvPmyDhCdwGwZHDhkXk0nlxxkxNjhIp4xZjgaTRH/HM3remPdRHu6EHd6B2P4JeL06dOAbr5TREQETU1Nxpwj1qivr+f48eMUFRXR2NhIYGAg5eXlAMablyEE1JEsXngV77z1KPv2qxk4fCZPP/8uZeWVjjarR8n+OYe5Ny7ntjtWMl42mi8/fYmgQMdfG2fGXBfu7u59ShcCQUcw5Aaxpy62Zb1BiHS60IWg1yPGC0Ff49ChY4wcObhLbXSrLk6uJ1EqJW7DbFZ3ORzCOqNHDuHvQ//atO3P2/9k8gVndb1TdTqJ8owWyUchnqUKGRnyREwr2+pK5+qXZaU0fzZuoMtNYupwsHBK2Io+D8gm0/K++hwj5m223kc0ycuSyFHGtSwTLM+ApGVdj2rRc+45Y/n1t332aawbaE8XwjHiALRardHj6urqSlhYGLW1tRQVFSGRSHB3d0cqleLl5dVqG4bkYdXV1eTl5VFXV0dDQwMVFRUALbKxO5rwsBBSn7uHI/s/x9PTA9mkm1h630vkdiBErjey4asfmZa4hOdTVSy+bQ4/f/c211w11dFmOS1t6QLoc7oQCGwhRBrPsYP/7RZdHM39nOCB8UIXgl6HGC8EfZmIiBBGjei4Y6THdDEymUyNBk1mcrdEiwCMGjmYiPAQm7b9ecefTD6vg46RHCVxUsu8IbEqja4ErwnRyZlkK2iRZ0SekYTKkJclPg2NKrZlHhL5AZPpN/HMTIIcZRzSxHQ67B6JTma1QkaG3NB+KjHZGlRJkKNconfI2NBHfBoaVZJJO3IOKLJblOrtKudNGsuOnc7lGOmILiRakU2qR9FqteTn51NXV4eLiwtNTU0MGDAAV1dXCgsLmTNnDr///nur+9fV1QHg4eFBaWkp1dXVBAUFUVZWRm1tLV5eXkRERPTU4XSaD9Zt5vX0Txg7ZjgzEi5gxvQL8Pf3cbRZXeaw+gTfb9vFqjc+Zvy40dy9JImzx8c42iynpz1d+Pj4MGDAgFb37yu6EAhMCY2azt7fVN2uC0NEikDQGxDjhaCvc27cAj5cq+yQc6Sv6eLgoWPcuEDBr9vebXfbefMf48H7buZs2egesEzQFr/u+ovXVmfwwTtPOtoUoOO6EMlXe4CioiICAgLw9PSkoqKCxsZGBg0ahEQi4dSpU5w6dYpBgwYZ5+61RXFxMXV1dfj4+BAQEGBMIBMZGUlNTQ3u7u49dFRd46brZ3DT9TP49vtdrP9kC8sefpWzxo5kRsL5zEi4oFOeckfx6859ZG7ZzqbNP9HU1MTcq6ex4ZOXGDok0tGmOTUd0UV7/tu+oguBwKCLyGEzOZr7OeXl5d2uC9NSvgKBMyLGC0F/YuTIwRw6dKzd78J9WRd/H/qX0SOH2LTt4UPHCOgDP672BYID/fn7oG1ToLqLruhCOEa6Ga1WS0NDA8XFxURGRtLQ0ICLiwsuLi5IJBKCg4OpqqqitrYWb2/vVh0jDQ0N1NbWEh4eTnV1NWVlZeTl5eHi4kJpaSne3t5thsY5K5deMpFLL5kIwM+//MHmLb9w43wFTdomZky/gBkJFzD5/HG4uDhPNvjaunq+/W4nmVu28/XmnxkxYhCJCRfw4btKRnVxTmh/oaO6aI2+qgtB/8Sgi/Mvmk+xZislJSU9pgvhHBE4K2K8EPQ3Ro0YxMHDx0lsY5u+rouDB48xapRt36mLS8oJCQ7oZosEthASEkBxcbnD+u+qLoRjpJuRSCSEhoaSn5/P6dOn8fb2pqKigtLSUgICAqiqqkIikeDh4dFqG7W1tRQWFqLVanFzcyMiIgJfX1+qqqooKyujqampB4+o+5h8/jgmnz8OpeJ2DqtPsHnrdp5PVbFrTy6Do8I5I3Y4Y2KHMSZ2OGfEDmdEdFS32/T3wX/Zt/8If+1X89eBI/y1/wg+vl4MHTyQxIQLePzRhYSGBHa7HX0NoQuBwBKJRMLEybfxyw/pDtGFcI4InBExXgj6G6NHDmHvX4fb3KalLvbz8a2zWV86jwe/uI/LzHSRlSJFfkBBtllOEGfWxQlNEedMtK3KzBljhgvHiJMQGhLImNhhDuu/q+OFyDHSTZw6dQo3NzcCAgKMoTvV1dVIpVLjBTIQGhqKn58fAFKpFI1GY1yn1WrRaDT4+/vj7u5OYWGhMYOuIUFSU1NTny8l9/fBf/nrwBH2H/iH/QeO8NeBIxw7VsCY2OGcdeZIIsJDCAjw1b38fHTv/r74+/uafPahoqKK8orTlJefprziNBX6z2X696qqGv45mmfsY0T0IMaOGc4ZY6I5I3Y4Z4wZzrChAx19OnotndWFOUIXgr6EQRfRZ1zLqRNbHa4L4RwROANivBD0V2pqahk+5mryjmyyWGddF2q+uv0qVh8LJnTOStYuHA8068KaY8TZdRExZAbHDn+Fh3v7v+FHj7mKXdtVBAeJKlKOpriknEkX3sLhvz7v0X7tNV6IiJFuoLGxkdOnT6PVaqmoqCAwMJCgoCCqqqooLy8nKCgIb29v6uvr8fT0xM3N+mVoaGhAIpHQ0NCAt7c3J0+eJCgoiNLSUgoKCow3r/4wmI8eNYTRo4YwZ9bFxmV19Q3s1ztLTmgKOXWqlCNHTlBeWWXh+CivOI3srFHk/HmQgBbOEt3nQJNl06aew113zOWM2OG4uvb9c9tTCF0IBJYYdJF086Pk7HiXiooKh+tCRI4IHI0YLwT9GS8vT265eSbpaz4nedHVxuWt60ILfiGcGhTF0PfXkHlDBgtH9V5drH7rUxbdOscmpwhAcHAAJSXlwjHiBDhiWpM9xwvhGOkGXF1djYmLfHx8KCkpoaKiAk9PT8rLy/Hz88PDw6PNsE9DFt2goCBCQ0ONiY8CAwOprKxs9aL2Jzzc3ZCdNQrZWaMcbYrABoQuBAJLXF1dmX7FvWRtetWpdCGcIwJHIsaLXoY6ncS4XJZp0rBf4c/+zX1338CFUxe2cIy0rgt38AnGffB9vDb7ZeL+s53kVkqwGnSx99V47vlSN4XG09OTS174nWVj9Lo4sobEi5TEqlQgl5Oh31emyCYzYQuJcUpy9MuSVBpMu1KnJxKnzDH+LVNkW5S/bY9XVq1j+w/v2Lx9cJA/JaUVHepD0D0UnyojJLRnUwzYc7wQLnI7UlJSYix3FRCg85a5u7sTFRWFp6cn1dXVaLXaFuE8Bmpra4371tXVkZ+fT1NTE76+vvj5+VFXV0d9fT2nTp3C1dWV8PBwY6ibQODMCF0IBJYYdBE8MJ79ez4FnE8XBueIQNBTiPGiN5JFismDssA+hA0IYkbCBbz/UaYNuqgDiYQBHnVEJy8jKUNOit6nXVtbS5OLLnlqg14Xu968ntsaXic3N5cff/yRNbefwXcPzGNjgV4X+qfDDHkqMdkaNBoN2QoZOco4pHG5LNM0L8uQp2Bwn+ucIqDQ76PJVoAyjsR0tc3H/f5HmSReNpkBHXi4HjliMIcOH7N5e+uoSU+UIpWavBLTaWl5FilSqfHc6haltPy7w/01n78WPaVY69/5OXzkBCOGd38OSOie8UI4RuxEXV0dVVVV5OfnU1xcDOguUllZmTERjFQqxcfHB19fX4v9DeFrXl5exjrLWq2W+vp6Y1ugCxcKDQ3tuQMTCLqAvXRhWn9c6ELQ2zHo4uLpt3F438eA8+pCOEcEPYUYL3ohWSlIpc0RBQL78lrqMh57Mp2ysvJ2dBECNRVUNLgB8SxVyMhI1T1Ul5aWUuMdhZc7SFxcaGr6jd9+Gsljd1xkbEs6KY4x7moOnmypC5liNYZgj+iE2cgAmWKpMSpItyyDTVkAWaxS5rTYh+hkMlVJ5ChXWX34N6emppYHH32d11KXdeg8nXfuWHb8uq9D+7QgKwWpNI4Ns7N1Dh39SxWrJE6aSLNfJ540jWmETBYp8q7+789A3jnPilPy2+/7OefsMd3eT3eNF8IxYic8PDyQSqXGEM0TJ04Y5+aVl+vKFrm7uxMWFma1PFBYWJjRy9XU1ERERARubm4UFRXR2NiIu7s7AwcOJDw8vMdriQsEncVeuigoKBC6EPQZPDw8OGvSfDZ/+Xqv0IVwjgh6AjFe9DKyUpDKM5ApstGokhxtTZ/lm8w3mHuToh1duEJpHpUNugio6OTVKFCyJF1NWFgYkqZaooJB29REREQiyR+uZJavXhc/PMjEWUq+P36cJpeWuogdaTkFxtoyALI2kYGM2Qlm66NjTJwnbTN56iJ+/m5N+xuacd45Y9nxWycdI+p0EuUZJKk0FlN+4tOyUchyUC7pxsgNmQxZRiodCKpxanb9foCJZ9tWTagrdNd4IRwjdkQikRAYGEhUVBQ+Pj4UFxfT2NhIRUVFuyWvGhsbcXNzw9XVtcVFAsjPz6exsbEnDkEgsDv20EVTU5PQhaDPEDwwnmJNVq/ShXCOCHoCMV70IuLT0GgsHyYF9mVEdBSPPbKQu5e90gFdRJO8TB+p0diIS1M9ri5QqtdF1cbbue6665gyZQpDbpWgylYgs4u1OSjjzKaj2DjN6qYFj/PU44sZPkza4V7PGDOcyIgBlJVVdnhf9ZYN5MgULLU6vEWTvEyFyljNx2QqjTqdRH20VIZcN+3l/RQpUrPoD3V6osWyFsQuY7UClKva9xxlpbQ8ty2aVaeTKJWSkqWz0bBNYrrauM7qfgYbzffpBLW19QQG+fVY7sfuGC+EY6SD2FLc2NXVldDQUAYOHIinp2eLUE5r1NfXk5eXB4BGo8HNzc3CgyUQODPdrYuwsDChC0Gvw5ouzBOa9iZdCOeIwB6I8UIgsKQtXVw5cwqJl03m7mWptusiPo335n3Oh/+3G5CgKQFXNzcK9rzDshf2c97jP/DFF19w5MiLdkyYK2vOL2L2aiUXLAB33P08s2ddxMwZF3a654unTODl1z7q4F5qtmzIgdiRtOrei4+3fn6ik8nUqEhCl4BWk5nMzTOTIGOTybQhXftJM9s+w+Z5YayRlSJFjsp4PnX5XRItIk0ckRfGwGtvZHDeOWM7vF9b9PR4IUYKG6hugPzTUFID9U3g5gqB7jDQD3zbiMb08PAgMjJSV/7HZFBuaGjg1KlTDBgwAFdXV6qrq43zoSorK4mIiODEiRPGklmGXzwEAmeiJ3UhkUjw8vISuhA4PW3pYtCQ1qu89BZdiGo1gs4gxguBrcy6ZhnZP/fNVK5xk2Vs/CzV+HdHdDFv7nTq6uq57qZH+fiDp63qwt1FS0FBgVEX59+2nI/ueIPXfQuoBIIiImDncUqibmDGJU1EeOh1oc4lB+jSBIj4mSSRQa4aWvcyWHLt9Q9z9ZypzL16Wld65+47ryNEOp0nVixCIpHYuJea3ByQzbZT1FP8TJKQsykrjfh4QL2FDTky2m9elxcmLjWdpfHJVk5fFpsyZCiymx0s0QmzkSmVFufbIi+MMgfM88IolXobDXlhss3ywuQila8iK7ljVaZWp39Kzs4POrCHdRw5XgjHSDsUVcM/5dCkBfReq/oGONkAJ6thWCBEWuZ0aYH5xSkoKGhRG9yQ9KWhoQHAKGgfHx+RMV3glPS0Ltzd3YUuBE5PW7qYdu2j7D/UvjOhN+hCOEcEHUGMF4KOkP1zTp+9t5hG3HVGF/IbL2dgZCgx4+byw5Z0IiNNkqW6ujPIu6bFFAKXoTdy1UUfce+HHhCrf76IHERU5Vts/uFJEqaDaQLRA4fUEN9ZJ4H+4V6eSEx2pvFBOytFijxDhsJkGUB+/ikumr6YN1c9zLRLzulkny25564kXn09g3uXzrNLex0nnplJIN+URVp8vH6azmxW23BKo5NXo9gQx5L0BCvT0+JJ05i4KPT5fcDSmdWZvDAKq3lhlM0OHhv4YN1mZs2MIzDAz7YdWsHR44WYStMGhVVwpLxlGI/W5F2rhSOlcNzG0tmmF8dQJq66uhpfX188PDwoKCggNDSU/Px8Y1iQGNAFzoYjdFFSUiJ0IXBq2tJFknwF61VP9yldiGk1AlsQ44VAYElXdDF92nls++Y/TE28ky83bQOgoaERQgbRpJVY6OLcJfdz46BBhPppKcnPx3XQlTyzOJL18wfrc0ropl6okiBHuaRLSUCjkzPRzcRozlchz0hCpWnpFPly0zamJt7JT9+9bTenCMC9d83jldfXd8RiYmSQk2u/zKfxJtNp1Lk5yGYn2BhAY5IXxsraFnlA5DhFXhhTXk//hLuS53bJEmcYL4RjpBUKq+CojSf+37L2L5JpchfDxSktLaWwsJD6+noiIiLw9vYmKCgIiUTCgAEDun4QAoGdcZQuTp8+LXQhcFra0sU8+QrWq1Ya/+5LuhDOEUFbiPFCILDEHroIDwtm/+4Mtm//k4unLybrmzxmPr2ebGWiFV3MJOW//yUzbRZRel1EJ2ea5P/QOS3i05o/6/JnmOUFsXFZy7Y1aDTN0zF+zN7NRfGL2b79D/bvziBsQFDHTl47BAb4MWfWRaz98Gsb94gmYbYMDhxqvepMVorVhKWtEj+TJA5wSK2b/mJRpafNfdNQJWWQau6dUqezRJmjy2Vidk67Tufywpjyzfe/MUgaRszooZ22wlnGCzGVxgqF1SYXp52kL4bV/5aBBIjyt76di4sLAQEBFBcXU1JSgqurK+Xl5YSGhuLh4UFjYyO+vr4cPnyYyMhIOx2JQGA/HKmL0NBQ6w0IBA6mLV0YnCJas9V9SRdiWo3AGmK8EAgs8QyNsKsunl15J3/uO8zK594mNMSXRQuuYthQqdPp4uChYzz6RDq1tXWsfvVBzho7otv6WnrnddzzQBrzb7zcpu0NOTdWZSVbcQSoSU/NgFar1lhtkRhZDhuWpJIjm012B2cmxS9VkBq3hFTTcBB1LjkksSzefJlj8sKY8/HHW1nShWgRZxovRMSIGUUmF6fFtbHhQv3TTniPv78/ISEhnD592nhx/Pz8aGxsJD8/n+Li4g4kDBIIeg5H60IgcEba0oV5pIjZ6j6lCxE5IjBFjBcCgSVF1eA7aDhgX12cNXYEGe8/yxWJF7Py2bd56RUVf+476hS6yPzfz9xz/8vcuEDBogVXsuGTF7vVKQIwInoQM2dMZrniTdt2iE4mU5VEhty8TK2a9MQ4lDkyFKutJURt5sAh0/10USg5OR2ZRtPSnmVJOeSYzmWJjkFGBpuMvz+Y5YXpNLq8MObVbXRlgS0r3ljjXdVGfP19mHrxxE5Z4GzjhXCMmGB6cUzpyIX6pxSOl7e+3nCRAGpra40XByAiIgKtLXWJBIIexBl0IRA4G23pwugU6Ue6EM4RAYjxot8Sn2bn8P6+RU/o4vIZU3jvbSXjzxrFhq++Z+TYa1A+k87Bw8d7VBe/78nloRWvMzRmNu+v28z0aefy67Z3mT7tvB6z4Y5F11BSWs76T7batkN8GhqNilhlnEmujTiUKMg2y49itiMzk9CVxE1MN07HiU6YjYwOTqNpYY6uDLCR6GRWK2RkyKUOywtjjZw/D7L2g695+fl7OtW3M44XEq14Egf0F6cS0Oqvgdm7BPB0BXcJNGihqk6fCMbKtmhhWBAMCmi9v4qKCmOEiKurK5GRkbi6uiKVStFoNN15qAKBzTiLLgQCZ6ItXSTJV5ChWtlvdSGm1fRfxHghsAd97R5iqosk+QrWr13ZI7qoqq7hx217+PS/2wgJCSRKGs7ECTFMnBBLbMwwux3f/gP/8PueA+zancsJTSEnT5aSdO105s2dTkBAO+VDupm4abfz1qqHGXuGncrx2oo6ncQlsDqz7UiT3k5o1HSKjm3BxaXjsx2cdbwQOUZoeXHM8XKFQf4Q6AmuJte9SQultbo5TlX1lvsdKdW9t3aR/P11k6LKy8u5/fbb2b17t3GdVCoFYNy4cWzevLkzhyQQdBlH60J8yRU4I23pQj5/Obu+fKZf60LkHOmfiPFCILDEkbpwKy9n4a3XsnhREn8f/JeftuewfcdeXk//lKP/5jFxQiyTzx9HRHgIQUH+BAX5ERwUQFCgH8HB/gQF+lNaVkFJSQWlZZWUlJZTqv+cl1/E9h172bU7l+HDBnL2+FgmTogheeFVjB41pGsnzY78uPUtwgYncOqEjZEjdkK9ZQPMXt2nnSLTr1jK/758rctOEXMcPV70e8dIUQ38W9n8t9b4D4R7w1B/sJb2w0UCIV4Q7AlHy+GElTCeIyW6pga3cZH8/Py48MIL+euvv6itrTWu8/T05KKLLursYQkEXcIZdCHy7QicjbZ0ccetD7N/83NCFwjnSH9DjBcCgSXOpIvRo4YwetQQFshnAVBdXcuu3Qf4c+8h9u1XU1paQWmp3vlRVklJSQVnjo1m7z613kmid5roP4+MHsQjD9zCxAkxeHl5dvocdTcuLhK+3fwGlyTcwfdbbMw50hXU6STGKcmRKcjO7LtukQeWr2LuVdM4Z+KYDu/rTLqwRr+eSnOypvUwnoG+MMiveduaBiitg/pGcHeBQA/wdm9e/08pnKjAWHvZtL3hQTA4sG1bDFEipogpNQJH4Ey6EAichbZ0sXTRw/zy5XPGbXuvLrJIkcpBZXuZvrYQzpG+jxgvBPam7fuGISGm9bUyRTaZ7SVG6ChZKaSQ1qF7Ymu6mHfzCn74bKXQRQ/z6859pK1ez7r3nnK0Kb2e5U+8yegRg7nl5is6vG9vGC/6bcRIcW1Lj5UpUl+I0l8cLbqMt5pKy4sY6QfDAnSeraGBUFyjmwNl3FHPkRKdpyuqjblPd911F2vWrKG2thZPT08WLVrU1UMUCDqMs+lCIHAG2tLF3SZOEaGLlojIkb6NGC8EDiNJhcbcU5GVglQeR8pI+zh29Y3qqn+o0mzeoy1dhHs2GB/+hC56jnMnjWXh/Cs576Jb2fbNf/Bw77ePv13i7mWp+Pn6dMop0lvGi35ZlaamsfV6yS0ujhYOlba8OKbkVcI/ZbrPhotksZn+j8PFUFFLqyxfvtw4laa2tpbly5d37KAEgi7ijLoQCHqaGTNm8Mwzzxj/bksXdy98mO0Gp4jQhVVEtZq+iRgvBF1hxIgRzJo1y76Nxi9FIYOMTY5zxLani6FBugdyoYueZ9rUSbz/f08weMQV7Np9wNHm9DqmX7GUSRPP4BnlHR3etzeNF/3SZVZYrTtvTz77f/z11xFAdzFC3RsYHtx80/r7VCOlDa5WQ36Mb1oYN6AJPy8XGpu0/HJcQpO1bbXQWHGS+oJDbVh2hvGTs3yRjJssY+NnqY42Q9ADGHRhfoOJ9IEofWJxrRYOl+m8tGabtdgxrxIifMHHHYK9dNmltabbGj5rdWW2xoTZ91gEgs7yxx9/kJuby+uvv85dd93FTXcvt6qLJbc9zI6NzU6RDuniVCav3L+OdSeax4u4lLUslGFsb8c7dyF/6nPjvtZCxLNSpMgzmv9OajEFJosUaSoxiliUygwgCZW+nKY6PZE401h0819fD6WTKFeSY7XdjiMiR/oeYrwQdIXq6mp+//13pFIpEydOZOPGjXZoNZqRscCBQ6iJb058mZWC1ORG2fJeam36oH7ZCwoOPKi/D8qlZMgUZOurjJjfQw1tCl04N6NHDaHg383EX34XN92QyC03zXS0SU7P8ROFnH/xbfw344VO5RSB3jVe9EvHSLk+m+35k85kkDRcl4xIC7IBunlMWi0cLofi6pYOET93CPCAslqoqMN4BYYGQpQu2S2786Gyrnkf03d3V5jsPMma22W54k0GDw53tBmCHqLcLMuz4QYT4aP/26ALs5uWn4d1XZTU6G5cLhLw8dDrwkr7JdV2PAiBwA4YovfWrFnDB9/t4cqrrmXuddcBuv+38+Qr2P+1iVOkI7r4J5MXVq5n6P0qPonU62L328jT5sO9a7ltPORnPsGDHwaiyNaQrPsWTmJcHIk0f6HPSpEiR4VGo/s2r05PJE6eSEx2Js3+kxyUG2aTrdEYHxJ0X+hpblv/EJAYk01msm6bDOUGFNkaMqNba7fjCOdI30KMF4KuYkhxaD8HiZpDB4DYkRZOkWbnbhYp0jikuVam4pgTmUymZqSF48TiHmpyf34xqeVNUujCOcn6+nVSHkhj2d5DpD53j6PNcVq2frOD+x56ldycj/H19e50O71pvOiXjpH6Jt17Qvx53PfgK2jyTiKNHEBBFYR6wfFK3Uk3JdATgjx0nqlAT/0FQnfyDe2BzrHSGnWNuu17Q+70Y8cL+Cozmz92fuhoUwQ9hOn/Y1OELgTOyDXXXMP27du7tY/a2lp83T353//+x/4DB1A8pmCefAXrVSs7r4vjRznCFOaMB7dC/Q7jF7J27UK9I30PX60/wvAbn2ex4Tt2dDKZqlyk8lVkJacRTxabMmQospu/2EcnzEamVJKrBtMagbLZCSZ/ZrFKmYNMkW3i5IgnzZjoW63bR7HauL61djuDwTmy4v5EUlNFJGJvJmT8NCQSF4sfgELd6wn1lnC8Uktlg6bTLnUAACAASURBVC5TnmGdt0s9YT5uSCQSqmrrya9xN+4b5lHL6HBddYscTSPlrUTraoH6w1kYM+4Jej0GB8muXbsYNWoUMLRT7ajTl6DMgaRlhvuimvTUDGSKbJNokHjSVElkyFNJXxrfCWevlXuoyf1559w0ZFb2MowXB4obKTZ7WBPfoxxD2ospvLN2I7cveRb5jZcTN9naleuf1NTUslzxJsc1Rfz520ddbq83PV/0S8eIuwTq9GPqrfIreUf1JSsevJW8Ksg7bRnqE2BycQDKzeYseZhclPomLOZEGft17T03rUcee4Nnn7rT0WYIehBTXZgidCFwRrZv394tlbtMK4R5enrSVFfLZVfMYu5116F85v9Yr1oJ2i7o4pzzmfJeGmnz4ZLnFzLSXBd7fmMbw7lhYmRLXUTHIEPJpqw04uPjSdOY/NppEioea9Zc7EiTb/7qQxwwX2aFFuujR1q02RVK8rKYdc0yUXWtl7O3GOqarDsuTN/nz5/P2vfWWujiZDWUm0TXDg8EqWnkrV435u25ucKFvSjyVmAda5UYDREjNk0lz5AjzbBc3GLan3oLG3IgdpnZ/S46BhkZnXP2Zm0iAxmKBGttKvltdxqy8Za7GcaLigbX5oXie5TDuXX+LM6ZeAaPPv4Gq9/y4eknkokeHuVosxzKy69+xIuvfMgzyjt4+YV77dJmb3q+6JfJVwM8mj+fOTYab09Pdu7ab7GdFsuLU1Lb7LUyEOSle2/SwmmzdaaEeHXJ7B7jp+1/UFpWwcwZFzraFEEPYqqLtuivuhD0Hzw9db9cL1q0iM3//Zjr9NNoFI/cxjz5Cqv72K6L8Sxc+zxzh/zAyuvnM3++7vX2HtOtjvD+4gSkUmnzK6455wfowrmN6+SgylZY/aXSEhkxdq5m2RGCB8aLvFV9ADFeCOzFxIkT0Wg0HZtGk6RCo9HoXoZ7X5LKtlxIXXb25qCMk1q9P9v6ECZ04TyMO3MEGz9LZf6NlzP3xuUse/hVamvbONl9lE8+/4ZRZ17D6eoa8o5sYkEnKs+0Rm8aL/qlYyTcW5fN1uBhWjB/Fu+qLG/I7i4tL05pLZSahfpE+enmOYFJThKaf90w4CKBwUH2O4bu5JHHVvPsU0scbYaghzHXRWv0V10I+gfjxo1j0aJFaDQali9fbqGL9aqVVp0jHdNFJOc/8j7vrV3L2rVruXcKbHv5CTLz9Rtqh/LAx1uav/ibvNJ02VNZoswhSWVYrkuqahs5ul9KHYDIMdJ3sHW8cKVJjBcCC7y9vTvnELFGdDKZqiTIkJOYbsPNTR8513lkKLIt780ajYaXporvUb2VGQkXsOvntYwdE83QmDm8/GrXp5D0Brbv+JOpl93J1m9+ZfsP7/DYw7favY/e9HzRLx0jXq4w1KReckhQAFMuHM+GL39ssZ27S8uLU2IayqOFEG+TUkFaOFpq2ZfhQo0I0SWRcXbWfbyFM8eO4KyxIxxtiqCHMdeF1TTP9E9dCPoPmzdvblEu3Zou1qtWMu/mls6Rruhi/MIUpnCE4/mA7BxmFG3myL9tGKnOJYckZsabL2sH/S+lBw71vGdEOEX6FraOF640ifFCYMHhw4ftVIlGT3waqiTIUS7B6BuJTmC2zMr9Tp1LjlnkXItt2nKcxM8kqQ3nsvge1fu5df4s8v/5mtPVNUy7fAnPp6o4+m9++zv2Mr748gceWP4aTz37Dmkv3st/Vj/CgNDAbumrN+miXzpGAEI8my8SwLzrEvhi4/fU1DTH5FQ1QFE15FfpLpABLbqLExOi94AB6lKobrDe14gQkAbY/xi6A5FbpH9jrgtrzt3+qAtB/8aaLswjR2zWxZ63Of/yFXx+3KQDfV6RqEgYETKeB+8NJUOeiOmPn1kpUqRS/TL9HPlNRj9DFin6HCNtOz3iWaqQtXx4QE16ohRpSvc5LYRTpG9iy3hRh5sYLwQ9QnyaiiRyUC5J16eRjiZ5WRI5yjhSzO+VScv0yVOjiZFBzoYt+n3UpC9RWjiZm++runtoW/dn8T2qb/DYw7eS8f4zaLUwe+79JM6+l/c+2NSrp9ls3/En99z/MpFDE9m46UcSEybz9X/TGD9udLf33Vt00S+TrxoY4K072UcrdH/fKp/FO6qN3LHoGuM2VQ2WFy/Eq+XFOVYGeRXW+xgRDIO6xwFnd55PVZG86GoCA/za31jQZzHXBViGqPUnXQgEYF0X6/SRI+tVKwEbdTF8Ial3vM38h+azDvSJJYcz7/knWDJGr4vkTLJJJC5OitLYUhIq45SZZFYrNhAnl6Jzh+hCu1WrpMiVS0hPaL20brS1tpMMpSvt77wQTpG+jRgvBM6D3mmhVLIkPUFX2jw+DY0KpMZ7JcgU2WiaS8qQnKkiVyonTqq7IyapVCTJ5cY2ZyZBhjIO6QYF2ZnJ1u+hLe7PQhd9hQGhgTx8v5yH75fzy697yfhkKw+vWE1iwgXMmzudy6af72gT20V95ATrP9nK+k+2MigqnHlzp/PCM0vx9HDvcVt6gy4kWq2oeVZUDf9UAFpY/vib3Db/SoYPjzJeGcMZ0gLBnpYX52g5VreNDuo9N63y8tOcNekGjuZucLQpAifBVBfmlQGgf+hC4LxIpVKHVDaxposk+QrWr9U5R4QumhFOkf5Da+PFfPl81q5dK3QhsJm+dN8w18W8m1ewTl/ZDMR40Vv578YfWP/JVnb8uo+FC65kyOBIJk6I5Ywxwx1tGoWFxfy+J5ff9+Sy54+DHFYfZ97c6cybO53BgyIcbR7g3M8X/TpixECYt+79n3K4RX4F76q+Qvn4YsDSazXI3+TilMO/5c3rTLeNDoZBvSi87RHFGzyrFFNoBM2Y6sKc/qILgcAca7ow5BxZp48cMdCfddGXHm4E7SPGC4HAEqGLvsmcWRczZ9bFlJZVkLnlF7b/8gfpb3/OYfUJJk6I5ezxMZw9IZaJE2IYMjiy2+woK69k956/2a13hPy+J5eGxkZd/+NjePC+Gznn7DO6rf/O4sy6EI4RPYaLpB0xmMiIULJ/3kPcBc3FyA2erFM14OEG+ZW6C2SN4b3sprV332H+2HuI1a884GhTBE6GQRdHWvm/3pd1IRC0hjVdrFetNEaO9HddCKdI/0SMFwKBJUIXfZegQH+unzud6+dOB6C2to5duw/w+55cNm76kSdWrqGqqpo5V15CVVUNQYF+BAcHEBzkT3CQP4H69+Agf4KD/QkK9Ke0rILS0kpKyyooKamgtEz3uay0kpLSckrLKvHy8iTr2185daqMCeNHM2F8DElz43n+6SVIB4Y5+KzYhrPqQjhGTDBcpAXyK1hy30stHCMGTlTACcOFsTIJKToYogKySJHKQaWxraa6gxHRIoK2MN68ylrfxjZd2N00gcBhWNOFeeRIf9SFcIr0b8R4IRBYYtBFWwhd9H48PT2YfP44Jp8/zrjs5Kky9u47hCbvJKVllZSUlLM/9x9KSisoK62gxPAqqeDMsdHs3acmKMiPoECDs0T3OTDIj9DQIEZEDyJ8QBCLb5tD9PAoBx5t13HG8UI4RswI84axA72YdXkcGZ9mcd211j0b1hKzRAdDlD9APGkOmPveGb7e/DMBAb7ETZY52hSBE2O4eanbuHlBe7oQCPoW1nRhGjlioL/oQjhFBCDGC4HAGmHeUHWi/VLpQhd9iwGhgVxy0URHm+G0ONt40W/L9bZFmDfcd9MlfPfDLsrKWkl7q8cQ6jMsqHfetES0iMBWwrxhuI1e2d6uC4HAVqzpwryUr4G+rAvhFBGYIsYLgcCS2uJCoQuBwAxnGi+EY6QVwn3g/lum8s57X7W77bAg87lNWaRIpSZ10wF1OolSKVKTV0o73yF1ddFt376jpK/5nMtnTO7WxECCvkW4DwwPxLrr1gxLXQgEfRNrumjNOdIXdSGcIgJrhPtA9Ym/xHghEJggvkcJBJY4iy6EY6QNbrziXE4fP8hfB9RWL5QEGGlLwhd1OolxSmJVGjQa/UuVRIa8dWdHVooUOSrj9tkKGRnyRNLbj8KzGREtIugM4T66//cSCV3ThUDQh7CmC1PnSF/VhXCKCNqivuSEGC8EAjPE9yiBwBJn0IVwjLTDS4/JWfNsKuE+4OkKEi14uOouniwSIv1saESdSw5JzDRNVxKfhkbTWnLWLDZlyFAsbV4ZnTAbGTnk2skxslzxJs8o77BPY4J+xwBvGBdG13QhEPQxrOni8w9Xcu2Vi/ukLoRTRGALYrwQCCwRuhAILHG0LkTy1XaIjRnGBWeP5seNG1kgn9W5RuJnkoQcuRRUmjTaL1QTT5rGZKusFKTyDJ09nbOgBceOF/BVZjZ/7PzQDq0J+ivebjAi2NFWCATOhTVd5P3+Vp9zIvS14xF0L2K8EAgsEboQCCxxpC6EY8QGXnxmKRFDZ3TeMUI8aZpsYhLjkEszjEuT2ijnq05PJO7/2bvzuKjq/X/gr2HfGVAWDy6FAno1xyUqleqWaKKV3VxGs+hrN690zZJoMTNMMlpRu2ZiVt5oUdzK1DCdsmukbS7j8ktEKbdhlxkG2WF+f+CMwIBsM3Nmhtfz8eCBDmd5j+e8z2FenvM5SUr9lEjLTERKVFIn19/Uiy+/j9df5S00RESWUpKrsJswwV7eBxFZn6jRMvj1avu/EE3BCYWoRYBF1gWAT4AksnIMRtrB0dEBy5bEdXFMjlDEZagQd/VvingBsbExiMjMQFxos0lzUjEvSdk0OMlJRUon19zYTwePQa3RYtKEMSZYGhERtZc9hCO2Xj8RWbcdW03x2277CIKAQpWy7QntTEVFFQ4dOYXjJ87gTM5FqNVaqNVlKFGXQq0pQ0mJFkMGh+LEyRz4+XlD6usFP6kPpFf/PCC0N4beFIaRwyPg5uYq9tuxuOyzF3DkaBbOXchDbm4xNBotStRaqNX672WGfz+p1At+Um9Ipd7wk3rD19cbIcE90advEEYMH4gBob3FfjvUCIORdoqb8yBGjn4Uc2ZPRuiNIV1eXvSKNMjTYxvGDDEKRhrGJEmIbv5a12+lefHl1Vj97vNdXAoREXWGLYcjtlo3EVF3djr7PH46qMShI1k4dOQUzp3PxcjhAzH6tqEYPCgUUqn31Q/wPg0hiJ83pL7eUGu0KCnRNoQl6lKor/45N68Qr7/9Xxw6koUbb+iFEcMGYuTwCIwZJUN4WF+x365JqXKLcPjoKRw+moXDRxq+Bwf2wPBhEZDJwnDT4FD4+no3CT+kUi/Dv19D4HQtNNFotKisqsF3+37H28s/Q37hZYwcPhDDh0VgxLAIjBg2EEKvnmK/7W6LwUgHvJU8H88vWoUtG97o2IyKeAixp5DY+OoQxS6kQ4bE5qEIAIRGQIYk7FKsQHQ0ACgQf3WMkVNncoDolmZq24ZNezBkcH/cNLh/p+YnIqKus8VwxNbqJSLqzjSlZUjfrMDGzXsQEOCHECEQo24dgifjpmJgxA3tWobUtyEguZ4/Tv2Fw0dP4dCRLOze+zOKitSQTx2HGdPGwcfH0xRvxeLKysqRvkWBjVv2wtvLE54ebhgxLALx8x/CiGER8Pb2aNdy9P9+N/Tr1eo0Wm05Dh05hSNHs5C+WYH1n+xEadkVzJw2HvKp0fD0dDfV26J2kOh0unY8MZj0ZsQuxuxH7sU94267zlQKxAuxQONbYRoNoNpA1jQoaabpGCMN0w5YJSA2/frzXc8NEQ9A+dtn8PXhUNdEZNsEQYBKpRK7jC6xlbDBVuok62MPfUr2yx73zx27fsQXm/bg4M/HIZ8WjRnTxmO4LNxi6z98NAvpW/Zi4+a9GDNKhofk43FvTJTF1t8VX+/6Eelb9mJ/5lHIp0ZjxtRxuHnkIIvX8fuhP7Bh8x6kb1Hg77ePgHzaONw30Tb+DW0dg5EOunAxH5P+8YzNPdHlzZQ06HTAwmdjxS6FiKjL7OUXWmsPHay9PrJu9tKnZJ/saf/co/gFLy1Zg1GjhmLi+FGYMH6U2CUh49sD+Hbvzzjwy3G89kocxo29VeySWvT625/gP+9vwvixt0A+dRwmThgtdkkGu3b/hPTNe/HDj4cxb+5UvJDAz3HmxGCkExKTPkBAgBTzn5gudintUlp6BTdFPoRzWdvFLoWIyCTs6Rdaaw0frLUush321Kdkf+xh/zx+8ixeWrIG7u6ueG3pE1Y5mGf2mQt46ZVUVFVVY9krcVZzS//6T3di8SupeHqeHE/9e7pVDyRbWVmFle+lY/XaLXh1yVz838OTxC7JLjEY6aTgGybiXNZXcHV1EbuUNs1b8DbGjBqKh+T3iF0KEZFJ2MMvtI1ZWwhhbfWQbbK3PiX7Yrb9MycVMVFZSFCtgDkfPPzi4tX46edjeG3pE7h9zDAzrsk09mceweJXUjHmNhleX9bZp3x23e49B7F4aSruGDMcy16Jg4eHm2i1dFRZWTleXroWmQeUWPZKXBtDO1BHOYhdgK16O3k+nlu0Suwy2nTi5FkcO3GGoQgRkRXTD8hqDRiKEBF1lgLxUUkw50OACwpLMGi4HKNGDcV+xVqbCEUA4I6o4divWItRo27CoOFyFBapLV7D088uxyeff4P0T5Ox/K0FNhWKAICXlwdWvB2PDZ8uw/pPd+LpBMs93ro7YDDSSY88FIOjytM4fvKs2KVc14uJ7+P1JPFSWSIiah9rCEcYihARdZIiHoIQi/S2p+y0vd/9gtvH/gv7Mt7H/ZNuN+OazOf+SbdjX8b7GHPX4/juh98tss4//1Khb/j9mDl9HDZ88ir6h4ZYZL3mMiC0NzamLcNDM+5B3/D78de5XLFLsgsMRrrg7defwnMv/kfsMlr1ze4D8PHxRNRomdilEBFRO4gZjjAUISLqpKtPn5QlZkKVJjfLKtI+/wbr1n+NrGObERzcwyzrsJTg4B44fXwL1qzdgi/SvzXrur7a8T9MmbkQJw9txG233GTWdVnarZFDcPLQRvxD/jy+3vWj2OXYPAYjXXBr5GCEhARi21f7xC6lRbxahIjI9ogRjjAUISLqgugVUKlUyIgLNcviN27ei19+O4FNn71mluWLZcuGN/DjT0exedt3Zln+0uQPsX3Hfhw+mAZvbw+zrENs3t4eOPLzp9j65fdY9sZ6scuxaQxGushaxxpJXbcNEyeMRt8+wWKXQkREHWTJcIShCBGR9fp614/I+PYAVq98XuxSzGLNf17A9h37sWv3TyZd7mef78aVsgqs/+Blky7XWn3y4RJcLtFgQ/oesUuxWQxGusjfzwf/+ucDeOOdNLFLaYJXixAR2TZLhCMMRYiIrNfZnEtISv4Qn3y4ROxSzOqz9Uvx8tK1+PMv0zwlaM26rTjxx1m8lTzfJMuzFcvfXIDDyix88NFXYpdikxiMmMALCbH4cP12FF/WiF0KAGBR4hokJz0hdhlERNRF5gxHGIoQEVm3MXfPwU/frxO7DIs4sG8dRt81p8vLyTygxDe7D+CNZfNMUJXteTt5Prbv3I8DPx8TuxSbw2DERN5Kno/nreCWmgsX87EzIxNPzJkidilERGQC5ghHGIoQEVm3pxJS8HbyfLi6uohdikW4ubnirdeexFNdeAStprQMD89egh1bu/djbHd9uRwzH30ZpaVXxC7FpjAYMZEHJ/8dqtwi/PzrCVHrePHl9/H6q7yFhojInpgyHGEoQkRk3QqL1Ni95yAeeShG7FIs6pGHYpDx7QEUFXfuKvx/zl2Gn/d/bOKqbNMv+9fjsbnLxC7DpjAYMSGxB2L96eAxqDVaTJowRrQaiIjIPEwRjjAUISKyfsv/8wWeeeqhTsypQLwgQLju13TIBQHxVnoqWDB/Jlau2tDh+T7+ZAf69euF4CB/M1Rle4KD/NG3bzDWp+0QuxSbIdHpdDqxi7AnTz+7HCOHD0TsrIkWX/cd0XOx+t3ncdPg/hZfNxGRJQmCAJXKNIO02ZrOhhsMRcjSunOfkvUz2/6piIcQC6SpVqAzUXZlZRVuHPQgcv/c1fVaclIRE7UdkzMzYKYnCZtFUN8JuHB2J1ycndo9z9DIWdj15XL06R1kxspsy/kLebhvyrNQ/vqZ2KXYBF4xYmJijTWyYdMeDBncn6EIEZGd68yVIwxFiIgsJHoFVJ0MRQBg65c/YPbDlv8PVmsSO2sSvty+r93Tb/tqHyJv/htDkWb69gnGiGER+GrH/8QuxSYwGDExVxdnLH7xMby8dK1F18uxRYiIuo+OhCMMRYiIbMfpM+cQ3CvAjGtouN3GcCtNTipiBAHxiqa34cSk5hh+pn+t+e03OakxTW7TiUnNMUmFIUIATp0+1+7pV763EQuenGGSdQOAIr71W5E6fQuSIl6U25eeflKOd99Lt/yKbRCDETN4Mm4avt71I85fyLPI+t5MSUPcnAfh6+NlkfUREZH42hOOMBQhIrIt2WcvIqx/b4uvNz02BRGZKqhUKmQmyqBMioIQlYUE1bXX0mPjcS1PiUFUEpB4dR5VZiKQFGWScCQsrA+ysy+0a9qDvxzH8GHhpr9qXpaIzKvv3fCVmYhTsQKEDiccCsTHihNODBsajsF/uxG//Hay1WnMEgTZIAYjZmKpgVhLS6/g/Q+2YuGzsWZfFxERWZfrhSMMRYiIbM+ZMxcwYEAfi69XlrjaMA5J6PjJkAGQJc433BLU8Fo6dikAQIFVScom8yA0DhlpciiTVqGrZ57wAX1x+sz5dk2blX0eDhILfaS9+h6RngITXRxjERKJBNln2giaTBoE2SYGI2YyPvpW1NXV47t9v5l1PS8mvo/Xk3gLDRFRd9VSOMJQhIjINgUF+SOsv+WDkYEDjEdnbek1AIBiF9Ihw+TxzX4eGtEoPOm8sAF9EBTYvqfLnD17Ef0teYVN9HwkypRIWtX0TTa/6qLprUqxSAeQHitAiElFjuFH5rkVqbmwAX2R3c6gqQkbDYI6i8GIGZn7qpETJ8/i2IkzeEh+j9nWQURE1q9xOMJQhIjIduXnX0b22fbdRiIuJZKimt16EZUEpQmWnH3mAvILLrdv2rMXLBwkhWLAQACnzhgCDkW8gFikGa60aLjtKKYhTAiNQ4YqDXIA8jQVVBlxCIV5b0VqLqx/b2Sfvdi5mVsJguwRgxEzuvEGARPGjcKadVvNsnxeLUJERHoluQrcNyWBoQgRkQ0bMKAPzrR124NVkF37UN/sa0VnH8lz1ekz5xE+oG+7prX4FSMAQiNkgDLrajCiwK50GRLnX3vTDbcdKZHVasZh3luRmuvaPmUcBNkrBiNmlpz0BBKTPkBtbZ1Jl/vN7gPw8fFE1GiZSZdLRES2a8fWFLFLICKiLujS/+5bSvQkyK/7wb9rsrMvICysfVeBBAf3wIBQyw9We000VqgyrgUcivi2r5wx861IzYX174OgoPbdmtSSpkGQ/WIwYgFvJc/H8ya+pYZXixARERER2ZfwAX2Rm1sodhltiMb8xreLXNUwzkZMl8ejuKQqxMDwfu2atqCwBKezOzF+RhfkZCkBWQT0sUaTsUJigbTMRLT9X9fmuxWpuazT51BYpDbDku0LgxELmP3Ivfj5txP449RfJlle6rptmDhhNPr2CTbJ8oiIiIiISHxT/nEX/vvZN2KX0abQuAw0DItx7YN9bLocaY2vnuiktM934R+T72rXtBFhfZFl0WAkB2dOARg4oCEYyUnFvCRlw/ghKhVUqhVo351E5rsVqblTp8+1O2hqSfMgyF45iV1Ad/F28lN4btF/sHPb8i4v68XE93kPORERERGRnXFzc8X/PTIJqeu2IW7Og11bWGgcMlRxzV6MxgqV6vrTtPO10LgMGC2+i1av3YI5jz0AF+f2fUwND+uH09nnAESZtpDWKFYhSSlD4uqr6UVOFpSQI6FxmJGTBSWAga0tI3oS5EhvuBXJAmlD1ulziOh0MNIsCLJjvGLEQsaMGoqePaTYvnN/l5azKHENkpOeMFFVRERERERkTZ556iEs/88XYpchipWrNmDB/Jntnn5geD+cOn3OjBU1kpOKmNj0ZoOmNh8XRIH42HQAwKkzTe8puvZ3896K1FyXghF9EDTfxJexWCEGIxbU1bFGLlzMx86MTDwxZ4oJqyIiIiIiImsR0FOKCeNH4dMvMsQuxaI+/SIDMfeMRs8evu2e55bIwSgyx/gZyiRECcZjgAxMUyGj8b1CoXFYnShDeqx+uhREZKqQJgeUSfOuhhzRmCQHlElREGJS0fAUX/PditRcYZEat90ypOMzthQE2TGJTqfTiV1Ed/Lam+vh6uqCZxfM6vC8D89egpny8Zg0YYwZKiMish2CIEDV+FJgIrI67FOyZrawfwbfMBHnsr6Cq6uL2KWYXWVlFW4c9CBy/9zV4XmfjH8Ho24dglkzJpihMtuW9vk3OHTkFN5955lWp1HEC7h6kYsReZrpxzyxVgxGRHBDxANQ/vYZfH282j3PTweP4fW3/2uSMUqIiGydLfxCS9TdsU/JmtnC/nk25xLkjyzC7z99InYpZjdiVCy2bngDN94gdHjec+fzMHnaszj6y2dmqMy2DY2chV1fLkef3kFil2L1eCuNCN5+fT6ee7Fjt9S8+PJqvP7qPDNVRERERERE1qR/aAgSFz2ORx9fKnYpZvXw7CV4dcncToUiANCvbzBujRyCTVv5cIrG0rfsxejbhjIUaScGIyKY9uBY/HlOhd8P/dGu6Tds2oMhg/vjpsH9zVwZERERERFZi/sn3Y6Ye0Zj3oK3xC7FLJ546k1Mvu+OLg8VkPD0Q9j21Q8mqso+fPn1//DMU+0fyLa7YzAikreT5+O5dg7E+uLL7+P1V/9t5oqIiIiIiMjazJg2DrdGDsH0h18SuxSTmjpzIW4fMwzTHhzb5WWFh/XFfZOi8GT8OyaozPbNW/A27p90O8LD+opdis1gMCKSYUPD8bdBN+KL9G+vO92bKWmIm/NgtmoQigAAIABJREFUh8YjISIiIiIi+xE7ayLmzL4fEUOnIS+vWOxyuiQvrxjhN03FE3On4iH5PSZb7qwZExAQIMXKVRtNtkxbtOI/GxAU5G/Sf9vugIOviqi8vBJhN03FpbM7W/x5aekV3BT5EM5lbbdwZURE1s0WBs0j6u7Yp2TNbHX/LCgswZ3j4/Dmsidx/6TbxS6nw77e9SNeWPwe9u9di4CeUrOs45HHXoF8WjTujYkyy/Kt2fad+/Hl9h/w33WJYpdic3jFiIg8PNzwXPzDWPrahy3+/MXE9/F6Em+hISIiIiIiIDDAD38cScfBg8dxR/Rc/PjTUbFLapf9mUdwR/RcHDx4DH8cSTdbKAIAn378CtI378WWL7832zqs0YZNe/Hl1wxFOotXjFiBwSNmYu+u/0DoFWB47cTJs3ji6bfwo2KtiJUREVknW/2fPqLuhH1K1swe9s/jJ8/ipSVr4O7uiteWPoEBob3FLslI9pkLeOmVVFRVVWPZK3EWfZjEfVMSMPbvkVgwf4bF1imW5e9+gf0/HcFXm94WuxSbxStGrEBLA7HyahEiIiIiImrNTYP74+st7+Cfj96PmY8sxlPPLsfuPQfFLgsAkPHtATz97HLMmp2IObPvx/bNb1v8CZs7tqZAoy3DrNn2fQXFQ/+XiCsVlQxFuojBiBWYOGE0yssr8cP+wwCAb3YfgI+PJ6JGy0SujIiIiIiIrNn46Fvx20//xbi7IvHJ59/ghogH8MLi93BEedqidRw+moUXFr+HfhGT8emG3Rg39hb8+uN6jBt7q0XraGzJoscxSz4BEUOn4eKlAtHqMIdLlwoRMXQaHpk5AS8vfEzscmweb6WxEtlnL2DWo4n4NXM9ZLc8jB1b30HfPsFil0VEZJXs4RJoInvHPiVrZs/7p6a0DOmbFdi4eQ8CAvwQIgRi5PAIjBw+EAMjbjDZev449RcOHz2FQ0eycElVgKIiNeRTx2HGtHHw8fE02XpMoaCwBAkvrERgoD+WLp4DLy8PsUvqtLKycixZtg75BcVY/mY8AgP8xC7JLjAYsSLDR9yGoSNiIAgBvI2GiOg67PkXWiJ7wT4la9Zd9s/T2efx00ElDh3JwqEjp3DufC5GDh+I0bcNRVCgP6RSb0ilXvCT+kDq6wU/P29Ifb2h1mhRUqKFWlOGEnUp1Ff/nJtXiIO/nMChI1m48YZeGDFsIEYOj8CYUTKEh/UV++226eNPdmDJsnWIe/wfeOmF2WKX02HL3liPtR99iaWL5+CxR+8Tuxy7wmDEigiCgJGjZmLH1hSxSyEismrd5RdaIlvGPiVr1l33z4qKKhw6cgrHT5zBmZyLUKu1UKuvhh+aMpSUaDFkcChOnMy5GpJcDU2u/nlAaG8MvSkMI4dHwM3NVey302nvrPwcby3/FEtfnoMn5kwRu5w2rV67Ba8sW4eFz8Yi4elZYpdjlxiMWJHueoAmIuooHi+JrB/7lKwZ90+qqanFklfXIfXDbZg+JRrTp47F3XfeLHZZBt/98Ds2bVFg2/Z9mPvPf+CVxXPg5OQodll2i8GIFeEBmoiofXi8JLJ+7FOyZtw/SU+n02HTVgU2bfkOyuPZhpBk2NBwi9dy9NhpbNryHTZtVWDY0DBMnxqN6VOiLV5Hd+QkdgFEREREREREYpBIJJBPHQf51HEovqzBpq0KxD+3Ej17+MLT0x3Dh0VgxNUvT093k623rKwcR5SncfhoFo4czULZlQoUF2swfepY/PLjx+jh72uydVHbeMWIFWFyTUTUPjxeElk/9ilZM+6f1JbzF/JxRNkQWhy++iX06okRwwZi6NABcHd1ga+vN/yk3pBK9d+9DIPXNozdooVarUWJWguNRovKqhocVZ7GkaNZyM0vxnBZOEYMi8DwYREYLotA3z5BYr/tbovBiBXhAZralJOKmKgsJKhWgBfVUXfG4yWR9WOfkjXj/kmdkX3mAg4fPYXzF/ORm1sMjUbbJPxQq8sMg9c2PO3nWmji6+sNIbgn+vYNwvBhEQjr30fst0ON8FYaIpuhQHxUEpSQi10IEREREVG3EzagD8IGMNCwRwxGiGyBIh5CbLrYVRAREREREdkdB7ELIKI2XA1FZImZUKXxahEiIiIiIiJT4hUjRNYuegVUqhUNf1aIWwoREREREZG9cbpvSgIyDyjFrsMsokbLsGNrithlUCu47xEREREREZHYnDIPKFGSa5//De3Xi8/tsGbc94iIiIiIiEhsHGOEiIiIiIiIiLotBiNERERERERE1G0xGCEiIiIiIiKibovBCBERERERERF1WwxGiIiIiIiIiKjbchK7ACLqgOgVUKnELoKIiIiIiMh+8IoRIiIiIiIiIuq2GIwQERERERERUbfVrmBEES9AEATEpOa0f8mKeAhCDDoyS7MFIF4QEK/o7PxkX3KQGiNAaGWHUMQLEGJS0endjYiIiIiIiLqltoORnFSkpMsgl8ugTFoFy+UU0VihUmFFtMVWSERERERERETdTJvBSM6e7VBiICbNnwwZ0rHLhq/gSE5OxoQJE8Quo9uZMGECkpOTxS6DiIiIiIiIyEgbwUgO9mxXAvJJiA4dj8kyIL2VZCQnNQaCIFz9ikHqmSY/RIwgIF7RcHuMfrqY1BzDz/SvXbtTovmtNPq/N11Ge261SU5OhiAIWLduHY4dO9b2DGRSx44dw7p16yAIguUCkmb7VUv7StN9tvmtYgrECzFITY2/+vN4C14tRURERERERJZy/cf1KlYhSSlD4uqG+1nGT5YhKSkFqfOjERfaaLJ4AbHpcqSpMhDd8AKE2HQAsiaLS49NQWKmCqrQhg+lUUlREJLkSFOpEI2rr8XGY5JqBVq7g8ZoGbExiMjMaFKPnjMKIAgCXF1dAQBVVVXt+kch09P/269btw7vvfcennzySfOtLCcVMVFJGJimQoZ+R1LEQ4gVgLSG27Ma9j8gMVPVsO/kpCImKgoxyESGYWdSImn7ZGSqVGhh9yIiIiIiIrK47LMXcORoFs5dyENubjE0Gi1K1Fqo1frvZRgyOBTHT5yFVOoFqa+34buvrxekvl64oZ+Am4b0x4hhA+HgIBH7LYnuusGIYlc6IEvE+KufCkPjEiBPisX2PTmI0394zElFSjogT2sUZkSvQJo8HbHpTZcnS1xtCDBCx0+GLEkJJM43zNfwWhJ2KVYgupVkxHgZScjKAZp/cr333nvhJCkGYByICIJwvbctGh8fH6utzVQaBySu5nooUk4WlJAjofE+FL0CKtWKq39RYFWSErLEzGuBWmgcMtKyIMSugiLu2r4smzyeoQgREREREYlClVuEw0dP4fDRLBw+0vA9OLAHhg+LgEwWhpsGh8LX1xt+Um9IpfrvDSGIprQManUZ1Bqt4btGUwa1pgx/nVPhi/RvcfjoKQz5W38Ml4Vj+PCBGC4Lx9AhA8R+2xbXejByNfCQJTb+YBiNSXIgPanRh8eWPoQCiJ4kB9JPNXlt4ADjj5gtvXY9TaYPHYCBrUy3c+dOBApD4YQiuLq6NglHVCpVh9ZJXdM47NFvizlz5uDtVd+bZ4XRkyBHLBouEGnh6iPFLqRDhsTxzfa90AjI0DSY6+j+2VhKSgpSUlI6PT8RtW7UqFFil0BERERkFmVl5UjfosDGLXvh7eUJTw83jBgWgfj5D2HEsAh4e3u0azm+Pl7w9fFCPwRfd7pjJ87giPI0jhw5hY//+zVqautwR9QwyKeOw3BZuCnektVrNRhpGHQVQFIUhKTmP003fHjMOXMKaDWeEFeNLhAFuceQnJyM9957zyggIctpHIgsWrQIAMwXjCAaK1SZiIiJQqxw7bIleVrjpxwpkRQlwGjXhun25oSEBCQkJJhoaUREREREZM++3vUj0rfsxf7Mo5BPjcbrS/+Nm0cOMvt6hw4ZgKFDBuDRWRMBAFptOb5I/xYJL6xE2ZUKzJg6DvJp4xAiBJi9FrG0ci+DftDVNKhUqmZfaZDj2iCsoQOsMxRpbNGiRVCpVJgzZw6GDh0qdjndztChQzFnzhyoVCpDKNJxoWhzVxs4oNHVTaGIy7i236bJgfTYGFwbX1XWMFaN0f7NR0QTEREREZHlvP72J+h14yRs/fJ7zJJPwIXsr/HO609ZJBRpibe3B+Y+/g98v/t9fL4+CVcqKnHPfU/h6WdTcPL/5bS9ABvUcjCiH3R1fkufEKMxP1EGpKc0fMgMjWjxMb4NV5JYl0WLFmH37t1il9Ht7N69uwuByDWhETIgfVcLT4dRYFc6IIto/baX6BVpkEPZMB5N9KRrfyYiIiIiIhLB+k93IqT/vXB0dMCff2zDJx8uwcQJo8Uuq4mwAX3w8sLHcOLQBsycfg/mzn8D/376Lag1WrFLM6kWg5GGQVcno/kQDHqh4ydDBiW278kBQuOwOlHW9H/jFfGISlKaqWTqrkLjEiBHOmKbPXdXER+LdMiRoB9JVRHf8MjoJk/fbRhXpCE7aQj3ml5B0vB0JaP5iIiIiIiITGj3noO4ecyjOH78DLKPb8HzzzwCNzdXsctq0223DEHmdx/g9jHDMPzWWLz25nrodDqxyzIJ4zFGDE+ZiWv9aRyhcUiQJyFWPwhrXAYyEYMow5gNMiQmypGUZH1XjZAtuzZ2SJOH98gSkalqtL9Gr4AqLR5CkzFEZEhs9FjnUKN9FgDkLQ/WSkREREREZAJPP7scBYUlSP80Gf1DQ8Qup1NmTh+PmdPH452Vn+PmMf+H9999HrdGDha7rC6RSIPH6kpyjW9OsAd+vaJhr+/NHtjz9rHn90ZERNQegiDwSYBktbh/kqX9+ZcKd46Pw6bPXsNtt9wkdjkmU1VVjcnTnoN82jjMfuRescvptFYGXyUiIiIiIiKirvpqx/8wZeZCnDy00a5CEQBwdXXB7q/fxfHjZ/D8S++JXU6nMRghIiIiIiIiMoOlyR9i+479OHwwDd7eHmKXYzbL31qAsP69cd+UBLFL6RQGI0REREREREQm9tnnu3GlrALrP3hZ7FIsYs5jD2Be3FT8a16y2KV0GIMRIiIiIiIiIhNas24rTvxxFm8lzxe7FIuaMG4Uxo+7DbP/9arYpXQIgxEiIiIiIiIiE8k8oMQ3uw/gjWXzxC5FFFMfuBu9QwLxXupmsUtpNwYjRERERERERCagKS3Dw7OXYMfWFLFLEdWrS+ZiV8ZP+PnXE2KX0i4MRoiIiIiIiIhM4J9zl+Hn/R+LXYZVyNi+EknJH6G8okrsUtrEYISIiIiIiIioiz7+ZAf69euF4CB/sUuxGuOjb8Xbyz8Vu4w2MRghIiIiIiIi6qKV723EgidniF2GVfn33Kl4f+0Wsctok1PUaBn8ekWLXYdZRI2WiV0CXYel9z0nFKIWARZZF/c9IiIiIqLuY9tX+xB589/Qp3eQ2KVYFRdnJ8Q+PAkfrt+Ox2dPFrucVkl0Op1O7CKIzC0lJQUpKSlQqVRil0JERNQtCILA8y5ZLe6fZGp3RM/F6nefx02D+5t82Yp4AbHpLf9MnqbCCiu/zuGvc7n4h/x5HPnZem+p4a001C2kpHTvUaGJiIiIiMg8Dv5yHMOHhZslFDGQJSJTpYKq8VdmIk7FChDiFeZbrwnc0K8Xxv49Ev/78bDYpbSKwQgRERERERFRJ2Vln4eDRISP1qFxyEiTA+kpSM2x/Oo7wsHRAaezz4tdRqsYjBARERERERF10tmzF9G/f29xVh49H4kyJZJWNb1qRBEvQBCufTW+qEQRb3yVSU5qjFmvPOl/YwjO/nnJbMvvKgYjRERERERERJ2UffYCwvr3EWntoRgwEMCpM9BfNKKIFxCLNMMtN5mJMqTHxhiuKomeJAfSd+FaDJKDPduVkE8y32Al/UNDcDaHwQgRERERERGR3RH1ihEAoREyQJl1NRhRYFe6DInzr4UcoeMnQwYlsvTJSfQkyJGOXfpkJGcPtitliAg1Y403hiCHV4wQERERERER2Z/g4B4YECpeMNJUNFaoMhCnDzkU8RCikqBsNk3DRSMNyUjOnu1QyiZjvJmDEaFXT/OtoIucxC6AyFJGjRoFQRDELoOIbJCPjw8iIiJw1113YcGCBWKXQ0RERFakoLAEp7PPIzysryjrz8lSArLJ0OcaOakxiErSRyFypGUmIiUqqck80ZPkQOwuKFZEA1lKyCavhhlzEWSfvYD8/MtmXEPXMBihbmPr1q1il0BENuL8+fOYOHEiFi5ciIiICEyePBmLFy9GVlYWhgwZgm+++QZ9+4rzyw8RERFZl4iwvsgSLRjJwZlTAAYOaAg2clIxL0kJeZoKK/R30+SkIqX5bNGTIEcKzuQokJUuw+RMc8YiQHb2BYSFiTUOS9sYjBARETVy/vx5JCQkYP/+/fD39ze8HhkZicjISEycOBFz585FSkoKwxEiIiJCeFg/nM4+ByDK8itXrEKSUobE1VdTkJwsKCFHQuNxVHOyoAQwsMmMoYiQKbF9XgqUsskwcy4i8gC1beMYI0RERI1MnDgRa9eubRKKNObv74+1a9di4sSJFq6MiIiIrNHA8H44dfqc5Veck4qY2HTIEldfG1MkNAKyxgOrQoH42HQAwKkzOY1mDsX4yTIolUrIJo836200AJB95gLCBjAYISIisnorV67EwoULWw1F9Pz9/bFw4UKsXLnSQpURERGRtbolcjCKitTmXYkyCVGCAKHxV1QSBqapkBHXKNYIjcPqRBnSY/XTpSAiU4U0OaBMmmd4ZC+gf1qNDJPNOerqVYVFakSO/JvZ19NZvJWGiIjoqn379mHx4sXtmjYiIgKbN2/mYKxERETdXN8+QQgRAvH5xt2YNWOCyZcfvUIF1Yr2Tx8alwFVXLMXW1uGmZ9GAwA7MzLh4uwk2uC07cFghLoFPpGGiNpj1KhRiIyMbNe0kZGRcHJy4rFFZKNGjeLg2kREJLrn4h/G5GnPmiUYMZecPdsBMz+NBgDefS8dr7/6bzOvpWsYjFC3wF+aicgceGwRH4MpIiKyBv36BuPWyCHYtFWB6VOi255BTDmpiIlKglKWiMwM88YimQeUcHNzwc0jBpl1PV3FMUaIiIiIiIiIuijh6Yew7asfxC6jbaFxyFCpoMqIM/vVIpu3fYf4J2eaeS1dx2CEiIiIiIiIqIvCw/rivklReDL+HbFLsQr/eX8TpL5euPuum8UupU0MRoiIiIiIiIhMYNaMCQgIkGLlqo1ilyKq7/b9hv2ZR7D05X+JXUq7MBghIqty35QEsUsgIiIiIuq0JYsex6Ejp7AzI1PsUkSRl1eMJ595B1u+eF3sUtqNwQgRWQ2/XtHYsuENBPeLEbsUIiIiIqJO+/TjV5C+eS+2fPm92KVYVGVlFabHLsKv+9eLXUqHMBghIqvg1ysaJbkKuLo44/TxLegXMVnskoiIiIiIOu3Tj5fik892dZvban757SRuHPQgvtm2At7eHmKX0yEMRohIdPpQRM/HxxO/Zf4XEUOniVgVEREREVHX7NiaAo22DLNmJ4pdilmt/fBLLHn1A+T+uQteXrYVigAMRohIZM1DEb3AAD8ovnkPQyNniVAVEREREZFpLFn0OGbJJyBi6DRcvFQgdjkm9++n38Kf51TY/fW7YpfSaQxGiEg0rYUien16B2HrxjdwS9RsC1ZFRERERGRaEyeMxo/ffYAXX16NhIXvoqysXOySuuzzjbsx5q45uH3MMLzx6jyxy+kSBiNEJIq2QhG9sP598PHaxbg9eq4FqiIiIiIiMo/AAD98+vFSDB4UikHDZ+C1N21rgFK9b/f+jFvveAwHfzmBrza/hZnTx4tdUpcxGCEii2tvKKI3ZHB/rHhrAcZNmm/GqoiIiIiIzO+xR+/Dheyv4erqgsC+E7Bm3VaxS2oX5fEzmPSPZ7D+05349KNX8N6KZxHQ00/sskyCwQgRWVRHQxG9m0cMwiuL5+DeB58xQ1VERERERJb17IJZuHR2Jy5cKIC/MA5x89/E9//7Xeyymjh/IQ8p736OW26fjffXbsFLL/wfNqYtQ3hYX7FLMymJTqfTiV0EEXUPnQ1FGvvuh9+xZu0WbNnwhomqImqbIAhQqVRil0Et4LaxXtw2ZM24f5K10el02LRVgU1bvoPyeDamT4nG9KljMWxouMVrqaiowsbNe5C+RYHcvGJMe3As5FOjETagj8VrsRQGI0RkEaYIRfS+2X0An6fvxufrk0yyPKK28Bdo68VtY724bciacf8ka1Z8WWMISXr28IWnpzuGD4vAiKtfnp7uJl3fiZNncUR5GkeUp6E8dhplVyowZpQM8qnRuDVysEnXZa0YjBAAoL6+Hg4OvLOKzMOUoYjetu0/YFdGJj5KXWzS5TbGviA9/gJ9jbX1BbeN9epO28ba+oLa1p32T7GwL0zj/IV8HFFm4cjRLBy++iX06okRwwZi6NABcHd1ga+vN/yk3pBK9d+9IPX1hqa0DGp1GdQareG7RlMGtaYMxcVqHPjlOI4qT2NgxA0YLgvHcFk4ZEPDMWJYhNhv2+IYjHRzdXV1KCoqQmVlJRwcHNCjRw94eHiIXRbZEXOEInobNu3Bjz8dxfvvPm/S5bIvqDn+Am29fcFtY726w7ax1r6gtnWH/VMs7Avzyz5zAYePnsL5i/nIzS2GRqNFiVoLtVr/vQxDBofi+ImzhpBE/93X1wtSXy/c2E/AkMH9MUwWDicnR7HfkuicxC6AxKVWq6HT6RAcHIyioiJotVq4ubkx3SWTMGcoAgAzp49HZVU1nnl+JZa/tcBky2VfEBljXxAZY18QGWNfmF/YgD52Pd6HGLh3dlP6C4UqKyvh6emJsrIyODo6ws/PDwUFBSJXR/bA3KGI3uxH7kV4WF+8mPh+l5fFviAyxr4gMsa+IDLGviBbxmCkmyoqKoJGo4GLiwvUajVqamoQGBiIyspK8O4q6ipLhSJ6cXMeRFCgP5a+9mGXlsO+IDLGviAyxr4gMsa+IFvGYKSb0el0KC4uRkVFBdzd3eHn5weg4V7A4uJilJSUGF4j6gxLhyJ6C56cATc3F7zxTlqH52VfEBljXxAZY18QGWNfkD1gMNLN1NXVGVLb+vp6ODk5QRAEeHh4QCKRIDAwEG5ubmKXSTZKrFBE74WEWFRVV2Plqo0dmo99QWSMfUFkjH1BZIx9QfaAwUg3odPpUF5eDolEgqCgIDg5OeHy5cuoq6sz3PvXs2dPuLub9pnY1H2IHYroLVn0OAoKS7Bm3dY2p2VfEBljXxAZY18QGWNfkD1hMNIN1NfXIy8vD0VFRVCpVKirq0NQUBB0Oh3y8/NRV1cndolk46wlFNFLTnoC2WcuYn3ajlanYV8QGWNfEBljXxAZY1+QvWEw0g2o1Wo4ODggJCQE9fX1KCgoaHLwqq6uFrtEsmHWForoLX/zafx++BS+SP+2xZ+zL4iMsS+IjLEviIyxL8jeMBjpBqqqquDh4QGtVgsvLy84ODgYDl4hISG8vI06zVpDEb3VK5/Ddz/8jm1f7TP6GfuCyBj7gsgY+4LIGPuC7A2DETtWW1sLAPDx8YGrqyvKysrg7+8PFxcXODs7o76+XuQKyZZZeyii99Gal7Bt+w/YtfsnAOwLopawL4iMsS+IjLEvyF45iV0AmUZ9fT20Wi18fX2h0+mQl5eH6upquLm5ISAgABUVFdDpdCgtLUVlZSVCQkLg4MBcjDrHVkIRfV98tn4pps1aBF19NW4aHMq+oG6N5wsiY+wLImPsC+pOuOfaierqamg0GhQVFUGr1UKn08HPzw81NTXIz8+Hm5ubIdXt0aMHD1rUabYSigBN++KjNQuxedt3OPtnHvuCujWeL4iMsS+IjLEvqDuR6HQ6ndhFkGlUVFSgsLAQEokE/v7+8PT0NBy4HB0dERQUxAMWdYkthSJ6zfviAflCLEucixBByr6gNq1cuRL79u3Db7/9hsjISNx1111YsGCB2GV1mT2cL+x129gDW9029tAX1H6CIEClUoldhtVjX1B3wb3Yjri7uyMgIAA6nQ5lZWUAAGdnZwQFBaG+vp6jQ1OXmCUUUcQj3sw5S/O+2LtzFZ5btApFl8vZF9Sq8+fPY8iQIejZsycWL14MAFi8eDF69uyJIUOG4Pz58yJX2DW2fL6w921jy2x929hyXxCZC/uCugteMWIH6uvroVarUVtbC6lUirq6OhQWFsLDwwM9e/YEAOh0OkgkEpErJVtlnitFFIgXYoE0FVZEm3jRaLsvbrl9Nj77eCnCw/qafuVk086fP4+EhASsXbsW/v7+AJr+z+Lly5cxd+5cpKSkoG9f29p/bP18Yc/bxtbZ8rax9b6gzuEVI9fHvqDuhleM2IGCggLU1NTA2dkZEokEjo6OCAgIQHl5OYqLiwGg1YOW/t5BotbY4u0zQNt98euP6zFt1iKcv5BnNG/jvkhOTsaECRMsXT6JaOLEiU0+3DXn7++PtWvXYuLEiRaurOts/Xxhz9vG1tnytrH1viAyB/YFdTcMRmxcZWUlqqurERAQAAcHB+Tm5iI3Nxc6nQ4BAQHw8PC47vwajYaXwFGr2heKKBAvxCA1NR6CIEAQ4qGfIyc15uprDV8xqTn6HyBGiEU6gPRYAUJMKnKgQLwgNLu1pvFrLa1H//OG7/r1PLenfX2h/PUzjLv3KRQUXG7yjjQaDdauXQtBELBu3TocO3asy/+WZBtWrlyJhQsXtvrhTs/f3x8LFy7EypUrLVRZ19n6+cKet42ts+VtY+t9QWQO7AvqjhiM2CidTofCwkLU19dDp9Ph4sWLKCsrQ8+ePeHh4YHKykq4u7vD3d39ustxdnZGTU2NhaomW9KxK0WUSNoegUyVCirVCkSjIRSJSgISM1VQqVRQZSYCSVEN4UhoHDJUaZADkKepoMqIQ2gn1wMA6bEpiMhU4dKlS/gm8U58NW8GvsltX19kKTfixcESAAAgAElEQVThltsfg6a04b7Z5ORkjB07Fjt37gQAVFVVtfPfgOzBvn37EBER0a5pIyIisG/fPjNX1HX2cr6wx21jL2xx29hLXxCZEvuCujMnsQugjtPpdNBoNKisrISfnx969eqF6upquLi4oKamBhUVFQgMDGx1/urqauTn50MikcDBwQG1tbW4fPkynJ2dDV+Ojo4WfEfmM2XKFBw8eFDsMmxKQkIClr2T0eHbZ2STxzcKNxRYlaSELDETcfoXQ+OQkZYFIXYVFHHXQo2Oarqeq68lrsbcGxv6osfIOxFR/TqyNb3gP7h9ffFX1lfoF34/7hrtj7/++gve3t6QSCQICAhATU0Nampq0KdPH9TV1XWyarIVo0aNQmRkZLumjYyMhJOTEwRBMHNVnefg4ACpVAp/f3+cO3cOjo6OcHV1RVVVlWHwvEuXLqGioqLF+V1dXdG7d2/U19cDAJycnKBWqw19UVlZabG+sLdtY09sbdvYU19Q540aNUrsEqwKP19Qd8dgxAaVlZVBo9HAyckJjo6OcHJygkQiQW5uLhwcHNCzZ0+4ublddxn6QZSqqqoMBzutVgsnJycEBwdb6J2Y38GDBzmwVgfdNyUBeecyOjzfwAGN4grFLqRDhsTxzSKM0AjIkIRdihWI7mQy0mQ9jV4rK9M29IUQgrCaGtQ7uMDVtf19kX1iC2b938uIiRmErVu3wt3dHV5eXnByckJNTQ1+/PFHntDJyNatW8Uu4bq0Wi0uX75s+CAqkUhQU1Nj6At/f//rXhJdXV2Nqqoqw/misrISTk5OqK2tNZwvrLUvrH3bdGdib5vu3BdEreHnC+ruGIzYIG9vb9TW1qK0tBRarRY+Pj5wdnZG7969IZFIrjsQUmlpKVxdXeHt7Q0AqK2txaVLl9CzZ0+4urpydGnCjq0pCO4Xg9PHt8DHx7MLS1IiKUpAUgs/GdiFpbbmWl/Uw9nPDzVAh/ri5jGz8VfWDgANV82sWLECa9asMUzDX3LJFvF8QWSMfUFkjH1B3R2DERtRX1+P4uJiVFZWwtXV1TDAWUlJCSQSCby9veHg0PqQMdXV1cjLy4O7uzsuX76Muro6SKVSODk5GX7u6urKgxYBAPLOZaBfxGT8lvlfBAb4dXIpMiRmZly7lcYM6usBN0GAY/kFFBTo+8IZrgEB0NVoAbSvL+598Fn8b897UKvVhr6YPn064uLisGrVKuzfv998b4LIxHi+IDLGviAyxr4guoaDr9qI4uJi1NbWwt/fH1VVVSgpKYGfnx+8vb1RUlKC2traJtPX1tY2eU2j0cDLywv+/v5wcHCARqOBWq0GAHh4eLQ5ujR1P+eytuP2sf/ChYv5HZ85ehLkUCIrp+OznjrTaKacMzh1nWmLi6sgcXRElUvjvnBBdUkJXGva1xfj71uAI79saLUvFi1ahN27d3f8jRCJhOcLImPsCyJj7AuiaxiMWKH6+nrk5eUZBv3S6XQoLy+HVCpFZWUlnJ2d4ePjg+LiYvj7+6NXr16GZBYA6urqkJ+fj/z8fMPBq76+Hq6urigqKoKfnx/c3d2h0WhQWlqKnj178jYBalHWsc2Y9I9nkH32QgfnjMb8RBnSY2OQ2ijnUMQLEISmr10LQkIRIQOU2/eg4ZUcpM5LgvLqT+vrdXDv0wdOdY37ohbVxcVwqGvcF1WoLixEhVvbfTF24jwcOvAp+4JsFs8XRMbYF0TG2BdExhr3BYMRK+Tg4AAnJycUFhaioqICEokEzs7OuHz5MmpqahAYGNhkxHNnZ2ej+evr61FbW2s4ePXo0QOOjo6ora2Fl5cXdDodfH194enpycvb6LqO/fY5Zj2aiBMnz3ZovtC4DDQ8oVeAIDR8xabLkabS314TjUlyQJkUBSEmFTkIRVxGGuTKJEQJAgQhClkJDY/0BQAHBwl0tbVwrWrcFw5wCwqCo65xX+gAAPUO1++LwL734PDBL9gXZNN4viAyxr4gMsa+IDLWuC8kOp1OJ3ZB1LKioiKUl5cjICAAAFBYWAhXV1e4uLhAq9UiKCgIrq6uLc6rVqtRWloKJycn6HQ6BAUFoa6uDnl5eXBxcUFdXR0EQbjufYP2QBAEPpXGRG6PnosVby3AzSMGiVqHKfrigenPY8fWlG7bF9Rx1n4s6c7nC2vfNt2Z2NumO/cFUWvYF0TGioqKeMWINdJfqlZeXg4HBwcUFhYCAAIDAyGRSFBdXW0Y5Vmveb7l4+MDAIZBk/Lz8+Ho6IiAgAC4ubmhV69ePGhRh/yoWIsXX34fPx08Jsr6TdUX02Ytwv/2rmNfkF3g+YLIGPuCyBj7gshY477gFSNWqLi4GBUVFYaDS1FRESoqKhAQEAB3d3ej6fWXtDk6OsLHx8cw0NHly5dRVVWFoKAg5OXlGZLdxvcL2jux/7fKHt374DOIf+ohjP37zRZdryn6wq9XNM6e3NTt+4I6zlqPJTxfWO+2IfG2DfuCyBj7gshYk74QuxgyVlNTAzc3Nzg6OkIikUAqlUKn06GoqMhw319jtbW1qKurQ1VVFQoLC6FSqVBWVgYfHx9UV1ejuroawcHBcHFx4f1+1GU7ty3HmrVb8M3uAxZdb1f7YuSombiQ/RX7guwKzxdExtgXRMbYF0TGGvcFgxErUlNTA51OB3d3d5SXlxtGjb5y5Qrc3NwQFBTU4ujObm5uCAgIgEQigbu7O9zd3VFSUoK8vDw4OjpCo9HAwcEBAQEBHB2aTGLLhjfwefpubNv+g9nXZYq+uG/Kc1B88z77guwGzxdExtgXRMbYF0TGWuoLXvNkBXQ6HfLy8lBdXQ0XFxcEBgaiqqoKBQUFhhGgAwIC4OLi0uL81dXVqKurQ0BAAAoLC+Ho6IiQkBBotVpotVrU1dVBp9MxzSWT+nx9Ev4ZtwxVVdWYOX28yZdvqr4YfVccDuxLRX19PfuCbB7PF0TG2BdExtgXRMau1xcMRkSm0+mg1Wqh0+ng7+8PjUaDgoICwyOzampq4O7u3uro0ABQXl6OsrIyhISEIDAwEAUFBZBIJPD394ePjw8PWmQ2H6Uuxr+ffguVVdWY/ci9Jluuqfpi/L3zcOHMLsMBj31BtoznCyJj7AsiY+wLImNt9QVvpRFZQUEBNBoNfHx84O3tbXjsVUFBAdzc3CCVSls9aOnHzfXx8UF9fT3Kysrg5uaGwMBAlJWVQa1WQyKRcHRoMqv3330ex4+fQeq6bSZbpin6YsCQ6djyxevsC7IbPF8QGWNfEBljXxAZa6svuEeLTJ+4XrlyBQDg7OyMoKAg1NfXo6amptX5ampqcPHiRRQWFqKurg6+vr4oLS0FAMPBy9vb2yLvgWj5Wwtw7kIeVr630STL62pfDBkxDbl/7mJfkF3h+YLIGPuCyBj7gshYW33Bx/WKQL9Bamtr4eHhgbq6OhQWFsLd3R0BAQGGaa53eVp9fT0uXbpkSHX1A8f4+/vzgNUIH+NoWUtf+xBubi54ISG2w/Oaqi9G3RmLzZ8nA2BfkOmIdSzh+aJtPM5bL3NtG/YFkTH2BZGxjvQFrxixMP2AL8XFxdBqtcjNzUV9fT0CAwNRUVGBoqIiAGj1oKV/PJaDgwO8vb3h7OyMgIAAw2O2ysvLLfZeiJpb8tLj0OmApckfdmg+U/VFj5Dx+HbHe+wLsgs8XxAZY18QGWNfEBnraF8wGLGAwsJCVFVVAYBhFOfevXsjJCQEHh4eKC4uNoyK6+nped1lXb58GXl5eSgqKoKHhwdqa2uh0+kQHByMoKAg9OzZ0xJviahVC5+Nha+3FxYlrrnudKbuizvH/RPZxzeyL8im8XxBZIx9QWSMfUFkrCt9wWDEzHQ6HWpra3H58mXDnx0cHAxffn5+0Ol0qKqqgpubG9zd3VtcTm1tLa5cuYLAwED06NED1dXVyM3NBQCo1WrodDq4ubnxOeJkFRbMn4E+fQLxzAvvtvhzU/fF4JGPQPFNKvuCbBrPF0TG2BdExtgXRMa62hcMRsxMIpGgR48eqKmpwZUrV+Du7o6amhqo1WrU1dWhvLwcEomk1WeIA0BVVRVyc3NRXFyMvLw8uLm5QRAEBAQEwMnJyXAfIJE1eWLOFNw0OBTzFrxt9DNT9sXYmDgc/+0T9gXZPJ4viIyxL4iMsS+IjHW1Lzj4qpkUFxfDyckJPj4+kEgkKC4uRkVFBQRBgFarhVqtNkzbo0cPeHl5tbgcnU4HlUpluN+voKDAMIKuPr2tr6/nI7NawUH5xPdF+rf47off8dGal0zeF3eOn4fjv29gX5DZmfNYwvNF1/A4b726sm3YF0TG2BdExkzVF06WKrg7qaurw5UrV6DT6aDVauHr6wupVIry8nKUlpZCKpUaEixXV1c4ObW8GWprayGRSFBbWwt3d3cUFRVBKpVCrVYjPz/fcPDiQYus2UPye+Dm6oLYf76CZUseM1lfTH1oIf44upl9QTaN5wsiY+wLImPsCyJjpuwL7vFm4OjoCB8fHzg4OMDDwwMlJSXIz8+Hq6srSktLUVtbCxcXF3h6era6cfSj6FZUVKBHjx6orKyEs7MzfH194eTk1Op8RNbowQfugnzaOCS++pFJ+qL/3x7A3l1r2Bdk83i+IDLGviAyxr4gMmbKvrCpvb+oWINDh//An3+pUFSsQYm6FGq1Fmp1WcOfNWUoKdFiyOBQnDiZAz8/b0h9veAn9YG00Z8DevjixhtDMHLEQPTw9zVZfSUlJfD09ISLiwt8fHyg1Wrh7OyMkJAQqNVqlJWVAWgYzKj56M5VVVWGe56qq6tRXFyM+vp6eHp6Gi4JqqmpQXFxMRwdHREYGGiyuonMSd8XkyaMgauLM5a8+gHeTXm+033x4IwX8Oepr9kXZNN4viAyxr4gMmbrffHnXypknT6HrOzzUKu1OH3mPMrKKlBWVg6tthzaK+UoK6vAsKFhOHosG15e7vD29IC3twe8vDzg5eWO8AF9IZV6Y2B4P0SE98MN/XqZvE6yLeboC6sNRnQ6HQ4dPoXfD/+B34+cwqHDf6CsrBwjRwzC4EGh8PBwhdArFFKpN6TSq+GHr9fVMMQbao0WJSXahrBEXQp1oz8XXdbg+/2H8O+n34K3twdGjhiEm4cPxM0jBmHkiIGtPuP7eqqrq1FeXg6tVgsvLy9IpVL4+PhAo9HA09MTPXr0gI+PD9RqdYuPzFKr1aiurkZQUBAcHBxQX18PnU6HmpoawwYvKipCXV0devToYYp/YiKza94Xd//9ZkgkOjzxVDLSPnqtw31x35QEbN3wOvuCbBrPF0TG2BdExmytLy5eKsDe73/FyZM5+PX3k8g6fQ4hIYGICO+HiLC+GCYLR+TIv8HLyx1eXg3hh7enh+HvZWUNIYn2SkNoov97TXUtjhzLwvpPdyLr9DmoVIWICO+HW24ejMGDQzHu7lvQO4RhZ3dhrr6wqsFXCwouY8PmvTh0+A/szPgJI0c0hBU3Dx+IkSMGmSUd/OtcLg5dDV9+P/wHDh0+hXtjxmDkiEGYOW0cAgP9270snU6H0tJSaDQaSCQSSKVSaDQawwa7nvr6ehQUFKCmpsawkfLz8wEAwcHBfExWJ3FQPvG11Be//X4cKe9uxK6v/nPdeRv3xS13/AsXsnewL0gUpj6W8HxhOjzOW6+Obhv2BZExa++LH/YfhuL7X6HY9xuuXKnAuLtvwd/vGIEbbwxBRHg/uDib/v/hq2tqkXX6HP768xL27T+Mvd//Ck9Pd4y7+xZE330L7rx9uMnXSdbFHH1hFcHIpq0KbNy8Fyf/+BMzp43DlAfuxk1D+otWz4mTZ7Hly++xYfNeDB50I2ZOH49pD45t9/x1dXVNLuFxcHBASEjIdQcxqqmpgUajwZUrV+Dg4MCTuonwF2br0bwvzl/Ix/OL1+LgDx+1Oo++L+6bEo9NnyWzL0g05jqW8HzRdTzOW6/Obhv2BZExa+qLCxfzseaDbTh24gycnR0RffctiL4rEhHh/Tr35kwg6/Q57P3+Vyi+/xW1dfWQDRmAJ/41hVeS2DlT9oVowUjmgaP4In0PNm7ei2kPjsWMaeNw150jxSjluvb97xA2bNqDrV99jxnTxmPmtHGIGjOsXfNWV1fj8uXLhkt1XF1dW5yupqYGubm58PDwgIeHBzQaDWpraw0bqbi4GD179uQJvRP4C7Nl6HRAe+9Aa9wXZVdqMfPRRCh//cxoOn1fxEx+Br/9lMa+IFF15ljS2b7g+aJjeJy3Xi1tG/YFkTFb6YsDPx/Dmg+2QXk8G0/860HM/eeDcHDo+BAE5lZfr0Pqh9uw5oOtGDY0HE/86/+zd9/xTZVtA8d/yJLRskQwLAmjZQYQlVHwFcIoBVGGAdTUBVZLxVp8EJAIEVGUUhAqVVQkPgpBQJFRxIIPUEAFhCCjZQRZYa+WYQHp+0c60gUdSU7SXt/Pp5SenHPfV8adc3LlHgPo1KG10mGJAnJ3u3B7YmTbn/sY9+4cataoSt8+AQwZ3KNQc3q40/VbYEtO5YdftvP79kSSLl8m7Pk+PP7Qg1Qqe/fjb926lWUW3Fu3bmV5M0rvBlS3bl1KlSrF7du3OXHiBAC1atWiXLlyrrprxZ5cMLvO9Vtw6ipc/Adu3oYypaFKWXigMgVqF0ePnaJH39fZs/27HO2iR9Br/LbhG2kXQnH5fS9xVrtw/FvOF3cm7/OeK/25kXYhRE7e1C7+2nOIGbMWcur0eV4dMYC+gQEFvr9KWREbz5zPl1K7Vg3Cw4bQsoVyoxLE3SnZLtw2+eqZMxcY++4cjh49xZRJr/Jw++buqrpIzl6Hv5PgdmopunRpT5cu7UnYf5Sor1by3YoajH+lFy3q3Xllm+xPzunTp7N070mf9OXWrVuULVs2I1FUsWJF+XZDeKTMdgGkpVZv3oJzt+DcdXiwCtTOOddRFunton692vxvdTTawFdYYJqccXvrh59h/ZrZ0i6E13BmuwA5X4jiQdqFEDl5U7uYMOkz1m/8k8+i36aZX8N8H+cp+gYG0DcwgH2JhxkR+iHdHnuISRNGKB2WyIXS7SLvwTdONHHyXLr0CCGoVyd+WTnLa5IiZ67B4SR7N550qYBfk/pMnvgqD7XxZ9ioOYyZuihf5Tk+Offffz+lS5fm+vXrGUsNnT59mosXL3Lq1ClKly5NjRo15IQuPE5e7SL9d2oqHL4Ex5PzV96tW7e4ffsGX8wZz0OdX6Z06dLUaxzE4YSfpF0Ir+GKdiHnC+HtyteoJ+1CiGy85Xzxv41/4qd5mlq1qrMh7jOvTIo4aubXkI1xn1GjRlX82zzNxs0WpUMSDjyhXbg0MbIidhO16vemWjVfEi2LGPDk466szqnOXIMjd3ngO3VsTcyst6FKbeq2fZEVsZvy3Pf27ducPn2a27dvZzw5ly5dyjIjboUKFbh69SqlSpXKsd6yEJ4gP+0i3dHLd3/zcmwXDRs24PC+HxgWPI74tZ9KuxBew5XtQs4XwluduQYV6vjna19pF6Kk8JbzhXnxLyxavJaNv8QwMmRw/gL2Eq+/9jTrf45hwcLVLF66TulwBJ7TLlw2x8j7U+dhO3WeqI/ecMkyTa505jocSbL/P/3RSU37J6/ft279i2nOPNQ1yjDuP8/nWm5ycjIXLlygUqVKGWOcatSoQeXKlfn333+5efMm9957r4vvXckiY8+dpzDtAqBBFajjk3e50i6EN8jrvUTahfLkfd7zpLeL4OBgvv56PiDtQghvOV98Z/6ZDfE7iZk1poD30PsMD51C9/97mCGDeygdSonlSe3CJT1GdM+Np3z5ckRHjfa6pMjZ65kZqywZo7ukj0qXKc0LI18m5d5qDA2ekOs+Pj4+VK9enatXr+Z4ck6dOsWFCxecch+EcLbCtotU4O+7dHuTdiG8lbQLIXJybBf9n3wy8wZpF6IE85bzxY/L17Npy64SkRQBmBs9jvUb/2TZig1Kh1IieVq7cGpi5Nz5yzRvO4SXgp9g9BvPOLNot3B8chwV5Inq8VR/+ukG0PKhoVy4mJTj9vQnCSAlJSXjyQH7DNFCeBpntIu/L8HxnM0hg7QL4W2kXQiRU/Z20aFjV4wffMnZc5cyN0q7ECWMt5wvdu7az5IffyV6xlv52r+4mPPJGBb/sI6du/YrHUqJ4ontwmlDaS5cTOLRLi+wIe4zHqjt3HGdceEq9ObcbtFgiI8lRF30Os5ehyNXyLPbTimgfGkoWwpupcK1G2kTweSyL6lQ4cYFnn7iZbZvmU/VKjn7+aR37ylVqhSlS5emdu3aMkGYC0gX66Jxdrt4sCrU9c27PmkXwlM5vpdIu/As8j7vGbK3ix07Epn/3SqipoYz8s1phI4YRJsWD0q7ECWKN50vVOogDu0ZybhGL5Hrx64MAXQhHpXJRpQ2PyXHEa7Sk2CIJ7YoH9riwgknKvc648JR6RMyPhfm/dkRdLnEfe3aPzRpNYgTh1YUPj6Rb57aLpwyzuWQ9QRDgydwYPcSZxSXO42B+NgQHJuTNSaQgIBAKGJyxPHJye7e0lDXB6qUh9KlMrffToVLKfYJYK7dzHnctXLVWf/bUrSBz7NkwYc0qF87y+0+PvZkSVJSkpzMhUdyRbs4nPalYV5vXtIuhKeTdiFETtnbxaqfN/PX7kNEfRTOvffA6q9GE/XRXNRlH6ZL5zaAtAtR/HnT+cJg/JyxbwVToUIgUTYbUek3WGMIDFhGfyd9EV14cYTrzWCKuvuu6XL57Gi/PypUOhM2h+xIxYr38lb4s0x6/wveHf+y06IWOXlyu3DKUJrOj7/MxrWfOaOoAlGHRKDDwrI11kKXcfYfOHol82/HSV3urwCt7oPq92Z9cgDuKWXfrrkfVD7k+uQevggLfvicjv/3Uq51+/j4oFKp5GQuPI6r28Wxu3R7k3YhPJG0CyFyyt4uvpj/E+fOXmLMm89laRfvGYaza/dBflj2P0DahSjevOl8cfhvG1u37yHs1afztb9XU4cQa9KBOZKYbB8f3xg5hM2/7eLYsVPKxFYCeHq7KHJipHtgKKuWzaB8ubJFLarQ/Bun5wLjCFepCI9zvDXbNmsMgSoVKpUKdetHeHxgMF/szFnmA5XgQV8olfbE/HMLTl2DY8lw6ipcT8tWlSoFDzrOipvtiTp5vRxf/PcTegSF5Rp7qVKlct0uhFLOZXvTcuSsdnH4Ihy7nHcM0i6Ep7n3vrrSLoTIJvv5YvLUr6hftzb6Z/rk2i4GPjeIA2dTmDjzB2kXotjytuuoVT9v5qG2zfK9f+6ft+w9+VVpn7FUKhWq7Dvksm+gQ3Yi+/EZt1ljCFTpMQNmvQpVYAyF/0oc0IZh0FgwzsoZX7u2/qxcvbkopYs8eEO7KFJi5PWISJ5/ri/t2vgVpZhCs8ZEYtaZ8jm+jbTuU0b8TTZ2H7axeN0fzA/vwsaorMkRVSWoW9n+/1TsT4rlLPx9GU4kw+HLsPOM/Xf6DC0NqkAFx9yQwxNVWdWIfroBvDF6ehHurRCudyEl7zctZ7eLwxfhxB0yu0J4igspUKle7heN0i5ESeV4vrh56xYjwz/myb7/R4/uj9yxXXTt04uyNevx9OivpV2IYscbr6N27zlEyxaNilSGNSaQACMY4m3YbDZsNhM6sz5L4iPrvhZ0JlvGnCM5jo83gDHAfrw6hFibCR32+UFs2YfHFJiaxv5AwsEcCZZWLRrx155DRSpd5OQt7aLQiZGvTCt4oHYNnhsWWNgiCsZiJMAxC6lSEWC05PqizpM1EQs6ej7uMAuu5mXmz5/Py/Yhr6gqQZ30JycVDl4C25WsXX3Snbxif9LAnsFqUCXtOMed0v5o0/VxqtWqzTyTTOpTcFZiAlWoVOHklnuOC3dC9ljwz78O7SLba91V7eLQBUhOcdpdEMLppF0IkZNjuzh29DQvjpjMxHdG0LKFOl/totv/tadvnwCGvjZD2oUoNrz1fLF7r5WWzYuSaohjltGCxhDtMA+JliibLedkq3HhGUmRzC+2czk+bciLxTgr12v/olL7acCSmDMx0rIxf+0+6IIaSy5vaheFSoykpqYy+u2ZjH3r+cIcXjgaA/G29Cxk2o9JZ0+Y3KGrVhbaIHSYeb3Tx+wg5wNZuyLUqZT2ZyocugwX/slaRPYn6uSVzElgqt1rn0U3y77p/0+Fp58fRsTbM3HSQkAlkBl9fp9rUWBnrjvM+JzODe3iTstsCaE0aRdC5JTeLn7ftpdZMYv45quJ3Fe9SoHaReuWjXnrzWfRPj0R2zn7V4nSLoQ389bzRdUqlYvWY8R6kAQcpzbIw7JQVHozGkN81t7+cSsxo6F/z2zHq/3QYGalGy/9W7VoRJUqld1XYQngTe2iUImR6Z98x5uvDyvMoc6ljcKkA8wr85lN1BJli+fFtluJCg4mOO1nbtowmloV7b9TU+FQUs4np3I5e1arcrmsT9TFtP3uKQUVy+WsNf2Jungdwl8fStQnCwpwJ0UGjQZNLpMlCedIyjbLc/rr1h3tQghPJe1CiJySbsKy5RuI37yTj94PK3S7eKDWfXz1+TuMiJjFQetxaRfCq3nr+eLS5SvsLvLwEQ1+d8mLWCxgMBnAGJrLtbwFY0DWkQGqACOWIkaVF2uiBTR+OYbk/LXnEJcv5zHmQxSKN7WLQiVGImd+R8QoD0iMkNYVqmBH0Pv9RcyfP5/58+cT3gU2Rk0k9hScvgbXb8HBy3Ah24NZpTzUuBfK3WP/f7pU4ObtzL/L3uERvfEvhIcNZfosSYwUin8E0QZynSxJFJ3j69iRO9qF9KESnkrahRA5fRKzlGvX/8nxJVlh2kWZMmWY/clYvjat4Lc/dku7EF7LW88XLZur2b23qN86Wki8SxEaQzQh2hAidBaModmHwGsc5ifJ+pPvuSTzzcpBexeXnImR3Qdp1bKxsyss0bypXRQ4MRIzdynBzwZRoUL5u7Mn5nsAACAASURBVO/sBrll/BIOOjS1tO5djso69Ltp83I4XTjMiVNw8hrsPg8XHcckpYJveahaLrO7TlK2MUvlHB7Fm7fJ81koWxoqV6rAMF0v5n71Y77un8hKHRKBzqzPMRO2KLqyeUzU7I52IWsKCE8l7UKIrAL7v0GLpvUY+nTPHLcVpV1MnhjCb3/sZsnyjdIuhFcq8vni71VMDP6C9PUg3HW+aNmiUdF6jKgbY5/LNH/JFW2YAY3FSMb3nNogdPlIrDhN3CyMFg2GsJwZl127D9JaEiNO5U3XUQVOjHzy6SLPGEYDEBeO3gy6iPTZidX4acCybE1aFtJKTKhDN6y4cFSqQFafcShj5zY20pA6tXMWn0rOJ+diCiTfyLpf1Xvtv2+nwtVstzmqnrZfxOvDmBm9qAB3VGTSEmbQYI6UyVadzTeX7mi5cVW7EMITSbsQwi4p6SpNWw3i3fEv81Svh/N1TEHbxeuhQzh17irzvsl9onppF8KTFe18sYOoN80cdtjPXeeLfoEB/L51TxFKsF+bW7IMkUlbOCG3bzLVIUTowKxPX1Qh7dpeH5hliE1cuAqVKuu2/CZf8mSNIVBvzjZRbKat2/YSFNi5aHWILLzpOqpAiZH1G3fQtEk9at5XteA1FVUuq9Ko9AkY4h27WKkJiTWhy9g3gMQI+/JOAGijsJn8mdmnCc899yzB+mCCo44zZOpEAnNJjJS9J+uTcykFLmUb/1SnMlRMWy7owvXMpFX2yWLuKQX10h62WrWq82CD2mzasqtoj0kJpQ6JxoCRUJlsxKnur5C2fvhd+p25ql0I4YmkXQgBOyz7afXwMDb9+gUdHmnp0nYxbGhvVLXv46Oo/0q7EF6l0O3itxj662aw0WEfd54v6tevTeeOrZkZbS50GeqQWOwr7KZ/TgvA6G/Clsc4GG2UCZ3Dogo5j1ehN+sw2WLTEhhagnRgMQbkfyXK3D47BhjxN+WyWg4wY9ZCunZpS9069xf6cRA5edN1VKnUAiyRMjXSRGoqvD1aX/CaPMyFFDiclPWBTH8k0rdVKAM107JNl1LSuvo47Fu9AvhVtz/Zqanw50m4dsu+T3oZ6b+b1ACVb2b9kz+cR4UK5YgY9Uyu8fUbGEH8ZldNOaSsgE4ali+JLMARVmICs73BxoWj0oPJFgXhKvQJBuJzWddcpVJhs9mcFXqxp3S7EMITXUiBrk8F8/X8+dIuPJC8z7vW4qXr+PTzxaxb/WmW7a4+X2zbkYD5+zimvj9S2oXwGgVuF7/F8MTULTTUTWXiAyvQTwfjopcZosD5QqUO4tCepR4zXYI7Xbv2D01aDeLEodx7q4mi8ZbPF2UKsvPRY6d5dmivgtfigaqXh9uV4e+0iYdzyw5duwVnr8O/qfDPrcztqWR9cgCsl+wTyOSmUfWcT07XLm1ZvGRdnvHFb7Zw8WTxnEij2gNOmEVJG4VJpyIyJoyIopcm0ijdLoTwRNXLw9WjezP+lnYhSoqpkSYOWo/nSIqA688XD7X1p2aNqrwYMpmVX76Jyrei0+6XEK5S4HbRPIT580PsH+p2gm+Zf/FX6Hyx6scoRoz8gG++nOi8Qr3EK2EfsvKH6UqHUWx5y+eLAg2l2bp9L/fVqFa4mjzQfRWgQbalqrN3xbl2C/75N+s+1e/N+uQcuwwnk3Ovo1E1qFsl5/ZaNavxx/aijOcT2jD7kl+R2WfXFUWiZLsQwlOlXDgh7UKUKMNDp5CaCnOjx+W5j6vPF/Xr1Wbll2/Sq9tQ9hR51Qwh3KPQ7aL8vzS//x7FzhdtWjdl0FPdePX1qc4t2MOFhE1l0FPdaNO6qdKhFGve8PmiQImRCxeSqF69eH2VVbMCNPDJuT3LE+XwhFXL5ck5kpT9QDv1HZ6cGjWqcv78pcIHLtImb7JgKZ4jjhSlVLsQwpNJuxAlRbfer9Gre4d8DZ12dbvwr1ORI4nLeCXsQ1av2VLAeyKEMgrVLmrcwz332BuGUueL/n278liXdgwPneKaCjzMSyGTefyxdvTv21XpUEoET7+OKlBipJn/g9SoXvyu3GpWgAdzeZIgZ1efuj4OT04SHE3Kfd+7PTn31aiCv9+DhQlXOLBP3iRcQYl2IYSnk3YhirOz5y7RwK8/kVPfYNCAbvk+zh3tIn7t58z/dhVzv/ox33EJoaSCtwt7wziq8PliyOAe9OregREjP+TUqfOurUwhtpNneWXkBwQFBqAb1EPpcEoUT76OKlBiZF/C35y/cLnotXqgmhXgwTt0hknPZJ3/B27czvmm5ahhNah7l441585fJiHx78KGW8KoCYm15TGztZYomw1bLhOviqJzd7sQwhtIuxDF0W9/7Kbz4y/z19bvaKspeJdyd7SLBfPf48Ch4xiMnxc4PiGUULB2cZtD529xzAPOF4MGdEM/LJDHA1/jk08XuadSN5kZbaZH0OsEP9uXAf3/T+lwSiRPvY4qUGKkenVfLlzII6pioGYFaHiXB/ZEMmyzwfEkcp05Rp3PJ+fcuYvcd1/xma9FFF/ubBdCeAtpF6I4+Xbhaia9/wX7/1qMr2+lQpfjjnbx0fsjqVmzKi+MeK/QcQrhTvlvF/dw+noZjzlfBHTSsG+HmfPnL9FF+wp7E7x7np+9CVYCuo/g4sUk9vy5gE4dWikdUonmiddRBUqMtH+oOWfPXyxkVVZiAlWoVOHkttZKXLgq/+tSF6r6GAJVKsLvstBLzQrQMB9dcXKbTVddDerk88k5ffYS7ds1y9/OQijMXe1CCG8i7UIUB5OmfMGW33cTu2yGU8pzR7sIe/Vp+vfrirbPyALHJ4QSvPl8MWnCCObM/A+RMxbQ58lwlq+KVy6YQvhp5Ub6PBlO5IwFfDbrbSa+M1zpkEQaT2sXBUqMPFi/Nus37ChilWb0d8tOKCw/Gax06V19HqwKdfIYL5WbDfF/0rDBA4UJTwhFuKNdCOFtpF0Ib6Z/aSJVfCozO2q0U8t1R7t4st9jTH1/JH6tB5Ny42ZhwhTCrbz5fNGyRSO+jBnPhLEv8v2SOFq0G8rsmO+5eTOPNVMVlpJyk1lzFtG87RCW/LCOCWNf5MuY8bRoLgPvPY0ntYsyBdm5wyMtiZz5XdFq1GjQmCOJCdMS4sGvzfsr2n9b87FwzINVC96N57ffdzN+zPMFD0wIBbm6XQjhjaRdCG/Uudtw3h4dTL8+AS4p3x3t4qG2/mxc+zkNmjxB/K9zaayuW/BChHCjO7aLNi8zfz6Qav8A6Inni46PtqLjo62wnTzLnM+XMmDI25QqBdpuj9Cz+yOKLiyxL+Fv1qz9nbh1f1DqnlK0adWUtbGzeaD2fYrFJPLHU66jCtRjpGtAWxL2H+HMmQuFr9E/gmgDGGfdqddIHOE5hr04bMsYFmPfpkr7CYyxZtyWvi1H55SDWW8PjMk5eMcaE4hKpaJNYxVPd2+HIfaUQx+enXwRPJHY2C8I1usZ1stIQgGfHNvJs/x95CSdOrQu2IH5FBeeef+y/gSSy90VokDurwiNq6XNEp1L37ZS2G/3tJO5EK4k7cK9evfunXFuAzL+37t3b4Uj83zHT5yhdoNA5kaPK0RSJLfrs7y5o13cX7Map47EMvS5d/h1/fbCFySEmxSH84XqgZq89+4rLF8yjbfCn+X8+Uu88MpkWj40lPC3oli+YgO7dh8kJeWGS+pPSbnBrt0H+WnFBsLfiqLlQ0N56dXJXLyYxJgIPT99Pw2jYYQkRbyIJ7SLAvUYAYh4fRiRn3zH1MmFH9epDolAp9ITHmQj14VG8smsj8QQb8OmticzAowBqIw6TDYbWtK26cMJskWRXo3ZuAxDvI1YNfYkSkAAgcQTm9Z9xV4OGOJt9h4t1hgCu3dh4r+/8sETdUm5BaVu7uO/61qyco2JFmULHvf0Txbw5utDC3/H80NjID7bSi3WmEACAgIhPtaje+sIz3dfBahUFmzJcDkFUm5B2dJQpTyofOy3CVHSSLtwn65du5KYmEhKSkrGtvLly9O1a1cFo/J86zfuYGT4xxw58BPly7nnBemudrF109cMGDKGY8dPo3+mj3MKFcJFitP5okvnNnTp3IZJE0ZwwnaWX9b9wfr4nWyd+R2JB45Su1Z1mjZpgF+T+rTVNKVM2TL4VK6Ij09FfH0q4eNTEZ/KFalcuSJXrlwj+co1kpOvkZR8leRk+983b95ip2U/CfuPsP/AUU6fuYBfk/o8/FBzNJqmjA5/ljqqmko/FKKIlG4XBU6MjHjpSeo06su7416mYsV7C1mtljCDhoDIGMK0hV9mVWOIzviAr+7ZH43RAoawjCSIfZuRlXFRaNU5j0EdQrRhGQHGWcSFRKEljllGCxpDfJZ9YucmotJHcmFEFFrOsejgRpoN+6BQSZErV65hXhzHsQM/FfJeF546JAKdUc+yNVZCPCgzMmXKFDZs2MDq1auVDkUUQIUy0EgWVhIiC2kX7jFu3Dhmz56dZVtKSgrjxo1TKCLP99X85fy0cgN/bSvikOhCcFe7WLpwKqNGT+fY8dOMH/PCXfeX6w+hpOJ4vqijqsnzzwZl2Xbk6Cn2HzhC4oGj7N13mAOHjuWa/GjTugk7dx3INWnSpHE9atWqzmNd2tK0SX3q16ut0D0UrqZkuyhwYgQye41MePvFQlesDonGsCyA0JieGb01Csq/cc7jctt2p9vVjf2BBA5aQWtdiRkNhp7ZylD7oSEtwaLNXz15mT5rAW+Gubi3yF1kxh5HuEoPJseeO9m2WWMIDDBicTheZypaT590U6ZMYfbs2ZQvXz7Lt35CCCHE3YwcOZK5c+eSkpJC+fLlGT5cVhrIyzjDHFJu3ODHRR87p8CDMQTqM68Nsl8XxIWr0Jsz/85x3eDCa4uZ095k2oxvCQmbSsysMbnuI9cfQrhPg/q1aVC/Nj26P6p0KELcUYHmGEkX/vpQoj5ZUMSq1YRE6LAYZ+W6fK9raPDLns9Q+6HJssGCMSDb3BzZTt5FEfXJAsJdPYwmD9aYSMw6U/4vPNIuXPxNNmy2tB+TDrM+/+OLc1OWM6hUKubOnQsgFyVCCCEKbNy4cRnnD+ktkjfdc+OpV+9+Ij8c5bQyzcZl9I+3XxfEGzSY9ZlzmMWFq9BjyrhuyH67q64tHI1+4xkef6wdQU+9mWX7lClT5PpDCCFErgrVY6RUqVJEfjiKDz7+mrFvFWFlFW0UJp2KyJgwIgpfSgFYSLRC1ok3ErEA/TM2aDC4aA6ODz7+msipbzi/4NxYjASojDm3aw5iRZu/4UvWRCzoiHBMpGijsNmiCh1W3759KVPqPJDzgiR9Ej1n6tixo9PLFEII4RnSe414em+RgQMHsmXLFrfVFxERQUREBO07BzNl0mv01Dr3m9qcQ5mNaddXcaw0azDEZ144ZL0dl1xb5EY3qAf16tai9cPPsGvrt/Tt25c9e/YA7rn+EMLZOnbsyJIlS5QOQ4hiq1CJEYAX9H0ZNXo6pm9XFWmSK22YgciAUCI1OW9LOGglY3IQ60ESAP9C15RLmYD1YAJo+tNTDaiD0GHOmTxxgvnfruL06QtFSyQVRC6TrxIXjkpvJCC8Mbb8dBvRBqFDj14FJocJbItixYoV3K9qTRnO5ejCarPZnFCDEEKIkmLcuHFs3ryZLdvPKx3KHW3ZssXt57h+AyP4eMooHn+sndPLzjKcWN3Y4dpMS5Qty5gaVGljajL2ccG1RV46dWjNF3PG029gBCtWrMhzCI1cfwhvIAm84sV28ix79x3m7yMnOXrsNMnJV0lKvsrlpKskX7lGUtLVjG2aVk2w/HUgbd6VSvj6VsLXpxK+aXOx+PpWol7dWqjVdWjhr6ZWrepK3z2vVOjECNjHcfYICqN5s4a0b9escIWoQ4jQGe1jUTOSI2r8NGBetgZrSAhqrMSE2oezFDUxYjGGEtMzrUdIXDgBRgs6U2xaAiFtUlh9IH4OvUbsY2UL35Nk67a9fLtwNWuWf1LE6ItIG4VJZ0ZvXklclDYfFyNaomzx+AUGoFdlDhYu6jjgm6n3c+bkLhnjK4QQosi27rrFsUNTqfaAlosn3Tc419MtXxLpsh4jd2Jf3S9j9hFM8QYiAxx7sLrm2iI3m3/bxSsjP8yYcHbcuHGMGzdOrj+EEG6TdOUae/da2bvvMHv22X/vS/ibSpUq0LxZQzp1aEXNmlVRq+vg61OJKr6V8KlcEV/ftCRI2iS0mZPVXiUpyZ4wSUrblpR0lUuXkomes5g9CVZu3fyX5s0a0rxZQ1o0U9O8WUPatG5K6dKFmkWjxChSYgTgl5WzeKBhEIf3LeXee8sXqgxtlAmdWU/m6VFNSKyJRJU+YziIzmRCp9cXNVx0hv4sC1CRforOfiJWh8QSTyABDvuArtDfaly9ep2nhozh+MHlRYrbWdR+uXTNufMRhMTaCEn7Ky5chT5b4qiwHC9QNmzYULTChBBClDj1mjzBob1LKVe2DBdPxklyJJttm+aje248hw4f59XhA11foTWGUKMl67WVNYbIHDu67toinXnxL5i+jc11FR65/hBCuNIh6wli12wm9uctVLy3PFeuXc9IUgwe0J1m/g9Sxbdygcr08bGv1gN3X5b4/IXL7N13mL37DrN1+17m/3clZcuVoYpvZYJ6dyYosDPVq/kW8t4VX6VSU1NTi1rIkaOnGPzMWP7YOM8ZMRUrD3UOZtmij6lb5/4CHVeUi7u4cBX6hFyG0uS4zb4CTYIhPnNlIIdJ0XL/5ia3lWwKRi5chRDeRqVSSXd7D9Oo+QC2bvo6x8WdJ55jlH79pK9KU/QJWO+ymh3h2P/r8GVS2nCaO/cIKfq1haNpM77l4KHjea5KI4Q3Uvp9RNzZH1v3sOrnzaz6eTO3b98msGcnAnt1pFOH1kqHluHnX35j5epNrIzdRNMm9QkK7ExQ7840fFCGaUEhV6XJrkH92vy8/BPUzZ7ihO2sM4r0eseOn6aBX3/WxUYXOCniMnHh6M2gi0hPmNiHLFmWrcE+WXzmkKX0/VUqh5nkAeLsSxrnWN1HCCGEcJNmbXVsWjc312+80nuOiExTjK/SopmaJ59+y7UVqf3QYGZlRl4qjvC0OUYSDmYsW+PSa4tRo6eTknJDkiJCCJe7eCmZSe9/QbM2Oia89znVqvny7Twj2zbN5713X/GopAhArx4d+CQygkN7l/Lu+Jc5ffoCA4e+TfDwSSxYtEbp8BTntIFG1ar6sH2LiV79Xmf1GvfNvO6JVq3eTNBTb/LX1u8K3E3KaSxGAlTZlh3WJ2CId/w2xj5kSZexbwCJESZ06Tdro7CZ/LMuX6xPcNmqPUIIIcTdaB55lp9/mknt2jXy3EeSIzm9GNyP8LBhtGo/jJQbN11TiTqEaIMGsz79uiESv3gbJl3aHG9WXHptMWDIGB5q68/4MS845e4IIURurIdPMGr0dB7qqKdKlcps/t8X/PzTTEaF6mjSuJ7S4eVLh0da8t67r/DnFhPvjHmBjZt20qytji/mLVM6NMU4ZShNdkODJ9CujR9vhT/r7KI93kfTv8Hy1wG+nZfLUrkF4IldgZ2lON83IUTxJF2YPcMjAS/w7XwjTRrl78LTU843nvT6OX7iDO07BbNu9ac0b9ZQ6XCc5uHOz/PRlDAef+whpUMRwiU86X2kpNq+I4GZsxeyZ99hRoXqirQyqyc6deo8kZ98h3nxL7z5+jDeGDlE6ZDcyiVT0y6Y/x43b94i9I1p3Lh5yxVVeJwbN28R+sbH/Pvv7SInRYQQQgiRVeduw/l6riHfSRGQniO5qVvnfk4diWV46BSWr4pXOpwiO3P2IrUbBLLgm8mSFBFCuMSly8mMGj2dMeNnM3iglu2b5xe7pAhA7do1+HhKGHu2L+Ty5SvUqNOD+d+uUjost3HZmj3j/vM8gb06Uq9RX2bMXuiqajzCjFkLqdeoL316d2LsW8FKhyOEEEIUK916v8bsqLcK1cNBkiO527RuLt8viWPGLO+9Rtu+I4Eu3Udw5MBPNFbXVTocIUQx9N8Fq2n7qJ6hT/cgbtVs+vUJUDokl/Pxqci741/m7LE17NiRwDMvGJQOyS1cuphx38DOnD66msuXr9C01SAWL13nyurc7vula2nSciCXk69w+uhqgnp3VjokIYQQoljp/cQoPngvlLaapoUuQ5IjuTN9OZHLyVcYGT5N6VAK7Mfl6xkzfjaJu76nfLmySocjhChmbt68he658fy+dTeHE36gwyOtiAvPNn+j40+48sM2nSIunPS7cs89pZgx7U2e0fWmZr1erFu/TdnYXMyliZF0745/mU2/fsHPa3+jW+/X+O2P3e6o1mU2/7aL/+v5Kr+s/YMt67/i3XEvKx2SEEIIUew8MWg048e8wKMPtyhyWZIcyd27416m46MtCez/htKh5NusOYtYtnwDcatmKx2KEKIYWr1mC3Ua9eWl4CeYNX101hs1BuJtNmxZfkzozHpUgTFYcy/SS2SuJOaoT+9OnDy8iug5ixnzTvF93y3jropq3leVudHj2GHZzzjDp1SpUpm+gQEMGdyDMmVKuyuMQrt58xYLFq0h9ufNJCVfY2bkm2haNVE6LCGEEKJYGjRsLKNCdXTp3MZpZaYnRzxhQlZP8syQ3jRS16Vpq0Fs2zQfX99KSoeUp/+Mn8295csx7/MJSocihCiGNsTv4Mt5P3Hm6OoCHKUlyqTDrF/GGmtIsVy9s0yZ0ixZ+CFTp5l4973PmTRhhNIhOZ1beow4aqtpSuyyGbz+mo7ft+7mgYZ9GB46xWO75qz93zZefm0KdRr1ZfuOBF4P1bHyh+mSFBFCCCFcZNjzBl4K7kf3xx92etnScyR3HR5pyaZfv6DVw8PYYdmvdDi5Gho8gSaN6mI0FL8LciGE8j7/8kdWrt7E9ws+KPjBaj80WEh06DKSfeiN42ibuPCcw2+sMYH2bdYYAlUqwuPiCHc4PjDGmnFbbmVmlJH9mMxaCc+l3PA40srVYwb7kut59H4ZM1rPIw+3QPfc+II/Rh7O7YmRdJ06tGLW9NGcPfYzvbp3IHrOYvxaD2bi5Lns3nNIqbAA2L3nEBMnz8Wv9WDmfLaYwB4dOHN0NTOnvUnHR1spGpsQQghRnL0w4j2eHtidwF6dXFaHJEdyV/O+qhxJXEbEmBkeNy9cQPcRBD/Th+EvPql0KEKIYsj07Sr27LMydfLIwhVgTcSCBr+03iJx4Sr0mDKG28QbNJj1gaTnKbRBOjCvJDOvYWXNMgu6oMxzk1kfiV985vEWYwCqgEQispQZnlGGNSaQACMY0o6xxRvAGJAtOZKzXLM+kBhCiLWZ0AE6kw1bbAh5dXwJ6t2Zp574P159fWrhHisPpVhixNGgAd1YsvBDNq79nGrVfPlo+jdUV/WgR1AYb0+I5vula7EePuGSug9ZT/D90rWMeWc2PYLCqPaAlo+mf0O1ar5sXPs5ixd8yMCnurmkbiGEEEJkGhH6AX16d+LJfo+5vC5JjuRt3epP+Xntb3w4zaR0KCQlXaWBX38+m/U2vXt2VDocIUQx9P3StcRvtjBz2puFLCFtbg5dRNowmjhWmjUYwjLPMeqe/bP2KNEGocPMyoysxhqWWTITKwAaQ3TGsBz78aAxhKHNUmZ6GXHMMlqyHIM6hFiTDotxFo4dS3KWm7WnS34MGdyDVi0bM/7dOQU70IO5bY6R/Li/ZjVGheoASE1NZfuOBLb/mcAva//gw2kmLlxI4qF2/rRs3oiKFctTraoP1ar6Uq2aD1Wr+tj/ruZLtao+XLyUzMWLSVy8lMylS8lcvJjMxUv2v69fT+Gv3QfZviORGjV8adfGn/btmjF4QHfat2um8KMghBBClDxhb06ja0BbBg/o7rY6Zc6RvM2NHsfUSBPDQ6cwN3qcIjHs2Wulz1Ph/LX1O4+e90QI4b1Wrt7E9h0JfB49Nn8HWIwEqIw5NmsM8dgyMhJaomwOife4cFRpk5r6Z2zUEqQD/co4orRarGuWYdH0J1oN6WNY/Bvn7LOR2zZ7HSsxo8HQM9vtaj80GFkZF4VWm0sZ6sYOMRXMayMGMuezJXz62RJee2VgIUvxHB6VGHFUqlQp2rdrliVRcelyMtv/TMD6t41z5y5x4NBxe7LjYlryIy0Z0qK5mj17rRlJkqpVfahWLS2JUtWHOqqaBHRuw0Nt/ahaxUfBe5m3gE6aYvtNVkAnjdIhCCGE8CARb8+krcaPZ4f2dnvdkhzJ25gIPYuXrqNb79dYt/pTt9a9es0WJk+dx5HEZW6tVwhPFRERoXQIxVJI2FT27ViY/wM0BuLvMMwknX1YiyXtLx2meAORAVkTKlp7ZoS4KC0kWtD0j75ruXdmwRigImfahkInP+7m1VcG0rjFQHSDtdSoXsVFtbiHxyZGclO1ig/dH38Y932XpJzlSyKVDkEIIYRwubGGT2nSqB4vBvdTLAZJjuRt0IBuNGpUlwZ+/dm2aT4176vq8jrnfvUj69ZvJ37t5y6vS4jc9BsYQfxmy913dLPJ02KVDiGHgE4ar/3cMjXSROgrg6hcuaJzC7bGEGq0oDPZiNJmbsvxKGmD0BHJQWsciWYN/eOLupyNBkN8rNtXxZkw7iXem/IlMwo9FMkzeFViRAghhBDFx8TJc6ldqwYhwwcoHYokR+6graYpf239jvadgzF9OZEOj7R0WV0G4+f8k3KDBfPfc1kdQtxN/GaLvBfkk7f2cL927R8++XQRJw6tcH7h1kQs6IjQZt+WveeGGj+NhWWhkVg0/SlSXiRtzpJEKxSx20mBBT/Th+kzv+PosVPUr1fbvZU7kUdMviqEEEKIkuX9qfOoXLlixtxinkAmZM2br28l9v+1mEnvf8G3C1e7pI4XRrxHzZpV+ej9Qq4KIYQQ+fTOxBgmTwxxTeFqP4dJUSFjclYg4aDjLKdqevbXYLFY0PTvopxwfgAAIABJREFUWcR8hpawbCvfQPqSwVm33U3WGPPHMPZFjB98VeDjPIkkRoQQQgjhVtNmfAvA6DeeUTiSnCQ5cmexy2aw5ffdTJryhVPL1fYZSf9+XQl79WmnliuEENkdO36aM2cv8sJzfV1TgTqEaIMGs16FSqVCpbIvj2vSgcUYmiVJYV8VRkP/7JOmFqraWOwr9KbXq0Jv1mGy5Xd4jX1CWIsxAFVgDAVJjwx8qhu3bv3LQevxQkavvFKpqampSgchhBBCeDKVSoXNZlM6jGJhZrSZixeTmPjOcKVDuSNnDqspjq+fGbMW8ufOBExfTixSOSk3btK6/TC+m/8eD7V11fSAQhSMDKvLP298rEzfrmL7joQiLM/rRNYYAkMhOh8Tunq6N/8zg1atGrsu4eRi0mNECCGEEG4RM3cpp06f9/ikCEjPkbt5I2wIgwdq6dyt8M/lQetxGjR5go1rP5ekiBDCbX77/S96dn9U6TAAsK5ZBkUeRuMZuj3enm3b9iodRqFJYkQIIYQQLjfPtJz9B4/xgfE1pUPJN0mO3Fm/PgHMjR5H7QaBHD9xpkDH/rp+O0Ofe4dTR2K5v2Y1F0UohBA57dh1gEbqOsoGYY0hUKUiYFl/ot29jIyLNGygwrL7oNJhFJokRoQQQgjhUv9dsJo/dyYyfeoopUMpMEmO3FnzZg05cuAnAvu/wfqNO/J1jOnbVcyas4itm752cXRCCJHTuXMXue8+hROy6hBibTZsxWAITbqaNatx9uxFpcMoNEmMCCGEEMJlvl+6lg3xO5g1fbTSoRSaJEfurHy5svy17TuiZn3HV/OX33Hf96fOY/uOBJYunOqm6IQQIit/vwe5r0YVpcModu6vWY2mTeorHUahSWJECCGEEC7x4/L1rFq9mc+jxyodSpFJcuTuflz0MXv2WRlnmJPr7SFhUylfvpxnTHgohCix9h84yhkv7tngqXbvOcSly1eUDqPQJDEihBBCCKeL/Xkzi5asZd7nE5QOxWkkOXJ3kR+Ool69+9E9Nz7L9qCn3uTxx9p55BLNQoiSpZG6LhcuJCkdRrGze6+Vls29d2CQJEaEEEII4VRrf93Kl/OX893XRqVDcTpJjtzdq8MH8lLwE7TvHAxA64efYfyY59EN6qFwZEIIAU0a1+OPbXuUDiNTXDgqVSAx1vQ/VahUuf+Ee/DKyLv3HKJli0ZKh1FokhgRQgghhNNs3LSTmdFmFn/3gdKhuIwkR+6up/ZRzN9Mod/ACFb+MJ1OHVorHZIQQgD296c1cb8rHcadaQzE22zYHH/iDSToVag8NDuye+8hWjaXxIgQQgghSrjft+7h/anz+GnxNKVDcTlJjtxdI3Udli+JpF7dWkqHIoQQGfr06sTpsxf4558UpUMpGHUIsSYdmCMzepd4itu3U7l8+SqdOrRSOpRCk8SIEEIIIYpsh2U/YydEs/qnmUqH4jaSHBFCCO9TqlQpXgp+gvD/zFA6lILThmHQWDDO8qxeI+MnzkE3SEvZsmWUDqXQJDEihBBCiCLZu+8wI8M/Zt3qT5UOxe0kOSKEEN5nyOAe7D9wlD93JiodSgGpaewPJBzEUzqNnLCdZfnKjYQMH6B0KEXilSmd/QeO8vvWPRw7fprDR2xcvJjMpUvJXLyUzMWLSbRormb3HitVq1amahWfzN9VKqNW16FdG3/at/OnfPlySt8VIYQQwqsdOHSM54cb+SN+ntKhKCY9OXLxpGd9gyeEUEoc4So95jvuE0AX4lGZbETlK7dqLzPBEE9sSBFW/ogLJ5yofNZZvH00JYz/jJtF3KrZSodSIGo/DZgTsQKesAbMOxNjmDwxROkwiswrEiPxmy1s/m0Xf2zby9bte6ldqwaPPtyCjo+0pGnj+lSr5kPVqj5Uq+pDtWq+VKvqw6XLyVy6dCXr78tXOHbsNB98/DXb/kygkboO7ds146G2/nR7rD11696v9F0VQgghvMbRY6cYNHQslj/+q3QoipPkiBAik5Yom42o9D+tMQQGLKN/fCxFyWkUXRzhejOYou6+awnwUFt/+gV1YWa0mVGhOqXD8Up7Eg7z7+3bPNnvMaVDKTKPTYwcOXqK/y6I5duFP9O7Rwdq1qzGq8MH8FXMO/j6Vrrr8fYeIj7AA3nus3ffYbb9uY/tOxKYO28ZVatUZsjgHgwZ3JPSpWWUkRBCCJGXU6fO0+uJUezbcefvREsSSY4I4T169+5N165dGTdunNKhCAWNCtXxlO4/tGrZiG6PtVc6nHyxJlpA01/x3iLnzl/myUGjObB7icKROIfHffr/fula+g54k/6DR1O+fDnWxs5m+kdvMPatYLo//nC+kiL51bxZQ/TP9GHmtDfZGPcZYyL0bPl9N7Ua9GZ46BQ2xu90Wl1CCCFEcXHhYhKduw13XlLEGkOgKpCYuBgCVSpUaT+BuUy7HxeeebtKpcJx1cK48JzLGFpjAjO3WbOWn/14Z5A5R4TwDrt27WLu3LmoVCqmTJmiQARxhOfyHmSNCczyHnWnpVnT93V8r8x+fMZt1hgC04b3mPUqVIExHjNHhdJ+MH9E9JzFrP11q9Kh5IOVgwmAf2NFEyPJyddo1/G5YpMUAQ9KjKz93zbadw7G8tcBxr71PDt//y+j33iGB2rf57YYAjppmB01mnPH19Crewd+XLGegUPeZv+Bo26LQQghhPBkV65cQ/PIsxzau9TJJVsw6o34m2zYbDZsJh0WY0COxIcek/12m414gwazPjBj2UJtkA7MK8k8xMqaZRZ0Qdq0ruwO5afVYdZLckSIkiolxb5cq7IJkkzWmEACjGCIT3+fMqEz63NNEtv3taAz2TLmHMlxfLwBjAH249UhxNpM6ACdyYYtNkTxHgeeZMnCD5kzdym/rP1d6VDuLG4WRosGQ5hy55gbN2/RuMUAju7/SbEYXEHxoTRHj53iP+Nnc+vmLczfTKGRuo7SIQEwaEA3Bg3oxrr123jupYl0fKQlU4yvUbHivUqHJoQQQijixs1bNGo+gNNHV7ukfI0hPnNCQG0U8YYEAiJjCNOGoCaOlWYNhvjMi0F1z/5ojEYS02eg0wahQ8/KuCi0WsC6hmUWDf3VgDURCzoiHK8ltVHYbK4Zay/DakRJM3DgQLZs2aJ0GIXimCDZvHmzQlHEMctoQWOId5iHxD5XiZ1DciQuPCMpkjmJai7Hq0OINSWi0s8iLiQKSdfe2eLvPuDpZ8dz7PgZXgzup3Q4OVljCNSbs71G3OvPnYmEvvGRy64DlKRoYmRmtJmv5i/no/dH0qtHByVDyVO3x9rz+4avmP/tKpq0GsQU46sEPxOkdFhCCCGE2w0cMsalF0P+jbNe6akb+4NlGWusIYSotUTZHC7r48JR6e1DefwzNmoJ0oF+ZRxRWi3WNcuwaPoTrQbU9qSJXgUmm3s+IJw+upp+AyPcUJMQytuyZQu2jA/xnk+lUmX8v3z58qSkpDB8+HDGjRunTI8v60HsIyTu8ol3WSgqiyVrIhkgbiVmNBh6Zjte7YcGY2bCWNzRov++z7vvfU6vJ0Yx77N3UD1QU5lALEYCVMYcm3X5XsXI+YwffMn6DX+y4ZfPlAnAxRQbSjM0eAI+lSpg+eO/HpsUcRT8TB9OHFqBzXaWUaOnKx2OEEII4XbLl0S68AODBr+7fB7IMnZeD6Z4A5ps+zgOp7EmWtD075nWXVxLlC0eg8aM3oVzjKS7cuUa9Rr1ZfmSSNdUIIQosvLlywMwfPhwbDabB0zEevf3QYsFDCYDGEPJOcLGgjEg6zxKqgAjFleFW0xNmjCC9yaMoEfQ60R/ttj1FWqjsNkyVyzSRjkM+cz2o0RS5MChYzza9UV8KlVkbWw0ZcsqPujEJdyeGLl69TqaR54l+Jk+vPj8E+6uvsjGvvW8fXnf3q8pHYoQQgjhdorNn2GNITSt67j9AjGPXh/aIHQkcNBqH3rTP8u3p2pCYjMvME06ssxR4iwXLibRrO2QYtnVWIjionXr1h6UEElnsQ8NvAONIZoQbQgROgvG0OwTqGoc5idR/gO1N3vk4Rbs+XMBJ0+eQ9tnJMdPnFE6JEXMmL2QZ4INfPPlRMJfH6p0OC7l1sTI9esp+GmeZvmSafTu2dGdVTuV/pk+RE59g/vr9+bWrX+VDkcIIYRwK9ckRywsW5P1Ej9upRk0/enpMEdIkGO11sRcvglV46exsCw0EnP6sXnQRpnQ5eODSEGcOnWehzs/z7EDxWtSOiGKm9WrV3tQQgRQN8YfSDiYvzckbZgBjcXIrPReb9ogp7+fCZg8MYSp749k7IRogl+exLbt+5QOyS0+//JHmrcdwuXLV/gjfh5Nm9RXOiSXc1ti5OKlZFq1H8rxg8upX6+2u6p1mbaappw4tAKVWuYbEUIIUfK4IjlicewaHheO3gy6iLSVE9R+aDCzMmPoSxzhaXOMZP0goaZnfw0Wi+MwGnt5KlW23iFpY/Lv1nU9v44eO8Xjga+5YMUeIUTxpyXMoMn6PoiVmMA8luxVhxChA7M+PG0lLvvx2XvB2Zc4z7otv8kXYfdQW3+++WoSA5/qxth3P6X3E6NYuXqT0mE53T//pDA10sQDDYM4dPg4a2Nn8+74l5UOy23clhh5rEcIv/48x13VuUXZsmVYvyaGTo+XnBeMEEIIkc7ZyRGdoT/L0sfH681ZJ5lThxBt0GDWp4+dj8Qv3j4cxpJtrL26Z380ZBtGo43CZvLPOv5en4AhPtYps/sfOHSMfgNHs2+HueiFCSFKJHVILPYVdtPfpwIw+puw5TEOxt7rzYw+LXGS83gVerMOU8b8FfYJqi3GAFSB2YfhiLt5IqgLv6yYxaQJI1hgXkPbDs/x1fzl3Lh5S+nQisR28ixj3plNw2YDSE2Fw/uWMnXySB6ofZ/SoblVqdTU1FRXV/LcixPRDdbSNzDA1VUpYvHSdfy89jfmRntQdzwhhBBOo1KpvGq1BXcr8rK01hgCA4z4O2u2fWsMgaEQHRuCO1Y03LvvMM8PN/JH/Lxcb5fXjygJitPrXJbazr+S/Fj9feQks+Ys4vsf1tG+rT+9e3Skd88OXjE6YodlP6tWbyJ2zRbq1b2fx7u2Z8RLTyodlqJcPqVszJc/0KlDq2KbFAEYNKAbJ0+fY+68ZQx/ob/S4QghhBBuld5zxFMujq1rlkH/aLckRXZY9jMy/OM8kyJCCCGKpwcbPEDkh6OI/HAUv67fzupfttBv4GgqVbqX3j07EtijIw+3b650mBnW/m8bq1ZvYtXPm3mgVg369O7MZ7PepkVzd5wtPZ/Le4zUrNeLk4dXUaZMaVdWo7iUlBs08HuSU3+vUjoUIYQQTtC7d2927dqVY3vr1q1ZvVpWG8lNoZMjzuoxklaORWMg3g29RX7fuoexE6JZt/rTO+5XnL5JFyIvxel17kmJXk8nj1VO+xL+ZvWaLcT+soWqVX24fu0fmvk3pJn/g7Twb0gz/4b4+FR0Wf0XLyWzd99h9u6zsnffYfYkHKZs2bJUKF+WPr0706dXJ2rXruGy+r2VSxMjn3y6iPPnLzFpwog77GUlJjAAo0WHKZel9+LCVegT3HOBU1Tj351DnTr389qIgUqHIoQQooimTJnC3LlzSUlJydhWvnx5hg8f7lkrGXiYknKRvHHTTt6fOo/VP828677F6QOjEHkpTq/zkvI+5gzyWN3ZhQtJ7E04zL6Ew+xL+Js9af/39alEM/+GdOrQijJlSuPjUwlfn0pU8a2ET+WK+PpWytjm41OR5ORrJCVfJTn5KklJV0lKvkpS2rakpKvcvHGTLb//xZ6Ew6T8c4PmzRrSvJma5s0a0sK/Ia1aNubee8sp/XB4NJcmRhr6P8WO301UreJzh73SEyOALufkQt6UGDl3/jIdH3uRA7uXKB2KEEIIJ1CpVDm2FZcLf1cq7hfKa3/dysxoMz8tnpav/YvTB0Yh8lKcXufF/T3MmeSxKpwTtrPsSzjM30dOcvTYaXvCI/kql5OuknzlGklJVzO2aVo1wfLXgbQkSSV8fe0JE1+fivbfvpWoV7cWDRvWoYV/Q+kNUkgum2Pk+6VrefmFJ+6SFHGg0aAxRxITpnXK7PBKuK9GFfTDgvjhp/U89cRjSocjhBCiiEaOHJnRayS9t4i4O0+bc8SZYn/ezJfzl+c7KSKEEEJkV0dVkzqqmkqHIRy4bLnePXutVK5cgLFT/hFEG8A46+4XUfb1uDN/siztbY0hUKUiPC6OcId9AmOsGbflehxgjQnMUm5gTMEXsapcuQJ/7TlY4OOEEEJ4nnHjxmUMpUlJSZEhNAXg7KV8PcGPy9fzzYLVLP7uA6VDEUIIIYQTuSwxsv/gMZo2rlegY9QhEejM+hwJC0dx4Sr0mLDZbNhsNuINGsz6QLLnMMz6SPziM/exGANQBSQSkeW4cNKrssYEEmAEQ9oxNvsi4AVOjjRtWp/9+48W6BghhBCea+TIkZQvX56RI0cqHYrXKU7Jke+XrmXZ8g1897VR6VCEEEII4WQuS4wcPHiMxgVMjICWMIMGc2QMuacj4lhp1mAIy7zIUvfsjwYLidkO0BiiM4bk2PcBjSEsY3JX+zYzK+Ps5c4yWrIcgzqEWJMOi3EWBekI3LRxffYflMSIEEIUF+PGjaNFixbSW6SQikNy5L8LVvPL2j+Y9/kEpUMRQgghhAu4bI6RWrWq06RRQRMjoA6JxrAsgNCYnsTmmGxES5TN4eIqLhyV3gyAf7Y9/RvnnKgkt232clZiRoOhZ7bb1X5oMLIyLgptPq/pmjSuR637q+dvZzdLSrrKnzsTOXzExqWLyVxOusKlS8lcunyFS5eTuXQp83erlo34a/chqlatTNUqPpm/q1SmalUfqvhWpmo1Hxo2UNGujR++vpWUvntCCOES+w8cpVR5P3bvOUTLFo2UDscrefOcI/NMy/lzZyKfR49VOhQhhBBCuIjLEiO2k+ewHj6BumGdAh6pJiRCh1E/i7iQqBy32oe8WNL+0mGKNxAZ4IxurRaMASpyKyl70uVODllPcPLUOSfEUzQ3bt5ix85E/tyZwJ87E9mxM5Gz5y7Rro0fjdT18PWtSLVqvjRsWMee7HBMflStTBXfymmJk2xJk8v2ZMrlpCucOHmOn1Zs4M+didS8rypt2/jRro0f7dr407aNH+XKuuzlJYQQbrF8VTyTP/yK3zd8RRftK4S+Moghg3soHZZX8sbkSMzcpew/eIxZ00crHYoQQgghXMhln1zVDesUMjECaKMw6VRExoQR4bjdGkOo0YLOZCNjVV9rDJFOiBc0GOJji7wiziHrcRqp6zolooL6+Zff2LBpB+s37uDAgaNpiQp/enXvwNsRwTRSF+y5qOJrT5A0oPZd9z1kPZGWiElk2fIN7NiZSJMm9XmsS1u6dm5Lrx4dCnu3hBBCEdNmfMuuvw7w+4avANgY9xmvvj6V3XsOMXliiMLReSdvSo7MjDZz6vR5pk8dpXQoQgghhHAxlyVGGqnrcMh6Am23wh2vDTMQGRBKpMZhozURCzoitNm3FaxXR87KgtBhts9TUsTEyEHrcRq7MTGyddtezEviWLQkjk4dWjPwyccZ9nQvWjR375rHjdR1aKSuw6ABmU/4nr1W9iYeZt43KxgeOoWnB2rRDdTycPvmbo1NCCEKanjoFB6s/wCmLydm2T7nkzFEf7aYJ59+ix8XfaxQdN7NG5Ij02Z8y5Ur1/jA+JrSoQghhBDCDVw2+WrTJvU5c+5i4QtQhxChs2CxOG7zc5gwFSCO8LQ5RhIOFnxp3Uxpk75mW93GvixwzhVv7uTM2Qs0bdqgCLHc3UHrcaZ89DVtHn2W8ZNiaOb3IHu2L2ShaTKDB3R3e1IkLy2aqxn8VHcWmiazZ/tCmvk9yPhJMbR59FmmfPQ1B63HlQ5RCCFy6Kp9hV7dOzB+zAu53h76yiDCw4bRuMVATp067+boigdPnpD1/anzSEm5wcR3hisdihBCCCHcxGWJkSf7PcbXphVFKkMbZULnuEEdQrRBg1mvQqVSoVLZl+Q16cBiDC1QAiM7dUgs9hV608tWoTfrMNkKNrxmnmkFT/V7rPCB3MHqNVsYFjyBoc+9Q9myZVj2/TTWLP+El55/Ah+fii6p01l8fCry0vNPsGb5Jyz7fhply5Zh6HPvMCzYwOo1W5QOTwgh+PvISWrV7030zP9k6f2Wm8e6tOX3jV/xeOBr/LL2dzdFWLx4YnJk4uS5lC9fLs+kmBBCCCGKp1Kpqamprip8ZPg0Oj7akmeG9HZVFR5l/rer2LEjgRnT3nRquTss+5kwKQYfn0qMH/MCLT2kR4gz7N5r5f2p80hOvsp774bQVtNU6ZCEECXQz7/8xtsTovl947wCTxz99LPj6fhIS8JfH+qi6Io3TxlWM9bwKbVr1WBUqO7uOxeQSqXCZrM5vVwhPElxep17yvuSN5DHShQXLk2M7D9wlOdempgxcV1x175zMOZvphR4ktO8nDx1jncmxnD4bxvvvRtC546tnVKuJ9q0ZRcTJsXQ8EEVkyeG8EDt+5QOSQhRQnzy6SI2/7aLhabJhS7D+MGXHDlyki9j3nFiZCWH0hfWEW/PpEmjeoQMH+CS8ovTB0Yh8lKcXuf9BkYQv9ly9x0FAZ00LF/inKUwhFCSSxMjACNCP2CYrhf/17WdK6tR3Nr/beX7peuI+WRMkcu6ceMWEyfP5cfl65k8MYQB/f/PCRF6h6XL/sc7E2N4st9jTHxnOOXKyZK/QgjXCX3jY+6rUYVJE0YUuayly/7Hh9PmE79urixXXghKJUfC3pxGW40fLwb3c1kdxekDoxB5kde5EMKbuTwxcvPmLeo06suZo6tdWY2iUlNTqVGnJxdsvxS5rHXrt/HelK94elB3Xh0+0AnReac5c5ewaMlaJox9kW6PtVc6HCFEMdQjKIwX9H0ZpuvltDIPHDxGQLfhxP40k3Zt/JxWbknh7uTIiNAP6BrQlmeHunbIr3xgFCWBvM6FEN7M5YkRgG1/7mPshE/5ZeUsV1eliE6Pv8yXc96hmf+DRSon6pMFxG+2sGThh06KzPsNHPI2AZ00MnZfCOE0J0+d45EuL/KDeSrt2zVzSR3dA0PRPxtE8DN9XFJ+ceau5MgLI96jT+9ODB7Q3eV1yQdGURLI61wI4c1ctiqNo/btmjFkcA9ejyh+489efOU93gwbVuSkSPDLk0i+ek2SItksWfghyVevEfzyJKVDEUIUA7+u387/s3ff8U3V6wPHP+lu6V7QlGUpFmQUkOEocpGCVgRU1KJiFWe9uOq47qp1i1gU0aoo1zorDlD54ZUiIuAABMoulKK0Tffe6cjvj7Sle9A0J0mf9+uVV9rknO952uRJTp58x6ywuzmy94s+K4oAbN64ir17j/Lw45b5hUBfMsZqNdffHM2CeRcZpSgihBBCCNNnlMIIwK03z2fmjMnc9+Drxjpkn4u49RkiFs/tclnHzhQVlzJh2mIWXnkx0Y/dasDoLEf0Y7ey8MqLmTBtMUXFpUqHI4QwU++u/paV73zJ4b1f4Ozc90ucr3jtAYJGDiVswf19fixL05fFkauvf4wbr7uUK+bN6JP2hRBCCGF+jFYYAbhy/gwCAvxZuOhRYx62T/xrzl3Mungq/5p+5pPKnkrLYuK0CNavfY35c6cbMDrLM3/udNavfY2J0yI4lZaldDhCCDPzwH9WcPIfDd988YpRj3vbkgU8/cRtDBk5n39OyWtXT/RFcWT+1Q9x1+1XEXbJBQZtVwghhBDmzaiFEYD7loaz9K6rOXvc1eTlFxv78L12+OhJPPxCeWP5A70aO5587B/uvv81Th79lmFDBxkwQss1bOggTh79lqX3LyP52D9KhyOEMBNzr3yAceMCefm5pYoc/7ypYzmy9wsWXPMQG37coUgM5sqQxZFL59/Hw1GLmTVzikHaE0IIIYTlMMrkq+3JzSti6b2vMm58IE89eosSIfRIUXEpzz6/mty8Qj5ZE9Ortqqqqjlr9FVkntxgoOj6H7+z5nLyyDc4ONgrHYoQwkTlFxQzbfotxH/wNBecN17pcABYvORpxo4ZwaMPRSgdilnp7YSsF1/6b156binTpowxYFTdJ5NSiv5AnudCCHNm9B4jjXy83fnysxcZ4OjAwKGX8v6H65QKpUvPvrCaidMiCA4+u9dFEYALZt7Ob1veN0BkXUkkSq1G3eISRZ/N9Z8YRZSRVln8bcv7XDDzduMcTAhhdn77Yz/Tpt/Cn9s+NJmiCMAna55FpdIXSET39abnyIUX387yV+5XrCgihBBCCNOnWGGk0QP3XU/aiR84fiKd8VNu4Ot1W9DW1CodFqfSsvjgo+/w8AvFzc2Zk0e/5ebFc3vd7o23PENM9B2cNVxtgCg7kRiFWh0B8Ro0mtOX+PAEItRhxKUa/IBERSQYutEOnTVcTUz0Hdx4yzNGO6YQwjys+fgHXnjlv6Qc+hovTzelw2njkQcjuC58DhOmLaasrELpcMzGmRRHpoYs4f1VjzMx+Ow+ikoIIYQQlkDxwgiAna0Nr75wNxu+fZ29e5MZMuJyltzxHBv/95tR48jLL+bd1d8y+/J7mLfwIcorqinMTOT+uxcZpP2XX4tn7JgALg8LMUh7nUnckADh8cS2OocMjd1OdHASMSuN1LWjD10eFsLYMQG8/Fq80qEIIUzEo0+t4sCBFDZ8a9oroM299ELWr32N0RMX8cfOg0qHYzZ6UhwJnrqYTz+K4ZzRZ/VxVEIIIYQwd4rNMdKVdd9v5cuvN7Ntxz7ujrwatZ8PE4PPZuyYEQY7Rk5uIfsPHGf/gRT2JCXz586DLLzyYq6+4mImnzvaYMcB2LR5J1u27ubFmH8btN32pRIXFkLMqHg0rSsjHe0RF0ZITFLT78HR29kYGdBim8QoNc07hYTHa/SFl9R5SC1KAAAgAElEQVQ4wkJiSDq9M9s3RtJy777zePTbzJwxmdmzphrpiEIIU3TVoke4JPQ87rztSqVD6ZGwBfez8IqZ3LZkgdKhmI2u5hwZPTGc/333BkOHmMbk5jL3gugP5HkuRPfl5hWRockhQ5NLRkYuGZoc0jW5AJw6lUVlVTVVVdVUVOivK6u0TJ40il1/HcHRwR4HRzv9tUPjtT3+am9cXZ3x9/NBrfZG7eeD2s8Hf7W3zMvYDSZbGGlUVlbBhh9/Y8fvSexNOsbR5L+ZMP5sJgSfzeRJo7Czs8PdzRl3dxc83F1wd3fG3c2F4pIyiorKGq5LKS4pp6iolAxNLnuTkkk6cBxdvY7x40Yyflwg/5o+iekXTuizv2NW2FKWvXQvkyYE9dkxWkiMQh2h7zXSVXFEXxSB6O0biQygqdBBs+JIYpSaCE631WYfEolqGLrTzVqMwezZl8zDj73J5o2rjHtgIYRJKCurYOr0W1i14mFmzjhX6XDOyMOPr0SrreGN1x5QOhSz0VFxZMQ5V7Hj5/cZNMhLgajaJx8YRX8gz3Mh2tLW1LL/wHEOHExh/4EU9h9MwXmAE0eST+Kv9sVf7YO/vw/+al8Gq31Qq32wsbFuKnY4OemvHR3scHCwp7paqy+aVDZcV2mbiihl5ZWkpWWTkZmLRpOHJjMXTWYuGZo8gs4ehreXG+PGjmDcmEDGjR3ByBFDlP73mBSTL4y0Vltbx779x9iXdIzMrHxO/p1BUbG++FFYVEpRURljxwRw4OAJ3N2dcXPVF03cXAfg7u7C8KF+jB0zguBxIxk40NMoMW/dtpfYlZ+x7stlRjlek9Y9OQgnXhNLy7qFvqBxtHUPkcQo9HWOWEJJJEq9nKCmIsjptkc1FUKUK4wAXHHtw0Tdcz0zpk80/sGFEIrZvecIV4Y/ws5tH+I3yFvpcHol/tP/46NPNkiRtwdaF0eGjJxP0s5P8PRwVTCqtuQDo+gP5HkuhN4vv+7hp8Q/OZWexabEPxk/biTjxgYyflwg48fqLzY21kaNKSe3iAMHj3Pg4AkOHErhwMETnErL4sorZhIwXM2smVOM9wW+iTK7wog5Mo0P7Q3Da5IAgk/39EiMQh1xtFnPj8bNWxc+mmnsjUKz4TQKF0YUKz4JIRTzWcL/WBP/A5s2rFQ6FIPZsy+ZsPn3sf3n9xkZKN/kdEdjcWTg0Es5cfgbnJ2dlA6pDfnAKPoDeZ6L/qqiooq13/7MpsQ/+Wnzn1x4/njmhE5jzqxpjAgYrHR4HarW1nD4SCob//c7m7fs4u9/Mgm9eCqXhJ7HVVf8S+nwjM4kJl+1ZHuTjlFSUm4CPRkCiNzYuDJNEjEhzZftTSImpNWyvi16muiHzjTdFwHx26MJNv4f0aEZ0ydSUlLO3qRjSocihDCCp597jx2/77eoogjApAlBpJ34gRuWRPPN+l+UDscsFGYmcu7UOaSd+MEkiyJCCCEs0+49R7jr3lcYOe5q9u49ynXhc8g48QPfJrzKXbcvNOmiCIC9nS0Tg4N4/D83s3njKnbt+C+zZk5m++9JeKpn8+Cjb3DosMGXMjVZUhjpY7FvfkbUvdcb96CpcYSp1UR1MC9d6Nxw4CgpTc/zYKK3t1zWt/HSOLnq0pgkwpuW/m09HMc0RN17PbFvfqZ0GEKIPrYo4km8vNxZteJhpUPpE3a2NuzctoYNG7cT89IHSodjFjLTD2Jna6N0GEIIIfqBb9ZvYcbsSB576m1mTJ9ExokfWPHaA8y99EJszfi9yNPDlWsXhvL6K/eRn/ETY0YHcOc9LzNn3r1s2LhD6fD6nBRG+lBWdj6l5RXMu6zvl+dtIWAOC4IhYUNnS/KOIjAACJ1LOEkkd1YMTE0miXDmhra+zbTMuyyEkrIKsrLzlA5FCNEHtDW1TDzvRpbceDn3/vva7u/YRbHYsBKJUqsJi+v9NywfxD2JywAnrl38hAHiEkIIIURvnPxbw9wrH+DgoVRWxj7Epg0rWXTN7FZb6c8DWvTEVzfvqW8eVCoVt9w0j+2b3+OFpyPZ8cd+Fi56lPSMHKVD6zNSGOlDf+w8iLuriwJHDiDywXBIiEAdFkeL0/OG+UGCo+9p6PURyj3RwSREhNH8PD4xSo1a3XBbQBDBJHC6zpJIVMMcI0dTWp78t/7d2NxcBrBz9xFFYxBCGN6BQycYMuJyvk14lUtmn6d0OEYTde913L5kPqMnhpNfUKx0OEIIIUS/tPabzSy87lGeeORmoh+/lfFjA9tulBiFumHOxeY98OPDE4hQt/ysZU6mTD6HF5+9i6V3XU3YgvstdqivFEb60B87D3Le1LHKHDw0Fo0mnvCkGEKaVywjjhK9XdNiBZqAyI1sj6bFPCMRCeHEaxomZA2IZFV0MAkRjfcvJ2i7hvhwSIpZ2pDkocwNh6SYkLbFGCOaNnUsf+48qNDRhRB94etvf2bpfa+SfepHhg/zUzoco5s9axpbNr7NtOm3sHXbXqXDEUIIIfqVmJc+YOfuw+z5PZ4Lzhvf4XaJGxIgPL7NQhShsduJDk4iZqW59Rtp6eIZkzmw+zN2/JbEi6/+V+lwDE4KI32ooLCEqVPGKBhBKLFt5g1ptfpMg4DIja22azmPSMv79W2ExrZsT/+7Bs3GSNo5hFFMmzJGvlUVwoK88MoaNm76g18T3+19Yyn6ITWNBeB2h7skRrXo/nrG2zTTOHl1b4bXDBrkRcqhr4ld+Rmr3v3qjNsRQgghRPc9+UwcXp5uLHvxni62TCXlaEf3NSyC0bpi0un5hH5ITsthwM1vSyRKHUZcXFSb4TotFs1Qq1G3Gkvc+v6enp8sf+U+Bgxw5Jnn3+/RfqZOCiN9aO/eZFxcZIZ8Y3J1GcCefclKhyGEMICbbnsWe3s7Vr/9uEHaS4hZz4LGiab13eRangw0DDU8PdF0PKNiQlqeUHRnm2ZS48IIaZi8emN7VekeWvflMjIz87jr3ld63ZYQQgghOvbF2kSsra1ZeufV3di62VQG3ZnUrIfnE+1LImZ9ENubfamtP++g2cIa8YQnRDSd77S5v73zoW64b2k4tXV1fPXt5h7tZ8qkMNKHCgpL8PRwVTqMfsXT05WCghKlwxBC9NK0i25h4ZUX89D9NxiszeDoVad7zDUMEUyKWdnwDUsqccsTCI7e3qwLbCix8eGQsLxhyGB3tmkmMaqpKNL6S6LeeP6ZSGZMn8T00DsN16gQQgghWtiwcTtTJo/u/g6hsWi2RxOcENHFxKs9PJ/oRPCCOc166ieyMiap5flOwwgC/Zcz7dwfEMnG+PBm50PdN3XyGL7fsL2He5kuKYz0oXNGnyWFESPz8nRj9KjhSochhOiFeQsf5OXnljJ/7nSDtjsqsGWPjYDAUTQtXZ76E+uT2m6jn3y6YeWu7mzTaP3Shomutxu0KNJo0TWzeeyhCOYtfNDwjQshhBCCouJSLg/r4eqiAZFsbJp+YDvRwQlEqJstagE9O5/oQos2UlM42vq25hI3kEAwC+a0d9zmC210z/y50ykotJwvpKUw0ocOHU6lsKhU6TD6lYLCEg4fOal0GEKIXvj+6+U88MgKtmz9y4CtBhPU+jwhIIjgrnYLCGTUGWyTlATR8dHQNEG1YW34cQfPvLCa779ebvjGhRBCCIG9nS2bf9ndixYa5hbRaIgPTyImpItle7tzztGlds53WkhqseCGWq1GHRJD0hkcKfHnnTg42J9hnKZHCiN9yMPDlUILqqKZAxm+JIRl2PvHx6x850vWfPyDgVps5xuY1OSuTwQavn3p6TbB0auIDI3kwfAkYpYadqWu2Dc/5/OEn9i5bY0BWxVCCCFEc7MunsLmn3d1b+NU/QTvHU0REjo3nKZeqh220Y1zji511eMkuNn8Iy0vPe3huunnncy+eGpvgjUpUhjpQ0Ejh1FWXql0GP1KaUk5QUHDlA5DCGEA33zxCgcOpPD0c+8ZpL2jrc5GUlOOQvAC5gQAAXNYENx2G33xpOHbl+5s00roPdEEJ8VgqBX67rr3FUrLK/hkzbOGaVAIIYQQ7brz1qv4KfEPcvOKut644RwhodPxKKMI7OH5RIttuiqcNPQ4adNuo9C5hPdwqE5HsrLy+eXXPdy2ZEHvGzMRUhjpQ97ebiTtP650GM20XvapvWWgOtFFJbTrY7RzvMSo7h+/G5IOpuDj5W64BoUQinr91fvx8nLnptt6XwhIaj6spXFi1AcblxfXzyafFBPS8vUrIgHCH2yYpKw727QSEIl+kvouus92w6ywpcyYPonox27tZUtCCCGE6IqVlYrtP7/H+CndmQi+2ao0Ya16ijasQBMcfQ+hzbbt6pwjKBiS1v/U0FYqcUu7GvISyj3RwS3Pd0glLqxxyV79/QkRYbRclK/VHCjdMH7qDWzf/B5WVqru72TibJQOwJJNOfccdv11mBuvD1M6lAb6WYmVO0br+xpeAOJjDXb03X8d4fxpYw3WnhBCeff++1q+27CNi0Lv5NfEd8+4nfDoBawPURPT+Hvr1WJCY9HEgzpCTULDTcHR29E0r3h0Z5tWQmP1S+VFRM1FcwYzsWZl5TNl+hLWr13GpAlBPd5fCCGEEGfGwcGeA7s/49IF9/N89J1MPreTVWpCY9Fo5hKljiBEHdPsDv3wlRanCl2eTwQQuTGe5GZthcfHEx4R0Wm8AZEb2U4YIc3OdwiPbzr/aPd+wolvWO63K7/9sZ/nXvqQo0lfYmtrWaUElU6n0ykdhKVKPvYPN90ewx9bP1A6lA4kEqWOgO4uJZkaR1hIDKN6tPRkZ8fo4fG7YdpFt/DxB89w9sihhmlQCGEyDhw6wWVXRLHvz4/x8nRTOhyj2LptL5H3vsyubWtwdnZSOhyTpVar0fR54f/MmXp8QhiCPM+FJSsoLCH8xieYNnkMzz8TqXQ4injosTc5cvRvPvsoBjdXZ6XDMTgZStOHgs4ehq2tDcdT0rq9j74r0+lLU/eqjoaxJEa16PrU4f76e7scOtP5/g1S9LE0bhPWot9VZ8dodl9qHGHqCBKAhAg16rA4Po5q7OZ1WmpcWJvbOnI8JQ17O1spighhocaNGcGRvV8wbfot7N5zROlw+tzqNeuJXfkZR/YmSFFECCGEUJCnhyubfliJn583N9wczeo165UOyShqa+t4K24tV4U/wuig4Wz49nWLLIqAFEb63J23Xsmbbyd0vSH6okQE8U0zA29vPgasgwl9EjckNE0e2On+vT1+Mwkx61nQOJvx9miICWlVHOmGgEg2auIJR9+dXbMxkhvnhkPChmbj8FP5aX0S4XO7153kzbcTuOPWK3sWhxDCrDg7O5Fy6Gsee+ptvv72Z6XD6TMPP76S5OOnWPflMqVDEUIIIUSDpXdezasv3k3y8VP4Dr2UZ55/n5ycAqXDMrgTqRk8/PhK/M66jOzsAt5/+zFuvXm+0mH1KSmM9LHF113KD/+3g6Li0i62TGRDQjDR95wuAgTMWUBw08zBAczRV0aaFQ4S0ddF5hDQ5f5d6f7+wdGrTo+RC4hkVXQwSTErez2xoH6m5ASaaj+pP7E+qau1uPWKikv54f92sPi6S3sbhRDCDGzasJKNm/7gtRWfKh2KwV1x7cMEjRzKshfvUToUIYQQQrTir/Zl2Yv3kHHiBzw8XJk+O5KFix7l/Q/XcSotS+nwztihw6nEvvk5198UTfiNjxM0cii5af/juafvxKsfLG4hhREjuPuuq3nrna+62CqUWM3G0wWHxCjUIS1nHg6IfLBl4SBxAwkEs2BOQLf27+3xG40KbFmpCAgcRZfrcnczBn2nEf0fmPrTepIal9LswlvvfMXdd13d2wCEEGZk9duPU12tZen9ltGroqysgtETw4m653qLWv5OCCGEsES2tjbctzSc5KQvWXrX1Rw/kc68hQ9xwczbiHnpA3bvOUxlZbXSYXYoO7uALVv/4oH/rGDMpOu4856XKS2v4L67r2X3jo/63bmIFEaM4O7Ia3grbm2X26XGhZ2e3yMC4rdHE9xii5aFg+bDaLq3f2+PD9BOD46AoB4dpzOhzYbTpCYnNfSG6dpbcWu5O/IaA0UhhDAXTzyyhAvPH8/cKx9QOpRe2bMvmdETF7Fl49vMmD5R6XCEEEII0QMXz5jMqy/cTdLOT/jgnSdxGeDEB//9nhFjrmLq9CXceffLxL3/DX/sPEhVldbo8Wk0eWz4cQcvvvpfwm98gqDga5lxSSQbf/qdceMC2bThTbZvfo/ox25l2pT+ucKnZa2xY6Ls7e248fowVq9Z33HlLTWOpTFJLZePTI1jeavNQueGQ8QGEmNhQwKEx0fqCwfd3L9D3d6/YWhN82pFajJJgEFqiqFzCWc5KamJJCcEs2B712WR1WvWc+P1Ydjb2xkiAiGEmbk+/BKGD/PjnImL2LfzE+zMbPm4L9Zu4v0P15F2/DulQxFCCCFEL40eNZzRo4YD8M6bj3A8JY29ScnsTTrG+h9+xcHBjqT9x/H398Vf7YO/2ofBal/8/X1Q+/lga2uDo6M9jo72ODk6NFzb4+BgT1VVNZVVWiorq6is1F9XVWmpqKyivLySU2nZaDJzycjMQ6PJRZOZiyYzj/FjAxk00Ivg8SO59ab5TBg/El9fT4X/U6bFvM4ezdjLzy3lnEnh3HrzfFQqVdsNUpNJIpwHQ1vfBqOabxc6l3Ai2BAFCYQTH9rD/TvSg/2PpqRC6OmCRWrK0RY9V3ongKDgJNYvXU5S8AK6qovodDqWrfiEw3u6N8GtEMIyXXDeeDZvfIshIy5n2+b3zGZ1qpiXPiAzM4/NG1cpHYoQQggh+sDIwCGMDBzCtQtPf9AqLColIyOHDE0uGZpc0jU5bN6ym3qdjrS0LCorq6msrKaisqrhuprJk0axe89RHB3scHR0wNFRf+3gYIeTowPqQV64ubug9vNh/NhA1Gp9oUXt542tmX1ppAT5DxmJtbUVaz99iX/NuYutm+LabhAQRDAxbEiMJTQUIJGoCP2H/ZaFCP1wmoiEBAiPJ7TH+3egB/snxSwlbk7DfCSJUYTEJBEev7FbQ17a07J9/SSzMTFJBEev6rLNf825i7WfvoS1tYwKE6K/8xvkTfapH5l20S3EPHUHl8w+T+mQOrV4ydOcO3EU0W8+onQoQgghhDAiD3cXPNxdGDtmhNKhiAbyadKIxo8N5Jab53P/Q6+3vbNhdZeEiIY5PtTLCdquIT68oRDRbGLT0LnhAC2Xse3B/u3qwf7h0QtYH9I4F0lCy+E3PaIv8iTFhKAOi6PxEPrVcBonle3Y/Q+9zi03z2f82MAzObgQwkL9+euHrPn4B95d/a3SoXRo6vQlXBc+h6h7r1M6FCGEEEKIfk+l0+l0SgfR30Q9HEtw8NncvHiu0qGYptQ4wpbCqo2RHfYY+e8nG0hKOkbssiijhiaEMB+PPqUfnvLyc0sVjuS04ylpTJ2+hJ3b1jAycIjS4VgMtVqNRqNROowOmXp8QhiCPM+FEOZMeowoIHZZFGs++p79B1OUDsUkpf60HjpZjWb/wRTWfPS9FEWEEJ16+bmlnDVMzaKIJ5UOBYANP+7ghiXRFGYmSlFECCGEEMKESGFEIb/89A6PP/0Ox1PSlA7FdKTGEaZWE7J+Aasi2y+LHE9J44nod/jlp3eMHJwQwhzdeduVLLnxcqZddIuiccS++TmfJ/zEzm1rFI1DCCGEEEK0JUNpFKTT6Zh20S08/p+buWLeDKXDMXnrvt/Ki6/+lz9//bD9lX2EEKIDx46fYvqsO9i38xP8Bnkb9dh33fsKfn7eRD92q1GP25+Yehd+U49PCEOQ57kQwpxJjxEFqVQqdm5bw/rvf+WFV+RbxM688Ir+/7Rz2xopiggheuzskUNJO/EDs8Lu5rc/9hvtuLPCljJj+iQpigghhBBCmDApjJiANe89hb29HTcsiVY6FJN0w5Jo7O3tWPPeU0qHIoQwY3a2Nhze+wUvvPJfPkv4X58eKysrnyEj57PspXtZdM3sPj2WEEIIIYToHSmMmIiH7r+BG8IvZcK0xeTkFikdjknIyS1i4nk3ckP4pTx0/w1KhyOEsBAbvn2dHb/v77Oeelu37WVm2L85svcLJk0I6pNjCCGEEEIIw5E5RkzMP6eyuOeB1xg3ZgQvPHuX0uEo5omn3+HAoRO8ufxBhg/zUzocIYQFem3Fpxw99g+r337cYG2uXrOeHzZuZ92XywzWpuiaqc9tYOrxCWEI8jwXQpgz6TFiYoYNHcR3X72Gv78vHn6hrHr3K6VDMqpV736Fh18o/v6+fPfVa1IUEUL0mYfuv4Gw2ecxe+49Bmnv4cdXknz8lBRFhBBCCCHMjBRGTNS/71hIYWYimZl5nDNxEd9+t1XpkPrUuu+3cs7ERWRm5lGYmci/71iodEhCiH5g4ZUX89Jz/yZwzELKyirOuJ0rrn2YoJFDWfaiYYosQgghhBDCeGQojRnIzMrjiaffIS0jh+hHb2V6yASlQzKYbdv3EfPyBwxW+/JizF1GX0ZTCCEA8guKmTDtRv5vXSzjxozo9n5lZRVMmb6EuDcfZcb0iX0YoeiMqXfhN/X4hDAEeZ4LIcyZFEbMyO6/jrD6o+/Y/PNOFl0zh/CrQxnbgxN4U3Hw0AkSvkrki7U/MWvmFG67eQGTzx2tdFhCCMFFoXfyUNRi5s+d3uW2e/Yls+Cah9m1bQ2DBnkZITrREVP/QGbq8QlhCPI8F0KYMxulAxDdN/nc0Uw+dzR5+cV8sfYn7rrvVXQ6HYuumU341bPx8XZXOsQO5eYVkfDVJr5YuwmVSkX41aH8vvVDvL3clA5NCCGa/Jr4Ljfd9ix//5PJvf++tsPtvli7ifc/XEfa8e+MGJ0QQgghhOgL0mPEzB06nMoXazeR8NUmxo8N5OqFsxgdNJzgcSN71E59fT1WVoadcibpwHGOJP/NV19vZv/BFMKvns2ia2Yz5pwAgx5HiL7SF3khzMPTz71HaWkFr796f5v7Yl76gMzMPN558xEFIlOeKeaFqX9Tberxid4zxbwwNnmei9YkL4Q5kcKIBdn8y25+3baHrdv2cuBQCpMmjGLihCAmNVzOHjm0zT51dXXk5eVRVVWFlZUVXl5eODk59fjYx46fYs++ZPbsS2bvvmT27DvKuDGBzJg+kYumT2LWvyYb4k8UwigMlRfCvK35+Ae+37CNb754pem2xUue5tyJo4i69zoFI1OGKeeFqX8gM/X4xJkz5bwwNnmei0aSF8IcSWHEQtXX69iz72hDkUJ/Sc/IYdKEIAIDhuDq6oS7mwtubg44D3DE09MDW1twc3Vh6FB/PD3cKCoupaiojKLiUgoLSykq1v9cVFhKUXEpJSUVpKSmsWdfMoP9fZsKMPpizCisrFRK/xuEOCP5+fnU1NTg4eFBXl4eNjY2+Pj4yLce/dCWrX/xwCMr2PvHx0ydvoSnn7iNuZdeqHRYijDlvDD1D2SmHp84c6acF8Ymz3PRSPJCmCMpjPQjFRVV7NmXzMm/NRQW6Ysb2qpy8gvKKK+ooLKymlPpedjZgLuHJwcPpeLu7oy7mwseHi64u+l/dvdw0d/m7sJZw9VMmhCEk5OD0n+eEL2m0+lQqVRkZGTg6uqKVqulpqYGT09PCgoKGDRokNIhCgX8/U8mC6+5iS8++4CRgUOUDsfozCEvTP0DmanHJ3rOHPLC2OR5LiQvhDmTyVf7EScnB0IuCCbkgmByc3Oxs7NDq9VSVVWFra0tvr6+lJWVUV5ejp+fn9LhCmF0eXl52NnZYWdnR1FRUYu8kBpy/zV8mB+Z6Qf7ZVEEJC+EaI/khRBtSV4Icyb9mfoZnU5Hfn4+lZWVODo64uHhAejHAubn51NYWNh0mxD9heSFEG1JXgjRluSFEG1JXghLIIWRfqauro6qqip0Oh319fXY2NigVqtxcnJCpVLh6+uLg4MMixH9i+SFEG1JXgjRluSFEG1JXghLIIWRfkKn01FRUYFKpWLgwIHY2NhQUFBAXV0d1tbWeHh44O3tjaOjo9KhCmE0khdCtCV5IURbkhdCtCV5ISyJTL7aD9TX15OdnU1NTU1T1dba2prs7OymFzJra2ulwxTCqCQvRE/0l0kFzTUvTP3xMfX4ROfMNS+MzVKe54VFpWRm5pGZlYem4bqwqJTs7HyqqmuoqqqmsrKa6motlVVaqqqqqarWUlWppbKqminnjmbXX0dwsLfDwdFOf+1gj4O9HfYOdjg62GFvb4ejgz3Dh/uhUqnwG+iNn583fgO9GDTIC79B3lhbm/b315IXZya/oJjc3EJy84r0l6afCyksLKGwqJRqbQ3VVVqqtTVotTVUV9eg1Tb8Xl3DlMnnsHPXIezs7bC3s8XOzhZ7+4ZrO1vs7e2ws7MlcMRgtNoafLw98PZ2x6fhov9Zf5u9na3S/xKTIYWRfqCgoICamhq8vb1JT0/HysqqxYuXp6enVHJFvyN5IXrCUk74u2KueWHqj4+pxyc6Z655YWzm9DxPPZnBoSMnOXzkJCmpaWRm6osgmsw8nBzt9UWKQd6oG66HDfHD0ckeB3tbHBzscXS0byhunC56ODjqix329nZUV2ubiiVV1aeLJ9VV+mKKvqhSDcDJkxoys/P0xZjsfLKy8snMysPTw5VBA73w8/Nm/NiReHu5MeacAMacE4CHu4vC/0HJi86cSssiJTWdEyfSOX5Cf52Smk5ObiEDnBzw8fFoKlKc/tmDgb6eDBjgqC9uOLQuejT8bq8vfmhratFWty6e1OiLKtVatNoaauvq0Whyyc0rJK+xEJNX1PCz/rYLzh9PSUk5IwIGEzhiMIEjhuivAwbj6Giv9L/SqKQw0g9kZmbi7OxMXV1d0xjA+vp6fH19sbfvX094IRpJXoieMKcT/t4w17ww9cfH1OMTnTPXvDA2U3yel5dXcuhwKqlhk7YAACAASURBVAcPp3Lw0AkOHtFf+w3yZszosxg3NpCzhqnx89MXQdR+3tjb2ykdNgC5eUVkZeeTmZlHaWkFu/Yc5tDhVA4dTsXewY4xowMY21AoGTM6gNGjhqNSqYwWn+SFXtKB4+zcdYiDR06ya/chUk6k4zfIm8CAwYwYMZiRI/TXgQGDGTrE9JYrLi0t51hKGidS00k5kU7KiTT9dWo67m4uzJ41DR9vd6ZNOYepU8bg5uqsdMh9RgojFqy2thYbGxvKy8uxtbUlJycHf39/8vLyqKurw83Nrd9WckX/JXkhzoQpnvAbkrnnhak/PqYen2ifueeFsZnK83zbjn1s3rKLLVv3cOJkOmPO0RcQxo4ZwdjR+mtz/yY8KyufQ0f0BZ9Dh1M5dCQVK1S4uTsz619TuHjmZILHjeyTY/fnvCgvr2TH7/v5c/chdu46xK7dhxkVNJypU8YQcv54RgYOJXDEYGxtbZQO1SAys/L4+59MfvtjP3/uOszOXYcYNMiLaVPGMHXyOZw3ZSwjRgxWOkyDkcKIhaivr6e0tBQ3Nzd0Oh1ZWVlotVocHBzw8fGhsrKSgoICXF1dKSkpwd/fHysr0x67KERvSV4IQzGVE35DsMS8MPXHx9TjE5aZF8am1PP8738y2bxlF4lbdvHzll1MmzqWWTOnMPviqZwz+iyjx6OkHb/vZ/Mvu/h5y27S0rO5eOZkfaFkxrn4+nr2uD3JCygqLmX9D9v4/odfKS4px9PTlWmTxzB1yhimTD6n383RkXzsH/7cdYiduw9TUlrOseOnuGLeDK6YdxGjgoYrHV6vSGHEQlRVVZGTk4OTkxN2dnaUlZXh7OxMSUkJ1tbW+Pr6kp+fT01NDR4eHjg5OSkdshB9TvJCGIolfbC1xLww9cfH1OMTlpkXxmbM53luXhFr4r9n8y+7yckpYNbMKYTOnMLFM6dgZyHf1vdWQWEJP2/ZrS+UbP2LcycGceH5wdwSMa/bPWb6a16Ul1fy+Zc/8d2GbRw4eIIFl09n3uUXMetfk5UOzeQkH/uHdd9vZd33v1JXV8cV82ZwzVWzGBk4ROnQekwKIxaksrKS3NxcVCoVnp6eDBgwgJqaGrKzs7G2tmbgwIEWV8UVoiuSF8IQLO2DraXlhak/PqYen9CztLwwNmM8z7ds/YsPP/qeP3cdZEnEPBZdM5uzhqv79JiWIvnYP3z82UY+jP+eeZdN55ab5jFtypgu9+tPeVFWVsGrr3/C5l92ccF545k/dzrTL5ygdFhm43hKGuu+38rR5JOAisf+czOBAeYz1MYynsUCAEdHR3x8fNDpdJSVlQFga2vLwIEDqa+vR6vVKhyhEMYneSFEW5IXQrQleWGaqqtrWPnOl0w870ZWvvMl4deEcuzAVzz28E1SFOmBoLOH8fwzkWhSNzBr5mSefu49Lph5G+9/uI7OvifvD3lRVFTCE0+/w+iJi/DxcWfHz++z7MV7qP7qMtRqdbuXqMQ+CiYxqlnbiUT1xbH66BgjA4fwcNRiPoh7irlhIVx345PcsfQlTqSm975xI5AeIxagvr6eoqIiamtrcXd3p66ujtzcXJycnPD29gZAp9MZdaZqIZQmeSEMyVK+8bfUvDD1x8fU4+vvLDUvjK0vnuf//WQD36z/hQnjRnLLTfMYPszPoO33d0eO/s2aj39g/4Hj3HLTPK5dGNp0X3/Ji5+37mbl218ye9Y0/n3Hwhb3JUapiTgazfaNkQQ0vyM1jrCQGJLC49HEhmI4iUSpIyBeg0GbNfoxTlv7zWY++eJHrr92DuFXz+77A/aC9BixADk5OdTU1GBra4tKpcLa2hofHx8qKirIz88H6PBFS6vVUlxcbMxwhTAKyQsh2pK8EKItyQvTc/xEGnPm3UtS0jG+W7uMmOg7pCjSB0aPGs6rL9zNhm9j2bxlN/Ovfoh/TmUB/SMv3l39Lave+YpvE15tUxTpVEAkG+PDIWE5cal9F58luOaqWaz/chlbtu7htRWfKh1Op6QwYuaqqqrQarX4+PhgZWVFZmYmmZmZ6HQ6fHx8upwEqbi42CK6wAnRnOSFEG1JXgjRluSF6Xn2xdXccFM0LzwdSeyyKKXD6Resra14961HeThqMQuueYiXlq2x+Lz4et3PpP6t4esvXj6zBkLvITo4iZiVLcegpMaFtRhyE9a6cpIaR1h7w3JS4whTR5AAJESoUYfFkdpmmEvj7/rrjob1JEZ1MOynW8doaqSTv6N7cTQXt/IRqqq0fPHVpm78c5UhhREzpdPpyM3Npb6+Hp1OR3p6OmVlZXh7e+Pk5ERVVRWOjo5driNua2tLTU2NkaIWom9JXgjRluSFEG1JXpimBx99A2sra3ZuX8OUyecoHU6/E3JBMJt+iKVGW8ua+O8tNi/+2HmQFW8l8MrzS3vRSgCBo4CjKTSWDFLjwgiJgejtGjQaDZrt0RATcrqo0DAEZ1R8w/0aDZr4cBIi1ESlRrJRE084EB6vQdN6+E4zCRHLCWo4xvboYBIiwpp6riRGqYkgvqn9FvcHdPMYiVGoIxL022g0aDTxjIoJQd2q8tFZHO158tElxL33NTt+39/N/7FxSWHEDOl0OoqLi6mqqsLOzg4/Pz88PT2bJkaqrKzstJKr1WpJS0sjPT2diooKamtrKSgooLS0lKqqKurq6oz41whhGJIXQrQleSFEW5IXpunyqx5g3tzpPPnoEqDtt94tLn0286WFSIxCrW75YbmrSUSb58Xjjyzh/PPP5ZEn37HIvPjk8x+JvO3KXrcTEBQMSckNhZFEVsYkERy9isjGakPDkJukmJUkAqQmk0Q4c5vP7REai0bTs/k+mh8jYM4CgkkiOVUfw4aEYKLvOd1Yy/u7I5W45QkER29vFlMose0MHeo4jo7dceuVfJbwv+4GY1RSGDFDZWVlFBcXY2VlhbW1NXZ2dtjb25OVlUVhYSHe3t44ODh02oa7uzvOzs5YW1s3vdgVFBQ0jRkUwtxIXgjRluSFEG1JXpieiFuf4c7bruJf0ye1vCM4mu2aZt+uN3x7HZ4Q0TAMQHRbe//L7dEcjdAXmlrnxZxZ53HNwjk8+kSsxeXFP6cyuWHRpYZtNHEDCQSzYE6rPhgBQQSTwIZEIHQu4SQQoY6iN6W9UYHNjhEQyKimX0KJ1Ww8XZhJjEIdEkNSTxpP/Yn1Sa2OAQ1/R8vCR8dxdOz68Es4lZbVk4iMxkbpAETPubi4UFtbS0lJCaWlpbi6umJra8vgwYNRqVSdToRUUlKCvb09Li4uANTW1pKRkYG3tzf29vYWMbu06J8kL4RoS/JCiLYkL0zLY9FvM29uCPMuC+nmHvpvrxMi1vNTauTpD4Gi5wIi2RifjDpiOZ/es5Fwj5Z5cdWCmdRoa4hb/QPPPxPZbhPmmBfDh/nxyec/svi63hVHUpOTIHhBs+EoScSEqIlpZ1t90SCUWM12gsJCiFAnNN0XbsAVYvTDeRpLIeHEb49meUh7EfVQNwsfXfks4X8MHTLIAC0ZnvQYMRP19fXk5uaSlpZGTk4OLi4uuLq6UlhYSGlpKQBWVladvplnZWWh0+koKCigqKgIABsbm6b7oePZpYUwRZIXQrQleSFEW5IXpmn3niPs/usI11zVw0+F7Xx73eGEk406mvSyu/fT1cSaZzIxZhhxcS2HvXTvOI37qVH3ovdBfX09ucE3ET2nnA9Xb2g3L8KvmcOO3/ezb/+xNvuba14svi6MuPe/6WUrqaQcBUYFNiuMBJ+eX6TV5XThI4DIjadvjw+ny7k5uh9SHEtjkprNDRKLwVbkTU3hqAGaiVv9LTcsusQALRmeFEbMRH5+PrW1tXh6elJdXU1hYSEeHh64uLhQWFhIbW1ti+1ra2tb3FZcXIyzszOenp5YWVlRXFzc9OLl5OTU5ezSQpgiyQsh2pK8EKItyQvTtPbrn/nPAzf2fMfUZJIIJqjhE2mnE05C55NeJnbjfroxsWaDLifGTAgnvukYo4iJSWixf/eOk0TM+qCGoTFn/uFXnxcDGe6ThX1GGgc7yItHH7yRL7/ebDF5MW3KGP4TtZiHH3/rzBtJXElMUrP5PELnEt6juTwadouNP6P92tXeHCapyT0bShMwhwXBcDSl9Wo6LXPuTDz74gfct/RaLjhv/Jk30oekMGKC6uvrycrKorKyEtBPhlRRUYG7uztVVVXY2tri6upKfn4+np6e+Pn5NVVmAerq6sjOziY7O7vpxau+vh57e3vy8vLw8PDA0dGR4uJiSkpK8Pb2xtraWpG/VYjukrwQoi3JCyHakrwwH4lbdjIiwL+nexEVkQDhDzYMo+nGhJNdTXrZ5aSY3ZhYs0GHE1KmxrE8AcLjmxUyQmOJD2/5t3X7OAvmdLhqSXusVFDUQV74BUxAe/QUOR3kxYjAIfz8806Lyov58y7i7MDBXLXokZ7vnBpHWERCy8eJUO5pZ2UWfQ+hhtsS2/YOapybpHnBoU1Roruaz2eib1yfK+202fExAoh8MJykmJCWywS3yLmeu/Pul3F1dmLhFRefWQN9pPn7hRRGTJCVlRU2Njbk5uZSWVmJSqXC1taWgoICampq8PX1bTG7s62tbZv96+vrqa2tbXrx8vLywtramtraWpydndHpdLi5uTFgwACT694mRHskL4RoS/JCiLYkL8yH2s+bgLM6KYwkxRDSZiWVCI5Gb0fTNDahGxNOdjXpZVf3d2dizQYdTkjZXvEFCJ3brDJypsfpBh1g3UFe1KlsyciopK6DvAgMGIzvQC+Ly4vbb7mCe+66livD/8Oqd79qf6P2noMNvYs2tqoSBERuRN/B5/S2+h5CDc/P0Fh9L6Fm96sjjhK9vfH5G8rccEiKCTmzyYUDIlkVHUxCRGP7+t5L8eGQFLO0oSDTjWOExjb1mGo/57rvy68TueLah5k1czJR917X4/37WvP3C5l81UR5e3uTl5dHbm4uPj4+eHh46B8wGxuKi4spLS1l4MCB7e6rUqlwcXGhpKQElUpFdnY2AwcORKVSUVtbS2ZmJnV1dfj4+GBlJbUxYT4kL4SxrVixgi1btgBwySWXMG7cOBYtWsTkyZMVjuy0/pwX5vD4CGX057wwJ5rMPFJPZnRcHAmOZvvGyC57RnQ94WRXk152Z1LMribW7CJG/YQU3diyd8fpiE4HLt7eOLWTF5p/juF94UV4FRfj1k5epKSmk5mZZ5F5MXPGuUwMHslrKz7Df8TlPBy1mPvvXgRAaKwGTWzP2guI3Iim/XlqaWgUTSeNtj5mrEbT/N5Wv7e9rd3jt2qz82N0J86u4/jqm5956bWPmDxpNMtfvo8RAYM7aEt5je8X5vOs7Ucau3BWVFRgZWVFbm4uAL6+vqhUKrRabdMsz410Ol2LNlxdXQH9zOtWVlZkZ2djbW2Nj48PDg4O+Pn5mdWLlhCSF8KYTp06xdixY/H29ubJJ58E4LXXXmPSpEm88cYbrFixQuEI9fprXpjL4yOU0V/zwhyFzpzCidSM3jXS7Qknu5r0sqv7uzOxZscCArtb1ujdcTpipdJR1G5eVJL+D9gF+DO2g7xIOZHG7FlTLTYv3N1def6ZSI4f+Iri4jLOu+gWHnjkDbZu26t0aGblaPLfvLTsI26+LYb/bf6DtZ++yLtvPWrSRZEW7xdKByPaKioqoqamBn9/f/z9/XF0dCQ3NxedToevry8DBw5sMZlRbW0tGo2GrKwsKioqAH23IGdnZ8rKypqqudnZ2djZ2eHh4WHSY/6EaI/khTCWU6dO8eCDD/Lrr7+yePFipkyZAsC4ceO4/vrr+fjjj0lJSeGbb3o7o33v9ce8MKfHRyijP+aFuVp4xUxee+PT3jVyhhNOdjXpZYv7z3BizRbaGQ4DjT1JGg9qgON0wNtFRV17ebF1NTG/eHPL7Zd3mBdvvZ3Awisvtvi8cHJy4OknbmPrpncZNyaA2JWfMSxoAfc+uJzNW3YpHZ5JSj72Dy+/Fs95M25lyZ3PY21txVNP3Mr7qx7vfJiciWj+fiGFERNUU1ODg4MD1tbWqFQq3N3d0el05OXlNY37a662tpa6ujqqq6v13eE0GsrKynB1dUWr1aLVahk0aBB2dnZmMd5PiPZIXghjueyyy3j33Xfx9PTscJu33nqLFStWkJKSYsTI2uqPeWFOj49QRn/MC3M1dcoYxowO4P9+3HHmjXRnwsmuJr3sclLMbkys2WWckTwYDgkRzeYxSYxqNgTIQMfpgL0N2LXOi8z/464X/mTCUyvbTKrZmBe/bvuLcycG4jfQtd/khb29LUsi5rHuy2Uc2PUZU849h3fe/4bQufdw7eInWP7Gp/y6fS9VVdVKh2p0R5P/5qNP/4+l9y8j4rZnuen2GFQq+Oj9aH7/ZTX/eeBGRphBQaRR8/cLmWPEhNTU1GBjY9M0o3NlZSWOjo6Ul5fj4ODQYSXWwcEBHx8fcnNzcXBwwNbWlsLCQlQqFdbW1hQXFzNw4EB8fHwU+KuE6B3JC2FMK1as4NFHH+30Q3ej6OhoPvzwQ1588UUjRNZSf80Lc3l8hDL6a16Yu9dfuY95Cx/E1dWZkAuCe95AQCSrotcTEqFGXw7RD0WJX6kmImYpcXM2EhkaiyY+CnWLuTuCT096GdDF/TRMrEkYIS22CSe+B8vlhsZqiEfdbB6TcOLjw4mIgEADHqe5mpoadEB50lvcu/BzMjIyqKysxMvLC3t7ey56YQf/nWPXZj8HBweOn8hi0887eeHZpf02L1xdB3Dj9WHceH0Y5eWV/PbHfv7cdZjlb3zGzt2HCRwxmKmTz+HC88dzduBQAkcMxsHBvst2zUFaejZ/n8rk9z8OsHPXIf7cfZjB/r5Ma/h7p00ew4gRpjtMpjPtvV+odK0HVQqj0+l0ZGVlodVqsbOzw9fXl/z8fP2yQQ0zo/v4+HS4Fnhj1dba2prc3FwGDBiAh4cHpaWllJaWYmVlhZ+fn8VVc4Vlk7wQSliwYAFPPvlk0/CMRmq1Gk2ricaSk5OJjIxsmvzTGPp7Xpj649OR9uIThtPf88JU9PZ5fu4FN7H20xfNovu9QSVGoY7gjAsfHeltXhw5epJ/3/cy/7duheRFJw4eOsHO3Yc5dCSVnbsPk3IiHS9PV0YGDiFwxBACAwYTGDiEkSMGM3TIIKXDbaO0tJxjKWmknEjjeEo6KSfSSElNJyUlDV9fT2ZdPBVfb3emThnDtMnn4Ozc/vPFXHSWF9JjRGE6nY7S0lJ0Oh2enp4UFxeTk5PTtJRcTU0Njo6OLSZCaq2iooKysjL8/f3x9fUlJycHlUqFp6cnrq6u6HQ6i3vRWrhwIb///rvSYYg+YmVlhbu7Oy4uLhQXF+Ph4YFOpyMtLQ0nJyfs7OyoqKigsrKywza8vb1xdXXl5MmTODk5oVarKSkpITs7G5VKhZWVVbtdqkX/dv7557f50N2RoKAgPD09UavVfRyVnuSFaT8+nTn//POVDsFiyXmU5fjrt4+Ye2UUd991DWFzLlA6HMNLjSOsYZnX05Oo6of9BEdvN3hRpDd58d0Pv/LF2v/x8QdP4eDgIHnRibFjRjB2zIgWt2VocjneUGxISU1n0+Y/OX4inezcQpydHPD2dsen4eLldfpnXx9PnJ2dsLe3xd7eDnu7huvmvzvor6u1NWira6iq1qLV1lBdraW6uoZqrbbp9tq6ejIzc8nNKyI/v5jcvCLy8ovIyytquK2IC84fT0lJOYEjhjAycDBXLvhXUzHH3s62g7/aPHWVF9JjRGHZ2dlotVo8PDxwdnampqamaYZnX1/fTicxanxBqq+vJz09HQ8PD1xcXKiqqiInJwdXV1fc3d2N+NcYj3z7ZtkkL4SpMYXXHMmLjpnC4yOUIXlhOgyRh3V19Vx301N4ergSt/IRA0VmQhKjUEcktLip5ZLAhnGmeVFfr+OOpS9QUanlo/ejyczUSF4YWH5BcVNhorE40fhzYVEphYXF+gJHtZbq5gWPxt+rtEyZfA67dh/Gzt4WB3s77JoXUOzsmm4fcZY/2prahgKMGz7e7nh7uTcVZry83C2u+NGZrvJCCiMKq6ysJDc3F3t7ewY2rBteU1NDTk4OXl5eODg4tLtfTU0NWVlZODg44O7u3uLbDoCqqipsbW3NfnbojshJsGWTvBCmxhRecyQvOmYKj49QhuSF6TBkHiZ8tYl7HljOB3FPMu+yEIO02Z+cSV58+XUi9z20nNhX7mbWzKmSF8LidJUXUhhRgE6no7y8nNraWpycnKirqyM3NxdHR8emCYy66p5WX19PRkZG0/rijo6OVFRU4OnpiYuLi1H+DiXJSbDlkbwQpkyp1xzJi+6R94T+RfLCNBk6D2tqark18nmGDBnE1VdezMTgsw3WtiU607z4/c8DfPn1Zioqqnjnzf9IXgiL0pO8kOV6jaxxwpf8/HxKS0vJzMykvr4eX19fKisrycvLA+jwzbxxgjArKytcXFywtbXFx8enaUx4RUWF0f4WIQxF8kKItiQvhGhL8qL/sLW1If6DZ7jwvHE8+MgKLp1/H+u+36p0WCbpTPLi8y9/YsbsSJ576UPmXXohK19/QPJCWJSe5oVMvmoEubm5uLq6Ym9vT2lpKXV1dQwePBiVSkV+fj75+fkMHjwYX19fuurAU1BQgFarxcnJCVdX16YJZAYNGtTUvU0IcyB5IURbfZEXtnb2nDqVQ/KxE2TllFBYVEZ5WTmFxWUUFpZSXFJOcXEZxSVljB8byIGDJ3Bzc8bNdUDDtXOz6wEM8R/I6NFnMX5sINbW8v2K6HvyftG/XXbphVx26YX8uesQce9/w2PRb3PX7Qu56/arsLXtvx9lziQvCgpLiHv/G+JWf8PlYSGsjH2I8WMDycrKIisrS/JCmL3evF/031cTI9HpdNTW1lJQUMCgQYOora3FysoKKysrVCoVHh4eVFRUUF1djaOjY4ft1NbWUl1d3VThKi4uJjMzEysrK4qKinB0dOxwHK0QpkbyQoi2DJEXRcWl7Es6xsHDKew/kErKiVOUl5Vw9tlDGT8mEGtra4YOHoi7u0uzgsfpAoir6wCKS8oaCiWnCyanr8s5nprO6v+uZ//BFEYFDSd43Ej9ZfxIxo8NxNGx49U/hOgpeb8QjaZNGcO0KWPIysrnnfe/xn/E5UTccBkhFwQTNud87O3tlA7RaHqSFxWVWv636Q/27Evm2/W/EHn7VRz66wtcXJyora2lvLxc8kJYhN6+X8gcI0ag1WrJysrC09MTa2vrphmdXV1dKS8vp6ioCH9//w4nMqquriYnJwedToeNjQ0DBw7E2tqaiooKiouLqa+vR61W96sls2Q8ufmTvBDmxFivOWeSF/v2H2Pdd1s5kZrBX3sOc8F5ozlruJqzhvszccIYRo86q8/y4tDhVJIOHNdf9h9n/8EU5syaRvC4kVx1xUyGDR1kkON0Rd4TLJu8X5gHJfLwq283s2Hjb2z86XcuOG8cl84+n0vnnMfQIcZ57VFSZ3mxZ98Rdvz2Fz9u2kPKiXQumX0ec8Mu5LJLTi+DLHkhLFFv3i+kMNJH8vPzsbGxwdXVtanrTmVlJWq1mtLSUoqKipq29fLywtnZud12dDodGo2mabxfTk4Otra2TS9eoJ9AzMqqf3VnlpNg8yR5IcxVX77mnEleHDh0gm/Wb2Hdd1txd3PhivkzuHLBDKxVdYrnxbHjp/jiq018s24L3l7uXHXFTK6+Yia+vp59dkx5T7A88n5hfpTOwy1b/+LHTb/z409/4OzsyNxLL+T8aeOYOOFs3N0sY+LQjvKirt6ag4eP8cef+9mz9yguzk4EB49m9qzzmTxpdJt2JC+EJTHU+4UURvpAXV1d04zO1tbWuLm54eTk1PQC5O7ujlarpaamBnt7e2xs2h/RVFtbi0qlIj09HbVaTV5eHk5OThQVFbV58epvlH7zFT0neSHMWV+95vQkL0rLqlgT/z1fr9uCk6MDVy2YyRXzZzB8mJ/J5sVfe4/yzbotfLVuCyNHDOb6RZdw/bWXGPw48p5gWeT9wjyZUh4ePnKS/236g22/7WPvvmO4uQ1gYnAQweNHMjE4iAnBI3Fzbf/DkalqzIus7Hz+/ieT5OMZJB04QUF+HnX1KiZNHMO4MWcxc8Ykhgz2k7wQ/YJB3y+kMNI3ioqKKC0tZcCAAZSVlWFjY4ONjQ1VVVWo1eoOH5RGOp2OjIwM3N3dm36vrq7G29ubjIwMbG1t8fLy6rcvXKb05iu6T/JCmKu+fM3pKi8qK7U8/8qHDWPDF7Lg8osYEeDftL+55MWO3/ezbcde1ny8gacfv5Xrww1XIJH3BMsj7xfmx5Tz8J9TWexNSiZp/3H2JiWzL+k4np6uTJo4isCAwQz299VfBvsyWO2Dg4OycyXl5BSQrsklPSOHDE0OVVVafvl1D+kZGvz9vBjsP4jRQUMZETCYoLOHY2trJXkh+i1DvV9IYcSACgsLGTBgAHZ2dtTX1ze98DRWYcvKygAYMGAA3t7eLfatrq5GpVJhZ2eHVqslPz+fmpoahgwZ0tQlSKvVYmdnR01NDYMGWf7Yyc6Y8puvaEnyQlgCQ7/mdCcvampr+fzLzby/5geefOQW7rj1CsD88yInp4BnX/yAnbsOEf3Ebcy7LKTXbcp7gmWQ9wvzZm55ePJvDfv2H+PY8VOkZ+ToL+k5pGtyGeDk0KJYEnCWP06ODjg52uPoaI9jw88ODb87OTo0XNvj4GBPVVU1FZXVp68rq6msrKayquW1lUrF0eP/kJGRS4YmlwxNDhmaXDw93Ris9mHIYF+GDfElYPhgzgoYzPixgZSWFkleiH6vL94vZFUaA9FqtVRUVFBaWoqzszPu7u64urpSXFzMgAED8PLywtXVlaKiIgYMGNBm/6KiIrRaLQMHDsTKyor6+np0Oh01NTXY2dnhCs/f+gAAIABJREFU6upKXl4edXV1eHl5KfAXCtFzkhdCtNWdvHj3g+9Y+/VP3HrzFZw69l2L/c09L3x9PVm14mFSUtOJeWE1K1Z+TvTjtzFj+kSlQxMKkvcLYWz6SarV7d6XX1DcoliSk1tIdnY+FY0FjsqqFgWPisqqhutqJk8axe49R5uKJM0LKI4OLa+HDvHDzcWZc2adhb/aB3+1L/5qH2xs9D02tFotubm51NXV4eysXzlMpaqXvBD9Wl+9X0iPEQPS6XSUlJRQXFyMSqXC3d2d4uLipgesM/X19eTk5FBTU9P0IGVnZwMwaNAg6dLWirl9K9GfSV4IS2Do15yO8uL4CQ2vv5nAjOmTeOj+G9rd19LyYs++ZGJeXM2woX688doDZ9SGvCdYBnm/MG+Sh31D8kKItvoiL2SqYQNSqVS4ubnh7++Pk5MTBQUF1NXVUVpaSn19faf71tXVYWNjQ319PdnZ2dTX1zNw4EAAsrKyqKurM8afIITBSV4I0VZ7efH1t5v56JPvWL92WYdFEbC8vJg0IYh1Xy7j3ImjCJl1B9XVWqVDEgqR9wsh2pK8EKKtvsgL6THSQzoddHc5b61WS0FBQVNXHXv79idyqqmpITMzEycnJ5ycnCguLqa2trapgpWfn4+3t7dUdZtRq9vv+iiUogK691Li4OCAt7c3jo6OpKWlUVVV1e52tra2DBs2jLKyMsrKyvDw8OD/2TvzuKiqNo5/NRUQEHBn3HBQwXVcUxP30SQtc53KmpY3i1IztKysMEktK6JSCzO1UFPKNCvDdNzJNFfcAJVxH3FlVUFN3j9mgBlmgAEG7sCc7+cz4txz7jnP3DvPPXd+95znqVGjBhcvXsz1j8uXL3Pv3j0bfg6BwDI9e/bkl19+KdY+xRkvnnhmOooOcsapBjv0eHHsuJaBj0xkzaqPeahHB6v3E0+qKw7iPqryIvyw5Ai/EAjMKW+/EMKIFdy+B0k3ITkT7t6Hag+AR3XwdgPX6kXvf+/ePZNouPfu3TO5GOVMA2rcuDFVqlTJDSAD0KBBA2rUqFFWH00itEQEBhAaqyJSF44yX6kmWIY6PoSY6CDkBbQgBl/pEX4hEJhTXL84dlzLoGGTWLZkJgP7dRV+YWDoiCkMGdyDSa+Mtaq+GBPsGzFeOAbCD4uH8AuBNZw5e4mDsSc4dz6J69dTSUlNJzU1g5TUDFJS0klNyyAlJYP27Xw5cjQRT083PGq54enpjqeHGx4ebnh6uFOvridNmjSgY4dW+DTzlvpjFYiUfiGCrxbB1dtwJg3uZ5P7QPzuPbh2D67dBh8PaGge08WE/Cfn8uXLVK2at4opJ+jLvXv3qF69OlUM0ljNmjUruYobhTp4KLrw/NKIwN4RfiEQmFNcv7hw8QqTpnxG4rE1uLjon2wIv9Czfu3nvDblc1av2cLokQOkNkdQCsR4IRCYI/xCYImz55I4dPgEh2JPcOjwCQ4eOoGXlzudFK1o7edDvXqetGzRxCB26MUPvQiiF0NyRBL933RSUjMMIko6mbfvsO73Hcyc/R0pKRl0VLSko6IVHTvoX82aSp+RSGq/EMJIIVy5BWfSMVkhkG38NxtOp8C9+9DYvej2jE9O/fr1eeCBB7h9+zaurq6kp6dz+fJlXF1dyczM5IEHHqj80aEVChRRYURMUhJU0NQQgd0h/EIgMKe4fhGfcAbVYw9xNR18fX81a6/6kz+wa0obh/aLrz6fwrR353Pp8jWrZ44I7AsxXggE5gi/EBizfedBVq/dzImT57l85bpeqFC0YvKEJ+jUsRUetdysbsujlptV9VNS0zkUe5JDsSdYu24bMz78lgb1atOqVVNGjxgoSZY4e/ALIYwUwJVbcDbdurrnUvV/CztJxsFdcqJAp6SkkJqaire3Nw0aNCA5OZmbN29SrVo1x7ho+U9lwfAwAuZpCBKzRioEwi8EAnOK6xd37t6j3+BXWD4Si8sG79/fREjvD3jy3WdYsni8Q/vFJ7MnMvrJt2nTWs7Afl2lNkdQDMR4IRCYI/xCAPpsbKvXbGH12s20ad2c0SMGMmfmK7i7FzEdwkZ4erjTr09n+vXpnLstPf0m6/7YSfi8H3lpwhxGjxjA6JED6aRoVeb22ItfCGHEAlduG52cIiKw5BSfS9WHn2xUwEmqWrUqtWrV4saNGyQnJ+eucapTpw41atTgv//+y8277EjIg6aikqkJHqpDaCP2jfALgcCckvjFyPHhRG9ZwfX57SzWq1p1EG+9v4mYj/egOTKaOs0c2y9Wr/yYNp2eYHP0fLwb1pXaHIEViPFCIDBH+IVjk5mZxfyI1az6eSMetdwYPXIAf2/9jnp1C08tW164u7vy9JNDePrJIVy5mszqtVuY+tYXpKff4knVw0wIGo1TDSuCfBQTe/ILka43H1eNTo7JubHiRJ1JgQuFqF3u7u7Url2bmzdv5p4cNzc3/vvvP5KSkrhx40Ypra+IKJkUoiAqLAKt1KYICkT4hUBgTkn8IvSjxUwIGs2tGrW57uRTYD33VnLqXNnDxbN5frH7/VY0bdqU3r17079/f6Zo8u2kjSBQJkNm9ArWFKMc0EYEmpQHRhhfmTUEy2QEa/R/C2pDE2zcRyAREcH6v9ri9JOznwyZLJg52xbxUL/xBR9Ygd0gxguBwBzhF47N3LBImrceyQMPVCVq2Rw2Ry/glfGj7EYUyU/9el68+tIotmz4mpXLZlGlCjRr+Rifhi+3aT/25hdCGDHC+OQYU5wTdSYFLqQVXJ5zkgCysrJyTw6Qm1fc0ZAHLSCEUCZECGnEHhF+IRCYUxK/+GXtFvr06kSb1s31bTi1pJprLcsdaBP4J6UZjVro/WLHrN68UOUH/vnnH37++WeWPVuHVWojsUEbQWBAKP6ROnQ6wytSRZTaIFwUVY5erAgIhZAYQ3lMCIQG5BMtIEodhp+hTkyIgigjOzTBMtRRKiJz+/AnNDTK9KNZ1U8soev8iNHp0OnCedzDneVLZxI8Ldzy8RLYBWK8EAjMEX7huHy3dB0y+VCys+HS6fUET3oSX3kjqc0qFi3kjQme9CRJZ6O5e/cejXyHsfj730rdrj36hRBGDFy9DWczCi6vUgWcq0GtGlCzOlQp5ERZe5IyMjJy0wPlrH9yTOQETVURGzqP/A9ABdIi/EIgMKckfpGZeYffo2NM1vMCVK/lxWUzv9AQrI4C1VSC2rpTu3Yc/+zuyPQn/AC9X7QYPAwFsSTkCiMJxKJiqPGSRGU4Op1hmWJR5WiYFxqLImRBXjBseRDRkebXZuM68sHD8+zQRhAWBapIozTsynAiVaafzep+hg82ib3Sq2cH/t13nONxp80PukByxHghEJgj/MIxWfvbdjp0G0fCyXMkHlvD22+opTbJJkyf9hwnj6wmLuEMHbqNY+1v20vUjr36hYgxgtHJsXDQnR/QB3fxcIIHquRtv58NKVn6NU637prvdzpF/7dxAQ8D3d31i6LS0tLERQsMN88ywiImMVVqWwSA8AuBwBIl9Yv532/mqRH9zHc6vYpxw1dx7+pJ7t04k7tZERKDzqAcuLsPYdrvvfL8YusbyNT6WRj+OTsoh6JCjVoGkTojYcLacs16olAQMjhfijC5HwpCWa8JR2nYyb+FUR15izwbDOLL1HyNK4eqICq+dP0YeH3iE3wxfxXfLnjHrEwgHWK8EAjMEX7hmIx/dQ7//fcf69d+TpPGlW+2Ts2aznz20Wucn3CZGR9+y58b/mbR19Ot3t+e/cLhhZGrmXDOSLHKzv0H6rtAM3e9apWfqlWgtjN4OcHZNLhoQak6naxvqkkhJ8nNzS03f7Kjo5wUQljABMIUUlsiEH4hEJhTUr+4/99//LtjN8uWzDT3i+ZPMPeDQBpmg49XwX5xdcVY+sw6wv379wEVkTEhhAWEGtVQEq6LwS8wALUsb+mKKjJnRkhR5QCxhAbIMG41B38L2/KjPRVvZc2S9zNm5EBCPvyWpKTrNGwoggnaA2K8EAjMEX7heFxKuka/h1/l6y+nOUQWtSaNG7Bk4fts2bYP/45j2f5XBA0a1C50H3v3C4deSnMt38kxxtsVfGrlnZzMe5B0C86nQ9JNuG1Qq6pUAR8Po6i4+dSv08lwPrVgG8RFywh5EFNVscTGSm2IYyP8QiAwpzR+sfznLYx8vF/J/UIbwYTQWMZ8f8EQH8TCjA8A5ARF58UQiVRhEv+j6HJFXtyPfC9rsobJW1gjipS+n9cnPMEXC1ZZ2ZegLBHjhUBgjvALx+PPDbsYGDiRnZsiHEIUMWZAv65s/yuCvg8HsWHjPwXWqwh+4bDCyI2sgk+OzBUau+n/n43+pMRehTOpcDEdTqfCoSv6v9mGE9LMA1yMMxgZnajTyZaVLYE5yvBIVEVXE5QRwi8EAnNK4xeJydks36qlU7/+JfcLS/FBtAkUpSHrr6dGcUgKK1cOLbSuVcj9UBDF+vyZbk7FG3Va+n5efnEEh2JPcvt2VskbEZQaMV4IBOYIv3A8Zs9dyoqoDRw/uIr69QufMVFZadCgNvGHfuKHFX/y8WeRZuUVxS8cUhjJ/K/gfMkyV2iUc3Ky4VQK6DJMp/rkcClDf9JAr2A187DQpOFN4g1IF/dwBgxPLS0+GlQSrtOhiw7CfHW5oCwRfiEQmFNavzh89CSuri6l8wszwcEQnBWIP5WbDsYsJW5OPA8/uRXlOanT1aZ19Kl38+1XEPIgpqogSh2cF0RVE0xAqLGEY4N+AC8vd7bvPGBdZYHNEeOFQGCO8AvH47vv15GVdZcVSy0tDi0d+nHR0sv6sbK8WfnDh6SlZfDDsvW52yqSXzikMHLltv645T+QDWtCI1fD22xITIUbmab75j9RlzLygsB4OUOV/HVz/p9deMRcgUBqhF8IjLlz9x6PjhKhkEvrF3FxZ2jt5wOUwi/kQSwIURClzrkp0qfLjVRBbOgE/Q2SMlyfGjfA6OZJHU9ITLQ++0tR5YA8KBp95ty8OvrUu3l1ikIZriNSFYU6tw+IjFQB/rSwYT/du7Zlz75j1lUW2BwxXggE5gi/cCzmfPI9F3VXCQ15qew6UYQY0tbnvfTjp/2KI3NCXyXxzEU++XwZULH8wiGDr6bli2abcyAb1DS8z4bENPOT41ZDnzYoNQvS7+TtmJypTyVUtQrUrAEZdyy3n3zbhh9CILAxwi8EOdy8eRt56xFcPrcBL28lyZccN5F2af3iTnoaD3Zta9EvHnr1BzoYfCY7X/v5/UIeFI0uKJ9x4Tp04UbvleHoTDbko6jygvrJa4Bwna7Ibcr8dmmCbdCPKb0eUrBsxZ+F1hGUHWK8EAjMEX7hOPy2ficJJ87yw3czyr1vedBUVKFq1m3UEmTt04RyJvT9l3j6+Rms3/A3zbr3MimzZ79wSGHk7n3L2y/fgjrOcCFDf9CN8XACzxp6ZcrDyXCC0B984/aqFzIH585/+voiHJLAHhF+IQBITkmnfdenuHxug/79JY1DiyOl9Yukc2dwqdkfcAC/0EYQGBCKv0mmG/2yH0VITAEBY0uGp4cbu/cetWGLguIgxguBwBzhF5bJunOXxMQLnNJe4NSp81zQXeHc+cvcvHlb/7qVSYbh/50UrTgYewJXVxfcXF1wremMq6sLrq4uNG3SgCaNGuDr25gW8sa0aNGEGtXL/6es9vRFZs7+jv27fij3vo3JS2mvIVimhvxjr/E2w/hsvLDVNCud7Vm+dCadejzDR0tbU7+eeewVe/QLhxRGqleBO9nm2y/dgks3zaf61DI6OQBp+dYs1TA6KXfvY7YmKrffB+z3oiUQCL8QXLlygx59/8eFU7+bbHdkcaS0fnHh+i3c3WvmVqnUfiEPIjoyAZlaRpTRZlWkjmgb33zVrl2LGzfE/HGpEOOFQGCO8As9x45r2R5zkPiEM2zbcYArV26YiBk9undg6BD3XMHDtaazXgQxvHIEkwyDaJLz/vqNVOJPnOWXtVtyRZYGDerQr09nWvv70KdXJ9q2KfsZFAEDXyLx2Joy76cgtBFhRKki0Vk7rho9tMgdizXByNSyfGKK7fl7yyK6jfmQZT/MNiuzR79wSGGkVg19yqCiyMb85CRn5alWOXg66//ez4ab+cqMqe1cEmsFgvJB+IVjc/7CZZRDJ6GNW2ux3FHFkdL6Rb1GjXBzdckduCu9X1ixXMcW1KntQWt/nzLvR2AZMV4IBOY4ql+kpd3kt/U72Lx1HztiDuLtXZe+AZ0Y8Whf3gx+miaNGxSrvRyBpL4Vdc9fuMypU+fZtGUvL0/6mKSk6/QJ6MiA/t14fFgf3NxqFt1IMXhtymf8snIuLi5ONm23QGJDCZBZCOyqOIUWpXWJKgyZ7aYaCyDlNFbXrOnMx+89z8Lv1vLSiyMKrWsPfuGQwkh9F7ieBdkFTHnLoXpV05OTkgUp+S54jdz065wAbtzOt07cSMGqWgWaeJbedoGgrBB+4bgkai8yQjWNhNifCq3niOJIaf3i3LkkMm7exq2mi/ALG3L9Ripx8WekNqPUXL58g+Pxp4k/cYYrV5K5cjWZjIxbpGfcIj39FmnpN0lP17/v2KElhw6fxN2tJu7uNanl7oq7e03De1fq1/eiXl1PWvs1p7WfDw0alF3aSDFeCATmOJpfbNtxgMgV69m8bR/qcY8w/NE+hM2dTG2vWuVmQ5PGDWjSuAH9+3UF9GPDjphD7D8YT+v3n2DwwAdRjxtK396dSt3X4aOniD1yiq8+b1fqtqxGEUJM/kydmmBk6lACglsUkOEzH8qhqFCjnyASbtNlrdYw6MEWfPV9NGfOXsKnqXeB9ezBLxxSGHF+AJq5wem0fAcy31Sc6lVNT06y8VSebKjtYpQqKBvOppj3ldO+bx19EBmBwF4RfuGYxCec4ekXZnB47wqr6juaOFJav3B3r0l62i2a1nERfmFDbtxIo3bt8rv5tgX/7DnC0WOJxCWcJS7+NPEJZ3Fyrk4b/+b4t/KhZYvGtGzRBDe3mhbFDze3mgWKJunpN7lz5x4nT51no2YPcQlnyMq8S2t/H/z9fGjt14x2bX3p2b29TT6LGC8EAnMcxS8iFq0h4rs1NPeRoR43lCUL3y9fAwqhTm0PRjzWlxGP9WXWjJdZs24b4fN+ZPIbYQS9OIqg8YXPWiiML+evYvLEJ2xobQlRhuuzv0WtRxOutELoUBKui8EvMAC1LG+ha1nHGMnB+QF49pHO/LZ+J5NeGWvXfuGQwghAbSe47wZnMvTvLS1PunUPrt6G/7Ih817e9mz0J8evtj6PMoA2BW7fs9AI4FsbZBXr/s0uGTJkCIcPH859L5PJAOjQoQMbNmyQyqxKhfALx+Lw0VO8PPFj9v1dvABijiaOlMYvWrZohvP928IvbExKagY9upXjU7sScCM5jb827eavTbvZsPEfxo5W4uzsRPu2csaOGoi/XzM8PdyL1aabQSDxblh03ZTUdOLizxCfcIa4hLMcOZbIiLHTGDK4Jw8P6sGQwT3x8ixe/8aI8UIgMKcy+0XU6k28OX0eUyePY93Pn9GsqRUXIokZObwfI4f34+y5JH79fTvN/Ibz6ZxJjB1VPEXgwsUr/LvvOIsj3isjS4uH3E9R3D0IitaRkwxOEyxDrQ7ELyaa8khs8/TwXnz2xSRuqB6mtpeH3fqFwwojAHUNy77Ppudtyz8V59Y984tabWfTk3M+FS6lYxFfL2jsYTubHZmkpKRibReUDOEXjsG+/XFMfftL/tn2XYn2dzRxpKR+4dOgJneStFSp0hiwA7/QBCNTxxNiuBnSBMtQR1muWl5Pk0rC3//EUqeO/V1EjsefJvqvXWzYtBut9iIPD+rBiOH9WLjgHZxqVC9XWzw93OnZvb3JLJFPP3qNDRv/4a9Nu3l3xje0aNGEIcoeBD7ck9b+zYvdhxgvBAJzKptf7D8Qz1vvzaeFbxOO7V9lElC8otCsaUMmT1Dx/DPDeHP6PBYtWcfcWRPp3MnPqv2/mL+K1+1htogBbUIsKIabLLGJP6UFpWGL9hTxgH8B+yvDI1FFqUnQgnWBSkrPq08PZMNPv/LUy8/mbrM3vygkyY1jUM8Fmll4YFLQFDgvCyfnbFr+HfXIxWBuU8aOHVus7YKSI/yicrNr92HemfE12zdFlKqdHHHEUSiJX4x4qDknTp4F7NgvFCHE6HTojF8xIcSrZciC7VP42rv/ON26tJHajFy2bN/H8DFvEj5vJbdv3+Gjma+SeHwNX385jeHD+pS7KFIQTjWqM3xYH77+chrauLXMnhHEzduZhH25khGqaWzdvr/YbYrxQiAwp7L4xeLvfyN83krmzp5IxLy3KqQoYkytWq4snP82H334Kp/P+5Glkb8XuU9axi3i4s/wv+ceKwcLrUATjDoKVFNzYo/I8VNA7LqNaAHQEjHBKDWvJhiZLJAIrXEb64lCgV85iSIAL/3vceL2HqR+tSyzMnvxC4eeMZJDPRf93zMWMv/lV60auxudnDQ4l2a5rtwLGotpnzZl+vTpzJ8/3+J2ge0RflE52bbjAJ+GL2fTH/Ns0p6jzRwprl84t2vBb7/vqHh+kZt6N4yIScpymWpbHNLSbhHQq7hTiW3P6jVb+PLrKOrX9WLq5KfoE1D6AH/lSbeubejWVS8wbdtxgK++jmLGh9/y2qsqRo8cYHU7YrwQCMyp6H4R+tFi0tJusnzpzPLpsBzp2rk1y5fMZMpbXzLr46W89/bzBdbdsfNAuQaUNcFiVhoFITE6o3FZTlB0JAkydW5dVWQkKrVaX6wMRxcZjCxARqhJG+WzjMYYTy93ju87QJfePe3SLxx+xkgO9VzAp5ADmqNkXc+EO/f1J+achRMK0FwM5mXGxIkTC30vsC3CLyoXmzbv4csFq1i/9nObtuuIM0es9Yv7VR+gRr3GzF+502Jdu/YL5SRCFLGEzrMv0Wvpsj9o6duYWu6uktmwbEU0bTo9wV+bd/PNl9P4ZdXHFU4UyU+/Pp1Zs2ouC76cxl+bd9Om0xMsW/Gn1fuL8UIgMKei+sX7Mxfi7lqTzz56rXw6lIjP507GxaUG789cWGCdf/ce58Fu5T9DURmebyZn7suSoKEk3KhOuFL/Pnc5rDLcijbKnu5d27Jn3zG79QshjBhRzwWaF3FgL6bDPh1cSMNiRCXxhKNsyT87RMwWKXuEX1QO/oiOYdHS31gb9UmZtO+I4oi1fvHggP78+tt2s3L79ws5LfyB+FNoi6xbfsz/5mcmvjJGkr4vX77BoGGTuHL1Bpuj57NowXTatfWVxJayon1bXxYtmM7m6PlcuZqs/7xXbli1rxgvBAJzKppfzI/4mfvZEPzak8XeVxMsQyaz/CrxykxNcMn3tYKpk8eRnZ3NgoWrLZZfv55KQE/pZyhWBno9pOD6tVTAPv3CLpfSpKXdRHfpKrqka+h017iUdI0byWlcvnydzKy7ZGZmcft2FllZd7ideYfMzCwys+6QefsOtzOz6NalNXv3x+HsVANnlxr6v85OODvVwMm5Bi7ONXByqoGLsxM+Pt5UqVIFWcO6eHvXxbthXWrWrkdGjdpUyU0aZI6laLpyL2hU8gDvkvDoqKnE7IotuqIdUZ26VKtyjXvUrZA/xAIeUvD7L2FSm1EscqaDalMLr1dZ/KKysWbdNtau28ZPy2eXaT+OuqymKL9wqelMQE8FmzbvQTmwO1Bx/ELup4CoBMoxPluh/LlhF/5+zZA3b1TufS9a8ithX/3I8sUz6dqldbn3X954N6zL1NfH0bd3Z3oPCmJa8NNWrbEX44VAYE5F8Yt9B+JY9/sONq0vxXJbRQgx0UGmY4Y2gsAAGTJVJLpiRfXWEKyOgsjwkttjBbM+CGJg4AR6dm9P546mAVn37DvKlMlPlWn/joKnhxu79x7NfW9vfiGZMKK7dJUjRxM5ekzLycTzXEq6hk6nF0OqVXsAmXc9ZA3rIpPpxYr2bVrwYNe2ODtVx9nZCRcXJ4O4kSd6OLvoxQ4npxpkZd3JFUsys/LEk6xMvZiiF1X0wV9On9ZxMvECO2IOcSnpGpeSrnM9qyrebTrg5VkLL69a+DRtiEctd5o2bUizJg2p4aRPjpwz1cfHs2IO5jG7Yivkj5hhw4bxxx9/SG1GiaiIYg7oL17Z2XC6iIsXVHy/qExErd7ERs0eli35oFz6c0RxxBq/ePzRPrw781uUA7oLvygF8775iRnvvliufWZmZjH26Xfx9/Mh/tBP5dq3PdC1S2sSYn/ijXe+4vGxbxK1fE6RwWTFeCEQmFMR/OKlCR/xy8qPbd+wncetAli44B2efOY99v79vcn2GzfSqF1bTGOzBbVr1+LGDdM1MfbkF+UijMTFn+HIsVMcOZqY+9fZ2Yn27XxRtG9J/76d8W5YF5lML4bUrOlc6j6dnPSzQjxK8T0+fi6FQxduknwjjZu3szhx8hw7dh3i7NkkPDzc8GniTdNmDenS3INmikZQq0Gp7RZYR0UVRSo69Q3ByLUpRdf18RTToaVm2Y/R/P3PYRZHvFeu/TqaOGKNX9Su7cGDXVujPbSPgMe6lo9hNsBSSkCpOHpcS506HvR4sF259XnrViZjxk3n7TfU9O7Vsdz6tUc+++g1tu88yKgn3ubnFXNwcXEqtL4YLwQCc+zZL1b+9BfDh/WhuY+sbDpQTiJEEUDoPA1BRrNG8qeNz00Vr40gMMCQXUUtI8poJoo2IpCA0LwZ74qQGKJLqba0kDcm8OGeRK3ehGr0oNztbdvI8fIUqq0tqFPbg9b+Pmbb7cUvykQYiYs/w8bNe9i8dR+7dsfSqmVT2rdtQft2vigHPEX7dr7SRfctBm2aelK/nieJKY24fx96P9QxV6lKunKDs2cucUMbx/qftzL3g0Qa1K9NwwZ1GDigG4MGPEgjWT2pP4JAYHPq14SqVSAxBbLvm5ctRLheAAAgAElEQVRXQZ9HvKFbuZsmMGLx978Re+QkEfPekqR/RxRHivKLWa8No1/AWB7uHkGDBrXL3cbio+VUPODfwi6EkcfHvMmenUvKrb9btzJp2X40FxOFEJ9D396d6Nu7Ew19HuFswq84GWbPFoQYLwQCc+zVL/buj6d927K82hvHrVIixyCKEIlOpxdKtBGBBKgD8YuJJkgeRLSuBcEyNUTmBRLViyLkZWbRRhAYEEAgpRdHmjZpyL4D8SbCSFz8Ga7fSKVObZE7vLRcu55KfMIZi2X24Bc2EUbu3r3Hps3/smnzHjZt+ZdatVwZPLA7b7/xDN27zeWBBypujNe6LuBaHXTpkJoFWfeg+gPQ3qc2D7evjWv1tsBoAG7evM3WHfvZvGUvn4Uvx93dFWX/bigHPEjf3hU7Wr1AYExBfuHhBDJ3fZlAOr5Z9AuJ2ot8FTZVUjscTRyxxi/+2baYLj3VaOPWSm1u0WjmERqrIGSB9Mv/Rj/1Dgvnv12uN6aNfIc5zHe3uOi066nXZDDXL24qsq4YLwQCc+zRLw7FJvDMU4Fl2odp3CoN66MUhMTkjTHywcNRhIaSUGBgKw3zQmNRhMTkLcfJXaYzD01QOKUZsTp38mflTxtNtuUs/xDCSOm5di2ZunW9CiyX2i9KJYz89IuG9dG7iN64i0EDH2TQwO68Efx0pZsp4VJNr1AVhaurC8MCAxgWGABAfMIZNFv3Ej7vR8aMe4cnxw7mYWUPHhnyUBlbLBCUPdb6haB8+XJBFJcv37CbFHuOJo4U5Rdenu6s+D6URx4P5s9fyzaYXKnQRhCojjK9+ZSIWR8vpWf3dgzs363c+mzc4lEunPq93PqraFStWoWzCeto0vIxzp/8rcj6YrwQCMyxN79wdXWhk6JVOfaoJFxnJGNogpEZ1tT4F7SLZj1RKAgZnG9gkvuhIJT1mnCUpVBGOnf0Mwvp0LVLG65eT6ZliyYlaFFLRGAAobEqInXmoo0mWIY63kKwWlthWI7kbzTjRkouX02ha+fCg5dL6RfFnspx9VoKcz75Hh+/x9m8dR/j//c4V85tYMXSUJ57emilE0VKg7+fDxODxvDrT59yMfEPHh/WhxVRG2jb+Um+mL+KW7cypTZRYHdoiQiUIZMFY+lnpCZYhiwwwq5SZwrsh8++WEFychpzQl+R2hQTHC2Vb1H07N6eMSMHMOWtL6U2RU9sKAH5UysabqRKOy25tPz+504STpxl6uRx5dbnuOdC+HfnUlxdXcqtz4qIm1tN9uxYwrjnQqQ2RSAQ2IA7d+/x795jZdqHPm6VX64IoI0IzBt31BAZE0LRiXFjCQ0wH7NskWNzz95j3L17z2SbT9OGbN9xsJQtR6Euy5zDFYQdMQdo3sxbajMKxGphZPe/R3nh5Q/p1f9FqlevRuze5Syc/zYBPTuUpX2VhurVq9G/X1dWLA1l0/qvSE3NoGX70Ux4/VMOHT4htXkCu0NcQAXFY/bcpWRl3eGD98ZLbYpFhDhiyvPqR2nfzpcp08pZHFGGo9NF584CUYbr0Oksv6R+urR1xwFWrNpYbhmVAJb88DsNG9ZB5l233PqsyMi869KgQR2WRorZNQJBRadHt7bsLlNhJF/cKm0EE0JjUUXmjDvWLoNREBJTNuPWP3uO0LN7e5NtPR5sx+5/jxawh5UoFCiiwohw8Cebu/ccpUf38gugXlyKFEbOX7jMSxM+Yubs73h0aB9OHFnNm8FP41FLRMoqKTLvesx490UuJv5Br54dCH7zC16d/AnXrluRp0jgGIgLqKAYfDBrEU5ONXj3reelNqVQhDhiyvPPDKNJ4/qo/1d+P/wrCitWbeDDOd+xKvLDcu33/dCFfBjycrn2WdH5MOQl3g/9VmozBAJBKenXpwsXLlwuuw5y4lZNyomimkAsKoYa3xZoEwqf+aEciopYfQySMuD8+cv072uaOa5PQCfiT5zlypUbJW/YfyoLQiB0XmEPPTUEy2SYPhc12qaNIFAmI1ij35YzWyYwQptblrPN7NnqKdPyQAs/MExm75jV0RAsCyQiIthQbnlme2HoLl3lzNlLPNTDfidVFCqMfLkgiqEjpjDp1bFEr/uCEY/1LS+7HIanVA+z9a+vUY8LpGffF/h28a9SmySwB6y6gAoEMD3kG7y8avHG6+W31KA0CHHElODXnmTMKCXtujzJ1WtW5KlzAN6d8Q3/7DnKlg1fl2u/c8MimfTKWLP15cVFE1zwjaddowk2v5m2AldXF159aRSfhi+3vU0CgaDc6N+3C9nAd0vX2b7x3LhVC4yCpvqhIIr1udcdDcGGGCPxp0yvn3nvlUwKURClDjR5eKi/7gaW6oHit4t/pVr1B+gTYJ6afeprTxH21Y8lbxyQB01FFaUu0XXWmCh1GH6GGTMxIQpiQwOQBSQwVZe3LUptKlxEha5jeM4sm5gQCA0wGaOMM/0UVAdiCV3nR0yxZvfk8flXK5ny2pOl+ehljkVh5PQZHf0ffpXk5DQO711B+7a+5W2Xw9HjwfacPPoLiacvMPjR17hw8YrUJgkkxlYXUEHl5Y13vqJJk/pMnqCS2pRiIcQRUx59JIC/fv+KXv1fZKNmj9TmSMrjY9+kUaP6zA9/o1z7TUvLQLN1L2+/oS5dQ9oIwqIUqFQKYkPnFfuJmnTk/SApCdOnPUf0xn/IuHnbhjYJBILy5tM5k/hyQVTpfodYG7dKHsSCEAVR6px6+h/8kSqIDZ1gEDmUDFWh//FviLEnD4pG/7s9r311lIpIo2WixeX8hcvMj/iZubMmWix/6X+Ps3zlhlLGhzSIOmGlixVoLC7JBw9HAShCJuUKFfptxoIT+QQp/XHPG6NyMv0syJfpR2U2jimGDy5RkNiMjFtErdbwv+ceK8He5YeZMHI8TssI1TTCP33dbteqV2bmzprI7BlBPPzoZOLiLed5FjgKtrmACionr00No7WfD6+MHyW1KSVCiCOmNJLV48SR1Sz+4TciFlWAVL42Zt/+OFq1H03wpKd49aXy/07v3BVLg3q1S92OduM6YvFn6CTzG9PKTv16Xvy9yxbhDwUCgZTsjVnK0MeDSdReLPa+xY1bJQ+KNqqjFzb0bViIhWWUucV0v5LNYMjhlPYCw0ZM4d+dSwqtZ5tZIwsIIZQJpZja4t/CXJqwtK2wcnkLfyCeU1pyM/0Mt5jpx3QcK6qfgvh83kqmTLLv2SKQTxj5/c8Y3pu5kEN7ltOxQ3mmaxIY061rG44dWMnbIQuI/muX1OYIJMQWF1BB5SNo0ly6dWlj98p7UQhxxJyoZbMBkMmHls10ZjtDd+kqz7/0Ie/M+Jq/t35H396dJLEjLv4Mrf19StmKlo3rYkE1FKV8MMMVEJVfGSnNGnFNcBHrvwtZm577f9N+89atq4kC/ZPbEmY+a9O6OcfjTpdgT4FAYE84Ozuxd9cPqJ6Zzh/RMVKbU6as+2MHTz7zHvt2/YCzs1OhdYNfe5Lwr1aWskc5QVPNZ2KULQr88usZcr982X/KLtMPQPhXKwm282U0YCSMHD2WyCefL2PNqrm5hTnrZC2+xPz+wtEEm6x1K+xYFnQo1/30KaEfLSE+QcwccVykuIAK7Jn/Bc2if9/OPPNUoNSm2AQhjpgTNH4EicfWkHDyHB26jWPtb9ulNqlMeHfGNwwa+hrDH+3Dpj/mUa+up2S2xMWfprV/89I1YhJYUM7g4QooIIh2sdeIa4KRqaOMsjdE4h8aUOx7sfz9RqkDiSCIaF0kKtC3b/RUtji09W/OsXghjAgElYEa1aux7+8fiPpZw6y5S81S2FZ0su7cZdbHS1m7bht7//6e6tWrFblPlSpVCPt4Mh99+n3pOleGE6mKIqzcHnpaCFZrFuS27DL9fPTp94TNfb10jZQTVQFu3crk4ccms1Oz0LyGIsQQZMX4FYkqSl3ipwoOi6VjGRNCvLpgoemfbd/Rb/ArZN25W87GCuyGcr+ACuyVZ174gKGBAahGD5LaFJsixBFzXFyc+HTOJNav/Zzf1+9gwJBX2fn3IanNsgkLFq7Gy1tJo0b1OXZgJY8/Kn1g9+PxZ2hTyhkjmvVRoBhOzmxkedBUVMSybqP5tbt4a8S1RIRFoQiJMbpBVRIeqSpQeCkI835tl92hTWs5x+PEOCUQVCaWLfmAxt71aOQ7jC/mrZLaHJsQ/tVKmrV8jKZNGvD9opBi7fu8ehhJl28QueLPUtmgnBQCoRMIizcvMwk8qz2FhSrFJn8wW+2p+Lzxqgwz/fyw4k8uX77BC+phtm+8DKgK8HzQLA7/u6IYuxkG5Nh1WBjvBcXBENymsJubw3uX8/z40PK1S2BXFHYBFTgGY59+F9UYJSOH95PalDJBiCOWadK4AUsWvk/Y3Nf5NHw5g4e9xjeLfuH6jYqV3v3YcS3vz1zI6HHvcOnSNZIvaSSJJVIQdet44O9XCmFEG0FYVP7AdDlBA81n/BVrjbh2I+tiLZTL/YotbJi0IW+Bv/W7Fklrfx/q1PawYYsCgcAeeE49jCvnNpCankHLdqNY9fMm7lSwGSR37t4j6udNtGw3ivSbt0g6G4163CMlauvLz6aw7Mdo9h2IK7lB8iCmqmKJNZm2IcdPAbHrNhomHmiJmGCb5Sx5wWwBTTABobGopubMDiybTD979x1nxaoNfPHZlNIZX45UXffHDlycalCnTjEHMwsDcv7lImaTIPKtnzWrU1Q51uRYLmANrXEtEztzcjKbnviyzuVsgnISIYrYAlOz1q9fh6pVq7J+w9+l6UVQkbF4ARU4CiNU0xj//GMMCwyQ2pQyRYgjBdNJ0YrfVn/GJ3Mmcf78Fbr3foHRT77NT7/Y7yK7G8lpfP3tL/RRvszLkz6mQYPaRHw5jVkfBEltmhkpqRkcPZZY4v31QVcNmROM7h30iV7KKAirjYWN0nLkWCKpqRlSmyEQCMqIGdNf5J/tS0g4cZYmvsMYP2EO23celNqsQtm24wDjJ8yhie8w4k+c5Z/tSwh553+lbnfT+nk8OuoNMjOzStyGMly/hDEPOUHRkahys/oEkDA1f52SoQoZzrqcGCKGZZnGS2Rsnenn5s3bjHjiLTb+/pUNrC8/qm3dto+XXxxR/D21CcSiYLjhYGmCZaiJRKfTH2VtRCAB6kD8YgwHVBtBYE6qppwToQlGppZBpI5weRHlStMcy3ltBhBIjEn6pyh1mH6dlNzcDk1wzok2RC82rNvFKASNdf3EErpuODE6XYnW4poiRx8c+BRalBbbCxo/kjW/bmPokF6l7k1QMVGG65ewlTyhoqAiMnTEFN4Mfpp+fTpLbUq5kCOOJF+y3x/8UtKxQ0s6dmjJnNBX2LxtHz+t1vDyxI8ZM3IgTz85hHZtfantVUsy+y4lXePw4ZMsjvyD/QfieGLMIBZ8OY32bX0ls8ka2rWRc/S4lnYlsjMn6GokOrPF2BqCZWqi1msIV9pY9DNMsbYXceTI0VO0b9dCajMEAkEZUreOBzPefZEZ777I6jVbCJ/3IxNe/4RxTwyhSyd/evfqiItL4UFMy5JbtzLZ+fchDhxKYPnKDbRq2YRxqiEsWjDd5n3t3r6YPoOC+Hfn0kJqyQmK1mH5cYCScJ2O8KK26XSG/wQRrcvXkryobUb/Dyr8oYQ8KJr8TeW3y1r6DA5i9/bFVte3F6pu23kAmXe9Yu5myHevmmpQkTSsj8oJOKbHbO2qNoFYVAw1vi9QhucFdSmqvDg5lgtaQ2uY6qqKNErppAwn0kSKK/tczpaQ+ykgNqHAmC2NZPXYtnO/jXoT2C/6C6j5zTXkXJRKGhhPUPEYNGwS7771nMOIIjmImSPWMbBfVxbOf5vkSxoGDXyQ39bvoFuv5+jY/Wmef+lDvvr6J3b+fYibN2+XSf+paRls3b6fsC9XMO75EFp3UjEwcCLbYg4y/vnHSDy+htkzX7F7UQSgfbsWHDl6qmQ7mwRdzY9+inJxY4GYYMhwk3+NeM4DKuNsA2WxNt1ajhxLrBDnWiAQ2IbRIwfw60+f8tfvX1GnjgeLf/gN37YjGRg4gQ9mLWJ7zEF0l66WqQ26S1fZHnOQD2YtYmDgBFq2H83SZX9Qt44Hm9Z/xdqoTxg9ckCZ9N2saUP++v0r5K1HcFFXtp+zonD+wmWa+Q1nS/QCGjeqL7U5xaZak8YNaNa0YcE1YkMJkJnHt1CExKDLVQ6UhOuMbghyZ2EYPclQDkWFGv0EEAu5posqN+RYDrGYYzmU9Zpwch7GFLiG1iC+TM3XuHKoCqLiS9dPGdPcR0YjWXEFLIFAUFHpOyiIsI8n07VLa6lNkQQxc6R4jBk5kDEjB/LZR5M5ey6Jg7EJHDyUwKfhyzlwKAFZw7oMHtSDB6pWwdPDHU8vd/1fDze8cv7v6YanhzspqemkpGSQnJJOSko6ySnppBptu3PnDpu27OX69VQ6d/Kjc0d/xqmGEPbRZBo2rCP1oSgR7VrL2b3nSIn21QddDSH/bUMO8sHDUYSGsm6jlqDBJelBn50sVB1AcIu8h0X6B1SRhoc4+rXpUes2og0KQm60Nr04M0riT2lBWbJ7m3Pnk8SsVoHAAWkkq8dLLzzOSy88DsCBQwns/PsQP6/WsHXHAa7fSMVX3gjf5o3wlTfGr2VTvLxq4eZWEzc3F1xdXXB3zfv/zZu3yci4TfrNW2Rk3OLmzUwyMm5xIyWdEyfOkqi9QOLpiyRqL1Kntgf9+3SmZcumfPrRa3Tu6Feun93L0539/0TSe+BLfPbRawwZ3LNc+7cn/tywi7ffX8CRvT9Sq5ar1OaUiGq6S9fQnr6IvHkjyzUUIcRY8YRav/wkJwCCisiYEMICjAUVJeG6GPwCA1DL8hYD5K1xKqoccnIsWwpDas3Arz1l7aTT0vVTErQJsaAYXuBxPpl4nsuXb5RR7wKBwJ7o2e9FFs5/mw4OPi1diCMlo1nThjRr2tAk28vJxPMcPXqK8xevkpKazvkLl/UCSGoGycnpuWJIu7Zyjh7T4unphpenO56e7nh5uuNhEE7q1fOkSeOGvPS/EQXfN1RA+vTuxJvvzuPEyXO0atnU+h1zZ6IWcp8kD2KqKhR16Dw0g0t4064MRxcJMrUsdzml6QMq/dr0BJk692GWKjISlVptbQcMVUFUaACyddbd9xkTF3+G02d0BDykKLqyQCCo1HTu6GciUGRl3SFRe9EgZlzgwKEEzl24TEbGLTIybnPzZo4IcptOilYcjD2Bm1uOWFITV1dn3Nxq0qRRAxo1qseYUUqDyNIIJ6caEn5SPV6e7hzdv5Inn32fI8cSeTP4aalNKnc++XwZsUdOcnhvcZK52B/VBg14kFOnLpTuBkcbwYTQWFMRQxtBmFlF03VWmmAZauM4JIWVA/ocyyULAgMgb2GtrFG6foqPFr1m06LAG5FTp84zaOCD5WWQCfq4LAUUWlxTLRAISkrXXs+yfMnM0mXIsBZNMMGEF5KjXh8fISfOk3GsqFK5fZH95iHEEdvQ0rcJLX2bSG2GXfPJ7ElMe3cev/70qfU7WVrfbQFluA6dYdG4sthrxHMbQaczXY2er0Iha9MtrQ833WZsY3F56735zJ01sWQ7CwSCSo2TUw3atG5Om9bNpTalTFn5w4fM+eR7Jrz+GeGfvk6N6tWkNqnMuXP3HsFvhtO4UX1WLK34GVSrjhk1kE/Cl5WuFUvxQbQJRaYX0kfjLTjVnEm5LXIsy/1QWIgOr59JktNp2eVyLpBC1yfrmRu2jLGjJRQgFCHE6HToTF76YKCywIgCY6MIBALr6dBtHFHL5pSPKJIzFb9QDD+0bHrpsaZfU0TMEUF50Ld3J1xdXfhzwy6pTalQrN/wN7XcXendq6PUpggEAoGkTJ/2HIEP96SJ7zC+mL9KanPKlC/mraKJ7zAeGfIQ77z5rNTm2ISqXTr5071bW6J+3ljyVswEh7wb39xAYBrzlLg58Tz85FaU2yLHsjyIqSqIUhul1zXkcs6jbHI5F4g2gkB1lGmw13ysWLWBPgEdUbRvaePOS4uS8EgVxK5jo1BGBIJS4acYy/q1n+MrrzzLE2yJEEcE5cEnsyfx+pufS21GhWLKm18wd7aYLSIQCAQAwwJ7cfncBlJTM2jVfjSr12yR2iSb8vOazbRsN4rU9Awun9tQqWJLVQWYPfMVojfuZt0fO0rWijyIBSEKotQ5uY/D8IvREamC2NAJejFBGY4u0t8kP7JMHZ+3ZKWocmyTY1kZriNSFYU6tw+IjFQB/rSwYT8Wyc1LbfTKSVFcQMNrft3Klu37CQ15uRQdlyFyP9PsQ+SISHmv4Pwz4LURBMoKqVNUOfqYNsblgaaKGsEyGcEa/d+C2jC1M5CICHNxruh+cvaTIZMFIyb7C/IzZMgQ5syZU2gdeesR7NwUQZPGDUy25//+ycy/xCXzA20EgTJ96ucotcww68vS9zmnjXwGnzL1Ucv9Yr5tuaV+LX/WQAsqtBBHBGVNI1k9tm+K4LnxFX9KcHnw7Isz2bbpGxEcXiAQCPIx490X+Xvrd/y1eTcDhrzK7n+PSm1Sqdi1+zD9Br/Cps3/8s/2JcyY/qLUJtmebCOGjZySvWX7vmyHY9Pr2d7er2dvktqOfGzcvCf78bFvlmkfng0HFlln0+ve2d5DvslOtFyY7e09JPubRKO6r+cdycRvhpiUZyd+kz3E2zv79U352zBsK6q8kDaH5G7YlP26t7dJnfz7bHrd2/ScG/oobJ8C+yno2BSANcdcUHnw9vbO9vHxyfb29s6ePXu2WXkj32HZN5LTzLabff8M37cheV9iE7/I/T7mbijKD/TlZvubfJ/z1TH4gDV+YeLDJtvMy4v2NVOEDwny4+3tbdP2fv19e/azL860aZuVjWdemJG97o8dUpshsCNs7YcCQWXhwKGE7CGPTc5WPfNu9rIfo7Pv3r0ntUlWcefO3ewflq/PfuKZd7MfeTw4+9DhE1KbVKZUNRZJfv8ljD/+jOHDj5ZIpdOULYaZCGZPMtVRKEImmacIlpAZHy5i85a9rI36RGpTCiEnXeBUw0waDeujTGOlyAcPN51RYikejTIcXU4cg6LK0TAvNNZ06ZE8iOhIFbGh80xmbBjXMbEjN4uAUVpoZTiRKtPPZnU/wwcXK3q/wPHIysoCYNGiRchkstwZJA2aDiEh9ie8PN3z7WHh+2eI96GfXaYlIiwKRUiMUfwPw9K2qDCTWU8F+kEBWPN9zu8XC0IUZn5hPdb7Wg5i5oigrBk+rA8jhvcTM0cK4OnnZzBmlJLHhvaW2hSBQCCwezopWhG97gtee1XFnr1H8W7+COMnzGHL9n1Sm2aRzdv28eKrc2jkO4z9B+N5bYKK9Ws/t8OwDrbFLFxu2MeTCf1oMV17PcuCL6bRvVtbKewqG+RBREcmmKS7A31K4Gg7ucfevvMgk6Z8xhNjBjHz/fFSm5NHbGhuCkBjTNMFKgnXGR1ITTAyQ6yZ3HxAyqGoUKOWQaQu3FyMKqrcEHcmZHC+n25yPxSEsl4TjtKwk38LozryFnk2GMSXqfkaVw5VQVR86fopgrCwMFyqHEcmk1m9j6DyYCyQLP1+JYnxe3Gt6WxeUXsKfaKqAr5b2o2siwX/qZa+n1F64cNQVKAfFIA13+f8dfQZv+I5pQVlcVXCYviaMcmXNHR5cDCXLlTsqalS0LNnT3755RepzbB7hg/rA8Bb785nxrsvUtOSrzoY6em3CP1oMU+qBleqdeUCgUBQHjzUoz0P9WjPvM/fYPWaLSz4ZjWvTJrLk2MHM3rEANq19ZXMtqPHElm9dgsrf9pI+7a+PDl2MN99PV0ye6TAYh6hkHf+xzjVECa8/gmtWjblq7Cp5W1X2VFkujtpuHP3Hq9O/oRr15JZv/Zzs1gDkqMIISY6qMgnydqIQKNgtioiY0IICzAWVJSE62LwCwxALcuTp/JSPRdVDhBLaIAMS8/xrEnIrM9CZE3N0vVjialTpzLrs2iRetSBMBbBnJycyMrKYvz48UyfPp0GTYegjVuLq6uLhT1zAk8XAyuEj9JjwS65HwriLda2juL7mkjhW3KEMGs9w4f1wbWmCy3bj+bjDyfwzFOBUpskGT+s+JP3Z0bww6IZ9O/bRWpzBAKBoEIzeuQARo8cwJWryaz8aSOffL6MP6L/pksnf7p09tf/7eSPvLntg/Inai9y4FA8+w7EceBgAvsOxPHoIwF06dyanZu/pX49L5v3WREoMMGyr7wRG377kmU/RjNs5BQU7VvywrOPiYwJNubosUSWRP5BXNxpXnz+MUaNGCC1SSVHG8GE0FhTEUMbQZhZRTlB0TqCDO80wTLU6kD8cgPtFlIOgMIkKG9x0T/dtobS9SMQ5JBfEMnh8rkNNG7xKEf2/WhhOU2sycwPq8iZaWIDmwvGgl2G9OzDS9xm8XxNiCKC8kQ5oBsXE//gtalhrFm3lcUR71Hbq5bUZpUbN5LTeOHlD/Fp6s25E79JbY5AIBBUKurX82LyBP16/uzsbPYfjGf/gXg2bf6Xjz+L5MaNNLp09qddG19q1nTCy9MdL89aeHm54+nprn/vVQsvT3eSU9JJTk4jOSWdlJR0kpPTSU7Rv799O4sjR0+x/2ACderUonNHf7p2bs2YkQPp2rm1xEfBPihQGMnhmacCeXLsYL5d8iuqZ6bTuFF9Xnj2MbGutJSs+nkTSyJ/5/btLF5QD+PzuZOlNqn0WFqiYvjBVNgPNWV4JKoodYE/Ak3KlUNR5VsqUGwKmKKvn0mS06kN+qnkXNRdJT7hDHEJZ7hyNZnr11NJT79JesYtMjJuk5Z+k/T0W6Rn3KJjh5YcOnwSd7eauLvXpJa7K25uLob3rtSt40H9+rXx9/PBv1WzSpXhoEOHDvTp08dEEDHmwqnfkbcewe7ti6lfv7Z+o2HmR3xBa1PkgxmuCCO1tscAACAASURBVGVd/nJtArEoGF7G39n8dmlPxYNiOMarYUzqFCbYFNPXhCgikIqvwqaybccBuvV6jg9CxvPME5V/9siyVdF8ELqIJQvfp2/vTlKb4zA8Omoqv/9i/lhJIBBUbqpUqULXzq1NhIqU1HT2H4hHe0bHtWspnEy8oBc7kg3ih0EMadtGzrHj2lyRxNPTHS8vg4ji6U4jWT0CenWkSyc/PD3yP4wTgBXCCEC1ag/w6kujePWlUWzfeZAlP/zG1Le+4IVnH+OJMYNo7iOm5VpDwomzRK74kyWRf/D4o32YPSOIbl3bSG2W7TATHAzBWTH6kaQJNkvDnBtjQE7R5SiZFKIgwGSGiWFWSZSVT53lQUxVhaJWBzM0J46JJtiwBEhhqGSDfioJd+/e4+9/DnMsTkt8whniT5wlPuEsHrVc8ffzobWfDz4+MvxbNcPd3RV3t5q4ublQy90Vd/eahvc1ycjQiyTp6bdIS79JRsZtw/ubZGbeQXv6Ilu37SP+xFlS027i79eM1n4++LVqRtvWcnr17ED16lZdsuyKDRs2FFlHG7cWP8VYNOvnGZbRGb5/oROIGJzzXdMSERhAqH8kunAlQVNVhKoDCG6RF5hYHww5sljfzQLFl0KINbbL4DuqyGiDriHHTwFR6zaiDQpCjpaICaFmAmlev9b7mhBFBFLTr09nEo+v4bPw5dSWDWLCy6OZGDSGBg1qS22azUhKus6ChauZH/Ez7057jsTja6Q2yaHIuc6J651AIADw9HBnYP9uDJTaEAeg2L8y+vbuRN/enbh2PZUlP/zGK699TNLlG/oT1q8bA/t3xcmpRlnYWuG4dj2VLdv2smXbfrZu30eXzv4EPNSR03FrcHZ2kto82yMPYkHIOgJyg9sqCInRETlPhjrnh5QyHF1kMDKTeAJGP37kRZQD8qBoYggkwKSOynKw1gJQhuuIRGYUx0RFZKQKtRpa2LCfikqi9iIbN+9m0+Z/idkVy9iRA/H0dKd7t3Y8O24o/n7NcHOrWaw23QwCiXfDoutmZNwiPuEscQlnSDhxlri4M4x9ejoBDykYPLA7gwZ2r3TL+hJif6JDt3GsjfoEX3kjy98/lV4UAfTxkiIxCSZtGgy5KJQMVUFUaACydSHERLew2lZVyHDWGdllGgNITlB0JAkydW7AZlVkJCq1uoB+g6zyNfEjQWBPvBH8NFNfH8eChavp+3AQAQ91ZGLQaDp2aCW1aSXmwKEEFixcza7dh5nw8mjhbxJgfJ0T4ohAIBCUL1Wys7OzS9vI2XNJbN66l83b9rJ56z66dPJH2b8bAwd0o0M762+2Kzr372ez8+9DbN2+jy3b9nEp6RoD+nVjQL8u9O/b1S4D2YhB1whNMDJ1AdlwbIi9HvNtO/bzl2YPGzV7qFIFBg/swaCBD9pVkL2t2/ezcfMeNm3eA+htfHhQd/r27iyxZbaja69nWb5kJv5+PlKbYjfYq89UVGQyGTqdTmozbIrUn+mXtVuYH7GaNq19aCFvwmBld9q2sf9phUePJbJRs4dTpy+SkHCGCS+PZuTj/aU2yyEp6DpXka5/UvuhQCAQlAabCCP52bX7MJqte9m+4yDH4rS0b+tLuzZy2rX11b/ayAvIwlBx0F26yrHjWo4e03I0Tsux41pq1KhGba9a9O/blQH9utJewpRL1lKRBlyboY0gMCAUf5On3BqCZWriQ2KILuM1MvZ2zL/+9hfmf/MzXbu05qHu7Rms7F4mEbBtTc6slt17j7F/fxwTgkbzyvhRUptlE3r2e5GF8992KGG5IOzNXyoDlfHHi718pr374ojetIuNmj0kJ6fzsLI7g5XdGazsQdWqVaQ2j/v3s/lr0z9s1OzhL80e6tTxYLCyO0MffojOnco+p5XAMkVd5yrKddBe/FAgEAhKQpkII8ZkZd3hyLFEjh7XcvRYov51XEu9up60b+tL+3YtaN5Mhrd3Xbwb1sG7YV1cXOxjmcmVq8kkXb5OUtJ10tNvsffAcY4eS+TY8dPUrOlM2zZy2rWV0661nLZt5Pi1aia1ycWmogy2NkcTjEwdZbLJdDlA2WEPx9x4DfmrL41i4itj8G5YV1KbSsNF3VUWRKxm4eI1THh5DBNeHl3h1/z3HRRE2MeT6drFcSOF24OvVEYq448Xe/xMuktXc2fhbdTsRj1uKM7ONfSxmVo1w9/Ph1q1XMus/7S0m/oA2SfOEp9whszMO0SuWM/Dg3oyWNmdh5XdK/R1v7Jg7XWuIlwP7dEPBQKBwFrKXBgpiDNnL3HkWCLH47Sc0l7g0qVrXEq6zqWka9SoXp2GDesg866Ld8O6NGxYh2ZNvKnp4oSzSw1cnJ1wdnbC2Tnn/zVwcdFvc3GugbOzE1lZd7idmUXmbf1f/fs7ZGZm5W7PzLpDFUB75iKXkvQCSNLl6/r/X75G3TqeNGxQh4YN69ChXQvq1vGkXVtf2rZpXmmi+VaEgbayIeUxP3v+EqFzluSuIZ8YNEYSO8qK+/ezWbDwZxYsXE2vngpCpr9AsybeUptVYgYNm8TM98bzUI8OUptS7ohrU9lRGX+8VITPFLPrEEePaU3ECteaLrT288HfrxktfBvj5FQDN7eaJhm8CgtinZP5Kz39Jnfv/seJk+eIP6HPFnbrVqaJCNOurZyAhzpKfRgERhT3Omfv18WK4IcCgUBQEJIJI4WRmpZBUtJ1dJeucSnpGklJ17mRks7lK9dzhY7MzCwyM3P+f4fbt7MMoscdunb2Z+/+OL1oYhBSnJxq5IomOdudnWrg00xGlSpV8G6oF0AaNqij/3+DunYx7bWssfdBtjIi1TEP/2olf27YxSsvjXSINeRrft3K19/+wrDAAF6f9ITU5pSYoSOm8Gbw0/TrU3niqBSFuC6VLZXxx0tF/UyXkq4Rl3CG+ISzXL2azJWryQWKH5bSnueIJu7urtSv50W9ep74t9JnC2vYsI7UH09QCCW9ztnz9bGi+qFAIBCAnQojgvLDngfYykp5H/OEE2d5IWgWDw/qQcg7/yu3fu2FmXO+Q7NlL0si3qNliyZSm1MiRqim8epLoxg0sLvUppQ54ppU9lTGHy+V8TMJKi+lvc7Z63VS+KFAIKjIFDtdr0AgqDjM+eR7flu/kyUR79GmdXOpzZGEGdNfZNTw/ox7PoSRw/vz9hvqoneyM9ZGfcLYp98l685dhgUGSG1OmWGvN/sCgUBgK2xxnROpfAUCgcD2VJXaAIFAUDZ8MHsRmZlZ7N6+2GFFkRzatfXl351Lyci4xYcfLZHanBLx0/LZRP2sYc26bVKbUiaIm3yBQFDZseV1LkccEQgEAoFtEMKIQFAJefixyQzs243QkJelNsWumPVBEL17deSRx4OlNqVELFvyAeujY4havUlqU2yKEEUEAkFlpyyuc0IcEQgEAtshhBGBoJIROPx1Zr43nt4BIvuAJfr16cx7bz/P0BFTpDalRCyOeI+t2w+w7MdoqU2xCQ4vimgjCJQF48BHQCCo9JTldU6IIwKBQGAbhDAiEFQiho6YwvvvvECPB9tJbYpd81CPDkyf9hzDRlZMcSRi3lvs3X+cxd//JrUppcLhRRE0BAeEEiu1GRWUIUOGIJPJkMlkALn/HzJkiMSWCQR5lMd1TogjAoFAUHqEMCIQVBKmvPUF06c9y0M9OkhtSoWgV88OvPPms0x56wupTSkRX4VNJS7hDN8s+kVqU0qEw4simmBkMjVRUttRgenTpw9OTk4m25ycnOjTp49EFgkEppTndU6IIwKBQFA6hDAiEFQCNm/dy7nzl+nVUyG1KRWKXj0VnDuXxOZt+6Q2pUR89tFrnD9/hS8XVKyf10IUCUamjkIREoMuUiW1NRWW6dOnk5WVZbItKyuL6dOnS2SRQJCHFNc5IY4IBAJByRHCiEBQCXjrvfnMnTVRajMqJB/NmsA77y2Q2owSMyf0FZKT0/jsixVSm2IVDi+KACjD0el0RAfJpbakwjNx4sTcWSNOTk5MnCiugwLpkfI6J8QRgUAgKBlCGBEIKjjfLV1H/75d8ZU3MtmuCZblrrk3ewUb37BpCJbJCLa736paIgJlyAoITKkJliELjEBbyl5a+jahd0BHlvzweylbko4P3htPVtYdZs9dKrUphSJEEYGtMZ41ImaLCOwBe7jOCXFEIBAIio8QRgSCCsx//90n8sdoPpldwFNSRQgxOh06k1ckqii1TUSF8iEKdRmrNnNnTWTZj9H899/9Mu2nLHn3redxcqrBB7MWSW2KRezhx4KgcpIza0TMFhFIjT1d54Q4IhAIBMWjmtQGCASCkrPujx20/D979x3W1PXGAfzbupWpFiUiSgQCDsIQ60BRiQiioijGUaPWFTcRR12pjfunFBdCtVZLXXGjIgrBUXFUBQkuEIgDiEqrgiDizO+PALJNIMlN4HyeJ48m995z3oQkN3lzznvameGbb75R4igWAkPZEHLCECnhQutH8zOZYAoDEDKLpbZY69atA/PWLRB+5jIGe/VUTycaMM9vDDYFCbGYH4zVgmlUh1NEm74sENUzaJg/Yq5o3zo6DfAt1m85h/VbzlEdShku3Zk4eSSA6jAINdPG97nC5Ii2xUUQBKGNSGKEIHTYuQs30bd3Z+UPpDPAhBBJEgCFyYaUEHhyviwdyg6VIrD4j00FBSMLMfkxxWokiMCjcYDQUIDzZaWN0m1IQjzhIhBX0EYFbPwR5B0Aly0icAO/8utXpTFWrm8fZ5w7f0OnEyMAMGcGG8E7jmDeos3YsGY21eGQD+U1TMwVMfl7Kon8al/zafP7HEmOEARBKIZMpSEIHSZ5mAEnB9sqHJgEMZhgFMsZCAVh8I6RT7eJ4TMh5HgipHCuTUHCgR36ZTqOjcClVK0SQMgJAKOCNuRJEYBfsF0awwcELvAM+fqEHjrXH2whp/I6KArGWJHODrZIfZih0L7abtrkYbBltMVsf2p/pSYfxgmCqOl04X2OTKshCIL4OpIYIQgdlipJR9OmBkoeJQKPIwTY/iWmpjD5QUXX6e7eYEIsH1ECCUIC5EuLfhmwIZ+OA2EAiuc1Km5DhC0CcYntoHMREcqGWLCl3OKqJbEwi8+EMKCiuiiKx1iR75ob4kFK2td31BETxw+Gs1N7cGeto6R/XfiyQBAEUR269D5HkiMEQRCVI4kRgtBh1lbmMPnOuOIdxAK4lFmVhoNEfgykpaal2FgWy5LQLWFT+H9JJMLEpbYDBdNxChMfX2lDFA4hmPB2L68NIcIV+FxJ5waBDwFmlJflUCLGipiYNIW1Zeuv76hDxo72RB9XR0zkrtRov7r0ZYEgCKIqdPF9jiRHCIIgKkZqjNRyLt2Z5CSpYS7dmSprKycnD+LbyWB2sip/ByYfMRFcqKVmafHEh0LEELjQIChni2Lt0MH1Z0PA2QIRN1CxLpWIMT7hAXJz3yq4t+5gD++HevXqYeyPy/HXH8vV3p8uflmgFCsQUinVQRAEoQxdfp8jNUcIgiDKRxIjtRyplK/bmHZWECdUkhhRJ0kKEqFoUgMAmODHRFRvZRlWIELZNASEzIK/IvsrEWN8QjLs7Sh4HDXAx7s36tevixE/LMHBPavU1g/5sE0QRE1XE97nSHKEIAiiLDKVhiB0GLOTFcS3k9XbCd0d3kwgMaXUfJRyCrhWiOUFtoJTWr7a1Cw+IJiBgETVxigWPwCTaV39ALXUQE8XTJ4wGEPZC9TSPvmQTRBETVeT3ufItBqCIIiSatWIkcdPniEuPgni28l4+DADWdm5yM7ORVZ2DrKyctGpYzsk3EmBoYEeDA31YGjQBIaGemBYtYG5eUvY21nB3q7mfnEidI9dJ0ucPntFzb0UTmFxAc+ycPndwgKuoQqOAJEXT3XheIJRbNSIiEcDR6jkSBI6F/5sAThCAEWzkqof46O0Z+CMGaBgELqpn9v3qFevHryGzkX4sV9V1m5N+rIgeZiBuFtJePTkKTIyMpFV7BxR+G/HDnTcuSuBsbE+jI3kFyNjAxgZ6oFObwXrdq3R2ckWRob6VN8dgiBUpCa9zxUiI0cIgiC+qNGJkfSMTJw6HQPRueuIi0+CgUETONoz4GDPgKM9A0aG8gSIkaE+jIz0YGigh9ev3yD7tTxhkv36DbKzc5Gb9xZXrybgz7/CEZ/wAMxOVmD1dYZLd3v07uVI9d0karHOjrZ4nfMGN27eg3Pn9urriBUIaShA49AgLLiJyY+BVIl5MXRuBGLgCZcSdUbYCJUGQtnfrFiBoWALOUWxKBajBCGeLhDYhJYpPHv1n9t4l/8eDvYMJSPRPb17OaJ+/broN3AWok5tqXZ7uvyh+nXOG1y/cRc34xIReysRsXH3YWxsAEcHBrp27oDmzY1gVOwcUfzfrOwcvHqVg1dZ8kvWq9fIys7Fp0+f8dvO45g8fQ2aNTNAZ8f2cHayhZOjDUmsE4SO0uX3ua8hyRGCIAi5b2QymYzqIFQpNzcPh45G4+CRaKRnZOJHzkDY2VnD0Z4BYyPV/Honvp2MB8lPsE94FnfupsLXhwXfYW5wqMHD8AntdT/xESZOW4kr53+nOhSd1dV1Iv7cwQfDug3VoWjMzdj78P9pEy5GhVS5DV39MH3ydAwOHIpEfv57fPvtt+jsaAMnBxs4Odqq7DwBAKmSDNyMu4cbsfcRL05GWsZzjB7hjlEj3GFtZa6yfpRFo9EgrWLFV139m1OJPGa6rbb8/VRxP6vz3kIQBEG1GpMYefPmLZYJtiP8TAy8PFwwYpgbunbpqPZ+/3uRjUNHRTh0JBqtW7cEZ8wAuPXurPZ+CaK4hUu3op2FGaZMHEJ1KDrnt9+P4eFjKdaumEF1KBqXcCcFU2euxdULyifVdO3LQuytROw/GIkDh6LQ19UJI33dMcCju0ZjyMx8iX0HI7H/YCT0mjTCqBHuGOnrDj29RhqNgyRGNIs8Zrqrtv3tqnt/SWKEIAhdViMSI2vW/4mg3w5jBX8KJnAGURZHSko6flq2FZ9lMqz8mYv2thaUxULUPi3MPfAk5SQa1K9HdSg64937DzC3HITnT85QHQplEpMe4Ycff8bNy38qfIwufVm4dDkef/x5AmnpmQWJiH5o0kSziYjyxMUnYf/BSEREXsFATxesWj4Ndepoph46SYxoFnnMdFNt/btV536TxAhBELpMp1elOXU6BqYWXqhT51ukp5ykNCkCAJaWZji8fy1mTRuByTNWY8XqPyiNh6hdniSfQI8+k6gOQ6d07z0JT5JPUB0GpWwYbSH8azXsnMcotL+ufFl4kvYMo8fzsT5wDxbNHw/R6a2YOH6wViRFAMDRnoH1q2fhzs39sGhDQ4s2Hti87SDVYREEAd15n1MHsloNQRC1lc4mRn5Z9TvOiK7h4f2jWDB3LNXhlNDH1QmXz+1Ah47t0Nt9GtXhELVEgwb1IfxrNWwd2FSHohNs7Efg0N7VaNCgPtWhUK4dvRXCj/0KBnNEpfvpypeFRfxtGDRsHsaO8sCJwxsoreehiKmThuK/9Ei8eJEFBnMEjh4/T3VIBFFr6cr7nDqR5AhBELWRTiZGvH3nw9BQD1t/nYeGDRtQHU6FfAa7YlPAXJiYe+Dxk2dUh0PUAu3orXA+YhvaMkitkcq0thqMi2dDQLdoRXUoWqO1WQtcigoB3XZoudt14cvC3XsSDBrmjzatW0J8fQ88+2u2hkh1/bJsCi5FhSD87BVMnr6a6nAIotbRhfc5TSHJEYIgahudS4z4jPwJ/nNGw2/mSKpDUQizkxUyUk9h/GQBMv99RXU4RC3QsmUziG/sQf9Bc3D+YizV4WiV6As34eY5A/dvHUCLFk2pDkfrmJg0RezVUJhZlpyWqK1fFkQ8Gmi0L5d+LBfEXt0Pwc8zQeNpX7yKMDFpip3BSzBqhDts7Efg+aHp0NG7QhA6RVvf56hEkiMEQdQmOpUY6e0+DYsWjEMvFweqQ1FKvXp1cf7sNnRyGoX3Hz5SHQ5RCxga6OHYwf9hS/BBTJ25FjWgxnK1fP4sw5QZaxD822FEhG2Enl5jqkPSWsZG+kgSH0QLcw/5dW3/ssDkw5e7HIOHzYFUKi24hIIt5IDmGQIJ1fFVUd/enXHx7Ch0mXMcGbeuUR2OUkonrEpcakqWR8QjCasaRBve5yQhnkWvE8+Qv8Cj0bTiOUaSIwRB1BY6kxiZ7R+AieMHw9nRlupQquzsqc3oP3A21WEQtUTjRg1w9MA6uPXpjGat3HHgUBTVIVFi/8FIfNfaHf3cuuDw/rWoT1bt+aomTRohLfUUBg3zp/zLwldJr8G4uSFCtiwsdiMLgaFsQByGSF3NjABo0UIfPgAeRJ/Eteu3qQ5HOUw+YooSVTUnYSUnAo8jpDoIQkW0ISkCiLBFIAaTHwOpVIoI7lgESqUI1JJ8BEmOEARRG+hEYuSPP0+iqbEBxo72pDqUarG3s8b4sQOwTPAb1aEQtciIYSy8lEbh4qU4jJskwPUbd6kOSSOu37iLcZMEuHQ5Hi8youDr40Z1SDqlfr26OHkkgOowKrXpCoA6DcCZXk7BYToDTIiRVOwbeOmRDMV/jRXxyo5mkIR4ym+ThMCTRgNPJAKv2PGeIZKibeW1WdRG6WO+9Frwq3DJdnkiFLTLgRBAZsIu+IxdhoC9p6v5iCnGw8MDq1ero8ZJzUhYETWHdiRFvrCxpFMdQoVIcoQgiJpO6xMjHz9+wsKlW7F86WSqQ1GJcT8MRHjEZTx8RNZ5JzQrePNCTBo/GMtWbEdfj+k4dDSa6pDU4uAREfp6TMeyFdsxafxgbNu0gOqQCDXYvO0gmjUG0KKCqZWSJIjBBKPge4aIRwMHoUWjF2L4TAg5nijMU7C82IAwHF++IkkQGSYG2+vLFwEhJwCMmC/HiwUuoLkkwb9Em7yiNiQhnnARAPyCY6QxfEDgUio5UrZdIccTIeAiQhoKNgB2qBTSpOMQHYzEtet3VPMAViIhIQE7duwAjUZTfYKkBiWshBxaDRj9UvMomthTNilS+jlTZlqYiKea5xSNB1HR/sWP90RISGEfPIiq+vwvta2810dFSHKEIIgaTablNmzcI1ux5o9ytqTKgj1MZaamfrKocrZG+ZnKTD2CZanqDrAKtu88Jpu/eAvVYRC1WFx8kmzy9NUyuu1Q2f9+/Uv2+vUbqkOqluzsXNm6gFCZhc0Q2ZQZa2Rx8UlUh0So0YW/42TevvMqeZ+PkvmZmspM/aKKXfeQBRffMTVY5mFqKivapeCYouupwTKPwmMK9vUo3kAlt8nbkLdXYrtMJpNF+RU7b5WzTzlt+BU7ydFth8pevMxW7IGqgKmp6Ve3F17atm0rMzU1la1atUomk8lkRi3dvtp+peffKD+ZabG/RZRf8b+TTJYa7FFie8nHSyYrPPf7RcmKHqvi+8uPL/nZQH5b6evF+ijztyx4/pRpt/B62b9LZRR5zAjVKe95W5qyf5Myz5nSr90oP5lpOe8nJd+DlHlOlX+9xOuqKs//Mu975cX+dRU9fl97byEIgtBmWj9iZONWIfxmljNMuogQHG2oTqWEyT8Owc7dYfj8uXYXxCSo48C0xvagRbhxeTc+fPiIDk4jwZ21FqF7T+Pps/+oDk8h0qf/4s+9pzFt9jp0ch6NT58+I/ZqKH7b+hMcmNZUh0eoyX8vssEX/IbjB9fLbxAL4FKmyCcHifwYSIsm6LMQKI0At3CUuogHmosA4hItsyAfNCI/n0giwyBmesO92Mj28oa5Vzj0XRQOIZjwdi+1nc4AE0KEFzttlWiDbgmbSu5/7NU/MXTkwmoVVO7WrVvFxVFptBL7vnv3DgCwY8cODBw4sMp9yhXU5mD7F/wtRAgXMsGf9eUXaLq7d8kRJSwvsIs/XpJIhIm/jAQCACY/qOhvKz8eYPJngVWizcI2Cms5fDkGdC4iQtkQC7ag+KeJsu2WHOlCaK/iz9vSI5+Ur51UznMGLARKpYjg0gFIEBIgBJMfU6wmSMG0MWEAig8cqe5ziuntjtLvOEo9/yVJEIMNr+KDPliBkCpZz+TVUxGcuriXee/o1q2b4o0QBEFombpUB1CZ/YciMWuab+UrSDCZYAoDEDKLVeyEpf2W/TQRe/adBucHL6pDIWqxpsYGWLxgPBYvGI/TZy7jrOgfrN0QCmNjfbi7fQ9W3y7o0c2O6jCLXL6agKjofxB17jqysnLRr68zBg/sheDNC79+MFEjLFy6FXNmFEuWM/mIieCW+bJQmnxaS2EqhI3QGD4CXAQl9mF5sQFOOESBLCBJDKZ30FfbrZwYAhcaBOVsqSz5URkjQ30M8eqFFWv/AH/RxCq1ceTIkUq3F0+ONGjQAO/evcPkyZOxePFixYfRiwVwoZW950x+DKRFJ2sWAqXF2hPxQCsoavrl8ZEnrDjhIgSyWEUJqyD591H5vlVIWPHLTVgJEC4KBItVThtfSVhVpi7+LZNwIjSjeILkypUrOHXqFI4cWIcW5h54/uSMYo1IUpCISp5TkkiEiQEb//KToEkSoPCNpLrPKUWf6xXGyvICGxxwaECoNBBVnRTTwtwDaamnUb+eVn+NIAiCUIpWv6Ml3E5Bm9YtK9/Jxh9B3gFw2SIC9yvpbhGPhuKF5NmhxTLkkhB4ughgExoKcORzPQH5h7gI90h4Fvt1scRxKP2Bu+CYr2RpDAyaQHwnpfL7RhAaNMCjBwZ49AAA3Lv/EJHR/2DN+t2Ii0+C71A3GBnpgWHdBjaMtrCxboPGjRuqLZa8vHzcT3qEpAePkfTgMbKycnHwaDScHBjo5/Y9dgQtRntbC7X1T2intPTnuHHzHnYGL1HuQEkIZgjEZd7zy5SWZXmBjQCkSERIEjLhHVPdbDsT/JgIlSftebNHobmZO5YsmIA6ddQz8LN0QkRptSxhVZmP+A7/SsVf35FQicoSe4C8sLTk/jGYlq/VjQAAIABJREFUWQ5CespJBVstOUpJIdVIpqkPC4HSGDA8XcChfflAXPpzbWXMLAdBcv8YSYoQBFHjaPW7WqokA31dnb66H53rDzaNA55XxW/sXwrvyXeQhHjCheMJRqkPrUJOgLxQHr3wA5sLaAI2QqVSsIqO48GrINNevLiefERlCDxdXOCJypMjbduaIjzisuIPBkFoUHtbC7S3tYDfzJF4+/YdrlxLwN37D3H5agJ27j6BxAeP0dTYoChJ0rYtDY0a1oe+fhPo6zWGnl4jGOg3gb5+44LrjZGbm4ec3Dzk5OThdc4b5Oa+Lbj+Bvn57yF5mIHEgkTIy1evYctoC4Z1GzCs26CXiwPWrZqBhg0bUP3QEBQK3HIAvFkjlT+wYPi4P6v0baW/CNPBYIoRNiMAYqY3qpUXKZgCUvzXYlWaz/sB6wP34Kd5HJW3bWdnh169elUtIaKMGpawIrTH1xJ7TZo0wu2b+0C3HQrJ/WMKtChW/rVcONJEiUM0gw5uhBTcgmsiHg2ccj4Pl3uk7VDcvrkPTZo0UnuUBEEQmqbViRHJw3TQLcwU2JOFWXwmXAJCMItV3i9UBfOYY0rNYxYIypzoyszVFIiB0nM1BYXDbb+sO19yrnISaJwtEHErHqZo0YaGh4/JyjSE9mvUqAHc+jjDrY9zidvTMzKRmPQIiQ8e4/GTp3jxIhs5OW+Qk5uH3Ny3eJ3zBjk58mSIvZ0V4hOSoa/XGPr6jWGg3wR6eo0KrjdB82aGMDVtjj6uTmBYt4FZKxOK7i2hrbJf5+Lo8fP4dd0c5Q8uM02ioNYFgMQUCcAqegOHuzcTgoJ6AtX73lxwXir1hUM+clG5L+YlY5SbzxuL71q7qyUxcuaMglMMqqsGJqwI6ima2DM20se1izvBYI5AkvhgxTsWjPwo73Uo3+4Ob6YAYaW3F6yM5a3lzzNWYCjYQs5XXxMM5ghcu7gTxkb6GouNIAhCk7Q6MWLasjna0VsptC+dGwR+mAtmhLiXM1JDkXnMcuqaq1yaRVsaWtG+q/gOEYSWM2tlArNWJmD17UJ1KEQtcOr0JfgOd6vawXQugvhhcOHQCqZJMsGPkSJ0Cw0cwQyEuEeUSoijbNHUKnUbgRh4wqXEtA22EnP7CwrCClxACys5NeXbb7/BiGH9cPzU3xgysFe1Y6VEDUxYEdRTJrFnYtIU0ae3olPn0bh9c18FexU8Z0q8V0gQ4ukCgU0opIEscP3ZEHBcwLMsHP1UWGg4VLtGJol4oHESSz7PCz/LVhJnp86jEX16K0xMmmokTIIgCCpodWLkeeZLJKekwcqytQJ70wtOTPKRGqUpMo+5aqo2VzlFko5nz16ooH+CIIiaL+lBGszNWpS4jRUohaLj7ujcCEi5pW4MlEJa9nQBlFqNBnQuIkofrOBt5fZbRL6yRWW3sSqKEUDbNi2RmPgI0NnESM1LWBG6x6yVCcIOrYdT93GIvfJnufuU+5xhh35Z+YoVCGkoQCt6LpcuNKwlWIGQhvJAK/Hcrzwh6NR9HMIOrScjOQmCqPG0OjHCsGqDpOTHCiZGALACEcqmISBkFvyL367oPOYqqdpc5dTUdLRrp8g0IYIgCCI5NQ3du3ZSez+SyDCg2sU9NcOG0RbHwi5QHUYZtT1hRegeukUr7NstQFfXibh2cWf5+1T6nEHBsrcVPSm+9pwqvf1r11H153+lcZbU1XUi9u0WgG6h2OhtgiAIXaaecvYqYmXVGsnJaUodw5rFBwQzEJBY7Mby1m0vmMdcLSwvsJVcg75QcmoarNopmPAhCIKo5VJS0mCpaJK8KiQh8KTR4BLmjSBt+5W3AjbWbZD44DHVYWiEPGHlrhMJK0I3MazbYMe2xejFmkp1KFqhF2sqdmxbDIZ1G6pDIQiC0AitToy4uXZGXMID5Q6ic+HPFkNcPOtRsJZ8uKjwhlLzmKtMPu9UyPFESLFmRDwaaLSSt5WWcCcFrj0dqtE3QRBE7dGyZTNY0tU4yo7ORYRUCqkOTYtgWLfBd82NqA5DvXQwYUXork4d2iFwPQ+sATOpDoVSrAEzEbieh04d2lEdCkEQhMZodWKkR3cmsrNycOlyvFLHsQJDwS5+A52LID4TQg4NNBoNNFoAGDFShLIBsWBGpQmMr6FzIxDDBwQuhW3TwBGyESqteHrNvfsPcfeehBStJAiCUJD06X+QPMygOgytkpyahufPX1IdhnrpYMKK0G1ODjZYuZwLT28/qkOhhKe3H1Yu58LJQfsWGiYIglCnb2QymYzqICpz+WoC1qzfjVNHf6U6FJWZPGM1+rt1xXCfvlSHQhAEoROGj16EaZN9yiwbXZudPnMFe4VnsHeXKgqJK8bYlIVXT0Vf35EoQh4z3XTx0i0EbtmH4wfXUx2KxgwZMR+8WaPJiGaCIGolrR4xAgA9utmBbmGGf27cpToUlcjMfIm8N/kkKUIQBKEEukUrMmKkFFKriiDUx7WnA2ZyfeE7ZjHVoWiE75jFmMn1JUkRgiBqLa1PjADA5oC5GDf5lxoxZLhb70nYEjiP6jAIgiB0Cr0tDZJHiq51Uk0iXok6UfK6UeVfeBQOBFB8OXuCIKqC1bcLJowdiDET+FSHolZjJvAxYexAMsWbIIhaTauX6y0u/tpfsLD1wdOH4VSHUmUDfeYidOdyNDU2oDoUopZKlWQg6cFjPEh+gqzsXCSnPkFu7lvk5LyR//smD7m5b2FvZ4X4hGTo6TWCfpPG0NdvDD29xtDTawRrS3MYGxvAxroNbBhtYN66JdV3i6gFOjvZ4vrNe9QFwOQjpnSdC0kIPF1ooLFDIQ1kVXSk2vz7XxacndprvF+CqE0GeHTH+w8fMGHKCuzavozqcFRuwpQV8PVxwwCP7lSHQhAEQSmdSYw0bNgAt66Gwnv4fOz+nQ9jI32qQ1LK6HF8LF4wHt272lEdClFLpEjSEX3uBm7E3Udi0iMkPXiMNuYtwbBuA2srczjaW6NL5/by5Id+k6IkiJ5eI+jpNUZubl5RsiQnJ6/o+of3HxEnTsTOP8VITHqMzH9fwca6DZyd24PZ0RLurK41f6UMQuM6O9oiXZqJGzfvwbmzliQD6FxEhCaBxglAyCxWhQW31eH0mSuoW/dbWFuZa65TolbKyclD7K1EpEjSkJ6eiaysHGRl5yIrOwdZWV/+7dSxHe7clcDISA9Ghvpf/jXUg5GRPszNWsDKyhydHW3QsGEDqu+WUoYMcsWHDx8xZcYabA9aRHU4KjNlxhoM8OiOIYNcqQ6FIAiCcjqTGAHkyzXu2LYITt042LZpATzcu1Ed0lfl5eWjd/9pWL5kMkmKEGr16dNniM5dh+j8DYjOXUfdOnXg1tcZXh7dwZs5EgzrNqhbt47C7clHiDRGSzQrs817cK+i/+fnv0Pig8d4+FCK6As38cuq32HWygTurK5wZ30PR3uGSu4fQUyfMgzbth/BLm1JjAAAaxb4TBcItojA1eCokc3bhPhl2RSN9UfUHrG3EhF3KxGxt5IQdysRzzJfwMnBBm69nWFsbAALi1byZEfx5IeRHgwN9MokS7KyC5IoWTnIeZOHdQGhuBmXCIu2pujsaAsnR1s42TPQUQeWhfX1ccP79x8wk7cBW2vAlOiZvA1w7ekAXx83qkMhCILQCjqVGAEAE5OmkNw/hlHjlkF8OwUL/cdSHVKFrt+4i6EjF+LC2WAyD5xQm7j4JATvOILoczfQxbkDWH2cMWPqcLRtY6qR/hs2bAB7O2vY21ljqHdvAMAt8QNEiq5h/qLNaGpsgK7fd8RMri8aNKivkZiImmnIIFcs+TkE0qf/gmb6HdXhFKDD0gZAYgokYGlkSdnrN+5CBuB75w4a6I2oDQ4djcbh4+cRGXUNTg42cHSwQR9XR/j7jVaqwK98hIg+gPLPP7OnswEA9xMf4WbcfcTG3cfvu8KQm/MGjg42GM3ur9UrT40Z6YH3Hz5i7oKN+PV/uruc79wFG+HkaIMxIz2oDoUgCEJr6FxipND+P1cgaPthtGvvA/6SSRg3ZgDVIRW5czcVy1f9Dpppc2SknqI6HKKGOn7yIoJ3HMXHDx8xbfIw7AjSnsr5DkxrODCtsdCfg6zsXGwNPoQ2jCEYO9oTM7m+aGNO6pIQVcObNRL7D0XBf/ZoqkMpQmcwAWESJIBGEiMHj0aDV/AFkyCq6sLfcRAejoLwsAjDh/YFd+JQCENXaqRvW5u2sLVpi7GjPQEA7z98xKnTMQjecRTTZq/DqBHuGM3uD4Z1G43Eo4wJYwdi+87jWLh0K9atnEl1OEpbuHQrbBhtMWHsQKpDIQiC0Co6sSpNRWZMGY4bl3fj1q1EMLv8gCPHzlEaz7Pn/2HitFWYNud/mDbZB5sD/CmNh6iZ9h+MhK0DG2En/8aKZVMQHRGk1cs/GxnqYelPE/Ds0WkwrMzh7TsPC5dsRX7+O6pDI3TQpAneOH/hJi5fTaA6FErs3H0CAOBBCiUSVfDmzVus3fAnGMwR2BR0AK49HfEiIxLbgxahj6sTZXHVr1cXPt69cXjfGlw+/zuaNTPCuMkC9PWYjn3Cs5TFVZEpE4egtVkLLPvlN6pDUcqyX35Da7MWmDJxCNWhEARBaB2dTowAQFNjA2zcMBcnj2xARNQ1OHQdiyU/ByMuPkkj/efk5GHXX6cw0Gcu5s7fCK/+3XFJ9JtWDwUldNOzZy8wePg8JNxOxvmIbdi1fRm66NhQ+kkTvBH/zx649/seFrY+OHAoiuqQCB106uivGMpegA8fPlIdCgBAkiQGmAy1jxa5cfMehEdE2LBmtpp7Imqi9YF7wGCOQPPmRrgUFYJjwv9hpG8/fPPNN1SHVsJ3zY0we/oIXLu4EwHr/JCRkQnnHuNx7uJNqkMrYSbXF02NDSBYs5PqUBQiWLMTTY0NMJPrS3UoBEEQWknnEyOFzFu3xO/bFuPMic1o1coE8xdthlP3cdi8TYgLf8chKztHZX3dvpuK4ycuYsQPS9DBaSRu307BovnjsS90JXyG9FFZPwRRaPO2g+jjOR3zeT9gzYoZaNmybEFUXeLW2xlPH4bj4qU4jBq3DB8/fqI6JELHnD25Gf0HaUOCQIKURAA2lmpNjLx7/wGDhvkj8uRmNfZC1ET7hGfRljEEHz58RHrKSUwa7w0Tk6ZUh6UQB6Y15s8di/1/rURQ8GGM5CzFk7RnVIdVhDd7FOrXq4d1AaFUh1KpdQGhqF+vHnizR1EdCkEQhNbS2RojFWlhYozpU4Zh+pRhkDzMwOkzV7Ap6ADixckwNGwiLxLJtIZ565YwNtKHkZF+wb/yyurZr3ORlZVb8G8Osl+/wZs3ebj6zx2IE5KRcCcFHdvT4dbHGZMnDMbBPauovstEDTdl5hqYtmiG+7eEVIeicsGbF+JM5FX08ZiOyJOb0aiRbi3hSFDHgWmNmdNGYNK0Vfg9eAl1gYi2QCBmgh+k3hVpBg+fh+sxu9TaB1Gz/H35FhYt2wZ7O2uIb+yBoYEe1SFVmSXdDEcOrMXZqGsYNGweBnr2wKpfplEdFgDgp3kcCNbsRODm/VqZeAjcvB/v3n8Af9FEqkMhCILQat/IZDIZ1UFoyuMnzxCf8AAJt1Px6HEGXmXlICsrp+DfXHTsQMftO6lFy84ZGenD0KAJGNZt0NqsBZh2VrDraKnWYafSp/8iLj4JsbcS8STtOV68yCqx9F2nju2QcCcFhgZ6MDTUg6FBExga6oFh1Qbm5i1hb2cFeztrtcVHlezXuUiVZEAiyUDqw3S8zX+HlJR05L3NR+6bt8jLy8ebgn9z37yFoz0DcfFJ0GvSCE0KL40bFl1v28YU331nDEu6GdoVXL79VruGEwNAb/dpCNo0Hx1sNVHSkVp026GIvRoKYyN9qkMhdEjYqb9x5Ng5hO5crrpGRTzQOIngx0SASwdEPBo4iXzERHBLjgqRhMDTRQDwYxDBVc9r9NmzF+jqOhHXL/2hFb/yDxrmj5grYqrD0Cku3Zk4eSRAo32uXLsL0qf/YibXF+1tLTTatyZs234E4adjsC90hdYkfJb98htatGiqVVNVtoYcwvPnL7Hi56lUh0IQBKH1alViRBvl5eVDeDgKUeduIC4+EXW+rQNHewacHGzQrl0rGOjrFY1mKUzYvH79Btmvc5GdnYvs12+QnZ2L3Ly3uHo1AfEJyYhPeABmJyuw+jrDpbs9evdypPpuKiXpwWNcuhyPxKTHSLibAokkAx8/fkI7eivQ6a3QzsIM7W3aok7dOmjcSJ7saNy4IZoU/Ft4vTBJ8qbwUur6vfsPkSJJR2rBxbx1S7Sjm6Grcwe0t6WjZw976Os3puxxcO3HxeZf/cHsZEVZDJrWso0nHiefQIP69agOhdAhJ0/HYM363bhy/nfVNFheYqSCAVvsUCkC1TRY5PzFWEz3+x+uXdypNV/+CO3HHrsEXTq3h/+cMVSHolZZ2Tmw7zIWh/etQWcnW6rDASBf8aWdhZlWFDfdvvM4Uh+m6+TKOQRBEFQgiRGKnD5zBQcORSL6wk2MHe0JVxcHONrboEUL1fwiKL6djAfJT7BPeBZ37qbC14cF32FucGBq32iSFEk6Ll2OR8zleFy6HI+mTQ3Rs4c9unbpCHOzFqDTW6FZU0O1x/Ho8VOkStLx7PkLnD57BZcux6OdhRl69rBHzx5M9HJxQIMG9dUeBwDM8t+AyROGwK6jpUb60xafP8vQqfNoiK/vQd26dagOh9Ah9xMfobc7F7FXQ2HWyoTqcKptd+gpnDh9CUcPrKM6FEJHvHiZjZ5uU7FxPQ/urO+pDkdj+g2chR85gzBqhDvVoQAA5i7YiE6dLCldDnfXX6dw+3YKfv2fH2UxEARB6BqSGNGw3XvCcez4eejpN8ZIX3cMGuCi9j7/e5GNQ0dFOHQkGq1btwRnzAC49e6s9n4r8/TZf/hzz2kk3E5Gckoaevawh0sPe/TsYY/vmhtRGltx8QkPcOlyPC5dFuPvmFtw690ZI4az4D2wl9r6XLo8BA0bNsDSnyaorQ9tdvrMFewVnsHeXQKqQyF0zPsPHzFx6gq0bUPT2aHj8QkPsHBpELp16YTlSydRHQ6hI+4nPsKgYf64FP0bTFs2pzocjZs+539oY94SC/05VIcCAJjJ24Bu33fEmJEeGu9774EzuPrPHWwNnKfxvgmCIHQZSYxoyMVLt7Bw6VZ069IRqwXTKSsymZKSjp+WbcVnmQwrf+ZqfO5x+JnL2P1XOO7ek2DcDwMwYawXTEx0Z4WVC3/HYfdfp3D+71hwRg/A2NGesLYyV1n7T9KeYdCweRBf31N0W2XD+AEAzHJqH6iUCDwaByiaMlD6evFdVTMFwX3QbKz6mQvnzu1VeD+I2mJryCGsXPMH1q2ehXFjBlAdjkKysnPw09JtSHrwGOtWztC5pbgJ6iQmPcLS5SE4vH8t1aFQas78QLh0s4OvjxvVoQAApsxYg35uXTQaz6Gj0YiKvo7tQYs01idBEESNISPUbu6CjTJv33myxKRHVIdS5NyFm7LufSbJBKt2aqS/bduPyNq195GNGc+XRUX/o5E+1Sk7O1e2JfigrEvPCbIRYxbLzl+MVUm7IzlLZRFnr5S4LcrPVGbqESxLVUkPqhAl8zM1lflFlbfJT2Zq6iELTi28WkHsqcEyD1NTmWm5jchkV/+5LfMYPEeVQRO1TP6797I5/gGyHn0ny67H3qM6nAp9+vRZtnbDn7K2jCGyA4ciqQ6H0DEvX72WWdgMoToMrTF+skB27MQFqsMoosl4jp24IBs/WaCRvgiCIGqib6lOzNRkubl5aO8wEoO8euL4wfVgWLehOqQifVydcPncDnTo2A693dW35F3E2Sto7zASHz58xD+X/sCeXb+A1beL2vrTFAODJpjJ9cU/f/+BBf5jsSnoAMZM4CND+m+V27x0OR60ls3h4d5NhZFqKToXEaFsQBiAEEnZzV27dIRdJ0tEX7ih+diIGqFB/XrYuGEuftvyE3aHnkKXnhOwcesB/PtfFtWhAZC/3rmz1oHB9IVMBjxMPAb28H5Uh0XomN7u03AhMpjqMLTGru3LsJgfjKfP/qM6FADyeA4djcbpM1fU2s/pM1dw6Gg0dm1fptZ+CIIgajKSGFGThDspsHUYieiIrVq9KozPYFdsCpgLE3MPPH7yTGXtPnr8FMNH/YS/9p9BdMRWzJ4+QiMFVKng5GCDY8L/YQzbA/0HzcbPK7ZDVoUZarfED6Cn16jqgUhC4EmjgScSgUejgVZw8QyRFG0rvI0nKnmoiPdlW9nt8vZKH1NtrFngM8UQbCm/YX29JogXP1Bxp0Rt06E9HUEb52PvLgGys3PRo88k+I5ZjOMnL2o8lvSMTKwLCIWd8xisD9yDPq6OeJBwCD/N0466CIRu4UxcjpXLuTBv3ZLqULTK2ZOb0H/QHKrDKLJ3lwC7/joF0bnramlfdO46dv11itTlIgiCqCaSGFED6dN/wZsfiLTkEzpRBI3ZyQoZqacwfrIAmf++qnZ7Bw5FYcQPizFt6nDs2y3QicdAFQZ4dMed2P1o1swIXkN4ePhIqtTxd+9J0KF99SuFCDkBYMRIIZVKEcNnQixwAc0lCf7SL7cJOTwUpiNEPBo4CIW0xHbPckdyqBYdljYAElNQXlftbdriXuIjdQdB1BJWlq3x85JJeHD7MKZOHIKwk39jKHsBfEYuxKp1u3Am8qrKR5M8SH6CvQfOgDc/EH36T4entx9kMiD82K84cXgD2MP74ZtvvlFpn0TtELh1P9rbWmikgLuuaW3WAgL+FEybrT0rOh3auxpbgg/h75hbKm3375hb2BJ8CIf2rlZpuwRBELVRXaoDqGlevnqNnm5TkXrvKNWhKKVevbo4f3YbWph7IC31FOrXq9pTY2vIIdy9J8H1S7tUHKHumD19BKZN9sH3vX7Epg1z0bOHvULH3b0vwezpI8rfKBbAhVb+r0FMfgwiuPRi14NQeJXu7g2mQAzwZ6Gwzqn8NgHCRYFgsUQIFzLBj/lSBbVwe5IEUGNFV3lfDCYgTEJ5XdnaWGDDpr3qDYColVh9u4DVtwvy8vLxz427iL2ViD/3nsZs/wA0atQQTg4MfN+lA+rVrQcjQz0YGevD2MgARoZ6MDbWh5GhPl5l5eDVq9d4+eo1srJy8PLVa7x6lYNPnz9DdO46bsTeB820OZyd2qOzky0mjh+Mjh3aUX3XiRogM/MlQnYcQ5L4INWhaK0hg1yxfedxXP3nNrp934nqcAAAYYfWw9PbD/Xr10PXLh2r3d6163ewZv2fiAjbqILoCIIgCJIYUbEBQ3g4fTyQ6jCq7Oypzeg/cDbOn92m9LG/rP4dHz98QvDmhWqITLfUq1cXcVdDMXj4PGRI/8VI36/XDjA20q94xIgSK8/YWJbdq7zb5FgIlBZbGkbEA61gGRkbBfpSJ1ubtjV2+hWhHRo3bog+rk7o4+pUdNuTtGeIvZWER4+kSJemISs7F1mvcvAq6zWysnPx6lUOOnag4+49CYyNDdDU2ABGRvpoamwAY2N9WLShYda0EXB2soWeXmMK7x1RU20KEmLODDbVYWi9aVOGIXj7Ea1JjABARNhGsAbMxLpVM+HkUPWzbOytRCxdHgLR6a0qjI4gCKJ2I4kRFfqJH4TZM9haVWRVWfZ21hg/dgCWCX7DCv5UhY87eCQaeo0bw99vtBqj0z0nDm/AlBlrQLegoUvnypffzMnJg/h2MpidrDQUnZwkxBMuAnHBNTZCY/gIcNHMXGVJkhhgepeb8Ll9NxXZ2bkaiYMgCpm3bklqNhBa6+PHT9j+x3H8m3aW6lC03qABLvhpaRCkT/8FzfQ7qsMpIjq9Fb1YUxG0aQE6VWEU2e27qeDND8Tfot/UEB1BEETtRWqMqEhyahrOnbuJ0SPcqQ6l2sb9MBDhEZcVrpGxT3gWx05cIEmRCmwPWoSFS7bi8tWESvezt7NCfEKyhqIqIAnBDIEY7FBpQY2RQLC+fpSqOkdKIgAby/ITI3dS0KmjpcaiIQiC0Habgg5gzoyRVIehM6ZN8UHwdu2b2vy36DdMnr4aSQ8eK3Vc0oPHmDx9NUmKEARBqAFJjKhI8PajmDbFp8rHF64K4qn+ipcKmTbZB8E7FPswMWvuhipWQy+5egqNRgPNM6TcQpxqIeKBRtNEkVFgzy4Bps5cU+k+TDsriDWeGEmCGGx4sUrfpgGiLRCImeDPKj8Vk3AnBXYkMUIQBFGkatNoJAjxpIFWwdJiIp6Gz73yTkucf0uvjFbxKmnKmTZ5GIJ3HFFNzCp27eJOjB7Ph+RhhkL7Sx5mYPR4Pq5d3KnmyAiCIGonkhhRgfcfPmLv/ghM4AyqWgOSEAQImWCzmRALtkDVq6JWxeQfh2Dn7jB8/lz5srNz5v2KwP/x8O23yq2sIAnxBI3GAYpGKkghlcaADwFcaDyteAxUqRXtO0wcNxiCNRV/oPEe5Ipr129rMCoAdAaYECK86AEXgVdQYyQxRY0fkyUh8OQISxSKLe3GzXvw8uyhvhgIgiB0SMwVMZwdbaGvX0Nr1zD5iJEW/0wghTSGj0ROxUmdr6lT51u4s76H6PwNFQerGrFX/oS373ykZ2RWul96Ria8fecj9sqfGoqMIAii9iE1RlRg7/4zWPLThCofL4kMgxg28J/FQKKwcLUQFQZYRct+mog9+06D84NXudvj4hPx8dNncMYMUK7hYtM3AkvcTzq4ETGApws4PC9IA7XgQVAh3uxR+JG7EskpabCybF1me1NjA4wZ6YGly0Owcjm35MZKVqUBmODHRIBbwdZK0bkI4ofBhUODsKgtKUK30MARzECIe0SFiQuFVRB72b//Fxu3HECvng4wa2VSzc4Jgqjt3n/4iPj4JMTFJ+HZ8xd4+EiKrOxcZGfnIis7B1lZuejUsR1u30mFkZEeDA0Z17rjAAAgAElEQVT0YGSkDyNDPbQxN0XLls1gb2cFByYDjRo1oOx+JKemoY25KWX9U4LORURoEmicAITMYlXpfNTarAUkkgygj7Pq41OB2zf3gcEcgUtRITAxaVpme2bmS7gNmElWISIIglAzkhhRgYTbyWAyrat4tASRYWKA7Q8WnY4UpgCCcBECy8mMiHg0FPyYD4AJPt8GAkGi/EtxwYeFkoU0yy7lqgwDgyYQ30mpcHtsXCKaNG6odLuiLQKImXwElfulmA53byaSLEturPx+icCjcYDQUIDDQeFDVPqLd8k25I9faV/vJwAMvg0EAiEANkKVrMnRqGED3Ii9V25iBABmTB2Orq4TMXa0Z1ERX1agFFKFFjriIkJaKj1C//ptdG4ESu+CEn2yECgtXm+m9PXimwJRfJPisX+Rl5eP9Rv3ICP1lHIHEgRBQF7I+vTZK4i5Eo9b4gdITn4Ce3sGHO0ZcHKwhaODDYwM9WBoqAcjQ/2iZEj261xkZeUW/JuDrOxcvH//AbfikxAecRm3xEkwa2UCeztrdO/aCay+XTSavE1NTUe7dmbq70gSAk8XQYkplZWfT1V/riyBNQt8pgsEW0TgVuEHk3YWZkh9mF7V3jUiSXwQdNuhiL0aCmMj/aLbX2XloKvrREjuH6MwOoIgiNqBJEZU4NGTp/Ae5Fq1gwvrLBRkCdy9mRAIyv4yIk+KFPtwUbSsKrNoH/kHFYAfI5UfKwmBp4sLPFG15EjbtqYIj7hc4faEOyn43rmjkq3KC24yvd0rXHqWzo1A8e/Sit4vIScA/BgppPSCYzieYBQkjb48fhHVfPzEEIR5I0YqVWjp3NIc7RmIi0/CaHb/Cvc5sn8tZvE24KhwXRV60H1TZ61F+LFfqQ6DIAgdczTsAg4eEeHKtQTMmDoc3zt3BHeST8XLoJdiaCBPkJQ2fGjfov8np6QhPuEBnjx5Bk9vP5iaNsfwIX3hM6QPmjdT7/LiKZJ09Oxhr9Y+CpMiNqFSRBTmIEQ80Dg0oCA5oolzZUl0WNoASEyBBCyl26Nb0BB17nq1o1A3yf1jMLMchCTxQTRp0ghv3rxFp86jkZ5ykurQCIIgagVSY0QFHj1+irZtqja8VRQuBJjecC8409O5/mBDjLDIYvUdJCEIEALs0GK/uLACEVqi/poIWwTikjUb6FxEhLKrXLfEog0NDx9XvDJNwu0U2HVStjimBEliwMZS0Y82it+v4vvQ3b3BhBhJEqj88assqfM1DvYM3IpPqnSfVrTvsG71THRxqfr0LF3FnbUOw4f2hb1dVUdgEQRRmzx6/BSL+NvQ3Mwd4RExmDB2IJ48OIGF/hz8MMpD4aSIoqwsW8PXxw3+fmNw++Y+rPqZi9SH6ejm+iOGjJiPiLNXVNpfcRoZMVJeQW5WIKTSwhEjmjlXlkZnMAFxUpUKxNItWilc4JRq6SknYWE7FHl5+bCwHUqSIgRBEBpEEiMqYNbKpGqJkYIv7CU/PLDgxUbJDxjlfVABwPIq9s1eFA4hmPB2L/UxpExxTcVZtKWhFe27CrcbGDRR2aohZSvSFxRgVeJ+lUi20C1RNFFGxY+f4kmdshztGWiswPQjq3atsfdPAaw7Da9yX7pmIncl+rg6wntgL6pDIQhCy7179x7zFm3GUPYCdHXugOePz2BnyFL079dVo3E4d26PdStnIvnOEfBmjcbxk3+DNWAmLl2OV3lfLVs2gyVdzYkRlhfYEIJTURF0DZ0rVYlu0Qo00+ZUh6GwzCdnwB67BJlPzlAdCkEQRK1CptKowNNn/yFVkoF29FZKHScvugpA4IKytSmFRUVYJSmJAMrWwyhLDIELDeWV6FTk6NJSJOl49uxFhdvz8vIRF58ER3uG0m0npkgAVrF0UPFaFCIeaJzie1fvflH1+JXn+o27eP/ho0L7WrVrjcvnf8cQ3/ng/OAFH+/eKopCu0if/otfVv0OL0+XGnsfCaIimZkv8ST9OdLSM5GW/hxp6c/xKisHb968xdu3+Xib/x5v8/Lx9u07vM1/h7dv3yHv7Tt0drTBzbhENG7UAI0aNUCjhgX/Nm6IRg3ro1GjhmjSpBGMjfTR2qxFwcUE5mYtyi3wqEsCNu3F+sC9WLWciw1rZlMdThHXng5w7emA2FuJ+GXV7wjcsh8/L54IpopGwD3PfFlh8W7VYSFQGgOGpws4tKKiZqVqjKj/XFmaJEkMML2rNAIlOTUNz5+/VHlM6nTySADVIRAEQdQ6JDGiAnQLM0gepiuZGCksuhpazuor8mKiwoIirHRLRT9qMEsUYq2urw3bdXSwQdytRCUTI/IRMcKwSEi4XAU/5FTvflH1+JXnn5t38X3nDgrv/11zIxzcuwbTZq/FvgNnsDVwPlq2bKa+ADVsU5AQ23cex45ti9G9ayeqwyEItfj8WYa4W4mIvZWIJ2nPcPe+pCgRYmxsAPOCpEVrsxZgWJmjWTPDgkRHQZKjccMSyY/GjRqgYcMGyM+XJ0mKJ03e5hUkU97m423+O7x4kY209OeIFychLT0TT9Kf49Wr10WJkg7t6TA3awknBxs4OtgovfS6JmX++woz56yHnZ0Vnj06TXU4FXJysMGJwxtw/mIslq/eic4ONliysPpTIxlWbZCU/LgKiZGCGh2VsbEsdj6mgxshLVrpTMSjgVNYswuAJs6VJclrk5WMUXEpKWmwVGsyiSAIgqgJSGJEBSzpZkiRpKOf2/eKH1Sq6GpJLMziMyEsKsLKABNll/GVj4QoPEQ+/DVJAqhqUm9yahqs2lX8YcLJwQYXL8Vh0gRvpdplzeKD6SLAFhG3wuVav+ysgvtF0eNXnus37oHtq1xV/fr162JnyFJEX7iJPp7TMXPqcMzg+qonQA25lyjBlBlrwerjjLtx+6kOhyBUKunBY8QWJELibiUh4U4yHB1s4FRwcWd1LUqE1KtX9dNww4byBAmMlTvuw4ePBaNTMpH570vE3krE4ePnEHcrEXYdreDowCiKtXB1LKpFn7+B6XP+h8vnf1d7kVNV6ePqhD6uTtiwcS+8fecj7ND6arVnZdUayclpgKfyx9IZTEAQDlEgq9TqMCKECwEmv+ITHyswFGwhR35+1NC5smSIlX1e+rrk1HRYaWI1H4IgCEKnkRojKtDLxQG376QqdUzpoqulFRYPDYuUAHQu/NmAkFNszq+IV2KpvKJkCscTIcWqk8lrd5S8TVEJd1Lg2tOhwu3DhvTBlWu3lW+YzkUQnwkhhwbPUoGJeDT5ajFsr4IPbyq4X0X9FdtfA49faa9fv8HDRxnwdO9epePdenfG/VtC5L19h+Zm7ljE36YzBeUKnQi/hAFDeAjYuB+/bfkJy5dOpjokgqi2z59lOH7yIn6cugKu/bgYN1mAy1cT0MGWjsD1fniREYWoU1uwdsUM+Pq4wbWnA+gWraqVFKmOevXqgm7RCq49HeDr44a1K2Yg6tQWvMiIQuB6P3SwpePy1QSMmyxAr35c/Dh1BY6fvIjPn2WUxPvrpn0I3nEUSQmHdCYpUtw8vzHwnzMaphZeSE5Jq3I7DCtzJCU/qdKx8sLuQnB4JSuHiHgcCMGGf+HwDxGv7DmvoK4Igw5o4lxZgiQEnhxhyWKvSkpJTYNlJT/yEARBEAQAQEaoRJeeE2RJDx4rtnNqsMzD1FTmF1X5blF+pjJTUz9ZVInrhRc/WVSUX4nt8qY9iu1jWma7ou7ek8i695n01f2Ohl2QTZgiqEIPMplMFiXzKxFrxfFWfr/k7ZR8PMveVrIND1lwsJ/839Tq9KO4AUN4sstXxVU7uJSPHz/JgrcfkTl248iGjVwoOxN5VSXtqkN+/nvZ5m1Cma09W8aZuFx25VoC1SERRLXl57+THTwiko0Zz5c1pbFk4ycLZEfDLsjy899RHZpK5ee/kx0NuyAbP1kga0pjycaM58sOHhFp7H4ePCKS+S0I1Ehf6vb2bb6s34CZsvSMzCodH3srUTZ15ppqRJAqC/Yodc71CJallt4tyq/UebDkeVImU8G5Mqrk+bfk55uSl6qecwvN9Fsvu3btTvUaIQiCIGq8b2QyGTU/AdUwBw5F4eKlOARvXqi5TguKlIZKA1G1AaYVmzxjNfq7dcVwn75f3ZczcTl8h7EwaICLiqOoObaGHEKG9F+sEUxXedvRF25ixx/HcedOKro4t0ff3s5w69MZpi2pq8J/P/ERIqP/gejcdXzz7Tew72SNaVN8KI2JIFTh4qVbOHQsGoePnsNgr57wHtQLXh49qA5LY8LPXEbYyb9xIvwShg/tA18fVqUjC6tjxx/Hcff+Q2xcz1NL+1RhdvkBJ49sgHnrlkof6+nth5+XTELXLh3VEFnNc/eeBFNnrUVM9HaqQyEIgiC0HEmMqNCosUuxdeM8NGtmpNqGJSHwdBHApkRVeHmB1kR+DCJUXAEtM/MleAs2Yu/u8mrOl/X5swzew+dh+7ZF5ItvOc5GXcORsPPYvnWRWvt5/foNoi/cxLkLNxB9/iaMjPTg1tsZzp3bw9qyNawszVGnjupnz7179x5JyU/w6JEU5y/GIurcdRgYNIG72/dg9e0Cl+5MlfdJEJp2NuoaNmzaiyaNG8Jv5ij07uVIdUiUu/B3HDZu3Y83efmYN2eMSpfKvXHzHpb8EoLIk5tV1qa2+PDhI1q1G1il5VijL9xE8G+HcXj/WjVEVvNMnbkWbn06Y8QwVf98RBAEQdQ0JDGiQk+f/Qc3z5m4d+uA6hsX8eS1N4opuXye6rRr74Mbl3ejqbGBwsd8/PgJds5j8HvwYnTvaqf6oHTU9p3HcSoiBicOb9B43/cTHyH6wg3E3UrC/aRHSE55grZtTGFlaQ6GlTnsOlmhXr260NdrDD29RjDQbwJ9/cYF1xsjNzcPObl5yMnJw+ucN8jJkV//8OEj4sUPkPjgMR4kP8HzzJdgWJnD2ak9OnZsh359u6AV7TuN31+CUIfjJy8iYNM+tKJ9h3lzxqCzky3VIWmdm7H3sWHTXqRnZGKe3xgMGeRarfaqkzjQFYlJjzBh6kpcvfC70sf29ZiOgHV+cGCqZhngmur585dw7c9FYvxBqkMhCIIgdABJjKhYpOgf7PzzBIR/raI6lCoZ6DMXi+aPR49uVUtueA2di9Fsd4wZ6aHiyHTP3AUbUa9+XaxbOZPqUIqkSjKQnPIESclP8DrnDZKTnyAnNw+5uW9LJD/s7awQn5AMfb3G0NdvXCJpYmXZGkZG+rCxbgNrK/MqDQcnCG2XmfkSC5cGAQD854xGxw7tKI5I+929J8GGjXsBGbBu1QyYmDStUjtTZqzB6JH90btnzR6Vs/uvU0hLf45liyYqdVz4mcvYL4zEnl2/qCmymmHJz8Fo1coE06cMozoUgiAIQgeQxIgaRF+4ib/2nsbuHXyqQ1HY58+f8cOE5Zg5bXi1R3zM5G3A+/cfsXL5VJh8p+Q6kjXAxUu3sPuvU+jV0wETxg6kOhyiGj5//oxvvyWLd9U2R4+fx6KfgxERFgh621ZUh6N1vva6kDzKgKc3D2t+mQafIX2UavtB8hOMnbgc//z9R3XD1AmmFl54eP+ofNllJUzkrsKCuWPAsG6rpsh028ePn+Az8iecOFy9JZKVQc4XBFEWeV0QuoQ8U9XArXdnsPp2Qf/Bc6gO5as+ffqEx4/T4DvaH8OG9IC9nWW129waOA+e/buhp9sUCNbsVEGUuiFFko4RPyxB4JZ98PcbQ5IiOuzTp094/vw50tLSkJaWhry8PKpDIjRk7oKNCD97BUnigyQpUoqirwt621ZIEh9E+NkrmLtgo1J9bAoSYs4MtgJ7ShDiSQONVnbZ9yIiHmg0GmieIaj2KrLlLWOrAvP9xmD9xr1KH7czZAlc3Kbi48dPqg2ohujJmor/rZqhkb7I+YIgyiKvC0IXkcSImvwwygMrlk0Bje6FB8lPqA6nQjGXYzGSswQrfp6Frl06IicnB58/f652u0MHuyIp4RD0mzQGje6FQ0fPqSBa7fQ88yXmLtiIUWOXYvKEwTh+cD06tldtQVxCs7KysiCTydCyZUt8++23KntdENpt+KhF6NTJEjuDl1AdilZS9nWxM3gJOnWyxPDRihWefvEyG2ejrmE0u79ScYnDIstNfIjCheXcql3mzhmNXzftq9Kx//z9B77v9aOKI9J93Fnr4DeTDRuGZkbTkPMFQZRFXheELiKJETXq4twBqXePYs363Zg2ex3+e5FNdUhF7txNwfDRi3Am8goiTwWhhYkh6tSpA2NjY2RmZqqsH97sUUi9exS376bA1MIL8xZtRnzCA5W1T6VDR6MxlL0AI35YjE6dLHHj8m70c/ue6rCIaiicWZifn48mTZogNzdXLa8LQvv0HzwH438YQEZ6laM6r4sJYwdi/JgBCo2gPH7yIsaN9VIuODYbbHEYIstkRkQIF7LBVmTwCcWmTByCg0dFSh9Ht2iFlT9PxejxujNtV92CdxxBU2MDsIf3U3tf5HxBEGWR1wWhy0hiRM0aNWqAXdv5cO3piG6uP+KXVb+DyrIuz57/h4nTVmHZL9swcdwAzJ0zBllZWfjw4QNMTEyQn5+v8vgaNWoAwbIpeHj/KGwZbcGbvxEublMQvOMIct68VWlf6nYj9j785v0KE3MPREVfx5wZI3ExMoR8maoh/vvvP2RnZ6N+/fpqf10Q2kOwZic8WF0x0KtnsVtF4NHkUzUqvowAm0YDT/nvtKon4qktjuq+LgZ69YQHq+tXp1Ymp6TBpLmydam84MUWI6x0ZkQUDiGTAUZ5hxROsaFVPBVHEuJZbB9PhKSUbabkPpVM6fmKlibNkJj0uErHevbvDlYfZ0ydSZbv3b0nHDdj72O1YJpG+iPnC4Ioi7wuCF1GEiMaMtK3H5LvHIGhoR68hs7FpOmrERX9j0b6zsnJw66/TmGgz1z4L9iE/n2dsGmDH9z6fA9jY/mH0E//b+/O45us0gWO/5KmSfckLWkhAZRQSmVLCyIKdcMCMoiVAQ2OTt21V3BhdGbEkertLOq9w61eXOo4Xmc641IUEUeEwaqgFceRpUUEylIQ2rTpmq1bmuX+0TZtSYECbUPb8/18+mmTvO85T0KfHPrknPO63dTU1FBXV+e7r7eFhCi4584b+eKfr/Damic4caKSu+77T65KfYAnM1/lk83bsdnq+6Tvc3Wg+Bh/fnMDd96XRfzExfzh+f8jOTmRsiMf86eXV3LNVYP7qglDhdfrpaamhsbGRkJDQ/s1L4TA+mzrDvbsOcSKh2896ZFUsk0mTO1fBZkYMJBZ0Ok+01ryTH1z2fSzk8+K9N5fNtKbebHi4VvZs+cQn23dccpjjpSUMVZ/9vu6pC4w+i2nyd+YhyFtLn67ZuWvQJuehzG3/d8wl8SsFLSdqkr5K7SkZCWS2/7vnJtIVlbX17ckZz4pWXT8PhRkQlbKORVHEhJGc/DguS+5vfuOhSyYP4ubb3vynNsY6P70xods3PQ1b+Q81ed9ifFCEPyJvBAGA1mgAxhqHl2+lEeWGfngwy94/c2PuH/Zc9x+6zyunJVMkiGh167i8v0PRzhypJS3127hX//+niU3zWblL+9kxvQJmM1mXC4XHo8HuVyOVqvFZrPhdruJjY0lJCSkV2I4nYkT9L5Pdb7/4QgF2wt5K28z//HI81w0ajgpM5OYMX0CI0fGoR+jQ62K7POYjp+o4EhJGWZzDZs//RcF24vQaNSkzDSwKO0aVj//CDHRyj6PQ+h/brfb92lGIPNC6F9NTU5eenUt6/P+K9ChXJB6Oy/ef+c5Fhl/xazLpxASIvd7vORoGfox57DhrX48hqJiSoDW3Z3y2ZhnIK1AD8VdeiBndR6GzIJOxaxUsnON5KWvJuehVDLIYXUeGHOz6Tgkm1xjHh21p3zWZBVhyCwgo307KX0Gm3KL0aavIT+j07k9kBA/moOHz28vshsXXElYqIKxE37K55tf4aLRQ+cy6o8+/j8oQuS899Yf+qU/MV4Igj+RF8JgIAojASCRSFi8aDaLF83GYrXz3gef88ZfP6Kw6CAymYxkQwLJSQmM1Y8kKioctSoKlTICtToSlTISq82BxeJo+27Haqunvr6Bb77dS9GeQ+zZe5hJE/Rcd+107rvrRtb+/fd4vV4aGxuRSCTExcVhNpupra0lLi7Ot/YvUCZPHMvkiWP5j/sWAx2Fki++2s3evYcpOVqGx+NFP0bLmDE69BdrmXCJnqAgKeHhoUSEhxIeFkJ4eKjvdlhYCPX1jdTXN2J3NFLf0IjD0eC73dDYxL59Ryk5VkZJSRklx8rQaWMZq9dx+WWTRCFkiGjPC4VCccHlhdD33ln7T8ac15Vn8lmhTYfctlkjJTnMT8kiMTcX0tNp/zvakFnAprlbmJ+SRVHbfcbcrjNNWmcgFPluGzIL2JSh73xAl/N9beg73Z+uJc+QScGmDPS0znzoPJGkS5+nifWTOVtYdP1qdjY1IZVK+flL23lwWi1xDR9xw1UbSMtNY0N6Ryx+sZ7GxaNH8O77n3Ln7f57iWhHDDvHwshc0gxZbMzPJjWVtmU0aRTo6bopa8kWNhRB4mMnxaofj4E8iksAiinCyGMnVTZSFxgh70DrjfyN5GEgc2537XSKo4fGxY8iLja65yecQursy/ju678w+/oHyXzyXn6ads15t3mhm3PDQ9x+63zuuO0nfd6XGC8EwZ/IC2EwEYWRAFMpI7nvrjTuuysNAFN5FbuLDrK78CCfbN5OTY2VOosNi9VBXZ2dSRP1fL/3CCpVBMqoCFSqSJRR4YxPuIhpyYncfcdCpkyKRyKR+PrweDyYzWZaWlqQSCTExsb63rzMZrPvzetC0V4o6cxqc1By1MTRo2WUHDPx/d7DHCkppb6+EUd9I/UNTb5CiKO+kalJ49lddJDw8FAiI0IJDwslIiLMd3v06BGMGhXL1Vcmo9fr0F+sIyhIrCwbSgZaXgi9b+fuA9ydvrDX281LX926xELfXvBIQZtlJNdkorV+Mp+U9BUsMGV33G5blpGhp61okcJ82goOviKGiU3tf3Dnr0CbroVcE5tM8V0LNLQVRcjFZGq9o7XP+Ywv2ETnGsbJsV79+6uZ+dd0Vn72GWskEho2Lmfu8v9hxvZfMM0K0qC9ZKUXYWyPJX8F2vQUVsT3bEnRrcZ5/P2dTd0WRkzl1ec4a0TP3DQDWRvzyU5NbVtGU4AeenaZXn08iW0/lhw+AL5bp1NEVoqWrG4e6cnZnR06fAJzZe1ZntW9aHUUhd/+nXsyfseevYd5ZJmxX2Zc9rcP/7GNV3LW8WzWg1w67ZI+70+MF4LgT+SFMNiIwsgFRjtCg3aEhgXXz+q1Ni0WC1KpFJ1OR2lpKZWVlV3evJxOJ6Ghob3WX19QRkW0zqQxJAQ6FGGQGAx5IZyfrV/uYuUv7+z1dg2ZL/uKD/q5aRiyiiDzId/yitb72mcW9GBZRkk3sxhSszGZsk8RQetSksyCjhPa+yzuWG/SbawzX6tAdscSFrTlRdi0+STJ/put+55nqhpkCgWGx7d0FEFSsynIPEDK6hweSs3gTPNGRgyPYeuXu7p9TD9Gd87LaVqf30bys/UcPmAg7aGzuGR6yWHayyH6+J6WNQxknlRkOlfFh35k/LiLzr+hTt7IeYq89z9l2hXp3HH7Ap7+zb292n6g7Ni1nyeffhXdCA3vv/ssUZHh/dKvGC8EwZ/IC2GwER+RDwHNzc2EhYVht9uJiIhAKpVSWVmJ2+1Gp9OJNy1hSBJ5IYy5WItOq+n1dhPj/f9a7u4+wLcsI63bZRl5bMwHUhdgJI907Qp6duGZVLJNnf5oz1+B9qRlOKeKKzgkBN3F8R15IQG1TofE60YXDc6GBr9z9PGJ0O0lc/2NGhl3yv0vxup1HCkp68Hz64Z+LmmGPDbmbGFDUSLdvtz6uaQZ4MDhkwItKaYIA+P1dH3dOx9y+EDHjdQFGClqW3pz/g4dOsG4caN6p7FOjEvmULJ/PUplBDG6ObyU816v99FfKipquPuB37Jy1Sv8/ukM3vzTqn4rioAYLwShOyIvhMFGFEYGMZfLBUBUVBQKhQKHw0F0dDRyuZzg4GA8Hk+AIxSE/ifyQmh3/ISZ4ycqAh0G7csyulwKuEshI5VsUwGZhjzSOx1zusvzdrmUbDrkFmRiOE0E7XlRX1ODR9opL2ReXE4nEm97XrQVEM7RsR/LKS2r7PaxhHGjqayuO8eW9cQnQl5WFkXGBafY/FRPxmNGirJSOr12bVf0MT7WWkjSZ/BypoG89Pn4LjCTv6LL/i+QykMnH0Pr8iWttut9PWGuqiUxoXdnjHT26PKlVJ3YgtlcS8LkJeS+9QkWq73P+utN+/Yf5YU173Lt/AdZuOAqPt24humXTui3/sV4IQj+RF4Ig5VYSjNIeDwe7HY7SqUSr9dLRUUFTqeTkJAQNBoNjY2NeL1ebDYbTU1N6HQ6pFJRFxMGN5EXwunMvuZSjv5YzuhRgb6CR0+WZejJ2GQio+1W/got6d3sGQJASQ7Lsor8Nltd3fajx+PB3tC6EbgEL+XlbXlhBWdjI1JPS0detEioKytDE9Q7n/yVHCvjumund/vYTQuvZvqsO1n1xN3n1HbrBql5GBecZrOT1GxMuaBN13bZcNbU6UXUZ2yigPmk+PYQMZCZaSQr68BpjgEwkms6uyvSALz25/XUlfdsLtC5kkol/PbpB3h4mZGc19eRPCOdy6ZPwLg4lZ/edG2f9n22rDYH7+Rt4Z21W3C53dx3Zxr7d/f+5ahPJsYLQfAn8kIYSkRhZJBwOp1YrVZaWlqQy+V4vV7UajU2mw2z2UxsbKyvqhsTEyPetIQhQeSFcDrzUmeQ8/oHXJ2SHLgg2pbJnLz3xxlPy87FmJfe/Xnd7UlSUkwRrftoOJ1OrA0QFRdHsMvekReVrRSutzIAAAyGSURBVMtmXEEhHXkRIcHjdndqqIgNW0rI6FRIyN+YB4ZMTl4N1J0/vfEhd/38hm4fi1ZHMX/eTN56dzO3Lb3+DC11LRQB3e67kpptwnTyqafdn6Wt9YxNmDK63peRceZjztbqF9/isUduO79GzoJmmIpVK+9h1cp72JL/LXnr8rl/+bMYl8xh6c1zuHJWUr/F0pnH4+XjTQW8s3YL3/zre241zmVN9uNMmRTfbzGI8UIQ/Im8EIYS8ds7SLRXbhsaGrBarSiVSqKiooiLi8PtdlNZWcmwYcPQ6XSEhYUFOlxB6BciL4TTuX7uFUikrRs6Bk4PlmXkr/BfotG2N0nnZS2+vTP89sloWy7SdkxISAiaKAiJjCTY2SkvVBAkkxHS1CkvFF6/iIuylnVZZtK6EuXMG6/u2LUfaZCUeXMuP+UxDz94C//7ytoztDR4/PGFt3n80Z8FpO+5qTN449XfYP5xM7OumMILL+ehGTWPuQsf5tdPvUTe+59y6PCJPul73/6j/O3tTfziVy9w9ZwMkmbczrr1n3PHbT/hWPGHPJv1YL8WRUCMF4LQHZEXwlAiZowMIqGhoWg0GqqqqnA4HISHhxMcHExcXByVlZW+qW+CMJSIvBBO5+03f8vI+IUUF60lPDwwG8WdcVmGPhtT7gq0XR7vvPwmlQVGyMtKQbshk4JNGbycuYEU33IRA5kFJnLXaEnPWkbO3E1kyMFaXs5IvB15EQS1paWMwnPavDBmprGhUyxdluycQn19Izfd8itKD//jtMcljBuNYfI4tn65i2uumnr6Rge4v/ztYx68/6eEhCgCGkdQkJSfGefxM+M8XC43uwuL2V10kC+27WL1i29jKq9matJ4Zl9zKV6PF5UqApUqCpUyApUqErUqsvU+ZSQWq526OjsWq4M6iw2LxYHFYsdisSOVStny2bfsKixmrF7HtOREkpPGc2f6DUyeOBaJRBLQ1wHEeCEI3RF5IQwVEq/X6/9xkDCgeDweLBYLLpcLlUqF2+2mqqqKsLAwhg0bBoDX670g/tMhCP1F5IXQUyVHy7j5tifZuf2vgQ6lz51XXpTkMD8li8QeFEJONm3mHbz31h96dCnelhYXurE3UHl889l1MoAcKD7GXQ/8jm+2/jnQoZxRfX0juwqLOVxSxonSirZihw2LtbXoUWexY7E4mDRRz94fSlCrI1EpI1CrotqKKJGoVJGMHhlHwrjRTE0aj0IhD/TT6kKMF4LgT+SFMNSIwsggUFFRgUQiQS6XExERgdfr9b15hYeHExMTc8pznU4njY2NKJXKfoxYEPqeyAvhbOzbf5SVq17mndzfERY2eD/5Oq+8OJjDrYvWMPrFH3pcGGloaGJp+lM899tlTLhkTI/j3LFrPytXvcKnG9f0+JyBwtniYtTYGzAP4sLPQCPGC0HwJ/JCGGrEHiMDXFNTE06nE41Gg1Qqpby8nPLycrxeLxqN5ozr/axWK06ns5+iFYT+IfJCOFsTLhnDM6vuZ9zkJXywYWugw+kT550XDSAP7flyow82bGXc5CX856r7z6ooAnDp1EtYevMcHn5s9ZkPHmCmXZHOzm9yAx2G0EaMF4LgT+SFMBSJGSMDlNfrpbq6mvDwcKqqqpBIJAQFBaFWq6mvrycoKIjo6OgztmOxWGhoaECr1fZD1ILQt0ReCL3hnozfIZPJeO2lJwIdSq8IRF48sPw5XC4Xb+Q8dV6xr/9oG1u37eTF1b84r3YuBA0NTdy45HH+9n/PMGL4sECHM+SJ8UIQ/Im8EIYyURgZgLxeL1arFbvdzogRI/B4WjfKk8vltLS0UFNTQ2xs7Ck3QnI6nZjNZiQSCVKpFJfLRUREBMHBwb6voKCgfn5WgnB+RF4IvWntunze/+BzZs008MgyY6DDOWf9nRcvvpzH198UsWTRbG5ZfJYbkZzCiy/n8eVXu1n37nO90l4gbP1yF7fdlcmXn77GWP2Z91kR+pYYLwTBn8gLYagLeuaZZ54JdBDC2XE4HFgsFoKCglAqlchkMiQSCRUVFTQ3NxMTE0PoaaY7u91u3xuUx+PB5XLh8Xior6+nubmZiIgIcR1yYcAReSH0pokT9MybM4Mvtu1kkfHXNDc7SU5KIOQC2zTyTPojL+yOBp7/Yy6LjL/CMHkcz2Y9yNTkxF57DpdfNgmNRsW8hQ9zq3HegNsD5o8vvMV7H3zGv796k2h1VKDDERDjhSB0R+SFMNSJGSMDVF1dHTabDbVaTVRU63+0PB4PEonklLtDO51ObDYbCoWCyMhIAFwuF2VlZQwfPhyFQiF2lxYGNJEXQl954aV3eWHNuyy68WqWZSwhfuyoQIfUY32VF4cOH+eV19ax/qNtPPrQUh5dvrRPn0dVtYVlD/8Xk6fEs+qJu/u0r97w+bYdvPTqe0xLTuQ3v74r0OEIJxHjhSD4E3khDGVixsgA4fF4qK6upra2lubmZlQqFRKJBKvVSlBQEAqF4oxvWhUVFchkMmw2GwAhISFIpVKsVityudzXhiAMFCIvhP5y+WWTePShpVRU1vLaG+t57o+5mExVhIeFoNPFBjq8LvoyL77b8T3vvPcpjz2xhsI9h0mZlcRfXs/k8ssm9fnzCg8L4ebF17Fz535uuuWXqJQRTOvFmSm95bsd+3hg+bPs2l3M00/ew829tKRIOD9ivBAEfyIvBKGDmDEyQFRVVeFyuYiKiqK2tpaQkBA0Gg21tbU4HA60Wi0ymcx3vMvlAvDdV1VV5ZsaZzKZ8Hg8KJVKVCoVVVVVREdHi3V/woAj8kIIlJKjZXy86Ws2bv6ao0fLWHD9LG74SQrXXTs90KH1el7sLixm+79+4IOPvmJqcjwzL5/KDfNnoR8TuL0ynC0unnomh81bvuHp39zLwgVXIg+WnfnEPvT5th28/e4/OV5q5ukn72XWFVMCGo/QlRgvBMGfyAtB6CAKIxcgj8dDZWUlSqWS0NBQvF4vx48fJzY2loaGBlpaWlCr1TgcDmJiYmhpaSE4ONh3vtvtpqKiAoC4uDhkMhlms5mIiAgcDgfh4eE0NDTQ2NiIWq0mMjJSVHKFC57IC+FCVVVtYePmr/n4kwJKy8yEhYaQnDSeacmJTE0aT+L4i/us797Oi8NHSvluxx727j9GyZHj1FnrGT0qlpQrJjP72su5aLTugsqLE6VmXnt9Pa+/+SE/uX4Wtyy+jvnzZvZb/99+9wPvr/+cdes/J9kwngfuXcTc1Bn91r/QPTFeCII/kReC4K9zXojCyAWqurqahoYGNBoNoaGhmEwmvF4vQUFBxMbGYrfbaW5uJjbWfwq31+ultLQUj8eDTCYjLi4OaK3y1tTUoNPpMJvNvrWAopIrDBQiL4QLndfrpXDPIXYXFrNz9wF2FRZz7MdypiaNZ2rSeJKTxhOrUTNSF8tIXSwy2fn/np1tXrhcbkrLKiktq6Syqo59+w5QcrSM4kMnkAbJMUwex1RDAmP1w7nqysuorKwcEHnx4T+2sXbdZ3z1dSHLM5agHaEh2ZDApIlje62Pg4eOU7jnIMdPmPnr3zei02pYsmg2ixfNRq2K7LV+hPMnxgtB8CfyQhD8teeFKIxcwDq/eUHrdDWFQoFcLsdutxMXF4dCoej2XIvFgs1mQyaT4fV6iYuL81V65XI5brcbrVYrdocWBhyRF8JA09TUzK7CYnYVFlNaWskP+0t8hYnoaCWj2ook7V/DYpSEhoUQGqogLLTr984/NzY209DYRGNjM5WVVdjtdoJkChobm7DZrDidLmy2Rqqqazj2YxXHjps5UVZJba3V19fES/SM1MUQP3YEiQkXExwsG/B54XA0sHHzdr7+pojdRQc5UHyMpCkJJBkSuHRqInK5HJUyApUqErUqEpUqApUyEovVjsXiwGK1U1dnx2J14Gx2snvPQQqLDlK45xAXjR5O0pQErpgxmdTZ0xl5ge0vI3QlxgtB8CfyQhD8VVdXi8LIhcjtdlNdXU1zczNSqRSPx4NGo0EikWCz2fB6vURGRhIWFuY75+Tdnj0eD6Wlpb4pcR6Ph7i4OJxOJ83NzURFRYlKrjCgiLwQBqPKylpOtBVJ2r/q6uw4HA1dCh/t39t/npacyM7dB4gID2X0qBiUUWHIg4NRKOQ4nV7kCjnR6nCiosLQaIYxUjeckbpYRuli0WjUQyovXC43hW3FjfKKGo4eK8NidWCx2KmztBZDJk3Us/eHEl+RRK2ORKWM4KLRIxgeF0OSIYGkKeNQDLDLNQ9VYrwQBH8iLwTBX+e8+H+AMZr7owPd2gAAAABJRU5ErkJggg==;" vertex="1" parent="1">
          <mxGeometry x="-40" y="20" width="1094" height="686" as="geometry" />
        </mxCell>
        <mxCell id="IQfeueKZzxO45EZ7t45Q-7" value="1" style="text;html=1;align=center;verticalAlign=middle;resizable=0;points=[];autosize=1;strokeColor=none;fillColor=none;fontSize=16;" vertex="1" parent="1">
          <mxGeometry x="720" y="140" width="20" height="20" as="geometry" />
        </mxCell>
        <mxCell id="IQfeueKZzxO45EZ7t45Q-10" value="" style="endArrow=classic;html=1;rounded=0;fontSize=16;" edge="1" parent="1">
          <mxGeometry width="50" height="50" relative="1" as="geometry">
            <mxPoint x="590" y="343" as="sourcePoint" />
            <mxPoint x="90" y="363" as="targetPoint" />
            <Array as="points">
              <mxPoint x="560" y="343" />
              <mxPoint x="350" y="343" />
              <mxPoint x="350" y="363" />
            </Array>
          </mxGeometry>
        </mxCell>
        <mxCell id="IQfeueKZzxO45EZ7t45Q-15" value="1" style="text;html=1;align=center;verticalAlign=middle;resizable=0;points=[];autosize=1;strokeColor=none;fillColor=none;fontSize=16;" vertex="1" parent="1">
          <mxGeometry x="570" y="320" width="20" height="20" as="geometry" />
        </mxCell>
        <mxCell id="IQfeueKZzxO45EZ7t45Q-16" value="1" style="text;html=1;align=center;verticalAlign=middle;resizable=0;points=[];autosize=1;strokeColor=none;fillColor=none;fontSize=16;" vertex="1" parent="1">
          <mxGeometry x="100" y="360" width="20" height="20" as="geometry" />
        </mxCell>
      </root>
    </mxGraphModel>
  </diagram>
</mxfile>
